<?xml version="1.0" encoding="UTF-8"?>
<svg xmlns="http://www.w3.org/2000/svg" xmlns:xlink="http://www.w3.org/1999/xlink" width="169pt" height="272pt" viewBox="0 0 169 272" version="1.1">
<g id="surface1">
<path style="fill:none;stroke-width:0.015;stroke-linecap:round;stroke-linejoin:miter;stroke:rgb(100%,49.803922%,45.098039%);stroke-opacity:1;stroke-miterlimit:10;" d="M 0.0600058 3.650013 L 0.0600058 0.0600062 " transform="matrix(72,0,0,-72,0.2538,269.2892)"/>
<path style="fill:none;stroke-width:0.015;stroke-linecap:round;stroke-linejoin:miter;stroke:rgb(100%,49.803922%,45.098039%);stroke-opacity:1;stroke-miterlimit:10;" d="M 0.0600058 0.0600062 L 2.284995 0.0600062 " transform="matrix(72,0,0,-72,0.2538,269.2892)"/>
<path style="fill:none;stroke-width:0.015;stroke-linecap:round;stroke-linejoin:miter;stroke:rgb(100%,49.803922%,45.098039%);stroke-opacity:1;stroke-miterlimit:10;" d="M 2.284995 0.0600062 L 2.284995 3.650013 " transform="matrix(72,0,0,-72,0.2538,269.2892)"/>
<path style="fill:none;stroke-width:0.015;stroke-linecap:round;stroke-linejoin:miter;stroke:rgb(100%,49.803922%,45.098039%);stroke-opacity:1;stroke-miterlimit:10;" d="M 2.284995 3.650013 L 0.0600058 3.650013 " transform="matrix(72,0,0,-72,0.2538,269.2892)"/>
<path style=" stroke:none;fill-rule:evenodd;fill:rgb(45.098039%,45.098039%,87.058824%);fill-opacity:1;" d="M 12.492188 185.050781 C 12.492188 184.089844 11.054688 184.089844 11.054688 185.050781 C 11.054688 186.007812 12.492188 186.007812 12.492188 185.050781 "/>
<path style=" stroke:none;fill-rule:evenodd;fill:rgb(45.098039%,45.098039%,87.058824%);fill-opacity:1;" d="M 12.515625 132.605469 C 12.515625 131.644531 11.074219 131.644531 11.074219 132.605469 C 11.074219 133.5625 12.515625 133.5625 12.515625 132.605469 "/>
<path style=" stroke:none;fill-rule:evenodd;fill:rgb(45.098039%,45.098039%,87.058824%);fill-opacity:1;" d="M 20.054688 60.128906 C 20.054688 59.167969 18.613281 59.167969 18.613281 60.128906 C 18.613281 61.089844 20.054688 61.089844 20.054688 60.128906 "/>
<path style=" stroke:none;fill-rule:evenodd;fill:rgb(45.098039%,45.098039%,87.058824%);fill-opacity:1;" d="M 23.292969 131.050781 C 23.292969 130.089844 21.855469 130.089844 21.855469 131.050781 C 21.855469 132.007812 23.292969 132.007812 23.292969 131.050781 "/>
<path style=" stroke:none;fill-rule:evenodd;fill:rgb(45.098039%,45.098039%,87.058824%);fill-opacity:1;" d="M 23.292969 182.527344 C 23.292969 181.570312 21.855469 181.570312 21.855469 182.527344 C 21.855469 183.488281 23.292969 183.488281 23.292969 182.527344 "/>
<path style=" stroke:none;fill-rule:evenodd;fill:rgb(45.098039%,45.098039%,87.058824%);fill-opacity:1;" d="M 34.09375 185.050781 C 34.09375 184.089844 32.652344 184.089844 32.652344 185.050781 C 32.652344 186.007812 34.09375 186.007812 34.09375 185.050781 "/>
<path style=" stroke:none;fill-rule:evenodd;fill:rgb(45.098039%,45.098039%,87.058824%);fill-opacity:1;" d="M 34.117188 132.605469 C 34.117188 131.644531 32.675781 131.644531 32.675781 132.605469 C 32.675781 133.5625 34.117188 133.5625 34.117188 132.605469 "/>
<path style=" stroke:none;fill-rule:evenodd;fill:rgb(45.098039%,45.098039%,87.058824%);fill-opacity:1;" d="M 41.652344 60.128906 C 41.652344 59.167969 40.214844 59.167969 40.214844 60.128906 C 40.214844 61.089844 41.652344 61.089844 41.652344 60.128906 "/>
<path style=" stroke:none;fill-rule:evenodd;fill:rgb(45.098039%,45.098039%,87.058824%);fill-opacity:1;" d="M 44.894531 131.050781 C 44.894531 130.089844 43.453125 130.089844 43.453125 131.050781 C 43.453125 132.007812 44.894531 132.007812 44.894531 131.050781 "/>
<path style=" stroke:none;fill-rule:evenodd;fill:rgb(45.098039%,45.098039%,87.058824%);fill-opacity:1;" d="M 44.894531 182.527344 C 44.894531 181.570312 43.453125 181.570312 43.453125 182.527344 C 43.453125 183.488281 44.894531 183.488281 44.894531 182.527344 "/>
<path style=" stroke:none;fill-rule:evenodd;fill:rgb(45.098039%,45.098039%,87.058824%);fill-opacity:1;" d="M 78.015625 103.6875 C 78.015625 102.730469 76.574219 102.730469 76.574219 103.6875 C 76.574219 104.648438 78.015625 104.648438 78.015625 103.6875 "/>
<path style=" stroke:none;fill-rule:evenodd;fill:rgb(45.098039%,45.098039%,87.058824%);fill-opacity:1;" d="M 88.8125 66.609375 C 88.8125 65.648438 87.375 65.648438 87.375 66.609375 C 87.375 67.570312 88.8125 67.570312 88.8125 66.609375 "/>
<path style=" stroke:none;fill-rule:evenodd;fill:rgb(45.098039%,45.098039%,87.058824%);fill-opacity:1;" d="M 99.613281 103.6875 C 99.613281 102.730469 98.171875 102.730469 98.171875 103.6875 C 98.171875 104.648438 99.613281 104.648438 99.613281 103.6875 "/>
<path style=" stroke:none;fill-rule:evenodd;fill:rgb(45.098039%,45.098039%,87.058824%);fill-opacity:1;" d="M 110.414062 66.609375 C 110.414062 65.648438 108.972656 65.648438 108.972656 66.609375 C 108.972656 67.570312 110.414062 67.570312 110.414062 66.609375 "/>
<path style=" stroke:none;fill-rule:evenodd;fill:rgb(45.098039%,45.098039%,87.058824%);fill-opacity:1;" d="M 112.214844 56.527344 C 112.214844 55.570312 110.773438 55.570312 110.773438 56.527344 C 110.773438 57.488281 112.214844 57.488281 112.214844 56.527344 "/>
<path style=" stroke:none;fill-rule:evenodd;fill:rgb(45.098039%,45.098039%,87.058824%);fill-opacity:1;" d="M 133.8125 56.527344 C 133.8125 55.570312 132.375 55.570312 132.375 56.527344 C 132.375 57.488281 133.8125 57.488281 133.8125 56.527344 "/>
<path style=" stroke:none;fill-rule:evenodd;fill:rgb(45.098039%,45.098039%,87.058824%);fill-opacity:1;" d="M 133.8125 62.648438 C 133.8125 61.6875 132.375 61.6875 132.375 62.648438 C 132.375 63.609375 133.8125 63.609375 133.8125 62.648438 "/>
<path style=" stroke:none;fill-rule:evenodd;fill:rgb(45.098039%,45.098039%,87.058824%);fill-opacity:1;" d="M 134.894531 111.96875 C 134.894531 111.007812 133.453125 111.007812 133.453125 111.96875 C 133.453125 112.929688 134.894531 112.929688 134.894531 111.96875 "/>
<path style=" stroke:none;fill-rule:evenodd;fill:rgb(45.098039%,45.098039%,87.058824%);fill-opacity:1;" d="M 134.894531 133.570312 C 134.894531 132.609375 133.453125 132.609375 133.453125 133.570312 C 133.453125 134.527344 134.894531 134.527344 134.894531 133.570312 "/>
<path style=" stroke:none;fill-rule:evenodd;fill:rgb(45.098039%,45.098039%,87.058824%);fill-opacity:1;" d="M 155.414062 62.648438 C 155.414062 61.6875 153.972656 61.6875 153.972656 62.648438 C 153.972656 63.609375 155.414062 63.609375 155.414062 62.648438 "/>
<path style=" stroke:none;fill-rule:evenodd;fill:rgb(45.098039%,45.098039%,87.058824%);fill-opacity:1;" d="M 12.671875 196.570312 C 12.671875 195.371094 10.875 195.371094 10.875 196.570312 C 10.875 197.769531 12.671875 197.769531 12.671875 196.570312 "/>
<path style=" stroke:none;fill-rule:evenodd;fill:rgb(45.098039%,45.098039%,87.058824%);fill-opacity:1;" d="M 13.035156 140.410156 C 13.035156 139.210938 11.234375 139.210938 11.234375 140.410156 C 11.234375 141.609375 13.035156 141.609375 13.035156 140.410156 "/>
<path style=" stroke:none;fill-rule:evenodd;fill:rgb(45.098039%,45.098039%,87.058824%);fill-opacity:1;" d="M 31.652344 203.769531 C 31.652344 202.570312 29.851562 202.570312 29.851562 203.769531 C 29.851562 204.96875 31.652344 204.96875 31.652344 203.769531 "/>
<path style=" stroke:none;fill-rule:evenodd;fill:rgb(45.098039%,45.098039%,87.058824%);fill-opacity:1;" d="M 35.355469 38.023438 C 35.355469 36.824219 33.554688 36.824219 33.554688 38.023438 C 33.554688 39.226562 35.355469 39.226562 35.355469 38.023438 "/>
<path style=" stroke:none;fill-rule:evenodd;fill:rgb(45.098039%,45.098039%,87.058824%);fill-opacity:1;" d="M 38.210938 146.527344 C 38.210938 145.328125 36.414062 145.328125 36.414062 146.527344 C 36.414062 147.730469 38.210938 147.730469 38.210938 146.527344 "/>
<path style=" stroke:none;fill-rule:evenodd;fill:rgb(45.098039%,45.098039%,87.058824%);fill-opacity:1;" d="M 44.996094 205.210938 C 44.996094 204.007812 43.195312 204.007812 43.195312 205.210938 C 43.195312 206.410156 44.996094 206.410156 44.996094 205.210938 "/>
<path style=" stroke:none;fill-rule:evenodd;fill:rgb(45.098039%,45.098039%,87.058824%);fill-opacity:1;" d="M 48.3125 96.109375 C 48.3125 94.90625 46.515625 94.90625 46.515625 96.109375 C 46.515625 97.308594 48.3125 97.308594 48.3125 96.109375 "/>
<path style=" stroke:none;fill-rule:evenodd;fill:rgb(45.098039%,45.098039%,87.058824%);fill-opacity:1;" d="M 52.273438 234.371094 C 52.273438 233.167969 50.472656 233.167969 50.472656 234.371094 C 50.472656 235.570312 52.273438 235.570312 52.273438 234.371094 "/>
<path style=" stroke:none;fill-rule:evenodd;fill:rgb(45.098039%,45.098039%,87.058824%);fill-opacity:1;" d="M 64.515625 99.347656 C 64.515625 98.148438 62.714844 98.148438 62.714844 99.347656 C 62.714844 100.546875 64.515625 100.546875 64.515625 99.347656 "/>
<path style=" stroke:none;fill-rule:evenodd;fill:rgb(45.098039%,45.098039%,87.058824%);fill-opacity:1;" d="M 68.691406 40.328125 C 68.691406 39.128906 66.890625 39.128906 66.890625 40.328125 C 66.890625 41.527344 68.691406 41.527344 68.691406 40.328125 "/>
<path style=" stroke:none;fill-rule:evenodd;fill:rgb(45.098039%,45.098039%,87.058824%);fill-opacity:1;" d="M 70.273438 240.847656 C 70.273438 239.648438 68.472656 239.648438 68.472656 240.847656 C 68.472656 242.050781 70.273438 242.050781 70.273438 240.847656 "/>
<path style=" stroke:none;fill-rule:evenodd;fill:rgb(45.098039%,45.098039%,87.058824%);fill-opacity:1;" d="M 87.195312 158.050781 C 87.195312 156.847656 85.394531 156.847656 85.394531 158.050781 C 85.394531 159.25 87.195312 159.25 87.195312 158.050781 "/>
<path style=" stroke:none;fill-rule:evenodd;fill:rgb(45.098039%,45.098039%,87.058824%);fill-opacity:1;" d="M 88.273438 168.847656 C 88.273438 167.648438 86.472656 167.648438 86.472656 168.847656 C 86.472656 170.050781 88.273438 170.050781 88.273438 168.847656 "/>
<path style=" stroke:none;fill-rule:evenodd;fill:rgb(45.098039%,45.098039%,87.058824%);fill-opacity:1;" d="M 92.59375 194.769531 C 92.59375 193.570312 90.792969 193.570312 90.792969 194.769531 C 90.792969 195.96875 92.59375 195.96875 92.59375 194.769531 "/>
<path style=" stroke:none;fill-rule:evenodd;fill:rgb(45.098039%,45.098039%,87.058824%);fill-opacity:1;" d="M 93.671875 142.210938 C 93.671875 141.007812 91.875 141.007812 91.875 142.210938 C 91.875 143.410156 93.671875 143.410156 93.671875 142.210938 "/>
<path style=" stroke:none;fill-rule:evenodd;fill:rgb(45.098039%,45.098039%,87.058824%);fill-opacity:1;" d="M 101.234375 142.210938 C 101.234375 141.007812 99.433594 141.007812 99.433594 142.210938 C 99.433594 143.410156 101.234375 143.410156 101.234375 142.210938 "/>
<path style=" stroke:none;fill-rule:evenodd;fill:rgb(45.098039%,45.098039%,87.058824%);fill-opacity:1;" d="M 110.59375 92.167969 C 110.59375 90.96875 108.792969 90.96875 108.792969 92.167969 C 108.792969 93.371094 110.59375 93.371094 110.59375 92.167969 "/>
<path style=" stroke:none;fill-rule:evenodd;fill:rgb(45.098039%,45.098039%,87.058824%);fill-opacity:1;" d="M 112.753906 153.007812 C 112.753906 151.808594 110.953125 151.808594 110.953125 153.007812 C 110.953125 154.210938 112.753906 154.210938 112.753906 153.007812 "/>
<path style=" stroke:none;fill-rule:evenodd;fill:rgb(45.098039%,45.098039%,87.058824%);fill-opacity:1;" d="M 117.792969 100.449219 C 117.792969 99.25 115.992188 99.25 115.992188 100.449219 C 115.992188 101.648438 117.792969 101.648438 117.792969 100.449219 "/>
<path style=" stroke:none;fill-rule:evenodd;fill:rgb(45.098039%,45.098039%,87.058824%);fill-opacity:1;" d="M 122.832031 152.066406 C 122.832031 150.867188 121.035156 150.867188 121.035156 152.066406 C 121.035156 153.265625 122.832031 153.265625 122.832031 152.066406 "/>
<path style=" stroke:none;fill-rule:evenodd;fill:rgb(45.098039%,45.098039%,87.058824%);fill-opacity:1;" d="M 148.035156 108.347656 C 148.035156 107.148438 146.234375 107.148438 146.234375 108.347656 C 146.234375 109.546875 148.035156 109.546875 148.035156 108.347656 "/>
<path style=" stroke:none;fill-rule:evenodd;fill:rgb(45.098039%,45.098039%,87.058824%);fill-opacity:1;" d="M 152.355469 10.808594 C 152.355469 9.609375 150.554688 9.609375 150.554688 10.808594 C 150.554688 12.007812 152.355469 12.007812 152.355469 10.808594 "/>
<path style=" stroke:none;fill-rule:evenodd;fill:rgb(45.098039%,45.098039%,87.058824%);fill-opacity:1;" d="M 155.234375 67.6875 C 155.234375 66.488281 153.433594 66.488281 153.433594 67.6875 C 153.433594 68.890625 155.234375 68.890625 155.234375 67.6875 "/>
<path style=" stroke:none;fill-rule:evenodd;fill:rgb(45.098039%,45.098039%,87.058824%);fill-opacity:1;" d="M 157.035156 16.949219 C 157.035156 15.75 155.234375 15.75 155.234375 16.949219 C 155.234375 18.152344 157.035156 18.152344 157.035156 16.949219 "/>
<path style=" stroke:none;fill-rule:evenodd;fill:rgb(45.098039%,45.098039%,87.058824%);fill-opacity:1;" d="M 129.421875 230.050781 C 129.421875 228.707031 127.40625 228.707031 127.40625 230.050781 C 127.40625 231.394531 129.421875 231.394531 129.421875 230.050781 "/>
<path style=" stroke:none;fill-rule:evenodd;fill:rgb(45.098039%,45.098039%,87.058824%);fill-opacity:1;" d="M 136.621094 230.050781 C 136.621094 228.707031 134.605469 228.707031 134.605469 230.050781 C 134.605469 231.394531 136.621094 231.394531 136.621094 230.050781 "/>
<path style=" stroke:none;fill-rule:evenodd;fill:rgb(45.098039%,45.098039%,87.058824%);fill-opacity:1;" d="M 143.820312 230.050781 C 143.820312 228.707031 141.804688 228.707031 141.804688 230.050781 C 141.804688 231.394531 143.820312 231.394531 143.820312 230.050781 "/>
<path style=" stroke:none;fill-rule:evenodd;fill:rgb(45.098039%,45.098039%,87.058824%);fill-opacity:1;" d="M 24.734375 138.96875 C 24.734375 137.527344 22.574219 137.527344 22.574219 138.96875 C 22.574219 140.410156 24.734375 140.410156 24.734375 138.96875 "/>
<path style=" stroke:none;fill-rule:evenodd;fill:rgb(45.098039%,45.098039%,87.058824%);fill-opacity:1;" d="M 39.132812 138.96875 C 39.132812 137.527344 36.972656 137.527344 36.972656 138.96875 C 36.972656 140.410156 39.132812 140.410156 39.132812 138.96875 "/>
<path style=" stroke:none;fill-rule:evenodd;fill:rgb(45.098039%,45.098039%,87.058824%);fill-opacity:1;" d="M 53.894531 108.007812 C 53.894531 106.570312 51.734375 106.570312 51.734375 108.007812 C 51.734375 109.449219 53.894531 109.449219 53.894531 108.007812 "/>
<path style=" stroke:none;fill-rule:evenodd;fill:rgb(45.098039%,45.098039%,87.058824%);fill-opacity:1;" d="M 53.894531 122.410156 C 53.894531 120.96875 51.734375 120.96875 51.734375 122.410156 C 51.734375 123.847656 53.894531 123.847656 53.894531 122.410156 "/>
<path style=" stroke:none;fill-rule:evenodd;fill:rgb(45.098039%,45.098039%,87.058824%);fill-opacity:1;" d="M 60.375 54.371094 C 60.375 52.929688 58.214844 52.929688 58.214844 54.371094 C 58.214844 55.808594 60.375 55.808594 60.375 54.371094 "/>
<path style=" stroke:none;fill-rule:evenodd;fill:rgb(45.098039%,45.098039%,87.058824%);fill-opacity:1;" d="M 60.375 68.769531 C 60.375 67.328125 58.214844 67.328125 58.214844 68.769531 C 58.214844 70.210938 60.375 70.210938 60.375 68.769531 "/>
<path style=" stroke:none;fill-rule:evenodd;fill:rgb(45.098039%,45.098039%,87.058824%);fill-opacity:1;" d="M 74.773438 119.167969 C 74.773438 117.730469 72.613281 117.730469 72.613281 119.167969 C 72.613281 120.609375 74.773438 120.609375 74.773438 119.167969 "/>
<path style=" stroke:none;fill-rule:evenodd;fill:rgb(45.098039%,45.098039%,87.058824%);fill-opacity:1;" d="M 78.375 144.730469 C 78.375 143.289062 76.214844 143.289062 76.214844 144.730469 C 76.214844 146.167969 78.375 146.167969 78.375 144.730469 "/>
<path style=" stroke:none;fill-rule:evenodd;fill:rgb(45.098039%,45.098039%,87.058824%);fill-opacity:1;" d="M 78.375 180.730469 C 78.375 179.289062 76.214844 179.289062 76.214844 180.730469 C 76.214844 182.167969 78.375 182.167969 78.375 180.730469 "/>
<path style=" stroke:none;fill-rule:evenodd;fill:rgb(45.098039%,45.098039%,87.058824%);fill-opacity:1;" d="M 81.972656 83.890625 C 81.972656 82.449219 79.8125 82.449219 79.8125 83.890625 C 79.8125 85.328125 81.972656 85.328125 81.972656 83.890625 "/>
<path style=" stroke:none;fill-rule:evenodd;fill:rgb(45.098039%,45.098039%,87.058824%);fill-opacity:1;" d="M 96.375 83.890625 C 96.375 82.449219 94.214844 82.449219 94.214844 83.890625 C 94.214844 85.328125 96.375 85.328125 96.375 83.890625 "/>
<path style=" stroke:none;fill-rule:evenodd;fill:rgb(45.098039%,45.098039%,87.058824%);fill-opacity:1;" d="M 96.375 126.371094 C 96.375 124.929688 94.214844 124.929688 94.214844 126.371094 C 94.214844 127.808594 96.375 127.808594 96.375 126.371094 "/>
<path style=" stroke:none;fill-rule:evenodd;fill:rgb(45.098039%,45.098039%,87.058824%);fill-opacity:1;" d="M 105.015625 59.410156 C 105.015625 57.96875 102.855469 57.96875 102.855469 59.410156 C 102.855469 60.847656 105.015625 60.847656 105.015625 59.410156 "/>
<path style=" stroke:none;fill-rule:evenodd;fill:rgb(45.098039%,45.098039%,87.058824%);fill-opacity:1;" d="M 105.015625 73.808594 C 105.015625 72.371094 102.855469 72.371094 102.855469 73.808594 C 102.855469 75.25 105.015625 75.25 105.015625 73.808594 "/>
<path style=" stroke:none;fill-rule:evenodd;fill:rgb(45.098039%,45.098039%,87.058824%);fill-opacity:1;" d="M 110.054688 20.890625 C 110.054688 19.449219 107.894531 19.449219 107.894531 20.890625 C 107.894531 22.328125 110.054688 22.328125 110.054688 20.890625 "/>
<path style=" stroke:none;fill-rule:evenodd;fill:rgb(45.098039%,45.098039%,87.058824%);fill-opacity:1;" d="M 110.054688 35.289062 C 110.054688 33.847656 107.894531 33.847656 107.894531 35.289062 C 107.894531 36.730469 110.054688 36.730469 110.054688 35.289062 "/>
<path style=" stroke:none;fill-rule:evenodd;fill:rgb(45.098039%,45.098039%,87.058824%);fill-opacity:1;" d="M 110.773438 119.167969 C 110.773438 117.730469 108.613281 117.730469 108.613281 119.167969 C 108.613281 120.609375 110.773438 120.609375 110.773438 119.167969 "/>
<path style=" stroke:none;fill-rule:evenodd;fill:rgb(45.098039%,45.098039%,87.058824%);fill-opacity:1;" d="M 116.894531 192.609375 C 116.894531 191.167969 114.734375 191.167969 114.734375 192.609375 C 114.734375 194.050781 116.894531 194.050781 116.894531 192.609375 "/>
<path style=" stroke:none;fill-rule:evenodd;fill:rgb(45.098039%,45.098039%,87.058824%);fill-opacity:1;" d="M 116.894531 207.007812 C 116.894531 205.570312 114.734375 205.570312 114.734375 207.007812 C 114.734375 208.449219 116.894531 208.449219 116.894531 207.007812 "/>
<path style=" stroke:none;fill-rule:evenodd;fill:rgb(45.098039%,45.098039%,87.058824%);fill-opacity:1;" d="M 119.773438 74.167969 C 119.773438 72.730469 117.613281 72.730469 117.613281 74.167969 C 117.613281 75.609375 119.773438 75.609375 119.773438 74.167969 "/>
<path style=" stroke:none;fill-rule:evenodd;fill:rgb(45.098039%,45.098039%,87.058824%);fill-opacity:1;" d="M 124.8125 167.769531 C 124.8125 166.328125 122.652344 166.328125 122.652344 167.769531 C 122.652344 169.210938 124.8125 169.210938 124.8125 167.769531 "/>
<path style=" stroke:none;fill-rule:evenodd;fill:rgb(45.098039%,45.098039%,87.058824%);fill-opacity:1;" d="M 124.8125 182.167969 C 124.8125 180.730469 122.652344 180.730469 122.652344 182.167969 C 122.652344 183.609375 124.8125 183.609375 124.8125 182.167969 "/>
<path style=" stroke:none;fill-rule:evenodd;fill:rgb(45.098039%,45.098039%,87.058824%);fill-opacity:1;" d="M 129.132812 192.609375 C 129.132812 191.167969 126.972656 191.167969 126.972656 192.609375 C 126.972656 194.050781 129.132812 194.050781 129.132812 192.609375 "/>
<path style=" stroke:none;fill-rule:evenodd;fill:rgb(45.098039%,45.098039%,87.058824%);fill-opacity:1;" d="M 129.132812 207.007812 C 129.132812 205.570312 126.972656 205.570312 126.972656 207.007812 C 126.972656 208.449219 129.132812 208.449219 129.132812 207.007812 "/>
<path style=" stroke:none;fill-rule:evenodd;fill:rgb(45.098039%,45.098039%,87.058824%);fill-opacity:1;" d="M 130.933594 72.371094 C 130.933594 70.929688 128.773438 70.929688 128.773438 72.371094 C 128.773438 73.808594 130.933594 73.808594 130.933594 72.371094 "/>
<path style=" stroke:none;fill-rule:evenodd;fill:rgb(45.098039%,45.098039%,87.058824%);fill-opacity:1;" d="M 136.695312 192.609375 C 136.695312 191.167969 134.535156 191.167969 134.535156 192.609375 C 134.535156 194.050781 136.695312 194.050781 136.695312 192.609375 "/>
<path style=" stroke:none;fill-rule:evenodd;fill:rgb(45.098039%,45.098039%,87.058824%);fill-opacity:1;" d="M 136.695312 207.007812 C 136.695312 205.570312 134.535156 205.570312 134.535156 207.007812 C 134.535156 208.449219 136.695312 208.449219 136.695312 207.007812 "/>
<path style=" stroke:none;fill-rule:evenodd;fill:rgb(45.098039%,45.098039%,87.058824%);fill-opacity:1;" d="M 141.375 81.371094 C 141.375 79.929688 139.214844 79.929688 139.214844 81.371094 C 139.214844 82.808594 141.375 82.808594 141.375 81.371094 "/>
<path style=" stroke:none;fill-rule:evenodd;fill:rgb(45.098039%,45.098039%,87.058824%);fill-opacity:1;" d="M 141.375 141.847656 C 141.375 140.410156 139.214844 140.410156 139.214844 141.847656 C 139.214844 143.289062 141.375 143.289062 141.375 141.847656 "/>
<path style=" stroke:none;fill-rule:evenodd;fill:rgb(45.098039%,45.098039%,87.058824%);fill-opacity:1;" d="M 141.375 156.25 C 141.375 154.808594 139.214844 154.808594 139.214844 156.25 C 139.214844 157.6875 141.375 157.6875 141.375 156.25 "/>
<path style=" stroke:none;fill-rule:evenodd;fill:rgb(45.098039%,45.098039%,87.058824%);fill-opacity:1;" d="M 145.332031 72.371094 C 145.332031 70.929688 143.171875 70.929688 143.171875 72.371094 C 143.171875 73.808594 145.332031 73.808594 145.332031 72.371094 "/>
<path style=" stroke:none;fill-rule:evenodd;fill:rgb(45.098039%,45.098039%,87.058824%);fill-opacity:1;" d="M 155.773438 74.167969 C 155.773438 72.730469 153.613281 72.730469 153.613281 74.167969 C 153.613281 75.609375 155.773438 75.609375 155.773438 74.167969 "/>
<path style=" stroke:none;fill-rule:evenodd;fill:rgb(45.098039%,45.098039%,87.058824%);fill-opacity:1;" d="M 126.074219 222.488281 C 126.074219 220.808594 123.554688 220.808594 123.554688 222.488281 C 123.554688 224.167969 126.074219 224.167969 126.074219 222.488281 "/>
<path style=" stroke:none;fill-rule:evenodd;fill:rgb(45.098039%,45.098039%,87.058824%);fill-opacity:1;" d="M 129.671875 215.289062 C 129.671875 213.609375 127.152344 213.609375 127.152344 215.289062 C 127.152344 216.96875 129.671875 216.96875 129.671875 215.289062 "/>
<path style=" stroke:none;fill-rule:evenodd;fill:rgb(45.098039%,45.098039%,87.058824%);fill-opacity:1;" d="M 133.273438 222.488281 C 133.273438 220.808594 130.753906 220.808594 130.753906 222.488281 C 130.753906 224.167969 133.273438 224.167969 133.273438 222.488281 "/>
<path style=" stroke:none;fill-rule:evenodd;fill:rgb(45.098039%,45.098039%,87.058824%);fill-opacity:1;" d="M 136.875 215.289062 C 136.875 213.609375 134.355469 213.609375 134.355469 215.289062 C 134.355469 216.96875 136.875 216.96875 136.875 215.289062 "/>
<path style=" stroke:none;fill-rule:evenodd;fill:rgb(45.098039%,45.098039%,87.058824%);fill-opacity:1;" d="M 140.472656 222.488281 C 140.472656 220.808594 137.953125 220.808594 137.953125 222.488281 C 137.953125 224.167969 140.472656 224.167969 140.472656 222.488281 "/>
<path style=" stroke:none;fill-rule:evenodd;fill:rgb(45.098039%,45.098039%,87.058824%);fill-opacity:1;" d="M 144.074219 215.289062 C 144.074219 213.609375 141.554688 213.609375 141.554688 215.289062 C 141.554688 216.96875 144.074219 216.96875 144.074219 215.289062 "/>
<path style=" stroke:none;fill-rule:evenodd;fill:rgb(45.098039%,45.098039%,87.058824%);fill-opacity:1;" d="M 147.671875 222.488281 C 147.671875 220.808594 145.152344 220.808594 145.152344 222.488281 C 145.152344 224.167969 147.671875 224.167969 147.671875 222.488281 "/>
<path style=" stroke:none;fill-rule:evenodd;fill:rgb(45.098039%,45.098039%,87.058824%);fill-opacity:1;" d="M 151.273438 215.289062 C 151.273438 213.609375 148.753906 213.609375 148.753906 215.289062 C 148.753906 216.96875 151.273438 216.96875 151.273438 215.289062 "/>
<path style=" stroke:none;fill-rule:evenodd;fill:rgb(45.098039%,45.098039%,87.058824%);fill-opacity:1;" d="M 13.5 68.410156 C 13.5 66.585938 10.765625 66.585938 10.765625 68.410156 C 10.765625 70.234375 13.5 70.234375 13.5 68.410156 "/>
<path style=" stroke:none;fill-rule:evenodd;fill:rgb(45.098039%,45.098039%,87.058824%);fill-opacity:1;" d="M 13.5 75.609375 C 13.5 73.785156 10.765625 73.785156 10.765625 75.609375 C 10.765625 77.433594 13.5 77.433594 13.5 75.609375 "/>
<path style=" stroke:none;fill-rule:evenodd;fill:rgb(45.098039%,45.098039%,87.058824%);fill-opacity:1;" d="M 20.703125 68.410156 C 20.703125 66.585938 17.964844 66.585938 17.964844 68.410156 C 17.964844 70.234375 20.703125 70.234375 20.703125 68.410156 "/>
<path style=" stroke:none;fill-rule:evenodd;fill:rgb(45.098039%,45.098039%,87.058824%);fill-opacity:1;" d="M 20.703125 75.609375 C 20.703125 73.785156 17.964844 73.785156 17.964844 75.609375 C 17.964844 77.433594 20.703125 77.433594 20.703125 75.609375 "/>
<path style=" stroke:none;fill-rule:evenodd;fill:rgb(45.098039%,45.098039%,87.058824%);fill-opacity:1;" d="M 27.902344 68.410156 C 27.902344 66.585938 25.164062 66.585938 25.164062 68.410156 C 25.164062 70.234375 27.902344 70.234375 27.902344 68.410156 "/>
<path style=" stroke:none;fill-rule:evenodd;fill:rgb(45.098039%,45.098039%,87.058824%);fill-opacity:1;" d="M 27.902344 75.609375 C 27.902344 73.785156 25.164062 73.785156 25.164062 75.609375 C 25.164062 77.433594 27.902344 77.433594 27.902344 75.609375 "/>
<path style=" stroke:none;fill-rule:evenodd;fill:rgb(45.098039%,45.098039%,87.058824%);fill-opacity:1;" d="M 61.742188 10.808594 C 61.742188 8.984375 59.003906 8.984375 59.003906 10.808594 C 59.003906 12.632812 61.742188 12.632812 61.742188 10.808594 "/>
<path style=" stroke:none;fill-rule:evenodd;fill:rgb(45.098039%,45.098039%,87.058824%);fill-opacity:1;" d="M 68.941406 10.808594 C 68.941406 8.984375 66.207031 8.984375 66.207031 10.808594 C 66.207031 12.632812 68.941406 12.632812 68.941406 10.808594 "/>
<path style=" stroke:none;fill-rule:evenodd;fill:rgb(45.098039%,45.098039%,87.058824%);fill-opacity:1;" d="M 70.023438 158.050781 C 70.023438 156.226562 67.285156 156.226562 67.285156 158.050781 C 67.285156 159.875 70.023438 159.875 70.023438 158.050781 "/>
<path style=" stroke:none;fill-rule:evenodd;fill:rgb(45.098039%,45.098039%,87.058824%);fill-opacity:1;" d="M 70.023438 165.25 C 70.023438 163.425781 67.285156 163.425781 67.285156 165.25 C 67.285156 167.074219 70.023438 167.074219 70.023438 165.25 "/>
<path style=" stroke:none;fill-rule:evenodd;fill:rgb(45.098039%,45.098039%,87.058824%);fill-opacity:1;" d="M 117.183594 214.570312 C 117.183594 212.746094 114.445312 212.746094 114.445312 214.570312 C 114.445312 216.394531 117.183594 216.394531 117.183594 214.570312 "/>
<path style=" stroke:none;fill-rule:evenodd;fill:rgb(45.098039%,45.098039%,87.058824%);fill-opacity:1;" d="M 117.183594 221.769531 C 117.183594 219.945312 114.445312 219.945312 114.445312 221.769531 C 114.445312 223.59375 117.183594 223.59375 117.183594 221.769531 "/>
<path style=" stroke:none;fill-rule:evenodd;fill:rgb(45.098039%,45.098039%,87.058824%);fill-opacity:1;" d="M 120.0625 81.007812 C 120.0625 79.183594 117.324219 79.183594 117.324219 81.007812 C 117.324219 82.832031 120.0625 82.832031 120.0625 81.007812 "/>
<path style=" stroke:none;fill-rule:evenodd;fill:rgb(45.098039%,45.098039%,87.058824%);fill-opacity:1;" d="M 127.261719 81.007812 C 127.261719 79.183594 124.527344 79.183594 124.527344 81.007812 C 124.527344 82.832031 127.261719 82.832031 127.261719 81.007812 "/>
<path style=" stroke:none;fill-rule:evenodd;fill:rgb(45.098039%,45.098039%,87.058824%);fill-opacity:1;" d="M 38.054688 50.769531 C 38.054688 48.371094 34.453125 48.371094 34.453125 50.769531 C 34.453125 53.167969 38.054688 53.167969 38.054688 50.769531 "/>
<path style=" stroke:none;fill-rule:evenodd;fill:rgb(45.098039%,45.098039%,87.058824%);fill-opacity:1;" d="M 38.054688 122.769531 C 38.054688 120.371094 34.453125 120.371094 34.453125 122.769531 C 34.453125 125.167969 38.054688 125.167969 38.054688 122.769531 "/>
<path style=" stroke:none;fill-rule:evenodd;fill:rgb(45.098039%,45.098039%,87.058824%);fill-opacity:1;" d="M 147.855469 13.6875 C 147.855469 11.289062 144.253906 11.289062 144.253906 13.6875 C 144.253906 16.089844 147.855469 16.089844 147.855469 13.6875 "/>
<path style=" stroke:none;fill-rule:evenodd;fill:rgb(45.098039%,45.098039%,87.058824%);fill-opacity:1;" d="M 147.855469 35.289062 C 147.855469 32.890625 144.253906 32.890625 144.253906 35.289062 C 144.253906 37.6875 147.855469 37.6875 147.855469 35.289062 "/>
<path style=" stroke:none;fill-rule:evenodd;fill:rgb(45.098039%,45.098039%,87.058824%);fill-opacity:1;" d="M 32.554688 11.167969 C 32.554688 8.722656 28.882812 8.722656 28.882812 11.167969 C 28.882812 13.617188 32.554688 13.617188 32.554688 11.167969 "/>
<path style=" stroke:none;fill-rule:evenodd;fill:rgb(45.098039%,45.098039%,87.058824%);fill-opacity:1;" d="M 46.730469 11.167969 C 46.730469 8.722656 43.058594 8.722656 43.058594 11.167969 C 43.058594 13.617188 46.730469 13.617188 46.730469 11.167969 "/>
<path style=" stroke:none;fill-rule:evenodd;fill:rgb(45.098039%,45.098039%,87.058824%);fill-opacity:1;" d="M 77.914062 11.167969 C 77.914062 8.722656 74.242188 8.722656 74.242188 11.167969 C 74.242188 13.617188 77.914062 13.617188 77.914062 11.167969 "/>
<path style=" stroke:none;fill-rule:evenodd;fill:rgb(45.098039%,45.098039%,87.058824%);fill-opacity:1;" d="M 92.082031 11.167969 C 92.082031 8.722656 88.410156 8.722656 88.410156 11.167969 C 88.410156 13.617188 92.082031 13.617188 92.082031 11.167969 "/>
<path style=" stroke:none;fill-rule:evenodd;fill:rgb(45.098039%,45.098039%,87.058824%);fill-opacity:1;" d="M 14.292969 50.769531 C 14.292969 47.890625 9.972656 47.890625 9.972656 50.769531 C 9.972656 53.648438 14.292969 53.648438 14.292969 50.769531 "/>
<path style=" stroke:none;fill-rule:evenodd;fill:rgb(45.098039%,45.098039%,87.058824%);fill-opacity:1;" d="M 21.492188 50.769531 C 21.492188 47.890625 17.171875 47.890625 17.171875 50.769531 C 17.171875 53.648438 21.492188 53.648438 21.492188 50.769531 "/>
<path style=" stroke:none;fill-rule:evenodd;fill:rgb(45.098039%,45.098039%,87.058824%);fill-opacity:1;" d="M 25.835938 114.246094 C 25.835938 111.363281 21.515625 111.363281 21.515625 114.246094 C 21.515625 117.125 25.835938 117.125 25.835938 114.246094 "/>
<path style=" stroke:none;fill-rule:evenodd;fill:rgb(45.098039%,45.098039%,87.058824%);fill-opacity:1;" d="M 27.613281 175.328125 C 27.613281 172.449219 23.292969 172.449219 23.292969 175.328125 C 23.292969 178.210938 27.613281 178.210938 27.613281 175.328125 "/>
<path style=" stroke:none;fill-rule:evenodd;fill:rgb(45.098039%,45.098039%,87.058824%);fill-opacity:1;" d="M 28.695312 50.769531 C 28.695312 47.890625 24.375 47.890625 24.375 50.769531 C 24.375 53.648438 28.695312 53.648438 28.695312 50.769531 "/>
<path style=" stroke:none;fill-rule:evenodd;fill:rgb(45.098039%,45.098039%,87.058824%);fill-opacity:1;" d="M 33.035156 114.246094 C 33.035156 111.363281 28.714844 111.363281 28.714844 114.246094 C 28.714844 117.125 33.035156 117.125 33.035156 114.246094 "/>
<path style=" stroke:none;fill-rule:evenodd;fill:rgb(45.098039%,45.098039%,87.058824%);fill-opacity:1;" d="M 34.8125 175.328125 C 34.8125 172.449219 30.492188 172.449219 30.492188 175.328125 C 30.492188 178.210938 34.8125 178.210938 34.8125 175.328125 "/>
<path style=" stroke:none;fill-rule:evenodd;fill:rgb(45.098039%,45.098039%,87.058824%);fill-opacity:1;" d="M 40.234375 114.246094 C 40.234375 111.363281 35.914062 111.363281 35.914062 114.246094 C 35.914062 117.125 40.234375 117.125 40.234375 114.246094 "/>
<path style=" stroke:none;fill-rule:evenodd;fill:rgb(45.098039%,45.098039%,87.058824%);fill-opacity:1;" d="M 42.015625 175.328125 C 42.015625 172.449219 37.695312 172.449219 37.695312 175.328125 C 37.695312 178.210938 42.015625 178.210938 42.015625 175.328125 "/>
<path style=" stroke:none;fill-rule:evenodd;fill:rgb(45.098039%,45.098039%,87.058824%);fill-opacity:1;" d="M 58.214844 135.371094 C 58.214844 132.488281 53.894531 132.488281 53.894531 135.371094 C 53.894531 138.25 58.214844 138.25 58.214844 135.371094 "/>
<path style=" stroke:none;fill-rule:evenodd;fill:rgb(45.098039%,45.098039%,87.058824%);fill-opacity:1;" d="M 58.214844 207.730469 C 58.214844 204.847656 53.894531 204.847656 53.894531 207.730469 C 53.894531 210.609375 58.214844 210.609375 58.214844 207.730469 "/>
<path style=" stroke:none;fill-rule:evenodd;fill:rgb(45.098039%,45.098039%,87.058824%);fill-opacity:1;" d="M 65.414062 135.371094 C 65.414062 132.488281 61.09375 132.488281 61.09375 135.371094 C 61.09375 138.25 65.414062 138.25 65.414062 135.371094 "/>
<path style=" stroke:none;fill-rule:evenodd;fill:rgb(45.098039%,45.098039%,87.058824%);fill-opacity:1;" d="M 65.414062 207.730469 C 65.414062 204.847656 61.09375 204.847656 61.09375 207.730469 C 61.09375 210.609375 65.414062 210.609375 65.414062 207.730469 "/>
<path style=" stroke:none;fill-rule:evenodd;fill:rgb(45.098039%,45.098039%,87.058824%);fill-opacity:1;" d="M 72.613281 135.371094 C 72.613281 132.488281 68.292969 132.488281 68.292969 135.371094 C 68.292969 138.25 72.613281 138.25 72.613281 135.371094 "/>
<path style=" stroke:none;fill-rule:evenodd;fill:rgb(45.098039%,45.098039%,87.058824%);fill-opacity:1;" d="M 72.613281 207.730469 C 72.613281 204.847656 68.292969 204.847656 68.292969 207.730469 C 68.292969 210.609375 72.613281 210.609375 72.613281 207.730469 "/>
<path style=" stroke:none;fill-rule:evenodd;fill:rgb(45.098039%,45.098039%,87.058824%);fill-opacity:1;" d="M 83.054688 57.609375 C 83.054688 54.730469 78.734375 54.730469 78.734375 57.609375 C 78.734375 60.488281 83.054688 60.488281 83.054688 57.609375 "/>
<path style=" stroke:none;fill-rule:evenodd;fill:rgb(45.098039%,45.098039%,87.058824%);fill-opacity:1;" d="M 90.253906 57.609375 C 90.253906 54.730469 85.933594 54.730469 85.933594 57.609375 C 85.933594 60.488281 90.253906 60.488281 90.253906 57.609375 "/>
<path style=" stroke:none;fill-rule:evenodd;fill:rgb(45.098039%,45.098039%,87.058824%);fill-opacity:1;" d="M 91.695312 135.730469 C 91.695312 132.847656 87.375 132.847656 87.375 135.730469 C 87.375 138.609375 91.695312 138.609375 91.695312 135.730469 "/>
<path style=" stroke:none;fill-rule:evenodd;fill:rgb(45.098039%,45.098039%,87.058824%);fill-opacity:1;" d="M 97.453125 57.609375 C 97.453125 54.730469 93.132812 54.730469 93.132812 57.609375 C 93.132812 60.488281 97.453125 60.488281 97.453125 57.609375 "/>
<path style=" stroke:none;fill-rule:evenodd;fill:rgb(45.098039%,45.098039%,87.058824%);fill-opacity:1;" d="M 98.894531 135.730469 C 98.894531 132.847656 94.574219 132.847656 94.574219 135.730469 C 94.574219 138.609375 98.894531 138.609375 98.894531 135.730469 "/>
<path style=" stroke:none;fill-rule:evenodd;fill:rgb(45.098039%,45.098039%,87.058824%);fill-opacity:1;" d="M 106.09375 135.730469 C 106.09375 132.847656 101.773438 132.847656 101.773438 135.730469 C 101.773438 138.609375 106.09375 138.609375 106.09375 135.730469 "/>
<path style=" stroke:none;fill-rule:evenodd;fill:rgb(45.098039%,45.098039%,87.058824%);fill-opacity:1;" d="M 128.054688 48.25 C 128.054688 45.371094 123.734375 45.371094 123.734375 48.25 C 123.734375 51.128906 128.054688 51.128906 128.054688 48.25 "/>
<path style=" stroke:none;fill-rule:evenodd;fill:rgb(45.098039%,45.098039%,87.058824%);fill-opacity:1;" d="M 135.253906 48.25 C 135.253906 45.371094 130.933594 45.371094 130.933594 48.25 C 130.933594 51.128906 135.253906 51.128906 135.253906 48.25 "/>
<path style=" stroke:none;fill-rule:evenodd;fill:rgb(45.098039%,45.098039%,87.058824%);fill-opacity:1;" d="M 142.453125 48.25 C 142.453125 45.371094 138.132812 45.371094 138.132812 48.25 C 138.132812 51.128906 142.453125 51.128906 142.453125 48.25 "/>
<path style=" stroke:none;fill-rule:evenodd;fill:rgb(45.098039%,45.098039%,87.058824%);fill-opacity:1;" d="M 117.332031 249.136719 C 117.332031 246.113281 112.796875 246.113281 112.796875 249.136719 C 112.796875 252.160156 117.332031 252.160156 117.332031 249.136719 "/>
<path style=" stroke:none;fill-rule:evenodd;fill:rgb(45.098039%,45.098039%,87.058824%);fill-opacity:1;" d="M 161.972656 249.136719 C 161.972656 246.113281 157.4375 246.113281 157.4375 249.136719 C 157.4375 252.160156 161.972656 252.160156 161.972656 249.136719 "/>
<path style=" stroke:none;fill-rule:evenodd;fill:rgb(45.098039%,45.098039%,87.058824%);fill-opacity:1;" d="M 125.820312 240.488281 C 125.820312 234.34375 116.605469 234.34375 116.605469 240.488281 C 116.605469 246.632812 125.820312 246.632812 125.820312 240.488281 "/>
<path style=" stroke:none;fill-rule:evenodd;fill:rgb(45.098039%,45.098039%,87.058824%);fill-opacity:1;" d="M 158.222656 240.488281 C 158.222656 234.34375 149.003906 234.34375 149.003906 240.488281 C 149.003906 246.632812 158.222656 246.632812 158.222656 240.488281 "/>
<path style=" stroke:none;fill-rule:evenodd;fill:rgb(45.098039%,45.098039%,87.058824%);fill-opacity:1;" d="M 24.015625 99.007812 C 24.015625 92.769531 14.652344 92.769531 14.652344 99.007812 C 14.652344 105.25 24.015625 105.25 24.015625 99.007812 "/>
<path style=" stroke:none;fill-rule:evenodd;fill:rgb(45.098039%,45.098039%,87.058824%);fill-opacity:1;" d="M 35.554688 162.484375 C 35.554688 156.246094 26.195312 156.246094 26.195312 162.484375 C 26.195312 168.722656 35.554688 168.722656 35.554688 162.484375 "/>
<path style=" stroke:none;fill-rule:evenodd;fill:rgb(45.098039%,45.098039%,87.058824%);fill-opacity:1;" d="M 37.332031 223.570312 C 37.332031 217.328125 27.972656 217.328125 27.972656 223.570312 C 27.972656 229.808594 37.332031 229.808594 37.332031 223.570312 "/>
<path style=" stroke:none;fill-rule:evenodd;fill:rgb(45.098039%,45.098039%,87.058824%);fill-opacity:1;" d="M 67.933594 183.609375 C 67.933594 177.371094 58.574219 177.371094 58.574219 183.609375 C 58.574219 189.847656 67.933594 189.847656 67.933594 183.609375 "/>
<path style=" stroke:none;fill-rule:evenodd;fill:rgb(45.098039%,45.098039%,87.058824%);fill-opacity:1;" d="M 67.933594 255.96875 C 67.933594 249.730469 58.574219 249.730469 58.574219 255.96875 C 58.574219 262.210938 67.933594 262.210938 67.933594 255.96875 "/>
<path style=" stroke:none;fill-rule:evenodd;fill:rgb(45.098039%,45.098039%,87.058824%);fill-opacity:1;" d="M 92.773438 105.847656 C 92.773438 99.609375 83.414062 99.609375 83.414062 105.847656 C 83.414062 112.089844 92.773438 112.089844 92.773438 105.847656 "/>
<path style=" stroke:none;fill-rule:evenodd;fill:rgb(45.098039%,45.098039%,87.058824%);fill-opacity:1;" d="M 101.414062 183.96875 C 101.414062 177.730469 92.054688 177.730469 92.054688 183.96875 C 92.054688 190.210938 101.414062 190.210938 101.414062 183.96875 "/>
<path style=" stroke:none;fill-rule:evenodd;fill:rgb(45.098039%,45.098039%,87.058824%);fill-opacity:1;" d="M 137.773438 96.488281 C 137.773438 90.25 128.414062 90.25 128.414062 96.488281 C 128.414062 102.730469 137.773438 102.730469 137.773438 96.488281 "/>
</g>
</svg>
