  0
SECTION
  2
HEADER
  9
$ACADVER
  1
AC1009
  9
$EXTMIN
 10
0.0
 20
0.0
 30
0.0
  9
$EXTMAX
 10
1000.0
 20
1000.0
 30
0.0
  9
$FILLMODE
 70
 0
  9
$SPLFRAME
 70
 1
  0
ENDSEC
  0
SECTION
  2
TABLES
  0
TABLE
  2
LAYER
 70
1
  0
LAYER
  2
0
 70
     0
 62
     7
  6
CONTINUOUS
  0
ENDTAB
  0
ENDSEC
  0
SECTION
  2
ENTITIES
  0
POLYLINE
  8
0
 62
     13
 66
     1
 10
0
 20
0
 30
0.0
 40
1.08
 41
1.08
  0
VERTEX
  8
0
 10
0.0625
 20
3.6525
 30
0.0
 40
0.015
 41
0.015
  0
VERTEX
  8
0
 10
0.0625
 20
0.0625
 30
0.0
 40
0.015
 41
0.015
  0
SEQEND
 8
0
  0
POLYLINE
  8
0
 62
     13
 66
     1
 10
0
 20
0
 30
0.0
 40
1.08
 41
1.08
  0
VERTEX
  8
0
 10
0.0625
 20
0.0625
 30
0.0
 40
0.015
 41
0.015
  0
VERTEX
  8
0
 10
2.28749
 20
0.0625
 30
0.0
 40
0.015
 41
0.015
  0
SEQEND
 8
0
  0
POLYLINE
  8
0
 62
     13
 66
     1
 10
0
 20
0
 30
0.0
 40
1.08
 41
1.08
  0
VERTEX
  8
0
 10
2.28749
 20
0.0625
 30
0.0
 40
0.015
 41
0.015
  0
VERTEX
  8
0
 10
2.28749
 20
3.6525
 30
0.0
 40
0.015
 41
0.015
  0
SEQEND
 8
0
  0
POLYLINE
  8
0
 62
     13
 66
     1
 10
0
 20
0
 30
0.0
 40
1.08
 41
1.08
  0
VERTEX
  8
0
 10
2.28749
 20
3.6525
 30
0.0
 40
0.015
 41
0.015
  0
VERTEX
  8
0
 10
0.0625
 20
3.6525
 30
0.0
 40
0.015
 41
0.015
  0
SEQEND
 8
0
  0
POLYLINE
  8
0
 62
     173
 66
     1
 10
0
 20
0
 30
0.0
 70
     1
 40
0
 41
0
  0
VERTEX
  8
0
 10
0.172472
 20
1.17247
 30
0.0
 40
0
 41
0
  0
VERTEX
  8
0
 10
0.162489
 20
1.18251
 30
0.0
 40
0
 41
0
  0
VERTEX
  8
0
 10
0.152507
 20
1.17247
 30
0.0
 40
0
 41
0
  0
VERTEX
  8
0
 10
0.162489
 20
1.16254
 30
0.0
 40
0
 41
0
  0
VERTEX
  8
0
 10
0.172472
 20
1.17247
 30
0.0
 40
0
 41
0
  0
SEQEND
 8
0
  0
POLYLINE
  8
0
 62
     173
 66
     1
 10
0
 20
0
 30
0.0
 70
     1
 40
0
 41
0
  0
VERTEX
  8
0
 10
0.172797
 20
1.90088
 30
0.0
 40
0
 41
0
  0
VERTEX
  8
0
 10
0.162761
 20
1.91092
 30
0.0
 40
0
 41
0
  0
VERTEX
  8
0
 10
0.152778
 20
1.90088
 30
0.0
 40
0
 41
0
  0
VERTEX
  8
0
 10
0.162761
 20
1.89094
 30
0.0
 40
0
 41
0
  0
VERTEX
  8
0
 10
0.172797
 20
1.90088
 30
0.0
 40
0
 41
0
  0
SEQEND
 8
0
  0
POLYLINE
  8
0
 62
     173
 66
     1
 10
0
 20
0
 30
0.0
 70
     1
 40
0
 41
0
  0
VERTEX
  8
0
 10
0.277507
 20
2.9075
 30
0.0
 40
0
 41
0
  0
VERTEX
  8
0
 10
0.267469
 20
2.91754
 30
0.0
 40
0
 41
0
  0
VERTEX
  8
0
 10
0.257488
 20
2.9075
 30
0.0
 40
0
 41
0
  0
VERTEX
  8
0
 10
0.267469
 20
2.89751
 30
0.0
 40
0
 41
0
  0
VERTEX
  8
0
 10
0.277507
 20
2.9075
 30
0.0
 40
0
 41
0
  0
SEQEND
 8
0
  0
POLYLINE
  8
0
 62
     173
 66
     1
 10
0
 20
0
 30
0.0
 70
     1
 40
0
 41
0
  0
VERTEX
  8
0
 10
0.322483
 20
1.92247
 30
0.0
 40
0
 41
0
  0
VERTEX
  8
0
 10
0.3125
 20
1.93251
 30
0.0
 40
0
 41
0
  0
VERTEX
  8
0
 10
0.302518
 20
1.92247
 30
0.0
 40
0
 41
0
  0
VERTEX
  8
0
 10
0.3125
 20
1.91254
 30
0.0
 40
0
 41
0
  0
VERTEX
  8
0
 10
0.322483
 20
1.92247
 30
0.0
 40
0
 41
0
  0
SEQEND
 8
0
  0
POLYLINE
  8
0
 62
     173
 66
     1
 10
0
 20
0
 30
0.0
 70
     1
 40
0
 41
0
  0
VERTEX
  8
0
 10
0.322483
 20
1.20752
 30
0.0
 40
0
 41
0
  0
VERTEX
  8
0
 10
0.3125
 20
1.2175
 30
0.0
 40
0
 41
0
  0
VERTEX
  8
0
 10
0.302518
 20
1.20752
 30
0.0
 40
0
 41
0
  0
VERTEX
  8
0
 10
0.3125
 20
1.19754
 30
0.0
 40
0
 41
0
  0
VERTEX
  8
0
 10
0.322483
 20
1.20752
 30
0.0
 40
0
 41
0
  0
SEQEND
 8
0
  0
POLYLINE
  8
0
 62
     173
 66
     1
 10
0
 20
0
 30
0.0
 70
     1
 40
0
 41
0
  0
VERTEX
  8
0
 10
0.472493
 20
1.17247
 30
0.0
 40
0
 41
0
  0
VERTEX
  8
0
 10
0.462457
 20
1.18251
 30
0.0
 40
0
 41
0
  0
VERTEX
  8
0
 10
0.452474
 20
1.17247
 30
0.0
 40
0
 41
0
  0
VERTEX
  8
0
 10
0.462457
 20
1.16254
 30
0.0
 40
0
 41
0
  0
VERTEX
  8
0
 10
0.472493
 20
1.17247
 30
0.0
 40
0
 41
0
  0
SEQEND
 8
0
  0
POLYLINE
  8
0
 62
     173
 66
     1
 10
0
 20
0
 30
0.0
 70
     1
 40
0
 41
0
  0
VERTEX
  8
0
 10
0.472819
 20
1.90088
 30
0.0
 40
0
 41
0
  0
VERTEX
  8
0
 10
0.462782
 20
1.91092
 30
0.0
 40
0
 41
0
  0
VERTEX
  8
0
 10
0.4528
 20
1.90088
 30
0.0
 40
0
 41
0
  0
VERTEX
  8
0
 10
0.462782
 20
1.89094
 30
0.0
 40
0
 41
0
  0
VERTEX
  8
0
 10
0.472819
 20
1.90088
 30
0.0
 40
0
 41
0
  0
SEQEND
 8
0
  0
POLYLINE
  8
0
 62
     173
 66
     1
 10
0
 20
0
 30
0.0
 70
     1
 40
0
 41
0
  0
VERTEX
  8
0
 10
0.577474
 20
2.9075
 30
0.0
 40
0
 41
0
  0
VERTEX
  8
0
 10
0.567492
 20
2.91754
 30
0.0
 40
0
 41
0
  0
VERTEX
  8
0
 10
0.557508
 20
2.9075
 30
0.0
 40
0
 41
0
  0
VERTEX
  8
0
 10
0.567492
 20
2.89751
 30
0.0
 40
0
 41
0
  0
VERTEX
  8
0
 10
0.577474
 20
2.9075
 30
0.0
 40
0
 41
0
  0
SEQEND
 8
0
  0
POLYLINE
  8
0
 62
     173
 66
     1
 10
0
 20
0
 30
0.0
 70
     1
 40
0
 41
0
  0
VERTEX
  8
0
 10
0.622504
 20
1.92247
 30
0.0
 40
0
 41
0
  0
VERTEX
  8
0
 10
0.612468
 20
1.93251
 30
0.0
 40
0
 41
0
  0
VERTEX
  8
0
 10
0.602485
 20
1.92247
 30
0.0
 40
0
 41
0
  0
VERTEX
  8
0
 10
0.612468
 20
1.91254
 30
0.0
 40
0
 41
0
  0
VERTEX
  8
0
 10
0.622504
 20
1.92247
 30
0.0
 40
0
 41
0
  0
SEQEND
 8
0
  0
POLYLINE
  8
0
 62
     173
 66
     1
 10
0
 20
0
 30
0.0
 70
     1
 40
0
 41
0
  0
VERTEX
  8
0
 10
0.622504
 20
1.20752
 30
0.0
 40
0
 41
0
  0
VERTEX
  8
0
 10
0.612468
 20
1.2175
 30
0.0
 40
0
 41
0
  0
VERTEX
  8
0
 10
0.602485
 20
1.20752
 30
0.0
 40
0
 41
0
  0
VERTEX
  8
0
 10
0.612468
 20
1.19754
 30
0.0
 40
0
 41
0
  0
VERTEX
  8
0
 10
0.622504
 20
1.20752
 30
0.0
 40
0
 41
0
  0
SEQEND
 8
0
  0
POLYLINE
  8
0
 62
     173
 66
     1
 10
0
 20
0
 30
0.0
 70
     1
 40
0
 41
0
  0
VERTEX
  8
0
 10
1.08252
 20
2.30251
 30
0.0
 40
0
 41
0
  0
VERTEX
  8
0
 10
1.07248
 20
2.3125
 30
0.0
 40
0
 41
0
  0
VERTEX
  8
0
 10
1.0625
 20
2.30251
 30
0.0
 40
0
 41
0
  0
VERTEX
  8
0
 10
1.07248
 20
2.29254
 30
0.0
 40
0
 41
0
  0
VERTEX
  8
0
 10
1.08252
 20
2.30251
 30
0.0
 40
0
 41
0
  0
SEQEND
 8
0
  0
POLYLINE
  8
0
 62
     173
 66
     1
 10
0
 20
0
 30
0.0
 70
     1
 40
0
 41
0
  0
VERTEX
  8
0
 10
1.23248
 20
2.81749
 30
0.0
 40
0
 41
0
  0
VERTEX
  8
0
 10
1.22249
 20
2.82753
 30
0.0
 40
0
 41
0
  0
VERTEX
  8
0
 10
1.21251
 20
2.81749
 30
0.0
 40
0
 41
0
  0
VERTEX
  8
0
 10
1.22249
 20
2.80751
 30
0.0
 40
0
 41
0
  0
VERTEX
  8
0
 10
1.23248
 20
2.81749
 30
0.0
 40
0
 41
0
  0
SEQEND
 8
0
  0
POLYLINE
  8
0
 62
     173
 66
     1
 10
0
 20
0
 30
0.0
 70
     1
 40
0
 41
0
  0
VERTEX
  8
0
 10
1.38249
 20
2.30251
 30
0.0
 40
0
 41
0
  0
VERTEX
  8
0
 10
1.37245
 20
2.3125
 30
0.0
 40
0
 41
0
  0
VERTEX
  8
0
 10
1.36247
 20
2.30251
 30
0.0
 40
0
 41
0
  0
VERTEX
  8
0
 10
1.37245
 20
2.29254
 30
0.0
 40
0
 41
0
  0
VERTEX
  8
0
 10
1.38249
 20
2.30251
 30
0.0
 40
0
 41
0
  0
SEQEND
 8
0
  0
POLYLINE
  8
0
 62
     173
 66
     1
 10
0
 20
0
 30
0.0
 70
     1
 40
0
 41
0
  0
VERTEX
  8
0
 10
1.5325
 20
2.81749
 30
0.0
 40
0
 41
0
  0
VERTEX
  8
0
 10
1.52246
 20
2.82753
 30
0.0
 40
0
 41
0
  0
VERTEX
  8
0
 10
1.51247
 20
2.81749
 30
0.0
 40
0
 41
0
  0
VERTEX
  8
0
 10
1.52246
 20
2.80751
 30
0.0
 40
0
 41
0
  0
VERTEX
  8
0
 10
1.5325
 20
2.81749
 30
0.0
 40
0
 41
0
  0
SEQEND
 8
0
  0
POLYLINE
  8
0
 62
     173
 66
     1
 10
0
 20
0
 30
0.0
 70
     1
 40
0
 41
0
  0
VERTEX
  8
0
 10
1.55751
 20
2.95751
 30
0.0
 40
0
 41
0
  0
VERTEX
  8
0
 10
1.54747
 20
2.9675
 30
0.0
 40
0
 41
0
  0
VERTEX
  8
0
 10
1.53749
 20
2.95751
 30
0.0
 40
0
 41
0
  0
VERTEX
  8
0
 10
1.54747
 20
2.94754
 30
0.0
 40
0
 41
0
  0
VERTEX
  8
0
 10
1.55751
 20
2.95751
 30
0.0
 40
0
 41
0
  0
SEQEND
 8
0
  0
POLYLINE
  8
0
 62
     173
 66
     1
 10
0
 20
0
 30
0.0
 70
     1
 40
0
 41
0
  0
VERTEX
  8
0
 10
1.85747
 20
2.95751
 30
0.0
 40
0
 41
0
  0
VERTEX
  8
0
 10
1.8475
 20
2.9675
 30
0.0
 40
0
 41
0
  0
VERTEX
  8
0
 10
1.83751
 20
2.95751
 30
0.0
 40
0
 41
0
  0
VERTEX
  8
0
 10
1.8475
 20
2.94754
 30
0.0
 40
0
 41
0
  0
VERTEX
  8
0
 10
1.85747
 20
2.95751
 30
0.0
 40
0
 41
0
  0
SEQEND
 8
0
  0
POLYLINE
  8
0
 62
     173
 66
     1
 10
0
 20
0
 30
0.0
 70
     1
 40
0
 41
0
  0
VERTEX
  8
0
 10
1.85747
 20
2.8725
 30
0.0
 40
0
 41
0
  0
VERTEX
  8
0
 10
1.8475
 20
2.88254
 30
0.0
 40
0
 41
0
  0
VERTEX
  8
0
 10
1.83751
 20
2.8725
 30
0.0
 40
0
 41
0
  0
VERTEX
  8
0
 10
1.8475
 20
2.86253
 30
0.0
 40
0
 41
0
  0
VERTEX
  8
0
 10
1.85747
 20
2.8725
 30
0.0
 40
0
 41
0
  0
SEQEND
 8
0
  0
POLYLINE
  8
0
 62
     173
 66
     1
 10
0
 20
0
 30
0.0
 70
     1
 40
0
 41
0
  0
VERTEX
  8
0
 10
1.8725
 20
2.1875
 30
0.0
 40
0
 41
0
  0
VERTEX
  8
0
 10
1.86247
 20
2.19754
 30
0.0
 40
0
 41
0
  0
VERTEX
  8
0
 10
1.85249
 20
2.1875
 30
0.0
 40
0
 41
0
  0
VERTEX
  8
0
 10
1.86247
 20
2.17751
 30
0.0
 40
0
 41
0
  0
VERTEX
  8
0
 10
1.8725
 20
2.1875
 30
0.0
 40
0
 41
0
  0
SEQEND
 8
0
  0
POLYLINE
  8
0
 62
     173
 66
     1
 10
0
 20
0
 30
0.0
 70
     1
 40
0
 41
0
  0
VERTEX
  8
0
 10
1.8725
 20
1.88747
 30
0.0
 40
0
 41
0
  0
VERTEX
  8
0
 10
1.86247
 20
1.89751
 30
0.0
 40
0
 41
0
  0
VERTEX
  8
0
 10
1.85249
 20
1.88747
 30
0.0
 40
0
 41
0
  0
VERTEX
  8
0
 10
1.86247
 20
1.87756
 30
0.0
 40
0
 41
0
  0
VERTEX
  8
0
 10
1.8725
 20
1.88747
 30
0.0
 40
0
 41
0
  0
SEQEND
 8
0
  0
POLYLINE
  8
0
 62
     173
 66
     1
 10
0
 20
0
 30
0.0
 70
     1
 40
0
 41
0
  0
VERTEX
  8
0
 10
2.1575
 20
2.8725
 30
0.0
 40
0
 41
0
  0
VERTEX
  8
0
 10
2.14746
 20
2.88254
 30
0.0
 40
0
 41
0
  0
VERTEX
  8
0
 10
2.13747
 20
2.8725
 30
0.0
 40
0
 41
0
  0
VERTEX
  8
0
 10
2.14746
 20
2.86253
 30
0.0
 40
0
 41
0
  0
VERTEX
  8
0
 10
2.1575
 20
2.8725
 30
0.0
 40
0
 41
0
  0
SEQEND
 8
0
  0
POLYLINE
  8
0
 62
     173
 66
     1
 10
0
 20
0
 30
0.0
 70
     1
 40
0
 41
0
  0
VERTEX
  8
0
 10
0.174968
 20
1.01248
 30
0.0
 40
0
 41
0
  0
VERTEX
  8
0
 10
0.171061
 20
1.02186
 30
0.0
 40
0
 41
0
  0
VERTEX
  8
0
 10
0.162489
 20
1.02501
 30
0.0
 40
0
 41
0
  0
VERTEX
  8
0
 10
0.153863
 20
1.02186
 30
0.0
 40
0
 41
0
  0
VERTEX
  8
0
 10
0.150011
 20
1.01248
 30
0.0
 40
0
 41
0
  0
VERTEX
  8
0
 10
0.153863
 20
1.00315
 30
0.0
 40
0
 41
0
  0
VERTEX
  8
0
 10
0.162489
 20
1
 30
0.0
 40
0
 41
0
  0
VERTEX
  8
0
 10
0.171061
 20
1.00315
 30
0.0
 40
0
 41
0
  0
VERTEX
  8
0
 10
0.174968
 20
1.01248
 30
0.0
 40
0
 41
0
  0
SEQEND
 8
0
  0
POLYLINE
  8
0
 62
     173
 66
     1
 10
0
 20
0
 30
0.0
 70
     1
 40
0
 41
0
  0
VERTEX
  8
0
 10
0.180013
 20
1.79249
 30
0.0
 40
0
 41
0
  0
VERTEX
  8
0
 10
0.176053
 20
1.80186
 30
0.0
 40
0
 41
0
  0
VERTEX
  8
0
 10
0.167481
 20
1.80501
 30
0.0
 40
0
 41
0
  0
VERTEX
  8
0
 10
0.158908
 20
1.80186
 30
0.0
 40
0
 41
0
  0
VERTEX
  8
0
 10
0.155003
 20
1.79249
 30
0.0
 40
0
 41
0
  0
VERTEX
  8
0
 10
0.158908
 20
1.78315
 30
0.0
 40
0
 41
0
  0
VERTEX
  8
0
 10
0.167481
 20
1.78
 30
0.0
 40
0
 41
0
  0
VERTEX
  8
0
 10
0.176053
 20
1.78315
 30
0.0
 40
0
 41
0
  0
VERTEX
  8
0
 10
0.180013
 20
1.79249
 30
0.0
 40
0
 41
0
  0
SEQEND
 8
0
  0
POLYLINE
  8
0
 62
     173
 66
     1
 10
0
 20
0
 30
0.0
 70
     1
 40
0
 41
0
  0
VERTEX
  8
0
 10
0.438585
 20
0.912489
 30
0.0
 40
0
 41
0
  0
VERTEX
  8
0
 10
0.434625
 20
0.921875
 30
0.0
 40
0
 41
0
  0
VERTEX
  8
0
 10
0.426053
 20
0.925022
 30
0.0
 40
0
 41
0
  0
VERTEX
  8
0
 10
0.417481
 20
0.921875
 30
0.0
 40
0
 41
0
  0
VERTEX
  8
0
 10
0.413574
 20
0.912489
 30
0.0
 40
0
 41
0
  0
VERTEX
  8
0
 10
0.417481
 20
0.903157
 30
0.0
 40
0
 41
0
  0
VERTEX
  8
0
 10
0.426053
 20
0.900011
 30
0.0
 40
0
 41
0
  0
VERTEX
  8
0
 10
0.434625
 20
0.903157
 30
0.0
 40
0
 41
0
  0
VERTEX
  8
0
 10
0.438585
 20
0.912489
 30
0.0
 40
0
 41
0
  0
SEQEND
 8
0
  0
POLYLINE
  8
0
 62
     173
 66
     1
 10
0
 20
0
 30
0.0
 70
     1
 40
0
 41
0
  0
VERTEX
  8
0
 10
0.490018
 20
3.21451
 30
0.0
 40
0
 41
0
  0
VERTEX
  8
0
 10
0.486057
 20
3.2239
 30
0.0
 40
0
 41
0
  0
VERTEX
  8
0
 10
0.477485
 20
3.22706
 30
0.0
 40
0
 41
0
  0
VERTEX
  8
0
 10
0.468912
 20
3.2239
 30
0.0
 40
0
 41
0
  0
VERTEX
  8
0
 10
0.465007
 20
3.21451
 30
0.0
 40
0
 41
0
  0
VERTEX
  8
0
 10
0.468912
 20
3.20514
 30
0.0
 40
0
 41
0
  0
VERTEX
  8
0
 10
0.477485
 20
3.20199
 30
0.0
 40
0
 41
0
  0
VERTEX
  8
0
 10
0.486057
 20
3.20514
 30
0.0
 40
0
 41
0
  0
VERTEX
  8
0
 10
0.490018
 20
3.21451
 30
0.0
 40
0
 41
0
  0
SEQEND
 8
0
  0
POLYLINE
  8
0
 62
     173
 66
     1
 10
0
 20
0
 30
0.0
 70
     1
 40
0
 41
0
  0
VERTEX
  8
0
 10
0.529676
 20
1.70751
 30
0.0
 40
0
 41
0
  0
VERTEX
  8
0
 10
0.525771
 20
1.7169
 30
0.0
 40
0
 41
0
  0
VERTEX
  8
0
 10
0.517199
 20
1.72006
 30
0.0
 40
0
 41
0
  0
VERTEX
  8
0
 10
0.508572
 20
1.7169
 30
0.0
 40
0
 41
0
  0
VERTEX
  8
0
 10
0.504719
 20
1.70751
 30
0.0
 40
0
 41
0
  0
VERTEX
  8
0
 10
0.508572
 20
1.69814
 30
0.0
 40
0
 41
0
  0
VERTEX
  8
0
 10
0.517199
 20
1.69499
 30
0.0
 40
0
 41
0
  0
VERTEX
  8
0
 10
0.525771
 20
1.69814
 30
0.0
 40
0
 41
0
  0
VERTEX
  8
0
 10
0.529676
 20
1.70751
 30
0.0
 40
0
 41
0
  0
SEQEND
 8
0
  0
POLYLINE
  8
0
 62
     173
 66
     1
 10
0
 20
0
 30
0.0
 70
     1
 40
0
 41
0
  0
VERTEX
  8
0
 10
0.623915
 20
0.892469
 30
0.0
 40
0
 41
0
  0
VERTEX
  8
0
 10
0.619954
 20
0.90191
 30
0.0
 40
0
 41
0
  0
VERTEX
  8
0
 10
0.611382
 20
0.905003
 30
0.0
 40
0
 41
0
  0
VERTEX
  8
0
 10
0.60281
 20
0.90191
 30
0.0
 40
0
 41
0
  0
VERTEX
  8
0
 10
0.598904
 20
0.892469
 30
0.0
 40
0
 41
0
  0
VERTEX
  8
0
 10
0.60281
 20
0.883137
 30
0.0
 40
0
 41
0
  0
VERTEX
  8
0
 10
0.611382
 20
0.879992
 30
0.0
 40
0
 41
0
  0
VERTEX
  8
0
 10
0.619954
 20
0.883137
 30
0.0
 40
0
 41
0
  0
VERTEX
  8
0
 10
0.623915
 20
0.892469
 30
0.0
 40
0
 41
0
  0
SEQEND
 8
0
  0
POLYLINE
  8
0
 62
     173
 66
     1
 10
0
 20
0
 30
0.0
 70
     1
 40
0
 41
0
  0
VERTEX
  8
0
 10
0.669976
 20
2.40776
 30
0.0
 40
0
 41
0
  0
VERTEX
  8
0
 10
0.666069
 20
2.41721
 30
0.0
 40
0
 41
0
  0
VERTEX
  8
0
 10
0.657497
 20
2.42031
 30
0.0
 40
0
 41
0
  0
VERTEX
  8
0
 10
0.648872
 20
2.41721
 30
0.0
 40
0
 41
0
  0
VERTEX
  8
0
 10
0.645019
 20
2.40776
 30
0.0
 40
0
 41
0
  0
VERTEX
  8
0
 10
0.648872
 20
2.39844
 30
0.0
 40
0
 41
0
  0
VERTEX
  8
0
 10
0.657497
 20
2.39529
 30
0.0
 40
0
 41
0
  0
VERTEX
  8
0
 10
0.666069
 20
2.39844
 30
0.0
 40
0
 41
0
  0
VERTEX
  8
0
 10
0.669976
 20
2.40776
 30
0.0
 40
0
 41
0
  0
SEQEND
 8
0
  0
POLYLINE
  8
0
 62
     173
 66
     1
 10
0
 20
0
 30
0.0
 70
     1
 40
0
 41
0
  0
VERTEX
  8
0
 10
0.724989
 20
0.487468
 30
0.0
 40
0
 41
0
  0
VERTEX
  8
0
 10
0.721029
 20
0.496907
 30
0.0
 40
0
 41
0
  0
VERTEX
  8
0
 10
0.712457
 20
0.5
 30
0.0
 40
0
 41
0
  0
VERTEX
  8
0
 10
0.703885
 20
0.496907
 30
0.0
 40
0
 41
0
  0
VERTEX
  8
0
 10
0.699978
 20
0.487468
 30
0.0
 40
0
 41
0
  0
VERTEX
  8
0
 10
0.703885
 20
0.478136
 30
0.0
 40
0
 41
0
  0
VERTEX
  8
0
 10
0.712457
 20
0.474989
 30
0.0
 40
0
 41
0
  0
VERTEX
  8
0
 10
0.721029
 20
0.478136
 30
0.0
 40
0
 41
0
  0
VERTEX
  8
0
 10
0.724989
 20
0.487468
 30
0.0
 40
0
 41
0
  0
SEQEND
 8
0
  0
POLYLINE
  8
0
 62
     173
 66
     1
 10
0
 20
0
 30
0.0
 70
     1
 40
0
 41
0
  0
VERTEX
  8
0
 10
0.895019
 20
2.36279
 30
0.0
 40
0
 41
0
  0
VERTEX
  8
0
 10
0.89106
 20
2.37218
 30
0.0
 40
0
 41
0
  0
VERTEX
  8
0
 10
0.882488
 20
2.37532
 30
0.0
 40
0
 41
0
  0
VERTEX
  8
0
 10
0.873915
 20
2.37218
 30
0.0
 40
0
 41
0
  0
VERTEX
  8
0
 10
0.870008
 20
2.36279
 30
0.0
 40
0
 41
0
  0
VERTEX
  8
0
 10
0.873915
 20
2.35346
 30
0.0
 40
0
 41
0
  0
VERTEX
  8
0
 10
0.882488
 20
2.35032
 30
0.0
 40
0
 41
0
  0
VERTEX
  8
0
 10
0.89106
 20
2.35346
 30
0.0
 40
0
 41
0
  0
VERTEX
  8
0
 10
0.895019
 20
2.36279
 30
0.0
 40
0
 41
0
  0
SEQEND
 8
0
  0
POLYLINE
  8
0
 62
     173
 66
     1
 10
0
 20
0
 30
0.0
 70
     1
 40
0
 41
0
  0
VERTEX
  8
0
 10
0.953017
 20
3.18251
 30
0.0
 40
0
 41
0
  0
VERTEX
  8
0
 10
0.949056
 20
3.19189
 30
0.0
 40
0
 41
0
  0
VERTEX
  8
0
 10
0.940483
 20
3.19504
 30
0.0
 40
0
 41
0
  0
VERTEX
  8
0
 10
0.931913
 20
3.19189
 30
0.0
 40
0
 41
0
  0
VERTEX
  8
0
 10
0.928006
 20
3.18251
 30
0.0
 40
0
 41
0
  0
VERTEX
  8
0
 10
0.931913
 20
3.17318
 30
0.0
 40
0
 41
0
  0
VERTEX
  8
0
 10
0.940483
 20
3.17003
 30
0.0
 40
0
 41
0
  0
VERTEX
  8
0
 10
0.949056
 20
3.17318
 30
0.0
 40
0
 41
0
  0
VERTEX
  8
0
 10
0.953017
 20
3.18251
 30
0.0
 40
0
 41
0
  0
SEQEND
 8
0
  0
POLYLINE
  8
0
 62
     173
 66
     1
 10
0
 20
0
 30
0.0
 70
     1
 40
0
 41
0
  0
VERTEX
  8
0
 10
0.974989
 20
0.397515
 30
0.0
 40
0
 41
0
  0
VERTEX
  8
0
 10
0.971029
 20
0.406901
 30
0.0
 40
0
 41
0
  0
VERTEX
  8
0
 10
0.962457
 20
0.410047
 30
0.0
 40
0
 41
0
  0
VERTEX
  8
0
 10
0.953885
 20
0.406901
 30
0.0
 40
0
 41
0
  0
VERTEX
  8
0
 10
0.949978
 20
0.397515
 30
0.0
 40
0
 41
0
  0
VERTEX
  8
0
 10
0.953885
 20
0.388129
 30
0.0
 40
0
 41
0
  0
VERTEX
  8
0
 10
0.962457
 20
0.384983
 30
0.0
 40
0
 41
0
  0
VERTEX
  8
0
 10
0.971029
 20
0.388129
 30
0.0
 40
0
 41
0
  0
VERTEX
  8
0
 10
0.974989
 20
0.397515
 30
0.0
 40
0
 41
0
  0
SEQEND
 8
0
  0
POLYLINE
  8
0
 62
     173
 66
     1
 10
0
 20
0
 30
0.0
 70
     1
 40
0
 41
0
  0
VERTEX
  8
0
 10
1.21002
 20
1.54747
 30
0.0
 40
0
 41
0
  0
VERTEX
  8
0
 10
1.20605
 20
1.55692
 30
0.0
 40
0
 41
0
  0
VERTEX
  8
0
 10
1.19748
 20
1.56
 30
0.0
 40
0
 41
0
  0
VERTEX
  8
0
 10
1.18891
 20
1.55692
 30
0.0
 40
0
 41
0
  0
VERTEX
  8
0
 10
1.185
 20
1.54747
 30
0.0
 40
0
 41
0
  0
VERTEX
  8
0
 10
1.18891
 20
1.53814
 30
0.0
 40
0
 41
0
  0
VERTEX
  8
0
 10
1.19748
 20
1.535
 30
0.0
 40
0
 41
0
  0
VERTEX
  8
0
 10
1.20605
 20
1.53814
 30
0.0
 40
0
 41
0
  0
VERTEX
  8
0
 10
1.21002
 20
1.54747
 30
0.0
 40
0
 41
0
  0
SEQEND
 8
0
  0
POLYLINE
  8
0
 62
     173
 66
     1
 10
0
 20
0
 30
0.0
 70
     1
 40
0
 41
0
  0
VERTEX
  8
0
 10
1.22499
 20
1.39751
 30
0.0
 40
0
 41
0
  0
VERTEX
  8
0
 10
1.22103
 20
1.4069
 30
0.0
 40
0
 41
0
  0
VERTEX
  8
0
 10
1.21246
 20
1.41004
 30
0.0
 40
0
 41
0
  0
VERTEX
  8
0
 10
1.20388
 20
1.4069
 30
0.0
 40
0
 41
0
  0
VERTEX
  8
0
 10
1.19998
 20
1.39751
 30
0.0
 40
0
 41
0
  0
VERTEX
  8
0
 10
1.20388
 20
1.38813
 30
0.0
 40
0
 41
0
  0
VERTEX
  8
0
 10
1.21246
 20
1.38498
 30
0.0
 40
0
 41
0
  0
VERTEX
  8
0
 10
1.22103
 20
1.38813
 30
0.0
 40
0
 41
0
  0
VERTEX
  8
0
 10
1.22499
 20
1.39751
 30
0.0
 40
0
 41
0
  0
SEQEND
 8
0
  0
POLYLINE
  8
0
 62
     173
 66
     1
 10
0
 20
0
 30
0.0
 70
     1
 40
0
 41
0
  0
VERTEX
  8
0
 10
1.28499
 20
1.03749
 30
0.0
 40
0
 41
0
  0
VERTEX
  8
0
 10
1.28103
 20
1.04688
 30
0.0
 40
0
 41
0
  0
VERTEX
  8
0
 10
1.27246
 20
1.05002
 30
0.0
 40
0
 41
0
  0
VERTEX
  8
0
 10
1.26389
 20
1.04688
 30
0.0
 40
0
 41
0
  0
VERTEX
  8
0
 10
1.25998
 20
1.03749
 30
0.0
 40
0
 41
0
  0
VERTEX
  8
0
 10
1.26389
 20
1.02816
 30
0.0
 40
0
 41
0
  0
VERTEX
  8
0
 10
1.27246
 20
1.02501
 30
0.0
 40
0
 41
0
  0
VERTEX
  8
0
 10
1.28103
 20
1.02816
 30
0.0
 40
0
 41
0
  0
VERTEX
  8
0
 10
1.28499
 20
1.03749
 30
0.0
 40
0
 41
0
  0
SEQEND
 8
0
  0
POLYLINE
  8
0
 62
     173
 66
     1
 10
0
 20
0
 30
0.0
 70
     1
 40
0
 41
0
  0
VERTEX
  8
0
 10
1.29997
 20
1.76747
 30
0.0
 40
0
 41
0
  0
VERTEX
  8
0
 10
1.29606
 20
1.77692
 30
0.0
 40
0
 41
0
  0
VERTEX
  8
0
 10
1.28749
 20
1.78
 30
0.0
 40
0
 41
0
  0
VERTEX
  8
0
 10
1.27886
 20
1.77692
 30
0.0
 40
0
 41
0
  0
VERTEX
  8
0
 10
1.27501
 20
1.76747
 30
0.0
 40
0
 41
0
  0
VERTEX
  8
0
 10
1.27886
 20
1.75814
 30
0.0
 40
0
 41
0
  0
VERTEX
  8
0
 10
1.28749
 20
1.75499
 30
0.0
 40
0
 41
0
  0
VERTEX
  8
0
 10
1.29606
 20
1.75814
 30
0.0
 40
0
 41
0
  0
VERTEX
  8
0
 10
1.29997
 20
1.76747
 30
0.0
 40
0
 41
0
  0
SEQEND
 8
0
  0
POLYLINE
  8
0
 62
     173
 66
     1
 10
0
 20
0
 30
0.0
 70
     1
 40
0
 41
0
  0
VERTEX
  8
0
 10
1.405
 20
1.76747
 30
0.0
 40
0
 41
0
  0
VERTEX
  8
0
 10
1.40104
 20
1.77692
 30
0.0
 40
0
 41
0
  0
VERTEX
  8
0
 10
1.39247
 20
1.78
 30
0.0
 40
0
 41
0
  0
VERTEX
  8
0
 10
1.3839
 20
1.77692
 30
0.0
 40
0
 41
0
  0
VERTEX
  8
0
 10
1.37999
 20
1.76747
 30
0.0
 40
0
 41
0
  0
VERTEX
  8
0
 10
1.3839
 20
1.75814
 30
0.0
 40
0
 41
0
  0
VERTEX
  8
0
 10
1.39247
 20
1.75499
 30
0.0
 40
0
 41
0
  0
VERTEX
  8
0
 10
1.40104
 20
1.75814
 30
0.0
 40
0
 41
0
  0
VERTEX
  8
0
 10
1.405
 20
1.76747
 30
0.0
 40
0
 41
0
  0
SEQEND
 8
0
  0
POLYLINE
  8
0
 62
     173
 66
     1
 10
0
 20
0
 30
0.0
 70
     1
 40
0
 41
0
  0
VERTEX
  8
0
 10
1.535
 20
2.46251
 30
0.0
 40
0
 41
0
  0
VERTEX
  8
0
 10
1.53103
 20
2.4719
 30
0.0
 40
0
 41
0
  0
VERTEX
  8
0
 10
1.52246
 20
2.47504
 30
0.0
 40
0
 41
0
  0
VERTEX
  8
0
 10
1.51389
 20
2.4719
 30
0.0
 40
0
 41
0
  0
VERTEX
  8
0
 10
1.50999
 20
2.46251
 30
0.0
 40
0
 41
0
  0
VERTEX
  8
0
 10
1.51389
 20
2.45313
 30
0.0
 40
0
 41
0
  0
VERTEX
  8
0
 10
1.52246
 20
2.44997
 30
0.0
 40
0
 41
0
  0
VERTEX
  8
0
 10
1.53103
 20
2.45313
 30
0.0
 40
0
 41
0
  0
VERTEX
  8
0
 10
1.535
 20
2.46251
 30
0.0
 40
0
 41
0
  0
SEQEND
 8
0
  0
POLYLINE
  8
0
 62
     173
 66
     1
 10
0
 20
0
 30
0.0
 70
     1
 40
0
 41
0
  0
VERTEX
  8
0
 10
1.565
 20
1.61751
 30
0.0
 40
0
 41
0
  0
VERTEX
  8
0
 10
1.56104
 20
1.6269
 30
0.0
 40
0
 41
0
  0
VERTEX
  8
0
 10
1.55246
 20
1.63004
 30
0.0
 40
0
 41
0
  0
VERTEX
  8
0
 10
1.54389
 20
1.6269
 30
0.0
 40
0
 41
0
  0
VERTEX
  8
0
 10
1.53999
 20
1.61751
 30
0.0
 40
0
 41
0
  0
VERTEX
  8
0
 10
1.54389
 20
1.60813
 30
0.0
 40
0
 41
0
  0
VERTEX
  8
0
 10
1.55246
 20
1.60499
 30
0.0
 40
0
 41
0
  0
VERTEX
  8
0
 10
1.56104
 20
1.60813
 30
0.0
 40
0
 41
0
  0
VERTEX
  8
0
 10
1.565
 20
1.61751
 30
0.0
 40
0
 41
0
  0
SEQEND
 8
0
  0
POLYLINE
  8
0
 62
     173
 66
     1
 10
0
 20
0
 30
0.0
 70
     1
 40
0
 41
0
  0
VERTEX
  8
0
 10
1.63499
 20
2.3475
 30
0.0
 40
0
 41
0
  0
VERTEX
  8
0
 10
1.63103
 20
2.35688
 30
0.0
 40
0
 41
0
  0
VERTEX
  8
0
 10
1.62244
 20
2.36003
 30
0.0
 40
0
 41
0
  0
VERTEX
  8
0
 10
1.61387
 20
2.35688
 30
0.0
 40
0
 41
0
  0
VERTEX
  8
0
 10
1.60997
 20
2.3475
 30
0.0
 40
0
 41
0
  0
VERTEX
  8
0
 10
1.61387
 20
2.33817
 30
0.0
 40
0
 41
0
  0
VERTEX
  8
0
 10
1.62244
 20
2.33501
 30
0.0
 40
0
 41
0
  0
VERTEX
  8
0
 10
1.63103
 20
2.33817
 30
0.0
 40
0
 41
0
  0
VERTEX
  8
0
 10
1.63499
 20
2.3475
 30
0.0
 40
0
 41
0
  0
SEQEND
 8
0
  0
POLYLINE
  8
0
 62
     173
 66
     1
 10
0
 20
0
 30
0.0
 70
     1
 40
0
 41
0
  0
VERTEX
  8
0
 10
1.70497
 20
1.63058
 30
0.0
 40
0
 41
0
  0
VERTEX
  8
0
 10
1.70107
 20
1.63997
 30
0.0
 40
0
 41
0
  0
VERTEX
  8
0
 10
1.69249
 20
1.64313
 30
0.0
 40
0
 41
0
  0
VERTEX
  8
0
 10
1.68386
 20
1.63997
 30
0.0
 40
0
 41
0
  0
VERTEX
  8
0
 10
1.68001
 20
1.63058
 30
0.0
 40
0
 41
0
  0
VERTEX
  8
0
 10
1.68386
 20
1.62125
 30
0.0
 40
0
 41
0
  0
VERTEX
  8
0
 10
1.69249
 20
1.61811
 30
0.0
 40
0
 41
0
  0
VERTEX
  8
0
 10
1.70107
 20
1.62125
 30
0.0
 40
0
 41
0
  0
VERTEX
  8
0
 10
1.70497
 20
1.63058
 30
0.0
 40
0
 41
0
  0
SEQEND
 8
0
  0
POLYLINE
  8
0
 62
     173
 66
     1
 10
0
 20
0
 30
0.0
 70
     1
 40
0
 41
0
  0
VERTEX
  8
0
 10
2.05501
 20
2.23779
 30
0.0
 40
0
 41
0
  0
VERTEX
  8
0
 10
2.05106
 20
2.24718
 30
0.0
 40
0
 41
0
  0
VERTEX
  8
0
 10
2.04249
 20
2.25032
 30
0.0
 40
0
 41
0
  0
VERTEX
  8
0
 10
2.0339
 20
2.24718
 30
0.0
 40
0
 41
0
  0
VERTEX
  8
0
 10
2.03
 20
2.23779
 30
0.0
 40
0
 41
0
  0
VERTEX
  8
0
 10
2.0339
 20
2.22846
 30
0.0
 40
0
 41
0
  0
VERTEX
  8
0
 10
2.04249
 20
2.22532
 30
0.0
 40
0
 41
0
  0
VERTEX
  8
0
 10
2.05106
 20
2.22846
 30
0.0
 40
0
 41
0
  0
VERTEX
  8
0
 10
2.05501
 20
2.23779
 30
0.0
 40
0
 41
0
  0
SEQEND
 8
0
  0
POLYLINE
  8
0
 62
     173
 66
     1
 10
0
 20
0
 30
0.0
 70
     1
 40
0
 41
0
  0
VERTEX
  8
0
 10
2.11501
 20
3.5925
 30
0.0
 40
0
 41
0
  0
VERTEX
  8
0
 10
2.11106
 20
3.60189
 30
0.0
 40
0
 41
0
  0
VERTEX
  8
0
 10
2.10249
 20
3.60504
 30
0.0
 40
0
 41
0
  0
VERTEX
  8
0
 10
2.09392
 20
3.60189
 30
0.0
 40
0
 41
0
  0
VERTEX
  8
0
 10
2.09
 20
3.5925
 30
0.0
 40
0
 41
0
  0
VERTEX
  8
0
 10
2.09392
 20
3.58317
 30
0.0
 40
0
 41
0
  0
VERTEX
  8
0
 10
2.10249
 20
3.58003
 30
0.0
 40
0
 41
0
  0
VERTEX
  8
0
 10
2.11106
 20
3.58317
 30
0.0
 40
0
 41
0
  0
VERTEX
  8
0
 10
2.11501
 20
3.5925
 30
0.0
 40
0
 41
0
  0
SEQEND
 8
0
  0
POLYLINE
  8
0
 62
     173
 66
     1
 10
0
 20
0
 30
0.0
 70
     1
 40
0
 41
0
  0
VERTEX
  8
0
 10
2.155
 20
2.80251
 30
0.0
 40
0
 41
0
  0
VERTEX
  8
0
 10
2.15104
 20
2.8119
 30
0.0
 40
0
 41
0
  0
VERTEX
  8
0
 10
2.14247
 20
2.81506
 30
0.0
 40
0
 41
0
  0
VERTEX
  8
0
 10
2.1339
 20
2.8119
 30
0.0
 40
0
 41
0
  0
VERTEX
  8
0
 10
2.12999
 20
2.80251
 30
0.0
 40
0
 41
0
  0
VERTEX
  8
0
 10
2.1339
 20
2.79312
 30
0.0
 40
0
 41
0
  0
VERTEX
  8
0
 10
2.14247
 20
2.78999
 30
0.0
 40
0
 41
0
  0
VERTEX
  8
0
 10
2.15104
 20
2.79312
 30
0.0
 40
0
 41
0
  0
VERTEX
  8
0
 10
2.155
 20
2.80251
 30
0.0
 40
0
 41
0
  0
SEQEND
 8
0
  0
POLYLINE
  8
0
 62
     173
 66
     1
 10
0
 20
0
 30
0.0
 70
     1
 40
0
 41
0
  0
VERTEX
  8
0
 10
2.18001
 20
3.50722
 30
0.0
 40
0
 41
0
  0
VERTEX
  8
0
 10
2.17606
 20
3.5166
 30
0.0
 40
0
 41
0
  0
VERTEX
  8
0
 10
2.16749
 20
3.51975
 30
0.0
 40
0
 41
0
  0
VERTEX
  8
0
 10
2.1589
 20
3.5166
 30
0.0
 40
0
 41
0
  0
VERTEX
  8
0
 10
2.155
 20
3.50722
 30
0.0
 40
0
 41
0
  0
VERTEX
  8
0
 10
2.1589
 20
3.49783
 30
0.0
 40
0
 41
0
  0
VERTEX
  8
0
 10
2.16749
 20
3.49468
 30
0.0
 40
0
 41
0
  0
VERTEX
  8
0
 10
2.17606
 20
3.49783
 30
0.0
 40
0
 41
0
  0
VERTEX
  8
0
 10
2.18001
 20
3.50722
 30
0.0
 40
0
 41
0
  0
SEQEND
 8
0
  0
POLYLINE
  8
0
 62
     173
 66
     1
 10
0
 20
0
 30
0.0
 70
     1
 40
0
 41
0
  0
VERTEX
  8
0
 10
1.7965
 20
0.547472
 30
0.0
 40
0
 41
0
  0
VERTEX
  8
0
 10
1.7921
 20
0.557997
 30
0.0
 40
0
 41
0
  0
VERTEX
  8
0
 10
1.7825
 20
0.561469
 30
0.0
 40
0
 41
0
  0
VERTEX
  8
0
 10
1.77285
 20
0.557997
 30
0.0
 40
0
 41
0
  0
VERTEX
  8
0
 10
1.7685
 20
0.547472
 30
0.0
 40
0
 41
0
  0
VERTEX
  8
0
 10
1.77285
 20
0.537001
 30
0.0
 40
0
 41
0
  0
VERTEX
  8
0
 10
1.7825
 20
0.533475
 30
0.0
 40
0
 41
0
  0
VERTEX
  8
0
 10
1.7921
 20
0.537001
 30
0.0
 40
0
 41
0
  0
VERTEX
  8
0
 10
1.7965
 20
0.547472
 30
0.0
 40
0
 41
0
  0
SEQEND
 8
0
  0
POLYLINE
  8
0
 62
     173
 66
     1
 10
0
 20
0
 30
0.0
 70
     1
 40
0
 41
0
  0
VERTEX
  8
0
 10
1.89649
 20
0.547472
 30
0.0
 40
0
 41
0
  0
VERTEX
  8
0
 10
1.89208
 20
0.557997
 30
0.0
 40
0
 41
0
  0
VERTEX
  8
0
 10
1.88249
 20
0.561469
 30
0.0
 40
0
 41
0
  0
VERTEX
  8
0
 10
1.87283
 20
0.557997
 30
0.0
 40
0
 41
0
  0
VERTEX
  8
0
 10
1.86849
 20
0.547472
 30
0.0
 40
0
 41
0
  0
VERTEX
  8
0
 10
1.87283
 20
0.537001
 30
0.0
 40
0
 41
0
  0
VERTEX
  8
0
 10
1.88249
 20
0.533475
 30
0.0
 40
0
 41
0
  0
VERTEX
  8
0
 10
1.89208
 20
0.537001
 30
0.0
 40
0
 41
0
  0
VERTEX
  8
0
 10
1.89649
 20
0.547472
 30
0.0
 40
0
 41
0
  0
SEQEND
 8
0
  0
POLYLINE
  8
0
 62
     173
 66
     1
 10
0
 20
0
 30
0.0
 70
     1
 40
0
 41
0
  0
VERTEX
  8
0
 10
1.99647
 20
0.547472
 30
0.0
 40
0
 41
0
  0
VERTEX
  8
0
 10
1.99208
 20
0.557997
 30
0.0
 40
0
 41
0
  0
VERTEX
  8
0
 10
1.98247
 20
0.561469
 30
0.0
 40
0
 41
0
  0
VERTEX
  8
0
 10
1.97282
 20
0.557997
 30
0.0
 40
0
 41
0
  0
VERTEX
  8
0
 10
1.96847
 20
0.547472
 30
0.0
 40
0
 41
0
  0
VERTEX
  8
0
 10
1.97282
 20
0.537001
 30
0.0
 40
0
 41
0
  0
VERTEX
  8
0
 10
1.98247
 20
0.533475
 30
0.0
 40
0
 41
0
  0
VERTEX
  8
0
 10
1.99208
 20
0.537001
 30
0.0
 40
0
 41
0
  0
VERTEX
  8
0
 10
1.99647
 20
0.547472
 30
0.0
 40
0
 41
0
  0
SEQEND
 8
0
  0
POLYLINE
  8
0
 62
     173
 66
     1
 10
0
 20
0
 30
0.0
 70
     1
 40
0
 41
0
  0
VERTEX
  8
0
 10
0.342503
 20
1.8125
 30
0.0
 40
0
 41
0
  0
VERTEX
  8
0
 10
0.337782
 20
1.82379
 30
0.0
 40
0
 41
0
  0
VERTEX
  8
0
 10
0.327474
 20
1.82753
 30
0.0
 40
0
 41
0
  0
VERTEX
  8
0
 10
0.317165
 20
1.82379
 30
0.0
 40
0
 41
0
  0
VERTEX
  8
0
 10
0.3125
 20
1.8125
 30
0.0
 40
0
 41
0
  0
VERTEX
  8
0
 10
0.317165
 20
1.80126
 30
0.0
 40
0
 41
0
  0
VERTEX
  8
0
 10
0.327474
 20
1.79753
 30
0.0
 40
0
 41
0
  0
VERTEX
  8
0
 10
0.337782
 20
1.80126
 30
0.0
 40
0
 41
0
  0
VERTEX
  8
0
 10
0.342503
 20
1.8125
 30
0.0
 40
0
 41
0
  0
SEQEND
 8
0
  0
POLYLINE
  8
0
 62
     173
 66
     1
 10
0
 20
0
 30
0.0
 70
     1
 40
0
 41
0
  0
VERTEX
  8
0
 10
0.542481
 20
1.8125
 30
0.0
 40
0
 41
0
  0
VERTEX
  8
0
 10
0.537761
 20
1.82379
 30
0.0
 40
0
 41
0
  0
VERTEX
  8
0
 10
0.527453
 20
1.82753
 30
0.0
 40
0
 41
0
  0
VERTEX
  8
0
 10
0.517144
 20
1.82379
 30
0.0
 40
0
 41
0
  0
VERTEX
  8
0
 10
0.512478
 20
1.8125
 30
0.0
 40
0
 41
0
  0
VERTEX
  8
0
 10
0.517144
 20
1.80126
 30
0.0
 40
0
 41
0
  0
VERTEX
  8
0
 10
0.527453
 20
1.79753
 30
0.0
 40
0
 41
0
  0
VERTEX
  8
0
 10
0.537761
 20
1.80126
 30
0.0
 40
0
 41
0
  0
VERTEX
  8
0
 10
0.542481
 20
1.8125
 30
0.0
 40
0
 41
0
  0
SEQEND
 8
0
  0
POLYLINE
  8
0
 62
     173
 66
     1
 10
0
 20
0
 30
0.0
 70
     1
 40
0
 41
0
  0
VERTEX
  8
0
 10
0.747504
 20
2.24251
 30
0.0
 40
0
 41
0
  0
VERTEX
  8
0
 10
0.742785
 20
2.25375
 30
0.0
 40
0
 41
0
  0
VERTEX
  8
0
 10
0.732476
 20
2.25749
 30
0.0
 40
0
 41
0
  0
VERTEX
  8
0
 10
0.722168
 20
2.25375
 30
0.0
 40
0
 41
0
  0
VERTEX
  8
0
 10
0.717503
 20
2.24251
 30
0.0
 40
0
 41
0
  0
VERTEX
  8
0
 10
0.722168
 20
2.23128
 30
0.0
 40
0
 41
0
  0
VERTEX
  8
0
 10
0.732476
 20
2.22754
 30
0.0
 40
0
 41
0
  0
VERTEX
  8
0
 10
0.742785
 20
2.23128
 30
0.0
 40
0
 41
0
  0
VERTEX
  8
0
 10
0.747504
 20
2.24251
 30
0.0
 40
0
 41
0
  0
SEQEND
 8
0
  0
POLYLINE
  8
0
 62
     173
 66
     1
 10
0
 20
0
 30
0.0
 70
     1
 40
0
 41
0
  0
VERTEX
  8
0
 10
0.747504
 20
2.04249
 30
0.0
 40
0
 41
0
  0
VERTEX
  8
0
 10
0.742785
 20
2.05376
 30
0.0
 40
0
 41
0
  0
VERTEX
  8
0
 10
0.732476
 20
2.05751
 30
0.0
 40
0
 41
0
  0
VERTEX
  8
0
 10
0.722168
 20
2.05376
 30
0.0
 40
0
 41
0
  0
VERTEX
  8
0
 10
0.717503
 20
2.04249
 30
0.0
 40
0
 41
0
  0
VERTEX
  8
0
 10
0.722168
 20
2.03125
 30
0.0
 40
0
 41
0
  0
VERTEX
  8
0
 10
0.732476
 20
2.0275
 30
0.0
 40
0
 41
0
  0
VERTEX
  8
0
 10
0.742785
 20
2.03125
 30
0.0
 40
0
 41
0
  0
VERTEX
  8
0
 10
0.747504
 20
2.04249
 30
0.0
 40
0
 41
0
  0
SEQEND
 8
0
  0
POLYLINE
  8
0
 62
     173
 66
     1
 10
0
 20
0
 30
0.0
 70
     1
 40
0
 41
0
  0
VERTEX
  8
0
 10
0.837511
 20
2.98747
 30
0.0
 40
0
 41
0
  0
VERTEX
  8
0
 10
0.83279
 20
2.99875
 30
0.0
 40
0
 41
0
  0
VERTEX
  8
0
 10
0.822483
 20
3.0025
 30
0.0
 40
0
 41
0
  0
VERTEX
  8
0
 10
0.812175
 20
2.99875
 30
0.0
 40
0
 41
0
  0
VERTEX
  8
0
 10
0.807508
 20
2.98747
 30
0.0
 40
0
 41
0
  0
VERTEX
  8
0
 10
0.812175
 20
2.97624
 30
0.0
 40
0
 41
0
  0
VERTEX
  8
0
 10
0.822483
 20
2.9725
 30
0.0
 40
0
 41
0
  0
VERTEX
  8
0
 10
0.83279
 20
2.97624
 30
0.0
 40
0
 41
0
  0
VERTEX
  8
0
 10
0.837511
 20
2.98747
 30
0.0
 40
0
 41
0
  0
SEQEND
 8
0
  0
POLYLINE
  8
0
 62
     173
 66
     1
 10
0
 20
0
 30
0.0
 70
     1
 40
0
 41
0
  0
VERTEX
  8
0
 10
0.837511
 20
2.78749
 30
0.0
 40
0
 41
0
  0
VERTEX
  8
0
 10
0.83279
 20
2.79878
 30
0.0
 40
0
 41
0
  0
VERTEX
  8
0
 10
0.822483
 20
2.80251
 30
0.0
 40
0
 41
0
  0
VERTEX
  8
0
 10
0.812175
 20
2.79878
 30
0.0
 40
0
 41
0
  0
VERTEX
  8
0
 10
0.807508
 20
2.78749
 30
0.0
 40
0
 41
0
  0
VERTEX
  8
0
 10
0.812175
 20
2.77626
 30
0.0
 40
0
 41
0
  0
VERTEX
  8
0
 10
0.822483
 20
2.77251
 30
0.0
 40
0
 41
0
  0
VERTEX
  8
0
 10
0.83279
 20
2.77626
 30
0.0
 40
0
 41
0
  0
VERTEX
  8
0
 10
0.837511
 20
2.78749
 30
0.0
 40
0
 41
0
  0
SEQEND
 8
0
  0
POLYLINE
  8
0
 62
     173
 66
     1
 10
0
 20
0
 30
0.0
 70
     1
 40
0
 41
0
  0
VERTEX
  8
0
 10
1.03749
 20
2.08751
 30
0.0
 40
0
 41
0
  0
VERTEX
  8
0
 10
1.03277
 20
2.09874
 30
0.0
 40
0
 41
0
  0
VERTEX
  8
0
 10
1.02246
 20
2.10249
 30
0.0
 40
0
 41
0
  0
VERTEX
  8
0
 10
1.01215
 20
2.09874
 30
0.0
 40
0
 41
0
  0
VERTEX
  8
0
 10
1.00749
 20
2.08751
 30
0.0
 40
0
 41
0
  0
VERTEX
  8
0
 10
1.01215
 20
2.07628
 30
0.0
 40
0
 41
0
  0
VERTEX
  8
0
 10
1.02246
 20
2.07254
 30
0.0
 40
0
 41
0
  0
VERTEX
  8
0
 10
1.03277
 20
2.07628
 30
0.0
 40
0
 41
0
  0
VERTEX
  8
0
 10
1.03749
 20
2.08751
 30
0.0
 40
0
 41
0
  0
SEQEND
 8
0
  0
POLYLINE
  8
0
 62
     173
 66
     1
 10
0
 20
0
 30
0.0
 70
     1
 40
0
 41
0
  0
VERTEX
  8
0
 10
1.08751
 20
1.73247
 30
0.0
 40
0
 41
0
  0
VERTEX
  8
0
 10
1.08279
 20
1.74376
 30
0.0
 40
0
 41
0
  0
VERTEX
  8
0
 10
1.07248
 20
1.7475
 30
0.0
 40
0
 41
0
  0
VERTEX
  8
0
 10
1.06218
 20
1.74376
 30
0.0
 40
0
 41
0
  0
VERTEX
  8
0
 10
1.05751
 20
1.73247
 30
0.0
 40
0
 41
0
  0
VERTEX
  8
0
 10
1.06218
 20
1.72125
 30
0.0
 40
0
 41
0
  0
VERTEX
  8
0
 10
1.07248
 20
1.7175
 30
0.0
 40
0
 41
0
  0
VERTEX
  8
0
 10
1.08279
 20
1.72125
 30
0.0
 40
0
 41
0
  0
VERTEX
  8
0
 10
1.08751
 20
1.73247
 30
0.0
 40
0
 41
0
  0
SEQEND
 8
0
  0
POLYLINE
  8
0
 62
     173
 66
     1
 10
0
 20
0
 30
0.0
 70
     1
 40
0
 41
0
  0
VERTEX
  8
0
 10
1.08751
 20
1.23248
 30
0.0
 40
0
 41
0
  0
VERTEX
  8
0
 10
1.08279
 20
1.24376
 30
0.0
 40
0
 41
0
  0
VERTEX
  8
0
 10
1.07248
 20
1.2475
 30
0.0
 40
0
 41
0
  0
VERTEX
  8
0
 10
1.06218
 20
1.24376
 30
0.0
 40
0
 41
0
  0
VERTEX
  8
0
 10
1.05751
 20
1.23248
 30
0.0
 40
0
 41
0
  0
VERTEX
  8
0
 10
1.06218
 20
1.22125
 30
0.0
 40
0
 41
0
  0
VERTEX
  8
0
 10
1.07248
 20
1.2175
 30
0.0
 40
0
 41
0
  0
VERTEX
  8
0
 10
1.08279
 20
1.22125
 30
0.0
 40
0
 41
0
  0
VERTEX
  8
0
 10
1.08751
 20
1.23248
 30
0.0
 40
0
 41
0
  0
SEQEND
 8
0
  0
POLYLINE
  8
0
 62
     173
 66
     1
 10
0
 20
0
 30
0.0
 70
     1
 40
0
 41
0
  0
VERTEX
  8
0
 10
1.13748
 20
2.57747
 30
0.0
 40
0
 41
0
  0
VERTEX
  8
0
 10
1.13276
 20
2.58876
 30
0.0
 40
0
 41
0
  0
VERTEX
  8
0
 10
1.12245
 20
2.5925
 30
0.0
 40
0
 41
0
  0
VERTEX
  8
0
 10
1.11214
 20
2.58876
 30
0.0
 40
0
 41
0
  0
VERTEX
  8
0
 10
1.10748
 20
2.57747
 30
0.0
 40
0
 41
0
  0
VERTEX
  8
0
 10
1.11214
 20
2.56625
 30
0.0
 40
0
 41
0
  0
VERTEX
  8
0
 10
1.12245
 20
2.5625
 30
0.0
 40
0
 41
0
  0
VERTEX
  8
0
 10
1.13276
 20
2.56625
 30
0.0
 40
0
 41
0
  0
VERTEX
  8
0
 10
1.13748
 20
2.57747
 30
0.0
 40
0
 41
0
  0
SEQEND
 8
0
  0
POLYLINE
  8
0
 62
     173
 66
     1
 10
0
 20
0
 30
0.0
 70
     1
 40
0
 41
0
  0
VERTEX
  8
0
 10
1.33751
 20
2.57747
 30
0.0
 40
0
 41
0
  0
VERTEX
  8
0
 10
1.33279
 20
2.58876
 30
0.0
 40
0
 41
0
  0
VERTEX
  8
0
 10
1.32248
 20
2.5925
 30
0.0
 40
0
 41
0
  0
VERTEX
  8
0
 10
1.31218
 20
2.58876
 30
0.0
 40
0
 41
0
  0
VERTEX
  8
0
 10
1.30751
 20
2.57747
 30
0.0
 40
0
 41
0
  0
VERTEX
  8
0
 10
1.31218
 20
2.56625
 30
0.0
 40
0
 41
0
  0
VERTEX
  8
0
 10
1.32248
 20
2.5625
 30
0.0
 40
0
 41
0
  0
VERTEX
  8
0
 10
1.33279
 20
2.56625
 30
0.0
 40
0
 41
0
  0
VERTEX
  8
0
 10
1.33751
 20
2.57747
 30
0.0
 40
0
 41
0
  0
SEQEND
 8
0
  0
POLYLINE
  8
0
 62
     173
 66
     1
 10
0
 20
0
 30
0.0
 70
     1
 40
0
 41
0
  0
VERTEX
  8
0
 10
1.33751
 20
1.98747
 30
0.0
 40
0
 41
0
  0
VERTEX
  8
0
 10
1.33279
 20
1.99875
 30
0.0
 40
0
 41
0
  0
VERTEX
  8
0
 10
1.32248
 20
2.0025
 30
0.0
 40
0
 41
0
  0
VERTEX
  8
0
 10
1.31218
 20
1.99875
 30
0.0
 40
0
 41
0
  0
VERTEX
  8
0
 10
1.30751
 20
1.98747
 30
0.0
 40
0
 41
0
  0
VERTEX
  8
0
 10
1.31218
 20
1.97624
 30
0.0
 40
0
 41
0
  0
VERTEX
  8
0
 10
1.32248
 20
1.9725
 30
0.0
 40
0
 41
0
  0
VERTEX
  8
0
 10
1.33279
 20
1.97624
 30
0.0
 40
0
 41
0
  0
VERTEX
  8
0
 10
1.33751
 20
1.98747
 30
0.0
 40
0
 41
0
  0
SEQEND
 8
0
  0
POLYLINE
  8
0
 62
     173
 66
     1
 10
0
 20
0
 30
0.0
 70
     1
 40
0
 41
0
  0
VERTEX
  8
0
 10
1.45751
 20
2.91749
 30
0.0
 40
0
 41
0
  0
VERTEX
  8
0
 10
1.45281
 20
2.92876
 30
0.0
 40
0
 41
0
  0
VERTEX
  8
0
 10
1.44249
 20
2.93251
 30
0.0
 40
0
 41
0
  0
VERTEX
  8
0
 10
1.43218
 20
2.92876
 30
0.0
 40
0
 41
0
  0
VERTEX
  8
0
 10
1.42751
 20
2.91749
 30
0.0
 40
0
 41
0
  0
VERTEX
  8
0
 10
1.43218
 20
2.90625
 30
0.0
 40
0
 41
0
  0
VERTEX
  8
0
 10
1.44249
 20
2.9025
 30
0.0
 40
0
 41
0
  0
VERTEX
  8
0
 10
1.45281
 20
2.90625
 30
0.0
 40
0
 41
0
  0
VERTEX
  8
0
 10
1.45751
 20
2.91749
 30
0.0
 40
0
 41
0
  0
SEQEND
 8
0
  0
POLYLINE
  8
0
 62
     173
 66
     1
 10
0
 20
0
 30
0.0
 70
     1
 40
0
 41
0
  0
VERTEX
  8
0
 10
1.45751
 20
2.7175
 30
0.0
 40
0
 41
0
  0
VERTEX
  8
0
 10
1.45281
 20
2.72874
 30
0.0
 40
0
 41
0
  0
VERTEX
  8
0
 10
1.44249
 20
2.73247
 30
0.0
 40
0
 41
0
  0
VERTEX
  8
0
 10
1.43218
 20
2.72874
 30
0.0
 40
0
 41
0
  0
VERTEX
  8
0
 10
1.42751
 20
2.7175
 30
0.0
 40
0
 41
0
  0
VERTEX
  8
0
 10
1.43218
 20
2.70628
 30
0.0
 40
0
 41
0
  0
VERTEX
  8
0
 10
1.44249
 20
2.70253
 30
0.0
 40
0
 41
0
  0
VERTEX
  8
0
 10
1.45281
 20
2.70628
 30
0.0
 40
0
 41
0
  0
VERTEX
  8
0
 10
1.45751
 20
2.7175
 30
0.0
 40
0
 41
0
  0
SEQEND
 8
0
  0
POLYLINE
  8
0
 62
     173
 66
     1
 10
0
 20
0
 30
0.0
 70
     1
 40
0
 41
0
  0
VERTEX
  8
0
 10
1.5275
 20
3.45247
 30
0.0
 40
0
 41
0
  0
VERTEX
  8
0
 10
1.52279
 20
3.46376
 30
0.0
 40
0
 41
0
  0
VERTEX
  8
0
 10
1.51247
 20
3.4675
 30
0.0
 40
0
 41
0
  0
VERTEX
  8
0
 10
1.50217
 20
3.46376
 30
0.0
 40
0
 41
0
  0
VERTEX
  8
0
 10
1.4975
 20
3.45247
 30
0.0
 40
0
 41
0
  0
VERTEX
  8
0
 10
1.50217
 20
3.44125
 30
0.0
 40
0
 41
0
  0
VERTEX
  8
0
 10
1.51247
 20
3.4375
 30
0.0
 40
0
 41
0
  0
VERTEX
  8
0
 10
1.52279
 20
3.44125
 30
0.0
 40
0
 41
0
  0
VERTEX
  8
0
 10
1.5275
 20
3.45247
 30
0.0
 40
0
 41
0
  0
SEQEND
 8
0
  0
POLYLINE
  8
0
 62
     173
 66
     1
 10
0
 20
0
 30
0.0
 70
     1
 40
0
 41
0
  0
VERTEX
  8
0
 10
1.5275
 20
3.2525
 30
0.0
 40
0
 41
0
  0
VERTEX
  8
0
 10
1.52279
 20
3.26378
 30
0.0
 40
0
 41
0
  0
VERTEX
  8
0
 10
1.51247
 20
3.26753
 30
0.0
 40
0
 41
0
  0
VERTEX
  8
0
 10
1.50217
 20
3.26378
 30
0.0
 40
0
 41
0
  0
VERTEX
  8
0
 10
1.4975
 20
3.2525
 30
0.0
 40
0
 41
0
  0
VERTEX
  8
0
 10
1.50217
 20
3.24126
 30
0.0
 40
0
 41
0
  0
VERTEX
  8
0
 10
1.51247
 20
3.23753
 30
0.0
 40
0
 41
0
  0
VERTEX
  8
0
 10
1.52279
 20
3.24126
 30
0.0
 40
0
 41
0
  0
VERTEX
  8
0
 10
1.5275
 20
3.2525
 30
0.0
 40
0
 41
0
  0
SEQEND
 8
0
  0
POLYLINE
  8
0
 62
     173
 66
     1
 10
0
 20
0
 30
0.0
 70
     1
 40
0
 41
0
  0
VERTEX
  8
0
 10
1.53749
 20
2.08751
 30
0.0
 40
0
 41
0
  0
VERTEX
  8
0
 10
1.53276
 20
2.09874
 30
0.0
 40
0
 41
0
  0
VERTEX
  8
0
 10
1.52246
 20
2.10249
 30
0.0
 40
0
 41
0
  0
VERTEX
  8
0
 10
1.51215
 20
2.09874
 30
0.0
 40
0
 41
0
  0
VERTEX
  8
0
 10
1.50749
 20
2.08751
 30
0.0
 40
0
 41
0
  0
VERTEX
  8
0
 10
1.51215
 20
2.07628
 30
0.0
 40
0
 41
0
  0
VERTEX
  8
0
 10
1.52246
 20
2.07254
 30
0.0
 40
0
 41
0
  0
VERTEX
  8
0
 10
1.53276
 20
2.07628
 30
0.0
 40
0
 41
0
  0
VERTEX
  8
0
 10
1.53749
 20
2.08751
 30
0.0
 40
0
 41
0
  0
SEQEND
 8
0
  0
POLYLINE
  8
0
 62
     173
 66
     1
 10
0
 20
0
 30
0.0
 70
     1
 40
0
 41
0
  0
VERTEX
  8
0
 10
1.6225
 20
1.06749
 30
0.0
 40
0
 41
0
  0
VERTEX
  8
0
 10
1.61778
 20
1.07878
 30
0.0
 40
0
 41
0
  0
VERTEX
  8
0
 10
1.60747
 20
1.08252
 30
0.0
 40
0
 41
0
  0
VERTEX
  8
0
 10
1.59717
 20
1.07878
 30
0.0
 40
0
 41
0
  0
VERTEX
  8
0
 10
1.5925
 20
1.06749
 30
0.0
 40
0
 41
0
  0
VERTEX
  8
0
 10
1.59717
 20
1.05626
 30
0.0
 40
0
 41
0
  0
VERTEX
  8
0
 10
1.60747
 20
1.05252
 30
0.0
 40
0
 41
0
  0
VERTEX
  8
0
 10
1.61778
 20
1.05626
 30
0.0
 40
0
 41
0
  0
VERTEX
  8
0
 10
1.6225
 20
1.06749
 30
0.0
 40
0
 41
0
  0
SEQEND
 8
0
  0
POLYLINE
  8
0
 62
     173
 66
     1
 10
0
 20
0
 30
0.0
 70
     1
 40
0
 41
0
  0
VERTEX
  8
0
 10
1.6225
 20
0.867512
 30
0.0
 40
0
 41
0
  0
VERTEX
  8
0
 10
1.61778
 20
0.878743
 30
0.0
 40
0
 41
0
  0
VERTEX
  8
0
 10
1.60747
 20
0.882488
 30
0.0
 40
0
 41
0
  0
VERTEX
  8
0
 10
1.59717
 20
0.878743
 30
0.0
 40
0
 41
0
  0
VERTEX
  8
0
 10
1.5925
 20
0.867512
 30
0.0
 40
0
 41
0
  0
VERTEX
  8
0
 10
1.59717
 20
0.856282
 30
0.0
 40
0
 41
0
  0
VERTEX
  8
0
 10
1.60747
 20
0.852539
 30
0.0
 40
0
 41
0
  0
VERTEX
  8
0
 10
1.61778
 20
0.856282
 30
0.0
 40
0
 41
0
  0
VERTEX
  8
0
 10
1.6225
 20
0.867512
 30
0.0
 40
0
 41
0
  0
SEQEND
 8
0
  0
POLYLINE
  8
0
 62
     173
 66
     1
 10
0
 20
0
 30
0.0
 70
     1
 40
0
 41
0
  0
VERTEX
  8
0
 10
1.66249
 20
2.71251
 30
0.0
 40
0
 41
0
  0
VERTEX
  8
0
 10
1.65776
 20
2.72374
 30
0.0
 40
0
 41
0
  0
VERTEX
  8
0
 10
1.64746
 20
2.72749
 30
0.0
 40
0
 41
0
  0
VERTEX
  8
0
 10
1.63715
 20
2.72374
 30
0.0
 40
0
 41
0
  0
VERTEX
  8
0
 10
1.63249
 20
2.71251
 30
0.0
 40
0
 41
0
  0
VERTEX
  8
0
 10
1.63715
 20
2.70128
 30
0.0
 40
0
 41
0
  0
VERTEX
  8
0
 10
1.64746
 20
2.69754
 30
0.0
 40
0
 41
0
  0
VERTEX
  8
0
 10
1.65776
 20
2.70128
 30
0.0
 40
0
 41
0
  0
VERTEX
  8
0
 10
1.66249
 20
2.71251
 30
0.0
 40
0
 41
0
  0
SEQEND
 8
0
  0
POLYLINE
  8
0
 62
     173
 66
     1
 10
0
 20
0
 30
0.0
 70
     1
 40
0
 41
0
  0
VERTEX
  8
0
 10
1.73247
 20
1.41249
 30
0.0
 40
0
 41
0
  0
VERTEX
  8
0
 10
1.72775
 20
1.42378
 30
0.0
 40
0
 41
0
  0
VERTEX
  8
0
 10
1.71744
 20
1.42751
 30
0.0
 40
0
 41
0
  0
VERTEX
  8
0
 10
1.70714
 20
1.42378
 30
0.0
 40
0
 41
0
  0
VERTEX
  8
0
 10
1.70247
 20
1.41249
 30
0.0
 40
0
 41
0
  0
VERTEX
  8
0
 10
1.70714
 20
1.40126
 30
0.0
 40
0
 41
0
  0
VERTEX
  8
0
 10
1.71744
 20
1.39751
 30
0.0
 40
0
 41
0
  0
VERTEX
  8
0
 10
1.72775
 20
1.40126
 30
0.0
 40
0
 41
0
  0
VERTEX
  8
0
 10
1.73247
 20
1.41249
 30
0.0
 40
0
 41
0
  0
SEQEND
 8
0
  0
POLYLINE
  8
0
 62
     173
 66
     1
 10
0
 20
0
 30
0.0
 70
     1
 40
0
 41
0
  0
VERTEX
  8
0
 10
1.73247
 20
1.21251
 30
0.0
 40
0
 41
0
  0
VERTEX
  8
0
 10
1.72775
 20
1.22374
 30
0.0
 40
0
 41
0
  0
VERTEX
  8
0
 10
1.71744
 20
1.22748
 30
0.0
 40
0
 41
0
  0
VERTEX
  8
0
 10
1.70714
 20
1.22374
 30
0.0
 40
0
 41
0
  0
VERTEX
  8
0
 10
1.70247
 20
1.21251
 30
0.0
 40
0
 41
0
  0
VERTEX
  8
0
 10
1.70714
 20
1.20128
 30
0.0
 40
0
 41
0
  0
VERTEX
  8
0
 10
1.71744
 20
1.19754
 30
0.0
 40
0
 41
0
  0
VERTEX
  8
0
 10
1.72775
 20
1.20128
 30
0.0
 40
0
 41
0
  0
VERTEX
  8
0
 10
1.73247
 20
1.21251
 30
0.0
 40
0
 41
0
  0
SEQEND
 8
0
  0
POLYLINE
  8
0
 62
     173
 66
     1
 10
0
 20
0
 30
0.0
 70
     1
 40
0
 41
0
  0
VERTEX
  8
0
 10
1.79249
 20
1.06749
 30
0.0
 40
0
 41
0
  0
VERTEX
  8
0
 10
1.78776
 20
1.07878
 30
0.0
 40
0
 41
0
  0
VERTEX
  8
0
 10
1.77746
 20
1.08252
 30
0.0
 40
0
 41
0
  0
VERTEX
  8
0
 10
1.76714
 20
1.07878
 30
0.0
 40
0
 41
0
  0
VERTEX
  8
0
 10
1.76247
 20
1.06749
 30
0.0
 40
0
 41
0
  0
VERTEX
  8
0
 10
1.76714
 20
1.05626
 30
0.0
 40
0
 41
0
  0
VERTEX
  8
0
 10
1.77746
 20
1.05252
 30
0.0
 40
0
 41
0
  0
VERTEX
  8
0
 10
1.78776
 20
1.05626
 30
0.0
 40
0
 41
0
  0
VERTEX
  8
0
 10
1.79249
 20
1.06749
 30
0.0
 40
0
 41
0
  0
SEQEND
 8
0
  0
POLYLINE
  8
0
 62
     173
 66
     1
 10
0
 20
0
 30
0.0
 70
     1
 40
0
 41
0
  0
VERTEX
  8
0
 10
1.79249
 20
0.867512
 30
0.0
 40
0
 41
0
  0
VERTEX
  8
0
 10
1.78776
 20
0.878743
 30
0.0
 40
0
 41
0
  0
VERTEX
  8
0
 10
1.77746
 20
0.882488
 30
0.0
 40
0
 41
0
  0
VERTEX
  8
0
 10
1.76714
 20
0.878743
 30
0.0
 40
0
 41
0
  0
VERTEX
  8
0
 10
1.76247
 20
0.867512
 30
0.0
 40
0
 41
0
  0
VERTEX
  8
0
 10
1.76714
 20
0.856282
 30
0.0
 40
0
 41
0
  0
VERTEX
  8
0
 10
1.77746
 20
0.852539
 30
0.0
 40
0
 41
0
  0
VERTEX
  8
0
 10
1.78776
 20
0.856282
 30
0.0
 40
0
 41
0
  0
VERTEX
  8
0
 10
1.79249
 20
0.867512
 30
0.0
 40
0
 41
0
  0
SEQEND
 8
0
  0
POLYLINE
  8
0
 62
     173
 66
     1
 10
0
 20
0
 30
0.0
 70
     1
 40
0
 41
0
  0
VERTEX
  8
0
 10
1.81749
 20
2.73747
 30
0.0
 40
0
 41
0
  0
VERTEX
  8
0
 10
1.81278
 20
2.74875
 30
0.0
 40
0
 41
0
  0
VERTEX
  8
0
 10
1.80246
 20
2.7525
 30
0.0
 40
0
 41
0
  0
VERTEX
  8
0
 10
1.79215
 20
2.74875
 30
0.0
 40
0
 41
0
  0
VERTEX
  8
0
 10
1.78749
 20
2.73747
 30
0.0
 40
0
 41
0
  0
VERTEX
  8
0
 10
1.79215
 20
2.72624
 30
0.0
 40
0
 41
0
  0
VERTEX
  8
0
 10
1.80246
 20
2.7225
 30
0.0
 40
0
 41
0
  0
VERTEX
  8
0
 10
1.81278
 20
2.72624
 30
0.0
 40
0
 41
0
  0
VERTEX
  8
0
 10
1.81749
 20
2.73747
 30
0.0
 40
0
 41
0
  0
SEQEND
 8
0
  0
POLYLINE
  8
0
 62
     173
 66
     1
 10
0
 20
0
 30
0.0
 70
     1
 40
0
 41
0
  0
VERTEX
  8
0
 10
1.89751
 20
1.06749
 30
0.0
 40
0
 41
0
  0
VERTEX
  8
0
 10
1.89279
 20
1.07878
 30
0.0
 40
0
 41
0
  0
VERTEX
  8
0
 10
1.88249
 20
1.08252
 30
0.0
 40
0
 41
0
  0
VERTEX
  8
0
 10
1.87218
 20
1.07878
 30
0.0
 40
0
 41
0
  0
VERTEX
  8
0
 10
1.86751
 20
1.06749
 30
0.0
 40
0
 41
0
  0
VERTEX
  8
0
 10
1.87218
 20
1.05626
 30
0.0
 40
0
 41
0
  0
VERTEX
  8
0
 10
1.88249
 20
1.05252
 30
0.0
 40
0
 41
0
  0
VERTEX
  8
0
 10
1.89279
 20
1.05626
 30
0.0
 40
0
 41
0
  0
VERTEX
  8
0
 10
1.89751
 20
1.06749
 30
0.0
 40
0
 41
0
  0
SEQEND
 8
0
  0
POLYLINE
  8
0
 62
     173
 66
     1
 10
0
 20
0
 30
0.0
 70
     1
 40
0
 41
0
  0
VERTEX
  8
0
 10
1.89751
 20
0.867512
 30
0.0
 40
0
 41
0
  0
VERTEX
  8
0
 10
1.89279
 20
0.878743
 30
0.0
 40
0
 41
0
  0
VERTEX
  8
0
 10
1.88249
 20
0.882488
 30
0.0
 40
0
 41
0
  0
VERTEX
  8
0
 10
1.87218
 20
0.878743
 30
0.0
 40
0
 41
0
  0
VERTEX
  8
0
 10
1.86751
 20
0.867512
 30
0.0
 40
0
 41
0
  0
VERTEX
  8
0
 10
1.87218
 20
0.856282
 30
0.0
 40
0
 41
0
  0
VERTEX
  8
0
 10
1.88249
 20
0.852539
 30
0.0
 40
0
 41
0
  0
VERTEX
  8
0
 10
1.89279
 20
0.856282
 30
0.0
 40
0
 41
0
  0
VERTEX
  8
0
 10
1.89751
 20
0.867512
 30
0.0
 40
0
 41
0
  0
SEQEND
 8
0
  0
POLYLINE
  8
0
 62
     173
 66
     1
 10
0
 20
0
 30
0.0
 70
     1
 40
0
 41
0
  0
VERTEX
  8
0
 10
1.96251
 20
2.61247
 30
0.0
 40
0
 41
0
  0
VERTEX
  8
0
 10
1.95779
 20
2.62375
 30
0.0
 40
0
 41
0
  0
VERTEX
  8
0
 10
1.94749
 20
2.6275
 30
0.0
 40
0
 41
0
  0
VERTEX
  8
0
 10
1.93718
 20
2.62375
 30
0.0
 40
0
 41
0
  0
VERTEX
  8
0
 10
1.93251
 20
2.61247
 30
0.0
 40
0
 41
0
  0
VERTEX
  8
0
 10
1.93718
 20
2.60124
 30
0.0
 40
0
 41
0
  0
VERTEX
  8
0
 10
1.94749
 20
2.5975
 30
0.0
 40
0
 41
0
  0
VERTEX
  8
0
 10
1.95779
 20
2.60124
 30
0.0
 40
0
 41
0
  0
VERTEX
  8
0
 10
1.96251
 20
2.61247
 30
0.0
 40
0
 41
0
  0
SEQEND
 8
0
  0
POLYLINE
  8
0
 62
     173
 66
     1
 10
0
 20
0
 30
0.0
 70
     1
 40
0
 41
0
  0
VERTEX
  8
0
 10
1.96251
 20
1.77251
 30
0.0
 40
0
 41
0
  0
VERTEX
  8
0
 10
1.95779
 20
1.78375
 30
0.0
 40
0
 41
0
  0
VERTEX
  8
0
 10
1.94749
 20
1.78749
 30
0.0
 40
0
 41
0
  0
VERTEX
  8
0
 10
1.93718
 20
1.78375
 30
0.0
 40
0
 41
0
  0
VERTEX
  8
0
 10
1.93251
 20
1.77251
 30
0.0
 40
0
 41
0
  0
VERTEX
  8
0
 10
1.93718
 20
1.76129
 30
0.0
 40
0
 41
0
  0
VERTEX
  8
0
 10
1.94749
 20
1.75754
 30
0.0
 40
0
 41
0
  0
VERTEX
  8
0
 10
1.95779
 20
1.76129
 30
0.0
 40
0
 41
0
  0
VERTEX
  8
0
 10
1.96251
 20
1.77251
 30
0.0
 40
0
 41
0
  0
SEQEND
 8
0
  0
POLYLINE
  8
0
 62
     173
 66
     1
 10
0
 20
0
 30
0.0
 70
     1
 40
0
 41
0
  0
VERTEX
  8
0
 10
1.96251
 20
1.57249
 30
0.0
 40
0
 41
0
  0
VERTEX
  8
0
 10
1.95779
 20
1.58376
 30
0.0
 40
0
 41
0
  0
VERTEX
  8
0
 10
1.94749
 20
1.58751
 30
0.0
 40
0
 41
0
  0
VERTEX
  8
0
 10
1.93718
 20
1.58376
 30
0.0
 40
0
 41
0
  0
VERTEX
  8
0
 10
1.93251
 20
1.57249
 30
0.0
 40
0
 41
0
  0
VERTEX
  8
0
 10
1.93718
 20
1.56125
 30
0.0
 40
0
 41
0
  0
VERTEX
  8
0
 10
1.94749
 20
1.55751
 30
0.0
 40
0
 41
0
  0
VERTEX
  8
0
 10
1.95779
 20
1.56125
 30
0.0
 40
0
 41
0
  0
VERTEX
  8
0
 10
1.96251
 20
1.57249
 30
0.0
 40
0
 41
0
  0
SEQEND
 8
0
  0
POLYLINE
  8
0
 62
     173
 66
     1
 10
0
 20
0
 30
0.0
 70
     1
 40
0
 41
0
  0
VERTEX
  8
0
 10
2.01747
 20
2.73747
 30
0.0
 40
0
 41
0
  0
VERTEX
  8
0
 10
2.01275
 20
2.74875
 30
0.0
 40
0
 41
0
  0
VERTEX
  8
0
 10
2.00244
 20
2.7525
 30
0.0
 40
0
 41
0
  0
VERTEX
  8
0
 10
1.99214
 20
2.74875
 30
0.0
 40
0
 41
0
  0
VERTEX
  8
0
 10
1.98747
 20
2.73747
 30
0.0
 40
0
 41
0
  0
VERTEX
  8
0
 10
1.99214
 20
2.72624
 30
0.0
 40
0
 41
0
  0
VERTEX
  8
0
 10
2.00244
 20
2.7225
 30
0.0
 40
0
 41
0
  0
VERTEX
  8
0
 10
2.01275
 20
2.72624
 30
0.0
 40
0
 41
0
  0
VERTEX
  8
0
 10
2.01747
 20
2.73747
 30
0.0
 40
0
 41
0
  0
SEQEND
 8
0
  0
POLYLINE
  8
0
 62
     173
 66
     1
 10
0
 20
0
 30
0.0
 70
     1
 40
0
 41
0
  0
VERTEX
  8
0
 10
2.16249
 20
2.71251
 30
0.0
 40
0
 41
0
  0
VERTEX
  8
0
 10
2.15776
 20
2.72374
 30
0.0
 40
0
 41
0
  0
VERTEX
  8
0
 10
2.14746
 20
2.72749
 30
0.0
 40
0
 41
0
  0
VERTEX
  8
0
 10
2.13715
 20
2.72374
 30
0.0
 40
0
 41
0
  0
VERTEX
  8
0
 10
2.13249
 20
2.71251
 30
0.0
 40
0
 41
0
  0
VERTEX
  8
0
 10
2.13715
 20
2.70128
 30
0.0
 40
0
 41
0
  0
VERTEX
  8
0
 10
2.14746
 20
2.69754
 30
0.0
 40
0
 41
0
  0
VERTEX
  8
0
 10
2.15776
 20
2.70128
 30
0.0
 40
0
 41
0
  0
VERTEX
  8
0
 10
2.16249
 20
2.71251
 30
0.0
 40
0
 41
0
  0
SEQEND
 8
0
  0
POLYLINE
  8
0
 62
     173
 66
     1
 10
0
 20
0
 30
0.0
 70
     1
 40
0
 41
0
  0
VERTEX
  8
0
 10
1.75
 20
0.652507
 30
0.0
 40
0
 41
0
  0
VERTEX
  8
0
 10
1.74451
 20
0.665636
 30
0.0
 40
0
 41
0
  0
VERTEX
  8
0
 10
1.73247
 20
0.670031
 30
0.0
 40
0
 41
0
  0
VERTEX
  8
0
 10
1.72043
 20
0.665636
 30
0.0
 40
0
 41
0
  0
VERTEX
  8
0
 10
1.715
 20
0.652507
 30
0.0
 40
0
 41
0
  0
VERTEX
  8
0
 10
1.72043
 20
0.639432
 30
0.0
 40
0
 41
0
  0
VERTEX
  8
0
 10
1.73247
 20
0.635037
 30
0.0
 40
0
 41
0
  0
VERTEX
  8
0
 10
1.74451
 20
0.639432
 30
0.0
 40
0
 41
0
  0
VERTEX
  8
0
 10
1.75
 20
0.652507
 30
0.0
 40
0
 41
0
  0
SEQEND
 8
0
  0
POLYLINE
  8
0
 62
     173
 66
     1
 10
0
 20
0
 30
0.0
 70
     1
 40
0
 41
0
  0
VERTEX
  8
0
 10
1.79997
 20
0.752496
 30
0.0
 40
0
 41
0
  0
VERTEX
  8
0
 10
1.79449
 20
0.765625
 30
0.0
 40
0
 41
0
  0
VERTEX
  8
0
 10
1.78244
 20
0.770019
 30
0.0
 40
0
 41
0
  0
VERTEX
  8
0
 10
1.7704
 20
0.765625
 30
0.0
 40
0
 41
0
  0
VERTEX
  8
0
 10
1.76497
 20
0.752496
 30
0.0
 40
0
 41
0
  0
VERTEX
  8
0
 10
1.7704
 20
0.739421
 30
0.0
 40
0
 41
0
  0
VERTEX
  8
0
 10
1.78244
 20
0.735026
 30
0.0
 40
0
 41
0
  0
VERTEX
  8
0
 10
1.79449
 20
0.739421
 30
0.0
 40
0
 41
0
  0
VERTEX
  8
0
 10
1.79997
 20
0.752496
 30
0.0
 40
0
 41
0
  0
SEQEND
 8
0
  0
POLYLINE
  8
0
 62
     173
 66
     1
 10
0
 20
0
 30
0.0
 70
     1
 40
0
 41
0
  0
VERTEX
  8
0
 10
1.84999
 20
0.652507
 30
0.0
 40
0
 41
0
  0
VERTEX
  8
0
 10
1.84451
 20
0.665636
 30
0.0
 40
0
 41
0
  0
VERTEX
  8
0
 10
1.83247
 20
0.670031
 30
0.0
 40
0
 41
0
  0
VERTEX
  8
0
 10
1.82042
 20
0.665636
 30
0.0
 40
0
 41
0
  0
VERTEX
  8
0
 10
1.815
 20
0.652507
 30
0.0
 40
0
 41
0
  0
VERTEX
  8
0
 10
1.82042
 20
0.639432
 30
0.0
 40
0
 41
0
  0
VERTEX
  8
0
 10
1.83247
 20
0.635037
 30
0.0
 40
0
 41
0
  0
VERTEX
  8
0
 10
1.84451
 20
0.639432
 30
0.0
 40
0
 41
0
  0
VERTEX
  8
0
 10
1.84999
 20
0.652507
 30
0.0
 40
0
 41
0
  0
SEQEND
 8
0
  0
POLYLINE
  8
0
 62
     173
 66
     1
 10
0
 20
0
 30
0.0
 70
     1
 40
0
 41
0
  0
VERTEX
  8
0
 10
1.90001
 20
0.752496
 30
0.0
 40
0
 41
0
  0
VERTEX
  8
0
 10
1.89453
 20
0.765625
 30
0.0
 40
0
 41
0
  0
VERTEX
  8
0
 10
1.88249
 20
0.770019
 30
0.0
 40
0
 41
0
  0
VERTEX
  8
0
 10
1.87044
 20
0.765625
 30
0.0
 40
0
 41
0
  0
VERTEX
  8
0
 10
1.86501
 20
0.752496
 30
0.0
 40
0
 41
0
  0
VERTEX
  8
0
 10
1.87044
 20
0.739421
 30
0.0
 40
0
 41
0
  0
VERTEX
  8
0
 10
1.88249
 20
0.735026
 30
0.0
 40
0
 41
0
  0
VERTEX
  8
0
 10
1.89453
 20
0.739421
 30
0.0
 40
0
 41
0
  0
VERTEX
  8
0
 10
1.90001
 20
0.752496
 30
0.0
 40
0
 41
0
  0
SEQEND
 8
0
  0
POLYLINE
  8
0
 62
     173
 66
     1
 10
0
 20
0
 30
0.0
 70
     1
 40
0
 41
0
  0
VERTEX
  8
0
 10
1.94997
 20
0.652507
 30
0.0
 40
0
 41
0
  0
VERTEX
  8
0
 10
1.9445
 20
0.665636
 30
0.0
 40
0
 41
0
  0
VERTEX
  8
0
 10
1.93246
 20
0.670031
 30
0.0
 40
0
 41
0
  0
VERTEX
  8
0
 10
1.92042
 20
0.665636
 30
0.0
 40
0
 41
0
  0
VERTEX
  8
0
 10
1.91499
 20
0.652507
 30
0.0
 40
0
 41
0
  0
VERTEX
  8
0
 10
1.92042
 20
0.639432
 30
0.0
 40
0
 41
0
  0
VERTEX
  8
0
 10
1.93246
 20
0.635037
 30
0.0
 40
0
 41
0
  0
VERTEX
  8
0
 10
1.9445
 20
0.639432
 30
0.0
 40
0
 41
0
  0
VERTEX
  8
0
 10
1.94997
 20
0.652507
 30
0.0
 40
0
 41
0
  0
SEQEND
 8
0
  0
POLYLINE
  8
0
 62
     173
 66
     1
 10
0
 20
0
 30
0.0
 70
     1
 40
0
 41
0
  0
VERTEX
  8
0
 10
2
 20
0.752496
 30
0.0
 40
0
 41
0
  0
VERTEX
  8
0
 10
1.99451
 20
0.765625
 30
0.0
 40
0
 41
0
  0
VERTEX
  8
0
 10
1.98247
 20
0.770019
 30
0.0
 40
0
 41
0
  0
VERTEX
  8
0
 10
1.97043
 20
0.765625
 30
0.0
 40
0
 41
0
  0
VERTEX
  8
0
 10
1.965
 20
0.752496
 30
0.0
 40
0
 41
0
  0
VERTEX
  8
0
 10
1.97043
 20
0.739421
 30
0.0
 40
0
 41
0
  0
VERTEX
  8
0
 10
1.98247
 20
0.735026
 30
0.0
 40
0
 41
0
  0
VERTEX
  8
0
 10
1.99451
 20
0.739421
 30
0.0
 40
0
 41
0
  0
VERTEX
  8
0
 10
2
 20
0.752496
 30
0.0
 40
0
 41
0
  0
SEQEND
 8
0
  0
POLYLINE
  8
0
 62
     173
 66
     1
 10
0
 20
0
 30
0.0
 70
     1
 40
0
 41
0
  0
VERTEX
  8
0
 10
2.04997
 20
0.652507
 30
0.0
 40
0
 41
0
  0
VERTEX
  8
0
 10
2.04449
 20
0.665636
 30
0.0
 40
0
 41
0
  0
VERTEX
  8
0
 10
2.03244
 20
0.670031
 30
0.0
 40
0
 41
0
  0
VERTEX
  8
0
 10
2.0204
 20
0.665636
 30
0.0
 40
0
 41
0
  0
VERTEX
  8
0
 10
2.01497
 20
0.652507
 30
0.0
 40
0
 41
0
  0
VERTEX
  8
0
 10
2.0204
 20
0.639432
 30
0.0
 40
0
 41
0
  0
VERTEX
  8
0
 10
2.03244
 20
0.635037
 30
0.0
 40
0
 41
0
  0
VERTEX
  8
0
 10
2.04449
 20
0.639432
 30
0.0
 40
0
 41
0
  0
VERTEX
  8
0
 10
2.04997
 20
0.652507
 30
0.0
 40
0
 41
0
  0
SEQEND
 8
0
  0
POLYLINE
  8
0
 62
     173
 66
     1
 10
0
 20
0
 30
0.0
 70
     1
 40
0
 41
0
  0
VERTEX
  8
0
 10
2.09999
 20
0.752496
 30
0.0
 40
0
 41
0
  0
VERTEX
  8
0
 10
2.09451
 20
0.765625
 30
0.0
 40
0
 41
0
  0
VERTEX
  8
0
 10
2.08247
 20
0.770019
 30
0.0
 40
0
 41
0
  0
VERTEX
  8
0
 10
2.07042
 20
0.765625
 30
0.0
 40
0
 41
0
  0
VERTEX
  8
0
 10
2.065
 20
0.752496
 30
0.0
 40
0
 41
0
  0
VERTEX
  8
0
 10
2.07042
 20
0.739421
 30
0.0
 40
0
 41
0
  0
VERTEX
  8
0
 10
2.08247
 20
0.735026
 30
0.0
 40
0
 41
0
  0
VERTEX
  8
0
 10
2.09451
 20
0.739421
 30
0.0
 40
0
 41
0
  0
VERTEX
  8
0
 10
2.09999
 20
0.752496
 30
0.0
 40
0
 41
0
  0
SEQEND
 8
0
  0
POLYLINE
  8
0
 62
     173
 66
     1
 10
0
 20
0
 30
0.0
 70
     1
 40
0
 41
0
  0
VERTEX
  8
0
 10
0.186469
 20
2.79249
 30
0.0
 40
0
 41
0
  0
VERTEX
  8
0
 10
0.180501
 20
2.80675
 30
0.0
 40
0
 41
0
  0
VERTEX
  8
0
 10
0.167481
 20
2.81153
 30
0.0
 40
0
 41
0
  0
VERTEX
  8
0
 10
0.154406
 20
2.80675
 30
0.0
 40
0
 41
0
  0
VERTEX
  8
0
 10
0.148492
 20
2.79249
 30
0.0
 40
0
 41
0
  0
VERTEX
  8
0
 10
0.154406
 20
2.77826
 30
0.0
 40
0
 41
0
  0
VERTEX
  8
0
 10
0.167481
 20
2.77349
 30
0.0
 40
0
 41
0
  0
VERTEX
  8
0
 10
0.180501
 20
2.77826
 30
0.0
 40
0
 41
0
  0
VERTEX
  8
0
 10
0.186469
 20
2.79249
 30
0.0
 40
0
 41
0
  0
SEQEND
 8
0
  0
POLYLINE
  8
0
 62
     173
 66
     1
 10
0
 20
0
 30
0.0
 70
     1
 40
0
 41
0
  0
VERTEX
  8
0
 10
0.186469
 20
2.69249
 30
0.0
 40
0
 41
0
  0
VERTEX
  8
0
 10
0.180501
 20
2.70676
 30
0.0
 40
0
 41
0
  0
VERTEX
  8
0
 10
0.167481
 20
2.71153
 30
0.0
 40
0
 41
0
  0
VERTEX
  8
0
 10
0.154406
 20
2.70676
 30
0.0
 40
0
 41
0
  0
VERTEX
  8
0
 10
0.148492
 20
2.69249
 30
0.0
 40
0
 41
0
  0
VERTEX
  8
0
 10
0.154406
 20
2.67828
 30
0.0
 40
0
 41
0
  0
VERTEX
  8
0
 10
0.167481
 20
2.6735
 30
0.0
 40
0
 41
0
  0
VERTEX
  8
0
 10
0.180501
 20
2.67828
 30
0.0
 40
0
 41
0
  0
VERTEX
  8
0
 10
0.186469
 20
2.69249
 30
0.0
 40
0
 41
0
  0
SEQEND
 8
0
  0
POLYLINE
  8
0
 62
     173
 66
     1
 10
0
 20
0
 30
0.0
 70
     1
 40
0
 41
0
  0
VERTEX
  8
0
 10
0.286513
 20
2.79249
 30
0.0
 40
0
 41
0
  0
VERTEX
  8
0
 10
0.280544
 20
2.80675
 30
0.0
 40
0
 41
0
  0
VERTEX
  8
0
 10
0.267469
 20
2.81153
 30
0.0
 40
0
 41
0
  0
VERTEX
  8
0
 10
0.254394
 20
2.80675
 30
0.0
 40
0
 41
0
  0
VERTEX
  8
0
 10
0.248481
 20
2.79249
 30
0.0
 40
0
 41
0
  0
VERTEX
  8
0
 10
0.254394
 20
2.77826
 30
0.0
 40
0
 41
0
  0
VERTEX
  8
0
 10
0.267469
 20
2.77349
 30
0.0
 40
0
 41
0
  0
VERTEX
  8
0
 10
0.280544
 20
2.77826
 30
0.0
 40
0
 41
0
  0
VERTEX
  8
0
 10
0.286513
 20
2.79249
 30
0.0
 40
0
 41
0
  0
SEQEND
 8
0
  0
POLYLINE
  8
0
 62
     173
 66
     1
 10
0
 20
0
 30
0.0
 70
     1
 40
0
 41
0
  0
VERTEX
  8
0
 10
0.286513
 20
2.69249
 30
0.0
 40
0
 41
0
  0
VERTEX
  8
0
 10
0.280544
 20
2.70676
 30
0.0
 40
0
 41
0
  0
VERTEX
  8
0
 10
0.267469
 20
2.71153
 30
0.0
 40
0
 41
0
  0
VERTEX
  8
0
 10
0.254394
 20
2.70676
 30
0.0
 40
0
 41
0
  0
VERTEX
  8
0
 10
0.248481
 20
2.69249
 30
0.0
 40
0
 41
0
  0
VERTEX
  8
0
 10
0.254394
 20
2.67828
 30
0.0
 40
0
 41
0
  0
VERTEX
  8
0
 10
0.267469
 20
2.6735
 30
0.0
 40
0
 41
0
  0
VERTEX
  8
0
 10
0.280544
 20
2.67828
 30
0.0
 40
0
 41
0
  0
VERTEX
  8
0
 10
0.286513
 20
2.69249
 30
0.0
 40
0
 41
0
  0
SEQEND
 8
0
  0
POLYLINE
  8
0
 62
     173
 66
     1
 10
0
 20
0
 30
0.0
 70
     1
 40
0
 41
0
  0
VERTEX
  8
0
 10
0.386501
 20
2.79249
 30
0.0
 40
0
 41
0
  0
VERTEX
  8
0
 10
0.380533
 20
2.80675
 30
0.0
 40
0
 41
0
  0
VERTEX
  8
0
 10
0.367458
 20
2.81153
 30
0.0
 40
0
 41
0
  0
VERTEX
  8
0
 10
0.354383
 20
2.80675
 30
0.0
 40
0
 41
0
  0
VERTEX
  8
0
 10
0.348469
 20
2.79249
 30
0.0
 40
0
 41
0
  0
VERTEX
  8
0
 10
0.354383
 20
2.77826
 30
0.0
 40
0
 41
0
  0
VERTEX
  8
0
 10
0.367458
 20
2.77349
 30
0.0
 40
0
 41
0
  0
VERTEX
  8
0
 10
0.380533
 20
2.77826
 30
0.0
 40
0
 41
0
  0
VERTEX
  8
0
 10
0.386501
 20
2.79249
 30
0.0
 40
0
 41
0
  0
SEQEND
 8
0
  0
POLYLINE
  8
0
 62
     173
 66
     1
 10
0
 20
0
 30
0.0
 70
     1
 40
0
 41
0
  0
VERTEX
  8
0
 10
0.386501
 20
2.69249
 30
0.0
 40
0
 41
0
  0
VERTEX
  8
0
 10
0.380533
 20
2.70676
 30
0.0
 40
0
 41
0
  0
VERTEX
  8
0
 10
0.367458
 20
2.71153
 30
0.0
 40
0
 41
0
  0
VERTEX
  8
0
 10
0.354383
 20
2.70676
 30
0.0
 40
0
 41
0
  0
VERTEX
  8
0
 10
0.348469
 20
2.69249
 30
0.0
 40
0
 41
0
  0
VERTEX
  8
0
 10
0.354383
 20
2.67828
 30
0.0
 40
0
 41
0
  0
VERTEX
  8
0
 10
0.367458
 20
2.6735
 30
0.0
 40
0
 41
0
  0
VERTEX
  8
0
 10
0.380533
 20
2.67828
 30
0.0
 40
0
 41
0
  0
VERTEX
  8
0
 10
0.386501
 20
2.69249
 30
0.0
 40
0
 41
0
  0
SEQEND
 8
0
  0
POLYLINE
  8
0
 62
     173
 66
     1
 10
0
 20
0
 30
0.0
 70
     1
 40
0
 41
0
  0
VERTEX
  8
0
 10
0.8565
 20
3.5925
 30
0.0
 40
0
 41
0
  0
VERTEX
  8
0
 10
0.850532
 20
3.60678
 30
0.0
 40
0
 41
0
  0
VERTEX
  8
0
 10
0.837457
 20
3.61154
 30
0.0
 40
0
 41
0
  0
VERTEX
  8
0
 10
0.824382
 20
3.60678
 30
0.0
 40
0
 41
0
  0
VERTEX
  8
0
 10
0.818468
 20
3.5925
 30
0.0
 40
0
 41
0
  0
VERTEX
  8
0
 10
0.824382
 20
3.57829
 30
0.0
 40
0
 41
0
  0
VERTEX
  8
0
 10
0.837457
 20
3.57351
 30
0.0
 40
0
 41
0
  0
VERTEX
  8
0
 10
0.850532
 20
3.57829
 30
0.0
 40
0
 41
0
  0
VERTEX
  8
0
 10
0.8565
 20
3.5925
 30
0.0
 40
0
 41
0
  0
SEQEND
 8
0
  0
POLYLINE
  8
0
 62
     173
 66
     1
 10
0
 20
0
 30
0.0
 70
     1
 40
0
 41
0
  0
VERTEX
  8
0
 10
0.956489
 20
3.5925
 30
0.0
 40
0
 41
0
  0
VERTEX
  8
0
 10
0.950521
 20
3.60678
 30
0.0
 40
0
 41
0
  0
VERTEX
  8
0
 10
0.9375
 20
3.61154
 30
0.0
 40
0
 41
0
  0
VERTEX
  8
0
 10
0.924425
 20
3.60678
 30
0.0
 40
0
 41
0
  0
VERTEX
  8
0
 10
0.918511
 20
3.5925
 30
0.0
 40
0
 41
0
  0
VERTEX
  8
0
 10
0.924425
 20
3.57829
 30
0.0
 40
0
 41
0
  0
VERTEX
  8
0
 10
0.9375
 20
3.57351
 30
0.0
 40
0
 41
0
  0
VERTEX
  8
0
 10
0.950521
 20
3.57829
 30
0.0
 40
0
 41
0
  0
VERTEX
  8
0
 10
0.956489
 20
3.5925
 30
0.0
 40
0
 41
0
  0
SEQEND
 8
0
  0
POLYLINE
  8
0
 62
     173
 66
     1
 10
0
 20
0
 30
0.0
 70
     1
 40
0
 41
0
  0
VERTEX
  8
0
 10
0.971517
 20
1.54747
 30
0.0
 40
0
 41
0
  0
VERTEX
  8
0
 10
0.965549
 20
1.56174
 30
0.0
 40
0
 41
0
  0
VERTEX
  8
0
 10
0.952474
 20
1.56651
 30
0.0
 40
0
 41
0
  0
VERTEX
  8
0
 10
0.939399
 20
1.56174
 30
0.0
 40
0
 41
0
  0
VERTEX
  8
0
 10
0.933485
 20
1.54747
 30
0.0
 40
0
 41
0
  0
VERTEX
  8
0
 10
0.939399
 20
1.53326
 30
0.0
 40
0
 41
0
  0
VERTEX
  8
0
 10
0.952474
 20
1.52849
 30
0.0
 40
0
 41
0
  0
VERTEX
  8
0
 10
0.965549
 20
1.53326
 30
0.0
 40
0
 41
0
  0
VERTEX
  8
0
 10
0.971517
 20
1.54747
 30
0.0
 40
0
 41
0
  0
SEQEND
 8
0
  0
POLYLINE
  8
0
 62
     173
 66
     1
 10
0
 20
0
 30
0.0
 70
     1
 40
0
 41
0
  0
VERTEX
  8
0
 10
0.971517
 20
1.44749
 30
0.0
 40
0
 41
0
  0
VERTEX
  8
0
 10
0.965549
 20
1.46175
 30
0.0
 40
0
 41
0
  0
VERTEX
  8
0
 10
0.952474
 20
1.46653
 30
0.0
 40
0
 41
0
  0
VERTEX
  8
0
 10
0.939399
 20
1.46175
 30
0.0
 40
0
 41
0
  0
VERTEX
  8
0
 10
0.933485
 20
1.44749
 30
0.0
 40
0
 41
0
  0
VERTEX
  8
0
 10
0.939399
 20
1.43326
 30
0.0
 40
0
 41
0
  0
VERTEX
  8
0
 10
0.952474
 20
1.4285
 30
0.0
 40
0
 41
0
  0
VERTEX
  8
0
 10
0.965549
 20
1.43326
 30
0.0
 40
0
 41
0
  0
VERTEX
  8
0
 10
0.971517
 20
1.44749
 30
0.0
 40
0
 41
0
  0
SEQEND
 8
0
  0
POLYLINE
  8
0
 62
     173
 66
     1
 10
0
 20
0
 30
0.0
 70
     1
 40
0
 41
0
  0
VERTEX
  8
0
 10
1.62651
 20
0.762478
 30
0.0
 40
0
 41
0
  0
VERTEX
  8
0
 10
1.62056
 20
0.776747
 30
0.0
 40
0
 41
0
  0
VERTEX
  8
0
 10
1.60747
 20
0.781521
 30
0.0
 40
0
 41
0
  0
VERTEX
  8
0
 10
1.5944
 20
0.776747
 30
0.0
 40
0
 41
0
  0
VERTEX
  8
0
 10
1.58849
 20
0.762478
 30
0.0
 40
0
 41
0
  0
VERTEX
  8
0
 10
1.5944
 20
0.748264
 30
0.0
 40
0
 41
0
  0
VERTEX
  8
0
 10
1.60747
 20
0.74349
 30
0.0
 40
0
 41
0
  0
VERTEX
  8
0
 10
1.62056
 20
0.748264
 30
0.0
 40
0
 41
0
  0
VERTEX
  8
0
 10
1.62651
 20
0.762478
 30
0.0
 40
0
 41
0
  0
SEQEND
 8
0
  0
POLYLINE
  8
0
 62
     173
 66
     1
 10
0
 20
0
 30
0.0
 70
     1
 40
0
 41
0
  0
VERTEX
  8
0
 10
1.62651
 20
0.662489
 30
0.0
 40
0
 41
0
  0
VERTEX
  8
0
 10
1.62056
 20
0.676758
 30
0.0
 40
0
 41
0
  0
VERTEX
  8
0
 10
1.60747
 20
0.681532
 30
0.0
 40
0
 41
0
  0
VERTEX
  8
0
 10
1.5944
 20
0.676758
 30
0.0
 40
0
 41
0
  0
VERTEX
  8
0
 10
1.58849
 20
0.662489
 30
0.0
 40
0
 41
0
  0
VERTEX
  8
0
 10
1.5944
 20
0.648275
 30
0.0
 40
0
 41
0
  0
VERTEX
  8
0
 10
1.60747
 20
0.6435
 30
0.0
 40
0
 41
0
  0
VERTEX
  8
0
 10
1.62056
 20
0.648275
 30
0.0
 40
0
 41
0
  0
VERTEX
  8
0
 10
1.62651
 20
0.662489
 30
0.0
 40
0
 41
0
  0
SEQEND
 8
0
  0
POLYLINE
  8
0
 62
     173
 66
     1
 10
0
 20
0
 30
0.0
 70
     1
 40
0
 41
0
  0
VERTEX
  8
0
 10
1.6665
 20
2.61751
 30
0.0
 40
0
 41
0
  0
VERTEX
  8
0
 10
1.66054
 20
2.63178
 30
0.0
 40
0
 41
0
  0
VERTEX
  8
0
 10
1.64746
 20
2.63656
 30
0.0
 40
0
 41
0
  0
VERTEX
  8
0
 10
1.63439
 20
2.63178
 30
0.0
 40
0
 41
0
  0
VERTEX
  8
0
 10
1.62847
 20
2.61751
 30
0.0
 40
0
 41
0
  0
VERTEX
  8
0
 10
1.63439
 20
2.60331
 30
0.0
 40
0
 41
0
  0
VERTEX
  8
0
 10
1.64746
 20
2.59853
 30
0.0
 40
0
 41
0
  0
VERTEX
  8
0
 10
1.66054
 20
2.60331
 30
0.0
 40
0
 41
0
  0
VERTEX
  8
0
 10
1.6665
 20
2.61751
 30
0.0
 40
0
 41
0
  0
SEQEND
 8
0
  0
POLYLINE
  8
0
 62
     173
 66
     1
 10
0
 20
0
 30
0.0
 70
     1
 40
0
 41
0
  0
VERTEX
  8
0
 10
1.7665
 20
2.61751
 30
0.0
 40
0
 41
0
  0
VERTEX
  8
0
 10
1.76053
 20
2.63178
 30
0.0
 40
0
 41
0
  0
VERTEX
  8
0
 10
1.7475
 20
2.63656
 30
0.0
 40
0
 41
0
  0
VERTEX
  8
0
 10
1.73443
 20
2.63178
 30
0.0
 40
0
 41
0
  0
VERTEX
  8
0
 10
1.72851
 20
2.61751
 30
0.0
 40
0
 41
0
  0
VERTEX
  8
0
 10
1.73443
 20
2.60331
 30
0.0
 40
0
 41
0
  0
VERTEX
  8
0
 10
1.7475
 20
2.59853
 30
0.0
 40
0
 41
0
  0
VERTEX
  8
0
 10
1.76053
 20
2.60331
 30
0.0
 40
0
 41
0
  0
VERTEX
  8
0
 10
1.7665
 20
2.61751
 30
0.0
 40
0
 41
0
  0
SEQEND
 8
0
  0
POLYLINE
  8
0
 62
     173
 66
     1
 10
0
 20
0
 30
0.0
 70
     1
 40
0
 41
0
  0
VERTEX
  8
0
 10
0.527507
 20
3.03749
 30
0.0
 40
0
 41
0
  0
VERTEX
  8
0
 10
0.51964
 20
3.05626
 30
0.0
 40
0
 41
0
  0
VERTEX
  8
0
 10
0.502496
 20
3.0625
 30
0.0
 40
0
 41
0
  0
VERTEX
  8
0
 10
0.485297
 20
3.05626
 30
0.0
 40
0
 41
0
  0
VERTEX
  8
0
 10
0.477485
 20
3.03749
 30
0.0
 40
0
 41
0
  0
VERTEX
  8
0
 10
0.485297
 20
3.01878
 30
0.0
 40
0
 41
0
  0
VERTEX
  8
0
 10
0.502496
 20
3.01253
 30
0.0
 40
0
 41
0
  0
VERTEX
  8
0
 10
0.51964
 20
3.01878
 30
0.0
 40
0
 41
0
  0
VERTEX
  8
0
 10
0.527507
 20
3.03749
 30
0.0
 40
0
 41
0
  0
SEQEND
 8
0
  0
POLYLINE
  8
0
 62
     173
 66
     1
 10
0
 20
0
 30
0.0
 70
     1
 40
0
 41
0
  0
VERTEX
  8
0
 10
0.527507
 20
2.03749
 30
0.0
 40
0
 41
0
  0
VERTEX
  8
0
 10
0.51964
 20
2.05626
 30
0.0
 40
0
 41
0
  0
VERTEX
  8
0
 10
0.502496
 20
2.0625
 30
0.0
 40
0
 41
0
  0
VERTEX
  8
0
 10
0.485297
 20
2.05626
 30
0.0
 40
0
 41
0
  0
VERTEX
  8
0
 10
0.477485
 20
2.03749
 30
0.0
 40
0
 41
0
  0
VERTEX
  8
0
 10
0.485297
 20
2.01878
 30
0.0
 40
0
 41
0
  0
VERTEX
  8
0
 10
0.502496
 20
2.01253
 30
0.0
 40
0
 41
0
  0
VERTEX
  8
0
 10
0.51964
 20
2.01878
 30
0.0
 40
0
 41
0
  0
VERTEX
  8
0
 10
0.527507
 20
2.03749
 30
0.0
 40
0
 41
0
  0
SEQEND
 8
0
  0
POLYLINE
  8
0
 62
     173
 66
     1
 10
0
 20
0
 30
0.0
 70
     1
 40
0
 41
0
  0
VERTEX
  8
0
 10
2.05251
 20
3.55251
 30
0.0
 40
0
 41
0
  0
VERTEX
  8
0
 10
2.04465
 20
3.57129
 30
0.0
 40
0
 41
0
  0
VERTEX
  8
0
 10
2.0275
 20
3.57753
 30
0.0
 40
0
 41
0
  0
VERTEX
  8
0
 10
2.01031
 20
3.57129
 30
0.0
 40
0
 41
0
  0
VERTEX
  8
0
 10
2.0025
 20
3.55251
 30
0.0
 40
0
 41
0
  0
VERTEX
  8
0
 10
2.01031
 20
3.53381
 30
0.0
 40
0
 41
0
  0
VERTEX
  8
0
 10
2.0275
 20
3.5275
 30
0.0
 40
0
 41
0
  0
VERTEX
  8
0
 10
2.04465
 20
3.53381
 30
0.0
 40
0
 41
0
  0
VERTEX
  8
0
 10
2.05251
 20
3.55251
 30
0.0
 40
0
 41
0
  0
SEQEND
 8
0
  0
POLYLINE
  8
0
 62
     173
 66
     1
 10
0
 20
0
 30
0.0
 70
     1
 40
0
 41
0
  0
VERTEX
  8
0
 10
2.05251
 20
3.2525
 30
0.0
 40
0
 41
0
  0
VERTEX
  8
0
 10
2.04465
 20
3.27126
 30
0.0
 40
0
 41
0
  0
VERTEX
  8
0
 10
2.0275
 20
3.2775
 30
0.0
 40
0
 41
0
  0
VERTEX
  8
0
 10
2.01031
 20
3.27126
 30
0.0
 40
0
 41
0
  0
VERTEX
  8
0
 10
2.0025
 20
3.2525
 30
0.0
 40
0
 41
0
  0
VERTEX
  8
0
 10
2.01031
 20
3.23378
 30
0.0
 40
0
 41
0
  0
VERTEX
  8
0
 10
2.0275
 20
3.22754
 30
0.0
 40
0
 41
0
  0
VERTEX
  8
0
 10
2.04465
 20
3.23378
 30
0.0
 40
0
 41
0
  0
VERTEX
  8
0
 10
2.05251
 20
3.2525
 30
0.0
 40
0
 41
0
  0
SEQEND
 8
0
  0
POLYLINE
  8
0
 62
     173
 66
     1
 10
0
 20
0
 30
0.0
 70
     1
 40
0
 41
0
  0
VERTEX
  8
0
 10
0.451118
 20
3.58751
 30
0.0
 40
0
 41
0
  0
VERTEX
  8
0
 10
0.443143
 20
3.60667
 30
0.0
 40
0
 41
0
  0
VERTEX
  8
0
 10
0.425618
 20
3.61301
 30
0.0
 40
0
 41
0
  0
VERTEX
  8
0
 10
0.40804
 20
3.60667
 30
0.0
 40
0
 41
0
  0
VERTEX
  8
0
 10
0.400119
 20
3.58751
 30
0.0
 40
0
 41
0
  0
VERTEX
  8
0
 10
0.40804
 20
3.56842
 30
0.0
 40
0
 41
0
  0
VERTEX
  8
0
 10
0.425618
 20
3.56201
 30
0.0
 40
0
 41
0
  0
VERTEX
  8
0
 10
0.443143
 20
3.56842
 30
0.0
 40
0
 41
0
  0
VERTEX
  8
0
 10
0.451118
 20
3.58751
 30
0.0
 40
0
 41
0
  0
SEQEND
 8
0
  0
POLYLINE
  8
0
 62
     173
 66
     1
 10
0
 20
0
 30
0.0
 70
     1
 40
0
 41
0
  0
VERTEX
  8
0
 10
0.648004
 20
3.58751
 30
0.0
 40
0
 41
0
  0
VERTEX
  8
0
 10
0.640028
 20
3.60667
 30
0.0
 40
0
 41
0
  0
VERTEX
  8
0
 10
0.622504
 20
3.61301
 30
0.0
 40
0
 41
0
  0
VERTEX
  8
0
 10
0.604926
 20
3.60667
 30
0.0
 40
0
 41
0
  0
VERTEX
  8
0
 10
0.597006
 20
3.58751
 30
0.0
 40
0
 41
0
  0
VERTEX
  8
0
 10
0.604926
 20
3.56842
 30
0.0
 40
0
 41
0
  0
VERTEX
  8
0
 10
0.622504
 20
3.56201
 30
0.0
 40
0
 41
0
  0
VERTEX
  8
0
 10
0.640028
 20
3.56842
 30
0.0
 40
0
 41
0
  0
VERTEX
  8
0
 10
0.648004
 20
3.58751
 30
0.0
 40
0
 41
0
  0
SEQEND
 8
0
  0
POLYLINE
  8
0
 62
     173
 66
     1
 10
0
 20
0
 30
0.0
 70
     1
 40
0
 41
0
  0
VERTEX
  8
0
 10
1.08111
 20
3.58751
 30
0.0
 40
0
 41
0
  0
VERTEX
  8
0
 10
1.07313
 20
3.60667
 30
0.0
 40
0
 41
0
  0
VERTEX
  8
0
 10
1.05561
 20
3.61301
 30
0.0
 40
0
 41
0
  0
VERTEX
  8
0
 10
1.03803
 20
3.60667
 30
0.0
 40
0
 41
0
  0
VERTEX
  8
0
 10
1.03011
 20
3.58751
 30
0.0
 40
0
 41
0
  0
VERTEX
  8
0
 10
1.03803
 20
3.56842
 30
0.0
 40
0
 41
0
  0
VERTEX
  8
0
 10
1.05561
 20
3.56201
 30
0.0
 40
0
 41
0
  0
VERTEX
  8
0
 10
1.07313
 20
3.56842
 30
0.0
 40
0
 41
0
  0
VERTEX
  8
0
 10
1.08111
 20
3.58751
 30
0.0
 40
0
 41
0
  0
SEQEND
 8
0
  0
POLYLINE
  8
0
 62
     173
 66
     1
 10
0
 20
0
 30
0.0
 70
     1
 40
0
 41
0
  0
VERTEX
  8
0
 10
1.27789
 20
3.58751
 30
0.0
 40
0
 41
0
  0
VERTEX
  8
0
 10
1.26991
 20
3.60667
 30
0.0
 40
0
 41
0
  0
VERTEX
  8
0
 10
1.25239
 20
3.61301
 30
0.0
 40
0
 41
0
  0
VERTEX
  8
0
 10
1.23481
 20
3.60667
 30
0.0
 40
0
 41
0
  0
VERTEX
  8
0
 10
1.22689
 20
3.58751
 30
0.0
 40
0
 41
0
  0
VERTEX
  8
0
 10
1.23481
 20
3.56842
 30
0.0
 40
0
 41
0
  0
VERTEX
  8
0
 10
1.25239
 20
3.56201
 30
0.0
 40
0
 41
0
  0
VERTEX
  8
0
 10
1.26991
 20
3.56842
 30
0.0
 40
0
 41
0
  0
VERTEX
  8
0
 10
1.27789
 20
3.58751
 30
0.0
 40
0
 41
0
  0
SEQEND
 8
0
  0
POLYLINE
  8
0
 62
     173
 66
     1
 10
0
 20
0
 30
0.0
 70
     1
 40
0
 41
0
  0
VERTEX
  8
0
 10
0.197483
 20
3.03749
 30
0.0
 40
0
 41
0
  0
VERTEX
  8
0
 10
0.188097
 20
3.06
 30
0.0
 40
0
 41
0
  0
VERTEX
  8
0
 10
0.167481
 20
3.06749
 30
0.0
 40
0
 41
0
  0
VERTEX
  8
0
 10
0.14681
 20
3.06
 30
0.0
 40
0
 41
0
  0
VERTEX
  8
0
 10
0.137478
 20
3.03749
 30
0.0
 40
0
 41
0
  0
VERTEX
  8
0
 10
0.14681
 20
3.01503
 30
0.0
 40
0
 41
0
  0
VERTEX
  8
0
 10
0.167481
 20
3.00754
 30
0.0
 40
0
 41
0
  0
VERTEX
  8
0
 10
0.188097
 20
3.01503
 30
0.0
 40
0
 41
0
  0
VERTEX
  8
0
 10
0.197483
 20
3.03749
 30
0.0
 40
0
 41
0
  0
SEQEND
 8
0
  0
POLYLINE
  8
0
 62
     173
 66
     1
 10
0
 20
0
 30
0.0
 70
     1
 40
0
 41
0
  0
VERTEX
  8
0
 10
0.297472
 20
3.03749
 30
0.0
 40
0
 41
0
  0
VERTEX
  8
0
 10
0.288086
 20
3.06
 30
0.0
 40
0
 41
0
  0
VERTEX
  8
0
 10
0.267469
 20
3.06749
 30
0.0
 40
0
 41
0
  0
VERTEX
  8
0
 10
0.246799
 20
3.06
 30
0.0
 40
0
 41
0
  0
VERTEX
  8
0
 10
0.237468
 20
3.03749
 30
0.0
 40
0
 41
0
  0
VERTEX
  8
0
 10
0.246799
 20
3.01503
 30
0.0
 40
0
 41
0
  0
VERTEX
  8
0
 10
0.267469
 20
3.00754
 30
0.0
 40
0
 41
0
  0
VERTEX
  8
0
 10
0.288086
 20
3.01503
 30
0.0
 40
0
 41
0
  0
VERTEX
  8
0
 10
0.297472
 20
3.03749
 30
0.0
 40
0
 41
0
  0
SEQEND
 8
0
  0
POLYLINE
  8
0
 62
     173
 66
     1
 10
0
 20
0
 30
0.0
 70
     1
 40
0
 41
0
  0
VERTEX
  8
0
 10
0.357801
 20
2.15588
 30
0.0
 40
0
 41
0
  0
VERTEX
  8
0
 10
0.348415
 20
2.17844
 30
0.0
 40
0
 41
0
  0
VERTEX
  8
0
 10
0.3278
 20
2.18593
 30
0.0
 40
0
 41
0
  0
VERTEX
  8
0
 10
0.307129
 20
2.17844
 30
0.0
 40
0
 41
0
  0
VERTEX
  8
0
 10
0.297797
 20
2.15588
 30
0.0
 40
0
 41
0
  0
VERTEX
  8
0
 10
0.307129
 20
2.1334
 30
0.0
 40
0
 41
0
  0
VERTEX
  8
0
 10
0.3278
 20
2.12592
 30
0.0
 40
0
 41
0
  0
VERTEX
  8
0
 10
0.348415
 20
2.1334
 30
0.0
 40
0
 41
0
  0
VERTEX
  8
0
 10
0.357801
 20
2.15588
 30
0.0
 40
0
 41
0
  0
SEQEND
 8
0
  0
POLYLINE
  8
0
 62
     173
 66
     1
 10
0
 20
0
 30
0.0
 70
     1
 40
0
 41
0
  0
VERTEX
  8
0
 10
0.382488
 20
1.30751
 30
0.0
 40
0
 41
0
  0
VERTEX
  8
0
 10
0.373101
 20
1.33002
 30
0.0
 40
0
 41
0
  0
VERTEX
  8
0
 10
0.352485
 20
1.33751
 30
0.0
 40
0
 41
0
  0
VERTEX
  8
0
 10
0.331814
 20
1.33002
 30
0.0
 40
0
 41
0
  0
VERTEX
  8
0
 10
0.322483
 20
1.30751
 30
0.0
 40
0
 41
0
  0
VERTEX
  8
0
 10
0.331814
 20
1.28499
 30
0.0
 40
0
 41
0
  0
VERTEX
  8
0
 10
0.352485
 20
1.27751
 30
0.0
 40
0
 41
0
  0
VERTEX
  8
0
 10
0.373101
 20
1.28499
 30
0.0
 40
0
 41
0
  0
VERTEX
  8
0
 10
0.382488
 20
1.30751
 30
0.0
 40
0
 41
0
  0
SEQEND
 8
0
  0
POLYLINE
  8
0
 62
     173
 66
     1
 10
0
 20
0
 30
0.0
 70
     1
 40
0
 41
0
  0
VERTEX
  8
0
 10
0.397515
 20
3.03749
 30
0.0
 40
0
 41
0
  0
VERTEX
  8
0
 10
0.388129
 20
3.06
 30
0.0
 40
0
 41
0
  0
VERTEX
  8
0
 10
0.367512
 20
3.06749
 30
0.0
 40
0
 41
0
  0
VERTEX
  8
0
 10
0.346843
 20
3.06
 30
0.0
 40
0
 41
0
  0
VERTEX
  8
0
 10
0.337511
 20
3.03749
 30
0.0
 40
0
 41
0
  0
VERTEX
  8
0
 10
0.346843
 20
3.01503
 30
0.0
 40
0
 41
0
  0
VERTEX
  8
0
 10
0.367512
 20
3.00754
 30
0.0
 40
0
 41
0
  0
VERTEX
  8
0
 10
0.388129
 20
3.01503
 30
0.0
 40
0
 41
0
  0
VERTEX
  8
0
 10
0.397515
 20
3.03749
 30
0.0
 40
0
 41
0
  0
SEQEND
 8
0
  0
POLYLINE
  8
0
 62
     173
 66
     1
 10
0
 20
0
 30
0.0
 70
     1
 40
0
 41
0
  0
VERTEX
  8
0
 10
0.45779
 20
2.15588
 30
0.0
 40
0
 41
0
  0
VERTEX
  8
0
 10
0.448406
 20
2.17844
 30
0.0
 40
0
 41
0
  0
VERTEX
  8
0
 10
0.427789
 20
2.18593
 30
0.0
 40
0
 41
0
  0
VERTEX
  8
0
 10
0.407118
 20
2.17844
 30
0.0
 40
0
 41
0
  0
VERTEX
  8
0
 10
0.397786
 20
2.15588
 30
0.0
 40
0
 41
0
  0
VERTEX
  8
0
 10
0.407118
 20
2.1334
 30
0.0
 40
0
 41
0
  0
VERTEX
  8
0
 10
0.427789
 20
2.12592
 30
0.0
 40
0
 41
0
  0
VERTEX
  8
0
 10
0.448406
 20
2.1334
 30
0.0
 40
0
 41
0
  0
VERTEX
  8
0
 10
0.45779
 20
2.15588
 30
0.0
 40
0
 41
0
  0
SEQEND
 8
0
  0
POLYLINE
  8
0
 62
     173
 66
     1
 10
0
 20
0
 30
0.0
 70
     1
 40
0
 41
0
  0
VERTEX
  8
0
 10
0.482476
 20
1.30751
 30
0.0
 40
0
 41
0
  0
VERTEX
  8
0
 10
0.47309
 20
1.33002
 30
0.0
 40
0
 41
0
  0
VERTEX
  8
0
 10
0.452474
 20
1.33751
 30
0.0
 40
0
 41
0
  0
VERTEX
  8
0
 10
0.431803
 20
1.33002
 30
0.0
 40
0
 41
0
  0
VERTEX
  8
0
 10
0.422472
 20
1.30751
 30
0.0
 40
0
 41
0
  0
VERTEX
  8
0
 10
0.431803
 20
1.28499
 30
0.0
 40
0
 41
0
  0
VERTEX
  8
0
 10
0.452474
 20
1.27751
 30
0.0
 40
0
 41
0
  0
VERTEX
  8
0
 10
0.47309
 20
1.28499
 30
0.0
 40
0
 41
0
  0
VERTEX
  8
0
 10
0.482476
 20
1.30751
 30
0.0
 40
0
 41
0
  0
SEQEND
 8
0
  0
POLYLINE
  8
0
 62
     173
 66
     1
 10
0
 20
0
 30
0.0
 70
     1
 40
0
 41
0
  0
VERTEX
  8
0
 10
0.557781
 20
2.15588
 30
0.0
 40
0
 41
0
  0
VERTEX
  8
0
 10
0.548394
 20
2.17844
 30
0.0
 40
0
 41
0
  0
VERTEX
  8
0
 10
0.527778
 20
2.18593
 30
0.0
 40
0
 41
0
  0
VERTEX
  8
0
 10
0.507107
 20
2.17844
 30
0.0
 40
0
 41
0
  0
VERTEX
  8
0
 10
0.497775
 20
2.15588
 30
0.0
 40
0
 41
0
  0
VERTEX
  8
0
 10
0.507107
 20
2.1334
 30
0.0
 40
0
 41
0
  0
VERTEX
  8
0
 10
0.527778
 20
2.12592
 30
0.0
 40
0
 41
0
  0
VERTEX
  8
0
 10
0.548394
 20
2.1334
 30
0.0
 40
0
 41
0
  0
VERTEX
  8
0
 10
0.557781
 20
2.15588
 30
0.0
 40
0
 41
0
  0
SEQEND
 8
0
  0
POLYLINE
  8
0
 62
     173
 66
     1
 10
0
 20
0
 30
0.0
 70
     1
 40
0
 41
0
  0
VERTEX
  8
0
 10
0.582519
 20
1.30751
 30
0.0
 40
0
 41
0
  0
VERTEX
  8
0
 10
0.573133
 20
1.33002
 30
0.0
 40
0
 41
0
  0
VERTEX
  8
0
 10
0.552518
 20
1.33751
 30
0.0
 40
0
 41
0
  0
VERTEX
  8
0
 10
0.531847
 20
1.33002
 30
0.0
 40
0
 41
0
  0
VERTEX
  8
0
 10
0.522515
 20
1.30751
 30
0.0
 40
0
 41
0
  0
VERTEX
  8
0
 10
0.531847
 20
1.28499
 30
0.0
 40
0
 41
0
  0
VERTEX
  8
0
 10
0.552518
 20
1.27751
 30
0.0
 40
0
 41
0
  0
VERTEX
  8
0
 10
0.573133
 20
1.28499
 30
0.0
 40
0
 41
0
  0
VERTEX
  8
0
 10
0.582519
 20
1.30751
 30
0.0
 40
0
 41
0
  0
SEQEND
 8
0
  0
POLYLINE
  8
0
 62
     173
 66
     1
 10
0
 20
0
 30
0.0
 70
     1
 40
0
 41
0
  0
VERTEX
  8
0
 10
0.807508
 20
1.86247
 30
0.0
 40
0
 41
0
  0
VERTEX
  8
0
 10
0.798122
 20
1.88504
 30
0.0
 40
0
 41
0
  0
VERTEX
  8
0
 10
0.777507
 20
1.89253
 30
0.0
 40
0
 41
0
  0
VERTEX
  8
0
 10
0.756836
 20
1.88504
 30
0.0
 40
0
 41
0
  0
VERTEX
  8
0
 10
0.747504
 20
1.86247
 30
0.0
 40
0
 41
0
  0
VERTEX
  8
0
 10
0.756836
 20
1.84
 30
0.0
 40
0
 41
0
  0
VERTEX
  8
0
 10
0.777507
 20
1.83251
 30
0.0
 40
0
 41
0
  0
VERTEX
  8
0
 10
0.798122
 20
1.84
 30
0.0
 40
0
 41
0
  0
VERTEX
  8
0
 10
0.807508
 20
1.86247
 30
0.0
 40
0
 41
0
  0
SEQEND
 8
0
  0
POLYLINE
  8
0
 62
     173
 66
     1
 10
0
 20
0
 30
0.0
 70
     1
 40
0
 41
0
  0
VERTEX
  8
0
 10
0.807508
 20
0.857476
 30
0.0
 40
0
 41
0
  0
VERTEX
  8
0
 10
0.798122
 20
0.880046
 30
0.0
 40
0
 41
0
  0
VERTEX
  8
0
 10
0.777507
 20
0.887532
 30
0.0
 40
0
 41
0
  0
VERTEX
  8
0
 10
0.756836
 20
0.880046
 30
0.0
 40
0
 41
0
  0
VERTEX
  8
0
 10
0.747504
 20
0.857476
 30
0.0
 40
0
 41
0
  0
VERTEX
  8
0
 10
0.756836
 20
0.835015
 30
0.0
 40
0
 41
0
  0
VERTEX
  8
0
 10
0.777507
 20
0.827528
 30
0.0
 40
0
 41
0
  0
VERTEX
  8
0
 10
0.798122
 20
0.835015
 30
0.0
 40
0
 41
0
  0
VERTEX
  8
0
 10
0.807508
 20
0.857476
 30
0.0
 40
0
 41
0
  0
SEQEND
 8
0
  0
POLYLINE
  8
0
 62
     173
 66
     1
 10
0
 20
0
 30
0.0
 70
     1
 40
0
 41
0
  0
VERTEX
  8
0
 10
0.907497
 20
1.86247
 30
0.0
 40
0
 41
0
  0
VERTEX
  8
0
 10
0.898113
 20
1.88504
 30
0.0
 40
0
 41
0
  0
VERTEX
  8
0
 10
0.877496
 20
1.89253
 30
0.0
 40
0
 41
0
  0
VERTEX
  8
0
 10
0.856825
 20
1.88504
 30
0.0
 40
0
 41
0
  0
VERTEX
  8
0
 10
0.847493
 20
1.86247
 30
0.0
 40
0
 41
0
  0
VERTEX
  8
0
 10
0.856825
 20
1.84
 30
0.0
 40
0
 41
0
  0
VERTEX
  8
0
 10
0.877496
 20
1.83251
 30
0.0
 40
0
 41
0
  0
VERTEX
  8
0
 10
0.898113
 20
1.84
 30
0.0
 40
0
 41
0
  0
VERTEX
  8
0
 10
0.907497
 20
1.86247
 30
0.0
 40
0
 41
0
  0
SEQEND
 8
0
  0
POLYLINE
  8
0
 62
     173
 66
     1
 10
0
 20
0
 30
0.0
 70
     1
 40
0
 41
0
  0
VERTEX
  8
0
 10
0.907497
 20
0.857476
 30
0.0
 40
0
 41
0
  0
VERTEX
  8
0
 10
0.898113
 20
0.880046
 30
0.0
 40
0
 41
0
  0
VERTEX
  8
0
 10
0.877496
 20
0.887532
 30
0.0
 40
0
 41
0
  0
VERTEX
  8
0
 10
0.856825
 20
0.880046
 30
0.0
 40
0
 41
0
  0
VERTEX
  8
0
 10
0.847493
 20
0.857476
 30
0.0
 40
0
 41
0
  0
VERTEX
  8
0
 10
0.856825
 20
0.835015
 30
0.0
 40
0
 41
0
  0
VERTEX
  8
0
 10
0.877496
 20
0.827528
 30
0.0
 40
0
 41
0
  0
VERTEX
  8
0
 10
0.898113
 20
0.835015
 30
0.0
 40
0
 41
0
  0
VERTEX
  8
0
 10
0.907497
 20
0.857476
 30
0.0
 40
0
 41
0
  0
SEQEND
 8
0
  0
POLYLINE
  8
0
 62
     173
 66
     1
 10
0
 20
0
 30
0.0
 70
     1
 40
0
 41
0
  0
VERTEX
  8
0
 10
1.00749
 20
1.86247
 30
0.0
 40
0
 41
0
  0
VERTEX
  8
0
 10
0.998101
 20
1.88504
 30
0.0
 40
0
 41
0
  0
VERTEX
  8
0
 10
0.977485
 20
1.89253
 30
0.0
 40
0
 41
0
  0
VERTEX
  8
0
 10
0.956814
 20
1.88504
 30
0.0
 40
0
 41
0
  0
VERTEX
  8
0
 10
0.947483
 20
1.86247
 30
0.0
 40
0
 41
0
  0
VERTEX
  8
0
 10
0.956814
 20
1.84
 30
0.0
 40
0
 41
0
  0
VERTEX
  8
0
 10
0.977485
 20
1.83251
 30
0.0
 40
0
 41
0
  0
VERTEX
  8
0
 10
0.998101
 20
1.84
 30
0.0
 40
0
 41
0
  0
VERTEX
  8
0
 10
1.00749
 20
1.86247
 30
0.0
 40
0
 41
0
  0
SEQEND
 8
0
  0
POLYLINE
  8
0
 62
     173
 66
     1
 10
0
 20
0
 30
0.0
 70
     1
 40
0
 41
0
  0
VERTEX
  8
0
 10
1.00749
 20
0.857476
 30
0.0
 40
0
 41
0
  0
VERTEX
  8
0
 10
0.998101
 20
0.880046
 30
0.0
 40
0
 41
0
  0
VERTEX
  8
0
 10
0.977485
 20
0.887532
 30
0.0
 40
0
 41
0
  0
VERTEX
  8
0
 10
0.956814
 20
0.880046
 30
0.0
 40
0
 41
0
  0
VERTEX
  8
0
 10
0.947483
 20
0.857476
 30
0.0
 40
0
 41
0
  0
VERTEX
  8
0
 10
0.956814
 20
0.835015
 30
0.0
 40
0
 41
0
  0
VERTEX
  8
0
 10
0.977485
 20
0.827528
 30
0.0
 40
0
 41
0
  0
VERTEX
  8
0
 10
0.998101
 20
0.835015
 30
0.0
 40
0
 41
0
  0
VERTEX
  8
0
 10
1.00749
 20
0.857476
 30
0.0
 40
0
 41
0
  0
SEQEND
 8
0
  0
POLYLINE
  8
0
 62
     173
 66
     1
 10
0
 20
0
 30
0.0
 70
     1
 40
0
 41
0
  0
VERTEX
  8
0
 10
1.15251
 20
2.94249
 30
0.0
 40
0
 41
0
  0
VERTEX
  8
0
 10
1.14312
 20
2.965
 30
0.0
 40
0
 41
0
  0
VERTEX
  8
0
 10
1.1225
 20
2.9725
 30
0.0
 40
0
 41
0
  0
VERTEX
  8
0
 10
1.10183
 20
2.965
 30
0.0
 40
0
 41
0
  0
VERTEX
  8
0
 10
1.0925
 20
2.94249
 30
0.0
 40
0
 41
0
  0
VERTEX
  8
0
 10
1.10183
 20
2.92003
 30
0.0
 40
0
 41
0
  0
VERTEX
  8
0
 10
1.1225
 20
2.91254
 30
0.0
 40
0
 41
0
  0
VERTEX
  8
0
 10
1.14312
 20
2.92003
 30
0.0
 40
0
 41
0
  0
VERTEX
  8
0
 10
1.15251
 20
2.94249
 30
0.0
 40
0
 41
0
  0
SEQEND
 8
0
  0
POLYLINE
  8
0
 62
     173
 66
     1
 10
0
 20
0
 30
0.0
 70
     1
 40
0
 41
0
  0
VERTEX
  8
0
 10
1.2525
 20
2.94249
 30
0.0
 40
0
 41
0
  0
VERTEX
  8
0
 10
1.24311
 20
2.965
 30
0.0
 40
0
 41
0
  0
VERTEX
  8
0
 10
1.22249
 20
2.9725
 30
0.0
 40
0
 41
0
  0
VERTEX
  8
0
 10
1.20182
 20
2.965
 30
0.0
 40
0
 41
0
  0
VERTEX
  8
0
 10
1.19249
 20
2.94249
 30
0.0
 40
0
 41
0
  0
VERTEX
  8
0
 10
1.20182
 20
2.92003
 30
0.0
 40
0
 41
0
  0
VERTEX
  8
0
 10
1.22249
 20
2.91254
 30
0.0
 40
0
 41
0
  0
VERTEX
  8
0
 10
1.24311
 20
2.92003
 30
0.0
 40
0
 41
0
  0
VERTEX
  8
0
 10
1.2525
 20
2.94249
 30
0.0
 40
0
 41
0
  0
SEQEND
 8
0
  0
POLYLINE
  8
0
 62
     173
 66
     1
 10
0
 20
0
 30
0.0
 70
     1
 40
0
 41
0
  0
VERTEX
  8
0
 10
1.27252
 20
1.85747
 30
0.0
 40
0
 41
0
  0
VERTEX
  8
0
 10
1.26313
 20
1.88004
 30
0.0
 40
0
 41
0
  0
VERTEX
  8
0
 10
1.24251
 20
1.88753
 30
0.0
 40
0
 41
0
  0
VERTEX
  8
0
 10
1.22184
 20
1.88004
 30
0.0
 40
0
 41
0
  0
VERTEX
  8
0
 10
1.21251
 20
1.85747
 30
0.0
 40
0
 41
0
  0
VERTEX
  8
0
 10
1.22184
 20
1.83501
 30
0.0
 40
0
 41
0
  0
VERTEX
  8
0
 10
1.24251
 20
1.82753
 30
0.0
 40
0
 41
0
  0
VERTEX
  8
0
 10
1.26313
 20
1.83501
 30
0.0
 40
0
 41
0
  0
VERTEX
  8
0
 10
1.27252
 20
1.85747
 30
0.0
 40
0
 41
0
  0
SEQEND
 8
0
  0
POLYLINE
  8
0
 62
     173
 66
     1
 10
0
 20
0
 30
0.0
 70
     1
 40
0
 41
0
  0
VERTEX
  8
0
 10
1.35248
 20
2.94249
 30
0.0
 40
0
 41
0
  0
VERTEX
  8
0
 10
1.3431
 20
2.965
 30
0.0
 40
0
 41
0
  0
VERTEX
  8
0
 10
1.32248
 20
2.9725
 30
0.0
 40
0
 41
0
  0
VERTEX
  8
0
 10
1.30181
 20
2.965
 30
0.0
 40
0
 41
0
  0
VERTEX
  8
0
 10
1.29248
 20
2.94249
 30
0.0
 40
0
 41
0
  0
VERTEX
  8
0
 10
1.30181
 20
2.92003
 30
0.0
 40
0
 41
0
  0
VERTEX
  8
0
 10
1.32248
 20
2.91254
 30
0.0
 40
0
 41
0
  0
VERTEX
  8
0
 10
1.3431
 20
2.92003
 30
0.0
 40
0
 41
0
  0
VERTEX
  8
0
 10
1.35248
 20
2.94249
 30
0.0
 40
0
 41
0
  0
SEQEND
 8
0
  0
POLYLINE
  8
0
 62
     173
 66
     1
 10
0
 20
0
 30
0.0
 70
     1
 40
0
 41
0
  0
VERTEX
  8
0
 10
1.3725
 20
1.85747
 30
0.0
 40
0
 41
0
  0
VERTEX
  8
0
 10
1.36312
 20
1.88004
 30
0.0
 40
0
 41
0
  0
VERTEX
  8
0
 10
1.3425
 20
1.88753
 30
0.0
 40
0
 41
0
  0
VERTEX
  8
0
 10
1.32183
 20
1.88004
 30
0.0
 40
0
 41
0
  0
VERTEX
  8
0
 10
1.3125
 20
1.85747
 30
0.0
 40
0
 41
0
  0
VERTEX
  8
0
 10
1.32183
 20
1.83501
 30
0.0
 40
0
 41
0
  0
VERTEX
  8
0
 10
1.3425
 20
1.82753
 30
0.0
 40
0
 41
0
  0
VERTEX
  8
0
 10
1.36312
 20
1.83501
 30
0.0
 40
0
 41
0
  0
VERTEX
  8
0
 10
1.3725
 20
1.85747
 30
0.0
 40
0
 41
0
  0
SEQEND
 8
0
  0
POLYLINE
  8
0
 62
     173
 66
     1
 10
0
 20
0
 30
0.0
 70
     1
 40
0
 41
0
  0
VERTEX
  8
0
 10
1.4725
 20
1.85747
 30
0.0
 40
0
 41
0
  0
VERTEX
  8
0
 10
1.46311
 20
1.88004
 30
0.0
 40
0
 41
0
  0
VERTEX
  8
0
 10
1.44249
 20
1.88753
 30
0.0
 40
0
 41
0
  0
VERTEX
  8
0
 10
1.42182
 20
1.88004
 30
0.0
 40
0
 41
0
  0
VERTEX
  8
0
 10
1.41249
 20
1.85747
 30
0.0
 40
0
 41
0
  0
VERTEX
  8
0
 10
1.42182
 20
1.83501
 30
0.0
 40
0
 41
0
  0
VERTEX
  8
0
 10
1.44249
 20
1.82753
 30
0.0
 40
0
 41
0
  0
VERTEX
  8
0
 10
1.46311
 20
1.83501
 30
0.0
 40
0
 41
0
  0
VERTEX
  8
0
 10
1.4725
 20
1.85747
 30
0.0
 40
0
 41
0
  0
SEQEND
 8
0
  0
POLYLINE
  8
0
 62
     173
 66
     1
 10
0
 20
0
 30
0.0
 70
     1
 40
0
 41
0
  0
VERTEX
  8
0
 10
1.7775
 20
3.07249
 30
0.0
 40
0
 41
0
  0
VERTEX
  8
0
 10
1.76813
 20
3.095
 30
0.0
 40
0
 41
0
  0
VERTEX
  8
0
 10
1.7475
 20
3.10249
 30
0.0
 40
0
 41
0
  0
VERTEX
  8
0
 10
1.72683
 20
3.095
 30
0.0
 40
0
 41
0
  0
VERTEX
  8
0
 10
1.7175
 20
3.07249
 30
0.0
 40
0
 41
0
  0
VERTEX
  8
0
 10
1.72683
 20
3.05003
 30
0.0
 40
0
 41
0
  0
VERTEX
  8
0
 10
1.7475
 20
3.04254
 30
0.0
 40
0
 41
0
  0
VERTEX
  8
0
 10
1.76813
 20
3.05003
 30
0.0
 40
0
 41
0
  0
VERTEX
  8
0
 10
1.7775
 20
3.07249
 30
0.0
 40
0
 41
0
  0
SEQEND
 8
0
  0
POLYLINE
  8
0
 62
     173
 66
     1
 10
0
 20
0
 30
0.0
 70
     1
 40
0
 41
0
  0
VERTEX
  8
0
 10
1.8775
 20
3.07249
 30
0.0
 40
0
 41
0
  0
VERTEX
  8
0
 10
1.86811
 20
3.095
 30
0.0
 40
0
 41
0
  0
VERTEX
  8
0
 10
1.8475
 20
3.10249
 30
0.0
 40
0
 41
0
  0
VERTEX
  8
0
 10
1.82682
 20
3.095
 30
0.0
 40
0
 41
0
  0
VERTEX
  8
0
 10
1.81749
 20
3.07249
 30
0.0
 40
0
 41
0
  0
VERTEX
  8
0
 10
1.82682
 20
3.05003
 30
0.0
 40
0
 41
0
  0
VERTEX
  8
0
 10
1.8475
 20
3.04254
 30
0.0
 40
0
 41
0
  0
VERTEX
  8
0
 10
1.86811
 20
3.05003
 30
0.0
 40
0
 41
0
  0
VERTEX
  8
0
 10
1.8775
 20
3.07249
 30
0.0
 40
0
 41
0
  0
SEQEND
 8
0
  0
POLYLINE
  8
0
 62
     173
 66
     1
 10
0
 20
0
 30
0.0
 70
     1
 40
0
 41
0
  0
VERTEX
  8
0
 10
1.97749
 20
3.07249
 30
0.0
 40
0
 41
0
  0
VERTEX
  8
0
 10
1.9681
 20
3.095
 30
0.0
 40
0
 41
0
  0
VERTEX
  8
0
 10
1.94749
 20
3.10249
 30
0.0
 40
0
 41
0
  0
VERTEX
  8
0
 10
1.92681
 20
3.095
 30
0.0
 40
0
 41
0
  0
VERTEX
  8
0
 10
1.91749
 20
3.07249
 30
0.0
 40
0
 41
0
  0
VERTEX
  8
0
 10
1.92681
 20
3.05003
 30
0.0
 40
0
 41
0
  0
VERTEX
  8
0
 10
1.94749
 20
3.04254
 30
0.0
 40
0
 41
0
  0
VERTEX
  8
0
 10
1.9681
 20
3.05003
 30
0.0
 40
0
 41
0
  0
VERTEX
  8
0
 10
1.97749
 20
3.07249
 30
0.0
 40
0
 41
0
  0
SEQEND
 8
0
  0
POLYLINE
  8
0
 62
     173
 66
     1
 10
0
 20
0
 30
0.0
 70
     1
 40
0
 41
0
  0
VERTEX
  8
0
 10
1.62858
 20
0.282389
 30
0.0
 40
0
 41
0
  0
VERTEX
  8
0
 10
1.61871
 20
0.306044
 30
0.0
 40
0
 41
0
  0
VERTEX
  8
0
 10
1.59706
 20
0.313911
 30
0.0
 40
0
 41
0
  0
VERTEX
  8
0
 10
1.57542
 20
0.306044
 30
0.0
 40
0
 41
0
  0
VERTEX
  8
0
 10
1.5656
 20
0.282389
 30
0.0
 40
0
 41
0
  0
VERTEX
  8
0
 10
1.57542
 20
0.258789
 30
0.0
 40
0
 41
0
  0
VERTEX
  8
0
 10
1.59706
 20
0.250922
 30
0.0
 40
0
 41
0
  0
VERTEX
  8
0
 10
1.61871
 20
0.258789
 30
0.0
 40
0
 41
0
  0
VERTEX
  8
0
 10
1.62858
 20
0.282389
 30
0.0
 40
0
 41
0
  0
SEQEND
 8
0
  0
POLYLINE
  8
0
 62
     173
 66
     1
 10
0
 20
0
 30
0.0
 70
     1
 40
0
 41
0
  0
VERTEX
  8
0
 10
2.24858
 20
0.282389
 30
0.0
 40
0
 41
0
  0
VERTEX
  8
0
 10
2.23872
 20
0.306044
 30
0.0
 40
0
 41
0
  0
VERTEX
  8
0
 10
2.21707
 20
0.313911
 30
0.0
 40
0
 41
0
  0
VERTEX
  8
0
 10
2.19542
 20
0.306044
 30
0.0
 40
0
 41
0
  0
VERTEX
  8
0
 10
2.1856
 20
0.282389
 30
0.0
 40
0
 41
0
  0
VERTEX
  8
0
 10
2.19542
 20
0.258789
 30
0.0
 40
0
 41
0
  0
VERTEX
  8
0
 10
2.21707
 20
0.250922
 30
0.0
 40
0
 41
0
  0
VERTEX
  8
0
 10
2.23872
 20
0.258789
 30
0.0
 40
0
 41
0
  0
VERTEX
  8
0
 10
2.24858
 20
0.282389
 30
0.0
 40
0
 41
0
  0
SEQEND
 8
0
  0
POLYLINE
  8
0
 62
     173
 66
     1
 10
0
 20
0
 30
0.0
 70
     1
 40
0
 41
0
  0
VERTEX
  8
0
 10
1.74647
 20
0.402507
 30
0.0
 40
0
 41
0
  0
VERTEX
  8
0
 10
1.74094
 20
0.430556
 30
0.0
 40
0
 41
0
  0
VERTEX
  8
0
 10
1.72646
 20
0.450521
 30
0.0
 40
0
 41
0
  0
VERTEX
  8
0
 10
1.70594
 20
0.462565
 30
0.0
 40
0
 41
0
  0
VERTEX
  8
0
 10
1.68246
 20
0.466525
 30
0.0
 40
0
 41
0
  0
VERTEX
  8
0
 10
1.65896
 20
0.462565
 30
0.0
 40
0
 41
0
  0
VERTEX
  8
0
 10
1.63846
 20
0.450521
 30
0.0
 40
0
 41
0
  0
VERTEX
  8
0
 10
1.62397
 20
0.430556
 30
0.0
 40
0
 41
0
  0
VERTEX
  8
0
 10
1.61849
 20
0.402507
 30
0.0
 40
0
 41
0
  0
VERTEX
  8
0
 10
1.62397
 20
0.374511
 30
0.0
 40
0
 41
0
  0
VERTEX
  8
0
 10
1.63846
 20
0.354546
 30
0.0
 40
0
 41
0
  0
VERTEX
  8
0
 10
1.65896
 20
0.342503
 30
0.0
 40
0
 41
0
  0
VERTEX
  8
0
 10
1.68246
 20
0.338542
 30
0.0
 40
0
 41
0
  0
VERTEX
  8
0
 10
1.70594
 20
0.342503
 30
0.0
 40
0
 41
0
  0
VERTEX
  8
0
 10
1.72646
 20
0.354546
 30
0.0
 40
0
 41
0
  0
VERTEX
  8
0
 10
1.74094
 20
0.374511
 30
0.0
 40
0
 41
0
  0
VERTEX
  8
0
 10
1.74647
 20
0.402507
 30
0.0
 40
0
 41
0
  0
SEQEND
 8
0
  0
POLYLINE
  8
0
 62
     173
 66
     1
 10
0
 20
0
 30
0.0
 70
     1
 40
0
 41
0
  0
VERTEX
  8
0
 10
2.1965
 20
0.402507
 30
0.0
 40
0
 41
0
  0
VERTEX
  8
0
 10
2.19097
 20
0.430556
 30
0.0
 40
0
 41
0
  0
VERTEX
  8
0
 10
2.17649
 20
0.450521
 30
0.0
 40
0
 41
0
  0
VERTEX
  8
0
 10
2.15597
 20
0.462565
 30
0.0
 40
0
 41
0
  0
VERTEX
  8
0
 10
2.13249
 20
0.466525
 30
0.0
 40
0
 41
0
  0
VERTEX
  8
0
 10
2.10894
 20
0.462565
 30
0.0
 40
0
 41
0
  0
VERTEX
  8
0
 10
2.08843
 20
0.450521
 30
0.0
 40
0
 41
0
  0
VERTEX
  8
0
 10
2.07394
 20
0.430556
 30
0.0
 40
0
 41
0
  0
VERTEX
  8
0
 10
2.06847
 20
0.402507
 30
0.0
 40
0
 41
0
  0
VERTEX
  8
0
 10
2.07394
 20
0.374511
 30
0.0
 40
0
 41
0
  0
VERTEX
  8
0
 10
2.08843
 20
0.354546
 30
0.0
 40
0
 41
0
  0
VERTEX
  8
0
 10
2.10894
 20
0.342503
 30
0.0
 40
0
 41
0
  0
VERTEX
  8
0
 10
2.13249
 20
0.338542
 30
0.0
 40
0
 41
0
  0
VERTEX
  8
0
 10
2.15597
 20
0.342503
 30
0.0
 40
0
 41
0
  0
VERTEX
  8
0
 10
2.17649
 20
0.354546
 30
0.0
 40
0
 41
0
  0
VERTEX
  8
0
 10
2.19097
 20
0.374511
 30
0.0
 40
0
 41
0
  0
VERTEX
  8
0
 10
2.1965
 20
0.402507
 30
0.0
 40
0
 41
0
  0
SEQEND
 8
0
  0
POLYLINE
  8
0
 62
     173
 66
     1
 10
0
 20
0
 30
0.0
 70
     1
 40
0
 41
0
  0
VERTEX
  8
0
 10
0.332519
 20
2.36751
 30
0.0
 40
0
 41
0
  0
VERTEX
  8
0
 10
0.326932
 20
2.396
 30
0.0
 40
0
 41
0
  0
VERTEX
  8
0
 10
0.312175
 20
2.41629
 30
0.0
 40
0
 41
0
  0
VERTEX
  8
0
 10
0.291342
 20
2.42844
 30
0.0
 40
0
 41
0
  0
VERTEX
  8
0
 10
0.267469
 20
2.43251
 30
0.0
 40
0
 41
0
  0
VERTEX
  8
0
 10
0.243599
 20
2.42844
 30
0.0
 40
0
 41
0
  0
VERTEX
  8
0
 10
0.222765
 20
2.41629
 30
0.0
 40
0
 41
0
  0
VERTEX
  8
0
 10
0.208008
 20
2.396
 30
0.0
 40
0
 41
0
  0
VERTEX
  8
0
 10
0.202474
 20
2.36751
 30
0.0
 40
0
 41
0
  0
VERTEX
  8
0
 10
0.208008
 20
2.33908
 30
0.0
 40
0
 41
0
  0
VERTEX
  8
0
 10
0.222765
 20
2.31879
 30
0.0
 40
0
 41
0
  0
VERTEX
  8
0
 10
0.243599
 20
2.30658
 30
0.0
 40
0
 41
0
  0
VERTEX
  8
0
 10
0.267469
 20
2.30251
 30
0.0
 40
0
 41
0
  0
VERTEX
  8
0
 10
0.291342
 20
2.30658
 30
0.0
 40
0
 41
0
  0
VERTEX
  8
0
 10
0.312175
 20
2.31879
 30
0.0
 40
0
 41
0
  0
VERTEX
  8
0
 10
0.326932
 20
2.33908
 30
0.0
 40
0
 41
0
  0
VERTEX
  8
0
 10
0.332519
 20
2.36751
 30
0.0
 40
0
 41
0
  0
SEQEND
 8
0
  0
POLYLINE
  8
0
 62
     173
 66
     1
 10
0
 20
0
 30
0.0
 70
     1
 40
0
 41
0
  0
VERTEX
  8
0
 10
0.492785
 20
1.48589
 30
0.0
 40
0
 41
0
  0
VERTEX
  8
0
 10
0.487196
 20
1.51438
 30
0.0
 40
0
 41
0
  0
VERTEX
  8
0
 10
0.472439
 20
1.53467
 30
0.0
 40
0
 41
0
  0
VERTEX
  8
0
 10
0.451606
 20
1.54682
 30
0.0
 40
0
 41
0
  0
VERTEX
  8
0
 10
0.427789
 20
1.55089
 30
0.0
 40
0
 41
0
  0
VERTEX
  8
0
 10
0.403917
 20
1.54682
 30
0.0
 40
0
 41
0
  0
VERTEX
  8
0
 10
0.383083
 20
1.53467
 30
0.0
 40
0
 41
0
  0
VERTEX
  8
0
 10
0.368326
 20
1.51438
 30
0.0
 40
0
 41
0
  0
VERTEX
  8
0
 10
0.362793
 20
1.48589
 30
0.0
 40
0
 41
0
  0
VERTEX
  8
0
 10
0.368326
 20
1.45747
 30
0.0
 40
0
 41
0
  0
VERTEX
  8
0
 10
0.383083
 20
1.43718
 30
0.0
 40
0
 41
0
  0
VERTEX
  8
0
 10
0.403917
 20
1.42503
 30
0.0
 40
0
 41
0
  0
VERTEX
  8
0
 10
0.427789
 20
1.42096
 30
0.0
 40
0
 41
0
  0
VERTEX
  8
0
 10
0.451606
 20
1.42503
 30
0.0
 40
0
 41
0
  0
VERTEX
  8
0
 10
0.472439
 20
1.43718
 30
0.0
 40
0
 41
0
  0
VERTEX
  8
0
 10
0.487196
 20
1.45747
 30
0.0
 40
0
 41
0
  0
VERTEX
  8
0
 10
0.492785
 20
1.48589
 30
0.0
 40
0
 41
0
  0
SEQEND
 8
0
  0
POLYLINE
  8
0
 62
     173
 66
     1
 10
0
 20
0
 30
0.0
 70
     1
 40
0
 41
0
  0
VERTEX
  8
0
 10
0.517469
 20
0.637478
 30
0.0
 40
0
 41
0
  0
VERTEX
  8
0
 10
0.511882
 20
0.665961
 30
0.0
 40
0
 41
0
  0
VERTEX
  8
0
 10
0.497125
 20
0.686253
 30
0.0
 40
0
 41
0
  0
VERTEX
  8
0
 10
0.476292
 20
0.69846
 30
0.0
 40
0
 41
0
  0
VERTEX
  8
0
 10
0.452474
 20
0.702528
 30
0.0
 40
0
 41
0
  0
VERTEX
  8
0
 10
0.428603
 20
0.69846
 30
0.0
 40
0
 41
0
  0
VERTEX
  8
0
 10
0.407769
 20
0.686253
 30
0.0
 40
0
 41
0
  0
VERTEX
  8
0
 10
0.393013
 20
0.665961
 30
0.0
 40
0
 41
0
  0
VERTEX
  8
0
 10
0.387478
 20
0.637478
 30
0.0
 40
0
 41
0
  0
VERTEX
  8
0
 10
0.393013
 20
0.60905
 30
0.0
 40
0
 41
0
  0
VERTEX
  8
0
 10
0.407769
 20
0.588758
 30
0.0
 40
0
 41
0
  0
VERTEX
  8
0
 10
0.428603
 20
0.576606
 30
0.0
 40
0
 41
0
  0
VERTEX
  8
0
 10
0.452474
 20
0.572537
 30
0.0
 40
0
 41
0
  0
VERTEX
  8
0
 10
0.476292
 20
0.576606
 30
0.0
 40
0
 41
0
  0
VERTEX
  8
0
 10
0.497125
 20
0.588758
 30
0.0
 40
0
 41
0
  0
VERTEX
  8
0
 10
0.511882
 20
0.60905
 30
0.0
 40
0
 41
0
  0
VERTEX
  8
0
 10
0.517469
 20
0.637478
 30
0.0
 40
0
 41
0
  0
SEQEND
 8
0
  0
POLYLINE
  8
0
 62
     173
 66
     1
 10
0
 20
0
 30
0.0
 70
     1
 40
0
 41
0
  0
VERTEX
  8
0
 10
0.942492
 20
1.19249
 30
0.0
 40
0
 41
0
  0
VERTEX
  8
0
 10
0.936903
 20
1.22098
 30
0.0
 40
0
 41
0
  0
VERTEX
  8
0
 10
0.922146
 20
1.24127
 30
0.0
 40
0
 41
0
  0
VERTEX
  8
0
 10
0.901313
 20
1.25342
 30
0.0
 40
0
 41
0
  0
VERTEX
  8
0
 10
0.877496
 20
1.25749
 30
0.0
 40
0
 41
0
  0
VERTEX
  8
0
 10
0.853624
 20
1.25342
 30
0.0
 40
0
 41
0
  0
VERTEX
  8
0
 10
0.83279
 20
1.24127
 30
0.0
 40
0
 41
0
  0
VERTEX
  8
0
 10
0.818033
 20
1.22098
 30
0.0
 40
0
 41
0
  0
VERTEX
  8
0
 10
0.8125
 20
1.19249
 30
0.0
 40
0
 41
0
  0
VERTEX
  8
0
 10
0.818033
 20
1.16406
 30
0.0
 40
0
 41
0
  0
VERTEX
  8
0
 10
0.83279
 20
1.14377
 30
0.0
 40
0
 41
0
  0
VERTEX
  8
0
 10
0.853624
 20
1.13162
 30
0.0
 40
0
 41
0
  0
VERTEX
  8
0
 10
0.877496
 20
1.12755
 30
0.0
 40
0
 41
0
  0
VERTEX
  8
0
 10
0.901313
 20
1.13162
 30
0.0
 40
0
 41
0
  0
VERTEX
  8
0
 10
0.922146
 20
1.14377
 30
0.0
 40
0
 41
0
  0
VERTEX
  8
0
 10
0.936903
 20
1.16406
 30
0.0
 40
0
 41
0
  0
VERTEX
  8
0
 10
0.942492
 20
1.19249
 30
0.0
 40
0
 41
0
  0
SEQEND
 8
0
  0
POLYLINE
  8
0
 62
     173
 66
     1
 10
0
 20
0
 30
0.0
 70
     1
 40
0
 41
0
  0
VERTEX
  8
0
 10
0.942492
 20
0.1875
 30
0.0
 40
0
 41
0
  0
VERTEX
  8
0
 10
0.936903
 20
0.215983
 30
0.0
 40
0
 41
0
  0
VERTEX
  8
0
 10
0.922146
 20
0.236274
 30
0.0
 40
0
 41
0
  0
VERTEX
  8
0
 10
0.901313
 20
0.248426
 30
0.0
 40
0
 41
0
  0
VERTEX
  8
0
 10
0.877496
 20
0.252496
 30
0.0
 40
0
 41
0
  0
VERTEX
  8
0
 10
0.853624
 20
0.248426
 30
0.0
 40
0
 41
0
  0
VERTEX
  8
0
 10
0.83279
 20
0.236274
 30
0.0
 40
0
 41
0
  0
VERTEX
  8
0
 10
0.818033
 20
0.215983
 30
0.0
 40
0
 41
0
  0
VERTEX
  8
0
 10
0.8125
 20
0.1875
 30
0.0
 40
0
 41
0
  0
VERTEX
  8
0
 10
0.818033
 20
0.159071
 30
0.0
 40
0
 41
0
  0
VERTEX
  8
0
 10
0.83279
 20
0.13878
 30
0.0
 40
0
 41
0
  0
VERTEX
  8
0
 10
0.853624
 20
0.126573
 30
0.0
 40
0
 41
0
  0
VERTEX
  8
0
 10
0.877496
 20
0.122504
 30
0.0
 40
0
 41
0
  0
VERTEX
  8
0
 10
0.901313
 20
0.126573
 30
0.0
 40
0
 41
0
  0
VERTEX
  8
0
 10
0.922146
 20
0.13878
 30
0.0
 40
0
 41
0
  0
VERTEX
  8
0
 10
0.936903
 20
0.159071
 30
0.0
 40
0
 41
0
  0
VERTEX
  8
0
 10
0.942492
 20
0.1875
 30
0.0
 40
0
 41
0
  0
SEQEND
 8
0
  0
POLYLINE
  8
0
 62
     173
 66
     1
 10
0
 20
0
 30
0.0
 70
     1
 40
0
 41
0
  0
VERTEX
  8
0
 10
1.28749
 20
2.27251
 30
0.0
 40
0
 41
0
  0
VERTEX
  8
0
 10
1.2819
 20
2.301
 30
0.0
 40
0
 41
0
  0
VERTEX
  8
0
 10
1.26714
 20
2.32129
 30
0.0
 40
0
 41
0
  0
VERTEX
  8
0
 10
1.24631
 20
2.33344
 30
0.0
 40
0
 41
0
  0
VERTEX
  8
0
 10
1.22249
 20
2.33751
 30
0.0
 40
0
 41
0
  0
VERTEX
  8
0
 10
1.19862
 20
2.33344
 30
0.0
 40
0
 41
0
  0
VERTEX
  8
0
 10
1.17779
 20
2.32129
 30
0.0
 40
0
 41
0
  0
VERTEX
  8
0
 10
1.16303
 20
2.301
 30
0.0
 40
0
 41
0
  0
VERTEX
  8
0
 10
1.1575
 20
2.27251
 30
0.0
 40
0
 41
0
  0
VERTEX
  8
0
 10
1.16303
 20
2.24408
 30
0.0
 40
0
 41
0
  0
VERTEX
  8
0
 10
1.17779
 20
2.22379
 30
0.0
 40
0
 41
0
  0
VERTEX
  8
0
 10
1.19862
 20
2.21158
 30
0.0
 40
0
 41
0
  0
VERTEX
  8
0
 10
1.22249
 20
2.20751
 30
0.0
 40
0
 41
0
  0
VERTEX
  8
0
 10
1.24631
 20
2.21158
 30
0.0
 40
0
 41
0
  0
VERTEX
  8
0
 10
1.26714
 20
2.22379
 30
0.0
 40
0
 41
0
  0
VERTEX
  8
0
 10
1.2819
 20
2.24408
 30
0.0
 40
0
 41
0
  0
VERTEX
  8
0
 10
1.28749
 20
2.27251
 30
0.0
 40
0
 41
0
  0
SEQEND
 8
0
  0
POLYLINE
  8
0
 62
     173
 66
     1
 10
0
 20
0
 30
0.0
 70
     1
 40
0
 41
0
  0
VERTEX
  8
0
 10
1.4075
 20
1.1875
 30
0.0
 40
0
 41
0
  0
VERTEX
  8
0
 10
1.40192
 20
1.21598
 30
0.0
 40
0
 41
0
  0
VERTEX
  8
0
 10
1.38715
 20
1.23627
 30
0.0
 40
0
 41
0
  0
VERTEX
  8
0
 10
1.36632
 20
1.24843
 30
0.0
 40
0
 41
0
  0
VERTEX
  8
0
 10
1.3425
 20
1.2525
 30
0.0
 40
0
 41
0
  0
VERTEX
  8
0
 10
1.31863
 20
1.24843
 30
0.0
 40
0
 41
0
  0
VERTEX
  8
0
 10
1.2978
 20
1.23627
 30
0.0
 40
0
 41
0
  0
VERTEX
  8
0
 10
1.28304
 20
1.21598
 30
0.0
 40
0
 41
0
  0
VERTEX
  8
0
 10
1.27751
 20
1.1875
 30
0.0
 40
0
 41
0
  0
VERTEX
  8
0
 10
1.28304
 20
1.15907
 30
0.0
 40
0
 41
0
  0
VERTEX
  8
0
 10
1.2978
 20
1.13878
 30
0.0
 40
0
 41
0
  0
VERTEX
  8
0
 10
1.31863
 20
1.12657
 30
0.0
 40
0
 41
0
  0
VERTEX
  8
0
 10
1.3425
 20
1.1225
 30
0.0
 40
0
 41
0
  0
VERTEX
  8
0
 10
1.36632
 20
1.12657
 30
0.0
 40
0
 41
0
  0
VERTEX
  8
0
 10
1.38715
 20
1.13878
 30
0.0
 40
0
 41
0
  0
VERTEX
  8
0
 10
1.40192
 20
1.15907
 30
0.0
 40
0
 41
0
  0
VERTEX
  8
0
 10
1.4075
 20
1.1875
 30
0.0
 40
0
 41
0
  0
SEQEND
 8
0
  0
POLYLINE
  8
0
 62
     173
 66
     1
 10
0
 20
0
 30
0.0
 70
     1
 40
0
 41
0
  0
VERTEX
  8
0
 10
1.91249
 20
2.4025
 30
0.0
 40
0
 41
0
  0
VERTEX
  8
0
 10
1.9069
 20
2.43099
 30
0.0
 40
0
 41
0
  0
VERTEX
  8
0
 10
1.89214
 20
2.45128
 30
0.0
 40
0
 41
0
  0
VERTEX
  8
0
 10
1.87131
 20
2.46343
 30
0.0
 40
0
 41
0
  0
VERTEX
  8
0
 10
1.8475
 20
2.4675
 30
0.0
 40
0
 41
0
  0
VERTEX
  8
0
 10
1.82362
 20
2.46343
 30
0.0
 40
0
 41
0
  0
VERTEX
  8
0
 10
1.80279
 20
2.45128
 30
0.0
 40
0
 41
0
  0
VERTEX
  8
0
 10
1.78803
 20
2.43099
 30
0.0
 40
0
 41
0
  0
VERTEX
  8
0
 10
1.7825
 20
2.4025
 30
0.0
 40
0
 41
0
  0
VERTEX
  8
0
 10
1.78803
 20
2.37408
 30
0.0
 40
0
 41
0
  0
VERTEX
  8
0
 10
1.80279
 20
2.35379
 30
0.0
 40
0
 41
0
  0
VERTEX
  8
0
 10
1.82362
 20
2.34158
 30
0.0
 40
0
 41
0
  0
VERTEX
  8
0
 10
1.8475
 20
2.33751
 30
0.0
 40
0
 41
0
  0
VERTEX
  8
0
 10
1.87131
 20
2.34158
 30
0.0
 40
0
 41
0
  0
VERTEX
  8
0
 10
1.89214
 20
2.35379
 30
0.0
 40
0
 41
0
  0
VERTEX
  8
0
 10
1.9069
 20
2.37408
 30
0.0
 40
0
 41
0
  0
VERTEX
  8
0
 10
1.91249
 20
2.4025
 30
0.0
 40
0
 41
0
  0
SEQEND
 8
0
  0
ENDSEC
  0
EOF
