G04 start of page 8 for group -4079 idx -4079 *
G04 Title: (unknown), topsilk *
G04 Creator: pcb 1.99z *
G04 CreationDate: Thu 18 Dec 2014 06:06:48 AM GMT UTC *
G04 For: commonadmin *
G04 Format: Gerber/RS-274X *
G04 PCB-Dimensions (mil): 2350.00 3800.00 *
G04 PCB-Coordinate-Origin: lower left *
%MOIN*%
%FSLAX25Y25*%
%LNTOPSILK*%
%ADD121C,0.0040*%
%ADD120C,0.0200*%
%ADD119C,0.0250*%
%ADD118C,0.0079*%
%ADD117C,0.0080*%
%ADD116C,0.0030*%
%ADD115C,0.0060*%
%ADD114C,0.0100*%
G54D114*X155330Y51930D02*Y80906D01*
X169109D01*
G54D115*X172298Y65749D02*X173873Y64174D01*
X172298D02*X173873Y65749D01*
G54D114*X155330Y8465D02*X225802D01*
X155330Y51969D02*Y8465D01*
X225802Y51969D02*Y8465D01*
Y80906D02*X210881D01*
X225802Y51930D02*Y80906D01*
X168086D02*X213086D01*
G54D116*X201462Y46453D02*X204462Y44953D01*
Y46828D02*Y44953D01*
X201837Y44053D02*X204087Y41803D01*
X202962Y40903D02*X204462D01*
X202962D02*X201462Y40528D01*
X202962Y39778D01*
X201462Y39028D01*
X202962Y38653D01*
X204462D01*
X201462Y37753D02*Y36253D01*
X201837Y35878D01*
X202737D01*
X203112Y36253D02*X202737Y35878D01*
X203112Y37378D02*Y36253D01*
X201462Y37378D02*X204462D01*
Y37753D02*Y36253D01*
X204087Y35878D01*
X203487D02*X204087D01*
X203112Y36253D02*X203487Y35878D01*
X201462Y34603D02*X202587D01*
X202962Y34228D01*
Y33478D01*
Y34978D02*X202587Y34603D01*
X195013Y46828D02*Y45328D01*
X193513Y46828D02*X195013D01*
X193513D02*X193888Y46453D01*
Y45703D01*
X193513Y45328D01*
X192388D02*X193513D01*
X192013Y45703D02*X192388Y45328D01*
X192013Y46453D02*Y45703D01*
X192388Y46828D02*X192013Y46453D01*
X192388Y44428D02*X194638Y42178D01*
X193513Y41278D02*X195013D01*
X193513D02*X192013Y40903D01*
X193513Y40153D01*
X192013Y39403D01*
X193513Y39028D01*
X195013D01*
X192013Y38128D02*Y36628D01*
X192388Y36253D01*
X193288D01*
X193663Y36628D02*X193288Y36253D01*
X193663Y37753D02*Y36628D01*
X192013Y37753D02*X195013D01*
Y38128D02*Y36628D01*
X194638Y36253D01*
X194038D02*X194638D01*
X193663Y36628D02*X194038Y36253D01*
X192388Y35353D02*X195013D01*
X192388D02*X192013Y34978D01*
X187626Y71064D02*X189501Y69564D01*
X187626Y71064D02*Y69189D01*
X186501Y69564D02*X189501D01*
X186876Y68289D02*X189126Y66039D01*
X186501Y65139D02*Y63639D01*
X186876Y63264D01*
X187776D01*
X188151Y63639D02*X187776Y63264D01*
X188151Y64764D02*Y63639D01*
X186501Y64764D02*X189501D01*
Y65139D02*Y63639D01*
X189126Y63264D01*
X188526D02*X189126D01*
X188151Y63639D02*X188526Y63264D01*
X186876Y62364D02*X189501D01*
X186876D02*X186501Y61989D01*
X184402Y46828D02*X184777Y46453D01*
Y45703D01*
X184402Y45328D01*
X181777Y45703D02*X182152Y45328D01*
X181777Y46453D02*Y45703D01*
X182152Y46828D02*X181777Y46453D01*
X183427D02*Y45703D01*
X183802Y45328D02*X184402D01*
X182152D02*X183052D01*
X183427Y45703D01*
X183802Y45328D02*X183427Y45703D01*
X182152Y44428D02*X184402Y42178D01*
X183277Y41278D02*X184777D01*
X183277D02*X181777Y40903D01*
X183277Y40153D01*
X181777Y39403D01*
X183277Y39028D01*
X184777D01*
X182152Y38128D02*X184402D01*
X184777Y37753D01*
Y37003D01*
X184402Y36628D01*
X182152D02*X184402D01*
X181777Y37003D02*X182152Y36628D01*
X181777Y37753D02*Y37003D01*
X182152Y38128D02*X181777Y37753D01*
X211149Y57570D02*X212649D01*
X211899D02*Y54570D01*
X213549Y57570D02*X215049D01*
X213549D02*Y56070D01*
X213924Y56445D01*
X214674D01*
X215049Y56070D01*
Y54945D01*
X214674Y54570D02*X215049Y54945D01*
X213924Y54570D02*X214674D01*
X213549Y54945D02*X213924Y54570D01*
X217074Y57570D02*X217449Y57195D01*
X216324Y57570D02*X217074D01*
X215949Y57195D02*X216324Y57570D01*
X215949Y57195D02*Y54945D01*
X216324Y54570D01*
X217074Y56220D02*X217449Y55845D01*
X215949Y56220D02*X217074D01*
X216324Y54570D02*X217074D01*
X217449Y54945D01*
Y55845D02*Y54945D01*
X218349D02*X218724Y54570D01*
X218349Y55545D02*Y54945D01*
Y55545D02*X218874Y56070D01*
X219324D01*
X219849Y55545D01*
Y54945D01*
X219474Y54570D02*X219849Y54945D01*
X218724Y54570D02*X219474D01*
X218349Y56595D02*X218874Y56070D01*
X218349Y57195D02*Y56595D01*
Y57195D02*X218724Y57570D01*
X219474D01*
X219849Y57195D01*
Y56595D01*
X219324Y56070D02*X219849Y56595D01*
X220749Y56820D02*Y54570D01*
Y56820D02*X221274Y57570D01*
X222099D01*
X222624Y56820D01*
Y54570D01*
X220749Y56070D02*X222624D01*
X206955Y70670D02*X206580Y70295D01*
X206955Y70670D02*X207555D01*
X208080Y70145D01*
Y69695D01*
X207555Y69170D01*
X206955D02*X207555D01*
X206580Y69545D02*X206955Y69170D01*
X206580Y70295D02*Y69545D01*
X208605Y70670D02*X208080Y70145D01*
X208605Y70670D02*X209205D01*
X209580Y70295D01*
Y69545D01*
X209205Y69170D01*
X208605D02*X209205D01*
X208080Y69695D02*X208605Y69170D01*
X206955Y68270D02*X209205Y66020D01*
X206580Y65120D02*Y63620D01*
X206955Y63245D01*
X207855D01*
X208230Y63620D02*X207855Y63245D01*
X208230Y64745D02*Y63620D01*
X206580Y64745D02*X209580D01*
Y65120D02*Y63620D01*
X209205Y63245D01*
X208605D02*X209205D01*
X208230Y63620D02*X208605Y63245D01*
X206580Y61970D02*X207705D01*
X208080Y61595D01*
Y60845D01*
Y62345D02*X207705Y61970D01*
X199344Y69545D02*X198969Y69170D01*
X199344Y70295D02*Y69545D01*
X198969Y70670D02*X199344Y70295D01*
X196719Y70670D02*X198969D01*
X196719D02*X196344Y70295D01*
X197994Y69545D02*X197619Y69170D01*
X197994Y70670D02*Y69545D01*
X196344Y70295D02*Y69545D01*
X196719Y69170D01*
X197619D01*
X196719Y68270D02*X198969Y66020D01*
X196719Y65120D02*X198969D01*
X199344Y64745D01*
Y63995D01*
X198969Y63620D01*
X196719D02*X198969D01*
X196344Y63995D02*X196719Y63620D01*
X196344Y64745D02*Y63995D01*
X196719Y65120D02*X196344Y64745D01*
X179284Y71064D02*X179659Y70689D01*
Y69564D01*
X179284Y69189D01*
X178534D02*X179284D01*
X176659Y71064D02*X178534Y69189D01*
X176659Y71064D02*Y69189D01*
X177034Y68289D02*X179284Y66039D01*
X179659Y63639D02*X179284Y63264D01*
X179659Y64764D02*Y63639D01*
X179284Y65139D02*X179659Y64764D01*
X177034Y65139D02*X179284D01*
X177034D02*X176659Y64764D01*
Y63639D01*
X177034Y63264D01*
X177784D01*
X178159Y63639D02*X177784Y63264D01*
X178159Y64389D02*Y63639D01*
X169941Y60434D02*X170541Y59834D01*
X167541D02*X170541D01*
X167541Y60434D02*Y59309D01*
X167916Y58409D02*X170166Y56159D01*
X169041Y55259D02*X170541D01*
X169041D02*X167541Y54884D01*
X169041Y54134D01*
X167541Y53384D01*
X169041Y53009D01*
X170541D01*
Y50609D02*X170166Y50234D01*
X170541Y51734D02*Y50609D01*
X170166Y52109D02*X170541Y51734D01*
X167916Y52109D02*X170166D01*
X167916D02*X167541Y51734D01*
Y50609D01*
X167916Y50234D01*
X168666D01*
X169041Y50609D02*X168666Y50234D01*
X169041Y51359D02*Y50609D01*
G54D114*X186000Y218500D02*Y208500D01*
Y198500D02*Y188500D01*
Y208500D02*X191000Y198500D01*
X181000D02*X191000D01*
X181000D02*X186000Y208500D01*
X181000D02*X191000D01*
G54D117*X213233Y308240D02*X217957D01*
X213233Y300760D02*X217957D01*
G54D118*X194157Y222248D02*Y215654D01*
X213843D01*
Y222248D02*Y215654D01*
X194157Y251874D02*Y245280D01*
Y251874D02*X213843D01*
Y245280D01*
X195535Y244000D02*Y223528D01*
X212465Y244000D02*Y223528D01*
X207281Y251874D02*G75*G03X200719Y251874I-3281J0D01*G01*
G54D114*X204500Y287000D02*X214500D01*
X184500D02*X194500D01*
X204500D02*X194500Y282000D01*
Y292000D02*Y282000D01*
Y292000D02*X204500Y287000D01*
Y292000D02*Y282000D01*
X151000Y355000D02*G75*G03X151000Y355000I0J-20000D01*G01*
X202500Y308000D02*Y304000D01*
X200500Y306000D02*X204500D01*
X202500Y376000D02*Y372000D01*
Y310000D02*G75*G03X202500Y310000I0J30000D01*G01*
G54D117*X196543Y338240D02*X201267D01*
X196543Y330760D02*X201267D01*
G54D118*X226343Y358346D02*Y351752D01*
X206657Y358346D02*X226343D01*
X206657D02*Y351752D01*
X226343Y328720D02*Y322126D01*
X206657D02*X226343D01*
X206657Y328720D02*Y322126D01*
X224965Y350472D02*Y330000D01*
X208035Y350472D02*Y330000D01*
X213219Y322126D02*G75*G03X219781Y322126I3281J0D01*G01*
G54D117*X196543Y347740D02*X201267D01*
X196543Y340260D02*X201267D01*
G54D118*X161843Y253874D02*Y247280D01*
X142157Y253874D02*X161843D01*
X142157D02*Y247280D01*
X161843Y224248D02*Y217654D01*
X142157D02*X161843D01*
X142157Y224248D02*Y217654D01*
X160465Y246000D02*Y225528D01*
X143535Y246000D02*Y225528D01*
X148719Y217654D02*G75*G03X155281Y217654I3281J0D01*G01*
G54D117*X163186Y241563D02*Y237627D01*
X173814Y241563D02*Y237627D01*
X170127Y289814D02*X174063D01*
X170127Y279186D02*X174063D01*
G54D114*X174500Y295500D02*X184500D01*
X154500D02*X164500D01*
X174500D02*X164500Y290500D01*
Y300500D02*Y290500D01*
Y300500D02*X174500Y295500D01*
Y300500D02*Y290500D01*
G54D119*X227000Y270500D02*X233000D01*
Y261000D01*
X227000D02*X233000D01*
X152000Y256000D02*X227000D01*
Y276000D02*Y256000D01*
X152000Y276000D02*X227000D01*
X152000D02*Y256000D01*
G54D114*X179500Y266500D02*Y256500D01*
X159500Y266500D02*X179500D01*
X159500D02*Y256500D01*
X179500D01*
X169500Y266500D02*X179500D01*
X169500D02*Y256500D01*
X212000Y273500D02*X216000D01*
X214000Y275500D02*Y271500D01*
X164000Y273500D02*X168000D01*
X210000D02*G75*G03X210000Y273500I-20000J0D01*G01*
G54D117*X138543Y158240D02*X143267D01*
X138543Y150760D02*X143267D01*
X119043Y158240D02*X123767D01*
X119043Y150760D02*X123767D01*
G54D118*X113126Y149343D02*X119720D01*
X113126D02*Y129657D01*
X119720D01*
X142752Y149343D02*X149346D01*
Y129657D01*
X142752D02*X149346D01*
X121000Y147965D02*X141472D01*
X121000Y131035D02*X141472D01*
X149346Y136219D02*G75*G03X149346Y142781I0J3281D01*G01*
G54D114*X149250Y178500D02*Y159500D01*
X118250Y178500D02*X149250D01*
X118250D02*Y159500D01*
X136250D02*X149250D01*
X118250D02*X131250D01*
X136250D02*G75*G03X131250Y159500I-2500J0D01*G01*
G54D118*X159157Y161530D02*Y154936D01*
X178843D01*
Y161530D02*Y154936D01*
X159157Y191156D02*Y184562D01*
Y191156D02*X178843D01*
Y184562D01*
X160535Y183282D02*Y162810D01*
X177465Y183282D02*Y162810D01*
X172281Y191156D02*G75*G03X165719Y191156I-3281J0D01*G01*
G54D117*X151260Y165767D02*Y161043D01*
X158740Y165767D02*Y161043D01*
X151260Y184957D02*Y180233D01*
X158740Y184957D02*Y180233D01*
G54D114*X194500Y145000D02*Y141000D01*
X192500Y143000D02*X196500D01*
X194500Y193000D02*Y189000D01*
Y147000D02*G75*G03X194500Y147000I0J20000D01*G01*
X171500Y109000D02*Y105000D01*
X169500Y107000D02*X173500D01*
X171500Y157000D02*Y153000D01*
Y111000D02*G75*G03X171500Y111000I0J20000D01*G01*
X177500Y106500D02*Y101500D01*
Y91500D02*Y86500D01*
X179100Y101500D02*Y91500D01*
X175900D02*X179100D01*
X175900Y101500D02*Y91500D01*
Y101500D02*X179100D01*
X160500Y106500D02*Y101500D01*
Y91500D02*Y86500D01*
X162100Y101500D02*Y91500D01*
X158900D02*X162100D01*
X158900Y101500D02*Y91500D01*
Y101500D02*X162100D01*
X188000Y106500D02*Y101500D01*
Y91500D02*Y86500D01*
X189600Y101500D02*Y91500D01*
X186400D02*X189600D01*
X186400Y101500D02*Y91500D01*
Y101500D02*X189600D01*
X155500Y61000D02*X165500D01*
Y81000D02*Y61000D01*
X155500Y81000D02*X165500D01*
X155500D02*Y61000D01*
X165500Y71000D02*Y61000D01*
X155500Y71000D02*X165500D01*
X168000Y80945D02*X213000D01*
X155244D02*X169024D01*
X225717D02*Y51969D01*
X210795Y80945D02*X225717D01*
Y52008D02*Y8504D01*
X155244Y80945D02*Y51969D01*
Y52008D02*Y8504D01*
X225717D01*
G54D120*X178000Y49500D02*X198000D01*
X178000Y59500D02*X198000D01*
G54D114*X183000D02*Y49500D01*
G54D120*X178000Y59500D02*G75*G03X178000Y49500I0J-5000D01*G01*
X198000D02*G75*G03X198000Y59500I0J5000D01*G01*
G54D114*X73900Y65200D02*Y44500D01*
X92200D01*
Y65200D02*Y44500D01*
X73900Y65200D02*X92200D01*
G54D117*X86150Y37245D02*X86936D01*
X86150Y42755D02*X86936D01*
X99245Y44350D02*Y43564D01*
X104755Y44350D02*Y43564D01*
G54D118*X50236Y81157D02*X43642D01*
X50236D02*Y100843D01*
X43642D01*
X14016Y81157D02*X20610D01*
X14016D02*Y100843D01*
X20610D01*
X42362Y82535D02*X21890D01*
X42362Y99465D02*X21890D01*
X14016Y94281D02*G75*G03X14016Y87719I0J-3281D01*G01*
G54D114*X36000Y117000D02*X46000D01*
X16000D02*X26000D01*
X36000D02*X26000Y112000D01*
Y122000D02*Y112000D01*
Y122000D02*X36000Y117000D01*
Y122000D02*Y112000D01*
X51000Y120500D02*X61000D01*
X31000D02*X41000D01*
X51000D02*X41000Y115500D01*
Y125500D02*Y115500D01*
Y125500D02*X51000Y120500D01*
Y125500D02*Y115500D01*
G54D117*X37017Y111814D02*X40953D01*
X37017Y101186D02*X40953D01*
G54D118*X51047Y87720D02*Y81126D01*
X70732D01*
Y87720D02*Y81126D01*
X51047Y117346D02*Y110752D01*
Y117346D02*X70732D01*
Y110752D01*
X52425Y109472D02*Y89000D01*
X69354Y109472D02*Y89000D01*
X64170Y117346D02*G75*G03X57609Y117346I-3281J0D01*G01*
G54D117*X126961Y368736D02*Y348263D01*
X105308Y368736D02*Y348263D01*
X105307Y350233D02*X126960D01*
X105307Y368736D02*X126960D01*
X93496Y358697D02*X100779D01*
X66527D02*X73023D01*
X105307Y366768D02*X126960D01*
X105307Y348264D02*X126960D01*
X40347Y368736D02*X62000D01*
X40347Y348264D02*X62000D01*
X61999Y368737D02*Y348264D01*
X40346Y368737D02*Y348264D01*
X40347Y366767D02*X62000D01*
X40347Y350232D02*X62000D01*
X83062Y351020D02*X84243D01*
X80306D02*X81487D01*
X77550D02*X78731D01*
X74794D02*X75975D01*
X72038D02*X73219D01*
X94085D02*X95266D01*
X91330D02*X92511D01*
X88574D02*X89755D01*
X85818D02*X86999D01*
X102353D02*X103534D01*
X99597D02*X100778D01*
X96841D02*X98022D01*
X63770D02*X64951D01*
X69282D02*X70463D01*
X66526D02*X67707D01*
X83063Y365981D02*X84244D01*
X80307D02*X81488D01*
X77551D02*X78732D01*
X74795D02*X75976D01*
X72039D02*X73220D01*
X94086D02*X95267D01*
X91331D02*X92512D01*
X88575D02*X89756D01*
X85819D02*X87000D01*
X102354D02*X103535D01*
X99598D02*X100779D01*
X96842D02*X98023D01*
X63771D02*X64952D01*
X69283D02*X70464D01*
X66527D02*X67708D01*
X88378Y353579D02*G75*G03X93496Y358697I0J5118D01*G01*
X83260Y358698D02*G75*G03X88379Y353579I5119J0D01*G01*
X78142Y363815D02*G75*G03X73024Y358697I0J-5118D01*G01*
X83260Y358696D02*G75*G03X78141Y363815I-5119J0D01*G01*
G54D114*X98500Y364000D02*Y354000D01*
X78500Y364000D02*X98500D01*
X78500D02*Y354000D01*
X98500D01*
X88500Y364000D02*X98500D01*
X88500D02*Y354000D01*
G54D120*X13300Y353800D02*X31700D01*
G54D114*X13300D02*X10700Y346600D01*
Y311400D01*
X34300D01*
Y346600D02*Y311400D01*
Y346600D02*X31700Y353800D01*
G54D120*X38300D02*X56700D01*
G54D114*X38300D02*X35700Y346600D01*
Y311400D01*
X59300D01*
Y346600D02*Y311400D01*
Y346600D02*X56700Y353800D01*
G54D120*X104600Y352200D02*Y333800D01*
G54D114*Y352200D02*X97400Y354800D01*
X62200D02*X97400D01*
X62200D02*Y331200D01*
X97400D01*
X104600Y333800D01*
G54D120*X61200Y327200D02*Y308800D01*
G54D114*X68400Y306200D01*
X103600D01*
Y329800D01*
X68400D01*
X61200Y327200D01*
G54D120*X108800Y353800D02*X127200D01*
G54D114*X108800D02*X106200Y346600D01*
Y311400D01*
X129800D01*
Y346600D02*Y311400D01*
Y346600D02*X127200Y353800D01*
X142000Y281500D02*X152000D01*
X122000D02*X132000D01*
X142000D02*X132000Y276500D01*
Y286500D02*Y276500D01*
Y286500D02*X142000Y281500D01*
Y286500D02*Y276500D01*
X82000Y266500D02*Y262500D01*
X80000Y264500D02*X84000D01*
X82000Y314500D02*Y310500D01*
Y268500D02*G75*G03X82000Y268500I0J20000D01*G01*
X127000Y230000D02*X137000D01*
X107000D02*X117000D01*
X127000D02*X117000Y225000D01*
Y235000D02*Y225000D01*
Y235000D02*X127000Y230000D01*
Y235000D02*Y225000D01*
G54D117*X120437Y250814D02*X124373D01*
X120437Y240186D02*X124373D01*
G54D114*X96000Y257500D02*X100000D01*
X98000Y259500D02*Y255500D01*
X144000Y257500D02*X148000D01*
X102000D02*G75*G03X102000Y257500I20000J0D01*G01*
G54D119*X164500Y208000D02*X170500D01*
Y198500D01*
X164500D02*X170500D01*
X89500Y193500D02*X164500D01*
Y213500D02*Y193500D01*
X89500Y213500D02*X164500D01*
X89500D02*Y193500D01*
G54D114*X144000Y259500D02*Y255500D01*
X142000Y257500D02*X146000D01*
X144000Y307500D02*Y303500D01*
Y261500D02*G75*G03X144000Y261500I0J20000D01*G01*
X46500Y290500D02*X56500D01*
X26500D02*X36500D01*
X46500D02*X36500Y285500D01*
Y295500D02*Y285500D01*
Y295500D02*X46500Y290500D01*
Y295500D02*Y285500D01*
G54D117*X18543Y248760D02*X23267D01*
X18543Y256240D02*X23267D01*
G54D114*X11500Y284000D02*X41500D01*
X11500D02*Y264000D01*
X41500D01*
Y284000D02*Y264000D01*
X31500Y284000D02*Y274000D01*
X41500D01*
X50000Y278500D02*Y303500D01*
Y203500D02*Y228500D01*
X58300D02*Y278500D01*
X41700Y228500D02*X58300D01*
X41700D02*Y278500D01*
X58300D01*
G54D118*X55657Y239248D02*Y232654D01*
X75343D01*
Y239248D02*Y232654D01*
X55657Y268874D02*Y262280D01*
Y268874D02*X75343D01*
Y262280D01*
X57035Y261000D02*Y240528D01*
X73965Y261000D02*Y240528D01*
X68781Y268874D02*G75*G03X62219Y268874I-3281J0D01*G01*
X78157Y234748D02*Y228154D01*
X97843D01*
Y234748D02*Y228154D01*
X78157Y264374D02*Y257780D01*
Y264374D02*X97843D01*
Y257780D01*
X79535Y256500D02*Y236028D01*
X96465Y256500D02*Y236028D01*
X91281Y264374D02*G75*G03X84719Y264374I-3281J0D01*G01*
G54D117*X88627Y226314D02*X92563D01*
X88627Y215686D02*X92563D01*
G54D114*X107000Y173000D02*Y160500D01*
Y135500D02*Y123000D01*
X111100Y160500D02*Y135500D01*
X102900D02*X111100D01*
X102900Y160500D02*Y135500D01*
Y160500D02*X111100D01*
X90000Y159500D02*X100000D01*
X90000D02*Y139500D01*
X100000D01*
Y159500D02*Y139500D01*
X90000Y159500D02*Y149500D01*
X100000D01*
X73000Y192000D02*Y188000D01*
X71000Y190000D02*X75000D01*
X73000Y240000D02*Y236000D01*
Y194000D02*G75*G03X73000Y194000I0J20000D01*G01*
G54D117*X28127Y197814D02*X32063D01*
X28127Y187186D02*X32063D01*
X13260Y191457D02*Y186733D01*
X20740Y191457D02*Y186733D01*
G54D114*X51000Y192000D02*X61000D01*
X31000D02*X41000D01*
X51000D02*X41000Y187000D01*
Y197000D02*Y187000D01*
Y197000D02*X51000Y192000D01*
Y197000D02*Y187000D01*
X36028Y189839D02*X46028D01*
X16028D02*X26028D01*
X36028D02*X26028Y184839D01*
Y194839D02*Y184839D01*
Y194839D02*X36028Y189839D01*
Y194839D02*Y184839D01*
X16500Y181000D02*X20500D01*
X18500Y183000D02*Y179000D01*
X64500Y181000D02*X68500D01*
X22500D02*G75*G03X22500Y181000I20000J0D01*G01*
G54D118*X59346Y160657D02*X52752D01*
X59346D02*Y180343D01*
X52752D01*
X23126Y160657D02*X29720D01*
X23126D02*Y180343D01*
X29720D01*
X51472Y162035D02*X31000D01*
X51472Y178965D02*X31000D01*
X23126Y173781D02*G75*G03X23126Y167219I0J-3281D01*G01*
G54D117*X22454Y111755D02*X23240D01*
X22454Y106245D02*X23240D01*
G54D121*X109100Y153500D02*Y151500D01*
X108600Y151000D01*
X107600D02*X108600D01*
X107100Y151500D02*X107600Y151000D01*
X107100Y153000D02*Y151500D01*
X105100Y153000D02*X109100D01*
X107100Y152200D02*X105100Y151000D01*
X108300Y149800D02*X109100Y149000D01*
X105100D02*X109100D01*
X105100Y149800D02*Y148300D01*
X109100Y145600D02*X108600Y145100D01*
X109100Y146600D02*Y145600D01*
X108600Y147100D02*X109100Y146600D01*
X105600Y147100D02*X108600D01*
X105600D02*X105100Y146600D01*
X107300Y145600D02*X106800Y145100D01*
X107300Y147100D02*Y145600D01*
X105100Y146600D02*Y145600D01*
X105600Y145100D01*
X106800D01*
X136755Y150150D02*X138755D01*
X139255Y149650D01*
Y148650D01*
X138755Y148150D02*X139255Y148650D01*
X137255Y148150D02*X138755D01*
X137255Y150150D02*Y146150D01*
X138055Y148150D02*X139255Y146150D01*
X140455Y149350D02*X141255Y150150D01*
Y146150D01*
X140455D02*X141955D01*
X143655D02*X145655Y150150D01*
X143155D02*X145655D01*
X108255Y166150D02*X110255D01*
X110755Y165650D01*
Y164650D01*
X110255Y164150D02*X110755Y164650D01*
X108755Y164150D02*X110255D01*
X108755Y166150D02*Y162150D01*
X109555Y164150D02*X110755Y162150D01*
X111955Y165350D02*X112755Y166150D01*
Y162150D01*
X111955D02*X113455D01*
X114655Y166150D02*X116655D01*
X114655D02*Y164150D01*
X115155Y164650D01*
X116155D01*
X116655Y164150D01*
Y162650D01*
X116155Y162150D02*X116655Y162650D01*
X115155Y162150D02*X116155D01*
X114655Y162650D02*X115155Y162150D01*
X135750Y167500D02*Y164000D01*
Y167500D02*X135250Y168000D01*
X134250D02*X135250D01*
X134250D02*X133750Y167500D01*
Y164000D01*
X130550D02*X132550D01*
Y166000D02*Y164000D01*
Y166000D02*X132050Y165500D01*
X131050D02*X132050D01*
X131050D02*X130550Y166000D01*
Y167500D02*Y166000D01*
X131050Y168000D02*X130550Y167500D01*
X131050Y168000D02*X132050D01*
X132550Y167500D02*X132050Y168000D01*
X37936Y163000D02*X39236D01*
X37236Y163700D02*X37936Y163000D01*
X37236Y166300D02*Y163700D01*
Y166300D02*X37936Y167000D01*
X39236D01*
X40436Y166200D02*X41236Y167000D01*
Y163000D01*
X40436D02*X41936D01*
X43136Y166500D02*X43636Y167000D01*
X44636D01*
X45136Y166500D01*
X44636Y163000D02*X45136Y163500D01*
X43636Y163000D02*X44636D01*
X43136Y163500D02*X43636Y163000D01*
Y165200D02*X44636D01*
X45136Y166500D02*Y165700D01*
Y164700D02*Y163500D01*
Y164700D02*X44636Y165200D01*
X45136Y165700D02*X44636Y165200D01*
X83000Y156800D02*Y155500D01*
X83700Y157500D02*X83000Y156800D01*
X83700Y157500D02*X86300D01*
X87000Y156800D01*
Y155500D01*
X83500Y154300D02*X86500D01*
X87000Y153800D01*
Y152800D01*
X86500Y152300D01*
X83500D02*X86500D01*
X83000Y152800D02*X83500Y152300D01*
X83000Y153800D02*Y152800D01*
X83500Y154300D02*X83000Y153800D01*
Y151100D02*X87000D01*
X83000Y148600D01*
X87000D01*
X83000Y147400D02*X87000D01*
X83000Y144900D01*
X87000D01*
X84500Y143700D02*X87000Y141700D01*
X84500Y143700D02*Y141200D01*
X83000Y141700D02*X87000D01*
X134236Y136000D02*X135536D01*
X136236Y135300D02*X135536Y136000D01*
X136236Y135300D02*Y132700D01*
X135536Y132000D01*
X134236D02*X135536D01*
X133036Y132800D02*X132236Y132000D01*
Y136000D02*Y132000D01*
X131536Y136000D02*X133036D01*
X128836Y132000D02*X128336Y132500D01*
X128836Y132000D02*X129836D01*
X130336Y132500D02*X129836Y132000D01*
X130336Y135500D02*Y132500D01*
Y135500D02*X129836Y136000D01*
X128836Y133800D02*X128336Y134300D01*
X128836Y133800D02*X130336D01*
X128836Y136000D02*X129836D01*
X128836D02*X128336Y135500D01*
Y134300D01*
X116609Y101650D02*X117909D01*
X115909Y102350D02*X116609Y101650D01*
X115909Y104950D02*Y102350D01*
Y104950D02*X116609Y105650D01*
X117909D01*
X119109Y104850D02*X119909Y105650D01*
Y101650D01*
X119109D02*X120609D01*
X121809Y105650D02*X123809D01*
X121809D02*Y103650D01*
X122309Y104150D01*
X123309D01*
X123809Y103650D01*
Y102150D01*
X123309Y101650D02*X123809Y102150D01*
X122309Y101650D02*X123309D01*
X121809Y102150D02*X122309Y101650D01*
X151850Y146255D02*Y144255D01*
Y146255D02*X152350Y146755D01*
X153350D01*
X153850Y146255D02*X153350Y146755D01*
X153850Y146255D02*Y144755D01*
X151850D02*X155850D01*
X153850Y145555D02*X155850Y146755D01*
X152650Y147955D02*X151850Y148755D01*
X155850D01*
Y149455D02*Y147955D01*
X152350Y150655D02*X151850Y151155D01*
Y152655D02*Y151155D01*
Y152655D02*X152350Y153155D01*
X153350D01*
X155850Y150655D02*X153350Y153155D01*
X155850D02*Y150655D01*
X165000Y131000D02*Y129700D01*
X164300Y129000D02*X165000Y129700D01*
X161700Y129000D02*X164300D01*
X161700D02*X161000Y129700D01*
Y131000D02*Y129700D01*
X161500Y132200D02*X161000Y132700D01*
Y134200D02*Y132700D01*
Y134200D02*X161500Y134700D01*
X162500D01*
X165000Y132200D02*X162500Y134700D01*
X165000D02*Y132200D01*
X161500Y135900D02*X161000Y136400D01*
Y137900D02*Y136400D01*
Y137900D02*X161500Y138400D01*
X162500D01*
X165000Y135900D02*X162500Y138400D01*
X165000D02*Y135900D01*
X174100Y106500D02*X178100D01*
Y104500D01*
X176300Y106500D02*Y105000D01*
X177600Y103300D02*X178100Y102800D01*
Y101300D01*
X177600Y100800D01*
X176600D02*X177600D01*
X174100Y103300D02*X176600Y100800D01*
X174100Y103300D02*Y100800D01*
X157100Y106500D02*X161100D01*
Y104500D01*
X159300Y106500D02*Y105000D01*
X158600Y103300D02*X161100Y101300D01*
X158600Y103300D02*Y100800D01*
X157100Y101300D02*X161100D01*
X184600Y106500D02*X188600D01*
Y104500D01*
X186800Y106500D02*Y105000D01*
X188100Y103300D02*X188600Y102800D01*
Y101800D01*
X188100Y101300D01*
X184600Y101800D02*X185100Y101300D01*
X184600Y102800D02*Y101800D01*
X185100Y103300D02*X184600Y102800D01*
X186800D02*Y101800D01*
X187300Y101300D02*X188100D01*
X185100D02*X186300D01*
X186800Y101800D01*
X187300Y101300D02*X186800Y101800D01*
X184500Y207000D02*X188500D01*
Y205700D02*X187800Y205000D01*
X185200D02*X187800D01*
X184500Y205700D02*X185200Y205000D01*
X184500Y207500D02*Y205700D01*
X188500Y207500D02*Y205700D01*
X187700Y203800D02*X188500Y203000D01*
X184500D02*X188500D01*
X184500Y203800D02*Y202300D01*
X188500Y199600D02*X188000Y199100D01*
X188500Y200600D02*Y199600D01*
X188000Y201100D02*X188500Y200600D01*
X185000Y201100D02*X188000D01*
X185000D02*X184500Y200600D01*
X186700Y199600D02*X186200Y199100D01*
X186700Y201100D02*Y199600D01*
X184500Y200600D02*Y199600D01*
X185000Y199100D01*
X186200D01*
X196000Y237064D02*Y235764D01*
X196700Y237764D02*X196000Y237064D01*
X196700Y237764D02*X199300D01*
X200000Y237064D01*
Y235764D01*
X199200Y234564D02*X200000Y233764D01*
X196000D02*X200000D01*
X196000Y234564D02*Y233064D01*
X196500Y231864D02*X196000Y231364D01*
X196500Y231864D02*X199500D01*
X200000Y231364D01*
Y230364D01*
X199500Y229864D01*
X196500D02*X199500D01*
X196000Y230364D02*X196500Y229864D01*
X196000Y231364D02*Y230364D01*
X197000Y231864D02*X199000Y229864D01*
X155500Y235264D02*Y233964D01*
X154800Y233264D02*X155500Y233964D01*
X152200Y233264D02*X154800D01*
X152200D02*X151500Y233964D01*
Y235264D02*Y233964D01*
X155000Y236464D02*X155500Y236964D01*
X154200Y236464D02*X155000D01*
X154200D02*X153500Y237164D01*
Y237764D02*Y237164D01*
Y237764D02*X154200Y238464D01*
X155000D01*
X155500Y237964D02*X155000Y238464D01*
X155500Y237964D02*Y236964D01*
X152800Y236464D02*X153500Y237164D01*
X152000Y236464D02*X152800D01*
X152000D02*X151500Y236964D01*
Y237964D02*Y236964D01*
Y237964D02*X152000Y238464D01*
X152800D01*
X153500Y237764D02*X152800Y238464D01*
X158000Y260000D02*Y258700D01*
X157300Y258000D02*X158000Y258700D01*
X154700Y258000D02*X157300D01*
X154700D02*X154000Y258700D01*
Y260000D02*Y258700D01*
X154500Y261200D02*X157500D01*
X154500D02*X154000Y261700D01*
Y262700D02*Y261700D01*
Y262700D02*X154500Y263200D01*
X157500D01*
X158000Y262700D02*X157500Y263200D01*
X158000Y262700D02*Y261700D01*
X157500Y261200D02*X158000Y261700D01*
X154000Y264400D02*X158000D01*
X154000D02*X158000Y266900D01*
X154000D02*X158000D01*
X154000Y268100D02*X158000D01*
X154000D02*X158000Y270600D01*
X154000D02*X158000D01*
X154500Y271800D02*X154000Y272300D01*
Y273300D02*Y272300D01*
Y273300D02*X154500Y273800D01*
X158000Y273300D02*X157500Y273800D01*
X158000Y273300D02*Y272300D01*
X157500Y271800D02*X158000Y272300D01*
X155800Y273300D02*Y272300D01*
X154500Y273800D02*X155300D01*
X156300D02*X157500D01*
X156300D02*X155800Y273300D01*
X155300Y273800D02*X155800Y273300D01*
X166350Y238445D02*Y236445D01*
Y238445D02*X166850Y238945D01*
X167850D01*
X168350Y238445D02*X167850Y238945D01*
X168350Y238445D02*Y236945D01*
X166350D02*X170350D01*
X168350Y237745D02*X170350Y238945D01*
X169850Y240145D02*X170350Y240645D01*
X169050Y240145D02*X169850D01*
X169050D02*X168350Y240845D01*
Y241445D02*Y240845D01*
Y241445D02*X169050Y242145D01*
X169850D01*
X170350Y241645D02*X169850Y242145D01*
X170350Y241645D02*Y240645D01*
X167650Y240145D02*X168350Y240845D01*
X166850Y240145D02*X167650D01*
X166850D02*X166350Y240645D01*
Y241645D02*Y240645D01*
Y241645D02*X166850Y242145D01*
X167650D01*
X168350Y241445D02*X167650Y242145D01*
X161000Y175846D02*Y174546D01*
X161700Y176546D02*X161000Y175846D01*
X161700Y176546D02*X164300D01*
X165000Y175846D01*
Y174546D01*
X164200Y173346D02*X165000Y172546D01*
X161000D02*X165000D01*
X161000Y173346D02*Y171846D01*
X164200Y170646D02*X165000Y169846D01*
X161000D02*X165000D01*
X161000Y170646D02*Y169146D01*
X159850Y182945D02*Y180945D01*
Y182945D02*X160350Y183445D01*
X161350D01*
X161850Y182945D02*X161350Y183445D01*
X161850Y182945D02*Y181445D01*
X159850D02*X163850D01*
X161850Y182245D02*X163850Y183445D01*
X160650Y184645D02*X159850Y185445D01*
X163850D01*
Y186145D02*Y184645D01*
X160650Y187345D02*X159850Y188145D01*
X163850D01*
Y188845D02*Y187345D01*
X188000Y166000D02*Y164700D01*
X187300Y164000D02*X188000Y164700D01*
X184700Y164000D02*X187300D01*
X184700D02*X184000Y164700D01*
Y166000D02*Y164700D01*
X184500Y167200D02*X184000Y167700D01*
Y169200D02*Y167700D01*
Y169200D02*X184500Y169700D01*
X185500D01*
X188000Y167200D02*X185500Y169700D01*
X188000D02*Y167200D01*
X184800Y170900D02*X184000Y171700D01*
X188000D01*
Y172400D02*Y170900D01*
X117992Y363500D02*Y359500D01*
X115992D02*X117992D01*
X116492Y361300D02*X117992D01*
X114792Y360300D02*X113992Y359500D01*
Y363500D02*Y359500D01*
X113292Y363500D02*X114792D01*
X150000Y361500D02*X151300D01*
X152000Y360800D02*X151300Y361500D01*
X152000Y360800D02*Y358200D01*
X151300Y357500D01*
X150000D02*X151300D01*
X148800Y361000D02*Y358000D01*
X148300Y357500D01*
X147300D02*X148300D01*
X147300D02*X146800Y358000D01*
Y361000D02*Y358000D01*
X147300Y361500D02*X146800Y361000D01*
X147300Y361500D02*X148300D01*
X148800Y361000D02*X148300Y361500D01*
X145600D02*Y357500D01*
X143100Y361500D01*
Y357500D01*
X141900Y361500D02*Y357500D01*
X139400Y361500D01*
Y357500D01*
X138200Y358300D02*X137400Y357500D01*
Y361500D02*Y357500D01*
X136700Y361500D02*X138200D01*
X24500Y333900D02*Y329900D01*
X23200D02*X22500Y330600D01*
Y333200D02*Y330600D01*
X23200Y333900D02*X22500Y333200D01*
X23200Y333900D02*X25000D01*
X23200Y329900D02*X25000D01*
X21300Y330700D02*X20500Y329900D01*
Y333900D02*Y329900D01*
X19800Y333900D02*X21300D01*
X50000D02*Y329900D01*
X48700D02*X48000Y330600D01*
Y333200D02*Y330600D01*
X48700Y333900D02*X48000Y333200D01*
X48700Y333900D02*X50500D01*
X48700Y329900D02*X50500D01*
X46800Y330400D02*X46300Y329900D01*
X45300D02*X46300D01*
X45300D02*X44800Y330400D01*
X45300Y333900D02*X44800Y333400D01*
X45300Y333900D02*X46300D01*
X46800Y333400D02*X46300Y333900D01*
X45300Y331700D02*X46300D01*
X44800Y331200D02*Y330400D01*
Y333400D02*Y332200D01*
X45300Y331700D01*
X44800Y331200D02*X45300Y331700D01*
X81200Y341500D02*X85200D01*
X81200Y342800D02*X81900Y343500D01*
X84500D01*
X85200Y342800D02*X84500Y343500D01*
X85200Y342800D02*Y341000D01*
X81200Y342800D02*Y341000D01*
X81700Y344700D02*X81200Y345200D01*
Y346700D02*Y345200D01*
Y346700D02*X81700Y347200D01*
X82700D01*
X85200Y344700D02*X82700Y347200D01*
X85200D02*Y344700D01*
X118500Y333900D02*Y329900D01*
X117200D02*X116500Y330600D01*
Y333200D02*Y330600D01*
X117200Y333900D02*X116500Y333200D01*
X117200Y333900D02*X119000D01*
X117200Y329900D02*X119000D01*
X115300Y332400D02*X113300Y329900D01*
X112800Y332400D02*X115300D01*
X113300Y333900D02*Y329900D01*
X80600Y320000D02*X84600D01*
Y318700D02*X83900Y318000D01*
X81300D02*X83900D01*
X80600Y318700D02*X81300Y318000D01*
X80600Y320500D02*Y318700D01*
X84600Y320500D02*Y318700D01*
Y316800D02*Y314800D01*
X82600Y316800D02*X84600D01*
X82600D02*X83100Y316300D01*
Y315300D01*
X82600Y314800D01*
X81100D02*X82600D01*
X80600Y315300D02*X81100Y314800D01*
X80600Y316300D02*Y315300D01*
X81100Y316800D02*X80600Y316300D01*
X80000Y286500D02*Y285200D01*
X79300Y284500D02*X80000Y285200D01*
X76700Y284500D02*X79300D01*
X76700D02*X76000Y285200D01*
Y286500D02*Y285200D01*
X76500Y287700D02*X76000Y288200D01*
Y289200D02*Y288200D01*
Y289200D02*X76500Y289700D01*
X80000Y289200D02*X79500Y289700D01*
X80000Y289200D02*Y288200D01*
X79500Y287700D02*X80000Y288200D01*
X77800Y289200D02*Y288200D01*
X76500Y289700D02*X77300D01*
X78300D02*X79500D01*
X78300D02*X77800Y289200D01*
X77300Y289700D02*X77800Y289200D01*
X138000Y284000D02*Y280000D01*
X136700D02*X136000Y280700D01*
Y283300D02*Y280700D01*
X136700Y284000D02*X136000Y283300D01*
X136700Y284000D02*X138500D01*
X136700Y280000D02*X138500D01*
X134300Y284000D02*X132300Y280000D01*
X134800D01*
X42500Y293000D02*Y289000D01*
X41200D02*X40500Y289700D01*
Y292300D02*Y289700D01*
X41200Y293000D02*X40500Y292300D01*
X41200Y293000D02*X43000D01*
X41200Y289000D02*X43000D01*
X37800D02*X37300Y289500D01*
X37800Y289000D02*X38800D01*
X39300Y289500D02*X38800Y289000D01*
X39300Y292500D02*Y289500D01*
Y292500D02*X38800Y293000D01*
X37800Y290800D02*X37300Y291300D01*
X37800Y290800D02*X39300D01*
X37800Y293000D02*X38800D01*
X37800D02*X37300Y292500D01*
Y291300D01*
X22055Y250350D02*X24055D01*
X22055D02*X21555Y250850D01*
Y251850D02*Y250850D01*
X22055Y252350D02*X21555Y251850D01*
X22055Y252350D02*X23555D01*
Y254350D02*Y250350D01*
X22755Y252350D02*X21555Y254350D01*
X20355Y250850D02*X19855Y250350D01*
X18355D02*X19855D01*
X18355D02*X17855Y250850D01*
Y251850D02*Y250850D01*
X20355Y254350D02*X17855Y251850D01*
Y254350D02*X20355D01*
X26709Y258350D02*X28709D01*
X26709D02*X26209Y258850D01*
Y259850D02*Y258850D01*
X26709Y260350D02*X26209Y259850D01*
X26709Y260350D02*X28209D01*
Y262350D02*Y258350D01*
X27409Y260350D02*X26209Y262350D01*
X25009Y258850D02*X24509Y258350D01*
X23509D02*X24509D01*
X23509D02*X23009Y258850D01*
X23509Y262350D02*X23009Y261850D01*
X23509Y262350D02*X24509D01*
X25009Y261850D02*X24509Y262350D01*
X23509Y260150D02*X24509D01*
X23009Y259650D02*Y258850D01*
Y261850D02*Y260650D01*
X23509Y260150D01*
X23009Y259650D02*X23509Y260150D01*
X27500Y276000D02*X28800D01*
X29500Y275300D02*X28800Y276000D01*
X29500Y275300D02*Y272700D01*
X28800Y272000D01*
X27500D02*X28800D01*
X26300Y275500D02*Y272500D01*
X25800Y272000D01*
X24800D02*X25800D01*
X24800D02*X24300Y272500D01*
Y275500D02*Y272500D01*
X24800Y276000D02*X24300Y275500D01*
X24800Y276000D02*X25800D01*
X26300Y275500D02*X25800Y276000D01*
X23100D02*Y272000D01*
X20600Y276000D01*
Y272000D01*
X19400Y276000D02*Y272000D01*
X16900Y276000D01*
Y272000D01*
X15700Y272500D02*X15200Y272000D01*
X13700D02*X15200D01*
X13700D02*X13200Y272500D01*
Y273500D02*Y272500D01*
X15700Y276000D02*X13200Y273500D01*
Y276000D02*X15700D01*
X51800Y256000D02*Y254000D01*
X51300Y253500D01*
X50300D02*X51300D01*
X49800Y254000D02*X50300Y253500D01*
X49800Y255500D02*Y254000D01*
X47800Y255500D02*X51800D01*
X49800Y254700D02*X47800Y253500D01*
X51000Y252300D02*X51800Y251500D01*
X47800D02*X51800D01*
X47800Y252300D02*Y250800D01*
X59000Y252564D02*Y251264D01*
X59700Y253264D02*X59000Y252564D01*
X59700Y253264D02*X62300D01*
X63000Y252564D01*
Y251264D01*
X60500Y250064D02*X63000Y248064D01*
X60500Y250064D02*Y247564D01*
X59000Y248064D02*X63000D01*
X85000Y247564D02*Y246264D01*
X85700Y248264D02*X85000Y247564D01*
X85700Y248264D02*X88300D01*
X89000Y247564D01*
Y246264D01*
Y243564D02*X88500Y243064D01*
X89000Y244564D02*Y243564D01*
X88500Y245064D02*X89000Y244564D01*
X85500Y245064D02*X88500D01*
X85500D02*X85000Y244564D01*
X87200Y243564D02*X86700Y243064D01*
X87200Y245064D02*Y243564D01*
X85000Y244564D02*Y243564D01*
X85500Y243064D01*
X86700D01*
X112500Y225500D02*Y221500D01*
X111200D02*X110500Y222200D01*
Y224800D02*Y222200D01*
X111200Y225500D02*X110500Y224800D01*
X111200Y225500D02*X113000D01*
X111200Y221500D02*X113000D01*
X109300Y225000D02*X108800Y225500D01*
X109300Y225000D02*Y224200D01*
X108600Y223500D01*
X108000D02*X108600D01*
X108000D02*X107300Y224200D01*
Y225000D02*Y224200D01*
X107800Y225500D02*X107300Y225000D01*
X107800Y225500D02*X108800D01*
X109300Y222800D02*X108600Y223500D01*
X109300Y222800D02*Y222000D01*
X108800Y221500D01*
X107800D02*X108800D01*
X107800D02*X107300Y222000D01*
Y222800D02*Y222000D01*
X108000Y223500D02*X107300Y222800D01*
X119255Y247650D02*X121255D01*
X121755Y247150D01*
Y246150D01*
X121255Y245650D02*X121755Y246150D01*
X119755Y245650D02*X121255D01*
X119755Y247650D02*Y243650D01*
X120555Y245650D02*X121755Y243650D01*
X122955Y247650D02*X124955D01*
X122955D02*Y245650D01*
X123455Y246150D01*
X124455D01*
X124955Y245650D01*
Y244150D01*
X124455Y243650D02*X124955Y244150D01*
X123455Y243650D02*X124455D01*
X122955Y244150D02*X123455Y243650D01*
X120200Y255500D02*X121500D01*
X119500Y256200D02*X120200Y255500D01*
X119500Y258800D02*Y256200D01*
Y258800D02*X120200Y259500D01*
X121500D01*
X122700D02*X124700D01*
X122700D02*Y257500D01*
X123200Y258000D01*
X124200D01*
X124700Y257500D01*
Y256000D01*
X124200Y255500D02*X124700Y256000D01*
X123200Y255500D02*X124200D01*
X122700Y256000D02*X123200Y255500D01*
X116500Y203000D02*Y201000D01*
Y203000D02*X117000Y203500D01*
X118000D01*
X118500Y203000D02*X118000Y203500D01*
X118500Y203000D02*Y201500D01*
X116500D02*X120500D01*
X118500Y202300D02*X120500Y203500D01*
X116500Y206200D02*X117000Y206700D01*
X116500Y206200D02*Y205200D01*
X117000Y204700D02*X116500Y205200D01*
X117000Y204700D02*X120000D01*
X120500Y205200D01*
X118300Y206200D02*X118800Y206700D01*
X118300Y206200D02*Y204700D01*
X120500Y206200D02*Y205200D01*
Y206200D02*X120000Y206700D01*
X118800D02*X120000D01*
X87445Y223150D02*X89445D01*
X89945Y222650D01*
Y221650D01*
X89445Y221150D02*X89945Y221650D01*
X87945Y221150D02*X89445D01*
X87945Y223150D02*Y219150D01*
X88745Y221150D02*X89945Y219150D01*
X91145Y220650D02*X93145Y223150D01*
X91145Y220650D02*X93645D01*
X93145Y223150D02*Y219150D01*
X75000Y212000D02*Y210700D01*
X74300Y210000D02*X75000Y210700D01*
X71700Y210000D02*X74300D01*
X71700D02*X71000Y210700D01*
Y212000D02*Y210700D01*
X71800Y213200D02*X71000Y214000D01*
X75000D01*
Y214700D02*Y213200D01*
X73500Y215900D02*X71000Y217900D01*
X73500Y218400D02*Y215900D01*
X71000Y217900D02*X75000D01*
X26445Y203650D02*X28445D01*
X28945Y203150D01*
Y202150D01*
X28445Y201650D02*X28945Y202150D01*
X26945Y201650D02*X28445D01*
X26945Y203650D02*Y199650D01*
X27745Y201650D02*X28945Y199650D01*
X30145Y202850D02*X30945Y203650D01*
Y199650D01*
X30145D02*X31645D01*
X32845Y201150D02*X34845Y203650D01*
X32845Y201150D02*X35345D01*
X34845Y203650D02*Y199650D01*
X60366Y180311D02*Y179011D01*
X59666Y178311D02*X60366Y179011D01*
X57066Y178311D02*X59666D01*
X57066D02*X56366Y179011D01*
Y180311D02*Y179011D01*
X57166Y181511D02*X56366Y182311D01*
X60366D01*
Y183011D02*Y181511D01*
X56866Y184211D02*X56366Y184711D01*
Y186211D02*Y184711D01*
Y186211D02*X56866Y186711D01*
X57866D01*
X60366Y184211D02*X57866Y186711D01*
X60366D02*Y184211D01*
X60500Y197000D02*Y193000D01*
X59200D02*X58500Y193700D01*
Y196300D02*Y193700D01*
X59200Y197000D02*X58500Y196300D01*
X59200Y197000D02*X61000D01*
X59200Y193000D02*X61000D01*
X57300Y193800D02*X56500Y193000D01*
Y197000D02*Y193000D01*
X55800Y197000D02*X57300D01*
X54600Y193500D02*X54100Y193000D01*
X52600D02*X54100D01*
X52600D02*X52100Y193500D01*
Y194500D02*Y193500D01*
X54600Y197000D02*X52100Y194500D01*
Y197000D02*X54600D01*
X45528Y184339D02*Y180339D01*
X44228D02*X43528Y181039D01*
Y183639D02*Y181039D01*
X44228Y184339D02*X43528Y183639D01*
X44228Y184339D02*X46028D01*
X44228Y180339D02*X46028D01*
X42328Y181139D02*X41528Y180339D01*
Y184339D02*Y180339D01*
X40828Y184339D02*X42328D01*
X39628Y180839D02*X39128Y180339D01*
X38128D02*X39128D01*
X38128D02*X37628Y180839D01*
X38128Y184339D02*X37628Y183839D01*
X38128Y184339D02*X39128D01*
X39628Y183839D02*X39128Y184339D01*
X38128Y182139D02*X39128D01*
X37628Y181639D02*Y180839D01*
Y183839D02*Y182639D01*
X38128Y182139D01*
X37628Y181639D02*X38128Y182139D01*
X7850Y187945D02*Y185945D01*
Y187945D02*X8350Y188445D01*
X9350D01*
X9850Y187945D02*X9350Y188445D01*
X9850Y187945D02*Y186445D01*
X7850D02*X11850D01*
X9850Y187245D02*X11850Y188445D01*
X8650Y189645D02*X7850Y190445D01*
X11850D01*
Y191145D02*Y189645D01*
X8350Y192345D02*X7850Y192845D01*
Y193845D02*Y192845D01*
Y193845D02*X8350Y194345D01*
X11850Y193845D02*X11350Y194345D01*
X11850Y193845D02*Y192845D01*
X11350Y192345D02*X11850Y192845D01*
X9650Y193845D02*Y192845D01*
X8350Y194345D02*X9150D01*
X10150D02*X11350D01*
X10150D02*X9650Y193845D01*
X9150Y194345D02*X9650Y193845D01*
X50000Y122500D02*Y118500D01*
X48700D02*X48000Y119200D01*
Y121800D02*Y119200D01*
X48700Y122500D02*X48000Y121800D01*
X48700Y122500D02*X50500D01*
X48700Y118500D02*X50500D01*
X46800Y119300D02*X46000Y118500D01*
Y122500D02*Y118500D01*
X45300Y122500D02*X46800D01*
X44100Y121000D02*X42100Y118500D01*
X41600Y121000D02*X44100D01*
X42100Y122500D02*Y118500D01*
X47850Y103835D02*Y101835D01*
Y103835D02*X48350Y104335D01*
X49350D01*
X49850Y103835D02*X49350Y104335D01*
X49850Y103835D02*Y102335D01*
X47850D02*X51850D01*
X49850Y103135D02*X51850Y104335D01*
X48650Y105535D02*X47850Y106335D01*
X51850D01*
Y107035D02*Y105535D01*
Y108735D02*X49850Y110235D01*
X48350D02*X49850D01*
X47850Y109735D02*X48350Y110235D01*
X47850Y109735D02*Y108735D01*
X48350Y108235D02*X47850Y108735D01*
X48350Y108235D02*X49350D01*
X49850Y108735D01*
Y110235D02*Y108735D01*
X53390Y103036D02*Y101736D01*
X54090Y103736D02*X53390Y103036D01*
X54090Y103736D02*X56690D01*
X57390Y103036D01*
Y101736D01*
X56590Y100536D02*X57390Y99736D01*
X53390D02*X57390D01*
X53390Y100536D02*Y99036D01*
X53890Y97836D02*X53390Y97336D01*
X53890Y97836D02*X54690D01*
X55390Y97136D01*
Y96536D01*
X54690Y95836D01*
X53890D02*X54690D01*
X53390Y96336D02*X53890Y95836D01*
X53390Y97336D02*Y96336D01*
X56090Y97836D02*X55390Y97136D01*
X56090Y97836D02*X56890D01*
X57390Y97336D01*
Y96336D01*
X56890Y95836D01*
X56090D02*X56890D01*
X55390Y96536D02*X56090Y95836D01*
X18697Y105650D02*X20697D01*
X21197Y105150D01*
Y104150D01*
X20697Y103650D02*X21197Y104150D01*
X19197Y103650D02*X20697D01*
X19197Y105650D02*Y101650D01*
X19997Y103650D02*X21197Y101650D01*
X22397Y104850D02*X23197Y105650D01*
Y101650D01*
X22397D02*X23897D01*
X25097Y102150D02*X25597Y101650D01*
X25097Y102950D02*Y102150D01*
Y102950D02*X25797Y103650D01*
X26397D01*
X27097Y102950D01*
Y102150D01*
X26597Y101650D02*X27097Y102150D01*
X25597Y101650D02*X26597D01*
X25097Y104350D02*X25797Y103650D01*
X25097Y105150D02*Y104350D01*
Y105150D02*X25597Y105650D01*
X26597D01*
X27097Y105150D01*
Y104350D01*
X26397Y103650D02*X27097Y104350D01*
X29326Y94000D02*X30626D01*
X28626Y94700D02*X29326Y94000D01*
X28626Y97300D02*Y94700D01*
Y97300D02*X29326Y98000D01*
X30626D01*
X31826Y97200D02*X32626Y98000D01*
Y94000D01*
X31826D02*X33326D01*
X35026D02*X37026Y98000D01*
X34526D02*X37026D01*
X35000Y118500D02*Y114500D01*
X33700D02*X33000Y115200D01*
Y117800D02*Y115200D01*
X33700Y118500D02*X33000Y117800D01*
X33700Y118500D02*X35500D01*
X33700Y114500D02*X35500D01*
X31800Y115300D02*X31000Y114500D01*
Y118500D02*Y114500D01*
X30300Y118500D02*X31800D01*
X27100Y114500D02*X29100D01*
Y116500D02*Y114500D01*
Y116500D02*X28600Y116000D01*
X27600D02*X28600D01*
X27600D02*X27100Y116500D01*
Y118000D02*Y116500D01*
X27600Y118500D02*X27100Y118000D01*
X27600Y118500D02*X28600D01*
X29100Y118000D02*X28600Y118500D01*
X72400Y65200D02*X72900Y64700D01*
Y63700D01*
X72400Y63200D01*
X68900Y63700D02*X69400Y63200D01*
X68900Y64700D02*Y63700D01*
X69400Y65200D02*X68900Y64700D01*
X71100D02*Y63700D01*
X71600Y63200D02*X72400D01*
X69400D02*X70600D01*
X71100Y63700D01*
X71600Y63200D02*X71100Y63700D01*
X68900Y62000D02*Y61500D01*
X72400Y60300D02*X72900Y59800D01*
Y58800D01*
X72400Y58300D01*
X68900Y58800D02*X69400Y58300D01*
X68900Y59800D02*Y58800D01*
X69400Y60300D02*X68900Y59800D01*
X71100D02*Y58800D01*
X71600Y58300D02*X72400D01*
X69400D02*X70600D01*
X71100Y58800D01*
X71600Y58300D02*X71100Y58800D01*
X72900Y57100D02*X68900Y56100D01*
X72900Y55100D01*
X87693Y35350D02*X88993D01*
X89693Y34650D02*X88993Y35350D01*
X89693Y34650D02*Y32050D01*
X88993Y31350D01*
X87693D02*X88993D01*
X86493Y32150D02*X85693Y31350D01*
Y35350D02*Y31350D01*
X84993Y35350D02*X86493D01*
X83293D02*X81793Y33350D01*
Y31850D01*
X82293Y31350D02*X81793Y31850D01*
X82293Y31350D02*X83293D01*
X83793Y31850D02*X83293Y31350D01*
X83793Y32850D02*Y31850D01*
Y32850D02*X83293Y33350D01*
X81793D02*X83293D01*
X182000Y32500D02*X184000D01*
X184500Y32000D01*
Y31000D01*
X184000Y30500D02*X184500Y31000D01*
X182500Y30500D02*X184000D01*
X182500Y32500D02*Y28500D01*
X183300Y30500D02*X184500Y28500D01*
X186400Y32500D02*X187200D01*
Y29000D01*
X186700Y28500D02*X187200Y29000D01*
X186200Y28500D02*X186700D01*
X185700Y29000D02*X186200Y28500D01*
X185700Y29500D02*Y29000D01*
X188400Y30000D02*X190400Y32500D01*
X188400Y30000D02*X190900D01*
X190400Y32500D02*Y28500D01*
X192100Y32500D02*X194100D01*
X192100D02*Y30500D01*
X192600Y31000D01*
X193600D01*
X194100Y30500D01*
Y29000D01*
X193600Y28500D02*X194100Y29000D01*
X192600Y28500D02*X193600D01*
X192100Y29000D02*X192600Y28500D01*
X111350Y41807D02*Y40507D01*
X110650Y39807D02*X111350Y40507D01*
X108050Y39807D02*X110650D01*
X108050D02*X107350Y40507D01*
Y41807D02*Y40507D01*
X107850Y43007D02*X107350Y43507D01*
Y45007D02*Y43507D01*
Y45007D02*X107850Y45507D01*
X108850D01*
X111350Y43007D02*X108850Y45507D01*
X111350D02*Y43007D01*
X110850Y46707D02*X111350Y47207D01*
X107850Y46707D02*X110850D01*
X107850D02*X107350Y47207D01*
Y48207D02*Y47207D01*
Y48207D02*X107850Y48707D01*
X110850D01*
X111350Y48207D02*X110850Y48707D01*
X111350Y48207D02*Y47207D01*
X110350Y46707D02*X108350Y48707D01*
X153500Y65500D02*Y64200D01*
X152800Y63500D02*X153500Y64200D01*
X150200Y63500D02*X152800D01*
X150200D02*X149500Y64200D01*
Y65500D02*Y64200D01*
X150000Y66700D02*X153000D01*
X150000D02*X149500Y67200D01*
Y68200D02*Y67200D01*
Y68200D02*X150000Y68700D01*
X153000D01*
X153500Y68200D02*X153000Y68700D01*
X153500Y68200D02*Y67200D01*
X153000Y66700D02*X153500Y67200D01*
X149500Y69900D02*X153500D01*
X149500D02*X153500Y72400D01*
X149500D02*X153500D01*
X149500Y73600D02*X153500D01*
X149500D02*X153500Y76100D01*
X149500D02*X153500D01*
Y77800D02*X149500Y79800D01*
Y77300D01*
X138200Y52500D02*X139500D01*
X137500Y53200D02*X138200Y52500D01*
X137500Y55800D02*Y53200D01*
Y55800D02*X138200Y56500D01*
X139500D01*
X140700Y56000D02*Y53000D01*
Y56000D02*X141200Y56500D01*
X142200D01*
X142700Y56000D01*
Y53000D01*
X142200Y52500D02*X142700Y53000D01*
X141200Y52500D02*X142200D01*
X140700Y53000D02*X141200Y52500D01*
X143900Y56500D02*Y52500D01*
Y56500D02*X146400Y52500D01*
Y56500D02*Y52500D01*
X147600Y56500D02*Y52500D01*
Y56500D02*X150100Y52500D01*
Y56500D02*Y52500D01*
X152800Y56500D02*X153300Y56000D01*
X151800Y56500D02*X152800D01*
X151300Y56000D02*X151800Y56500D01*
X151300Y56000D02*Y53000D01*
X151800Y52500D01*
X152800Y54700D02*X153300Y54200D01*
X151300Y54700D02*X152800D01*
X151800Y52500D02*X152800D01*
X153300Y53000D01*
Y54200D02*Y53000D01*
X150000Y337000D02*X154000D01*
X150000D02*Y335000D01*
X153200Y333800D02*X154000Y333000D01*
X150000D02*X154000D01*
X150000Y333800D02*Y332300D01*
X184000Y339500D02*Y338200D01*
X183300Y337500D02*X184000Y338200D01*
X180700Y337500D02*X183300D01*
X180700D02*X180000Y338200D01*
Y339500D02*Y338200D01*
X180800Y340700D02*X180000Y341500D01*
X184000D01*
Y342200D02*Y340700D01*
X195755Y336650D02*Y332650D01*
X197755D01*
X198955Y336150D02*X199455Y336650D01*
X200955D01*
X201455Y336150D01*
Y335150D01*
X198955Y332650D02*X201455Y335150D01*
X198955Y332650D02*X201455D01*
X218500Y339736D02*Y338436D01*
X217800Y337736D02*X218500Y338436D01*
X215200Y337736D02*X217800D01*
X215200D02*X214500Y338436D01*
Y339736D02*Y338436D01*
X215000Y340936D02*X214500Y341436D01*
Y342936D02*Y341436D01*
Y342936D02*X215000Y343436D01*
X216000D01*
X218500Y340936D02*X216000Y343436D01*
X218500D02*Y340936D01*
X153000Y288000D02*Y286700D01*
X152300Y286000D02*X153000Y286700D01*
X149700Y286000D02*X152300D01*
X149700D02*X149000Y286700D01*
Y288000D02*Y286700D01*
X153000Y289700D02*X149000Y291700D01*
Y289200D01*
X168945Y286650D02*X170945D01*
X171445Y286150D01*
Y285150D01*
X170945Y284650D02*X171445Y285150D01*
X169445Y284650D02*X170945D01*
X169445Y286650D02*Y282650D01*
X170245Y284650D02*X171445Y282650D01*
X173145D02*X174645Y284650D01*
Y286150D02*Y284650D01*
X174145Y286650D02*X174645Y286150D01*
X173145Y286650D02*X174145D01*
X172645Y286150D02*X173145Y286650D01*
X172645Y286150D02*Y285150D01*
X173145Y284650D01*
X174645D01*
X173000Y297500D02*Y293500D01*
X171700D02*X171000Y294200D01*
Y296800D02*Y294200D01*
X171700Y297500D02*X171000Y296800D01*
X171700Y297500D02*X173500D01*
X171700Y293500D02*X173500D01*
X169800Y294300D02*X169000Y293500D01*
Y297500D02*Y293500D01*
X168300Y297500D02*X169800D01*
X167100Y294300D02*X166300Y293500D01*
Y297500D02*Y293500D01*
X165600Y297500D02*X167100D01*
X212445Y306650D02*X214445D01*
X214945Y306150D01*
Y305150D01*
X214445Y304650D02*X214945Y305150D01*
X212945Y304650D02*X214445D01*
X212945Y306650D02*Y302650D01*
X213745Y304650D02*X214945Y302650D01*
X216645D02*X218645Y306650D01*
X216145D02*X218645D01*
X202000Y289000D02*Y285000D01*
X200700D02*X200000Y285700D01*
Y288300D02*Y285700D01*
X200700Y289000D02*X200000Y288300D01*
X200700Y289000D02*X202500D01*
X200700Y285000D02*X202500D01*
X198800Y285800D02*X198000Y285000D01*
Y289000D02*Y285000D01*
X197300Y289000D02*X198800D01*
X196100Y288500D02*X195600Y289000D01*
X196100Y288500D02*Y285500D01*
X195600Y285000D01*
X194600D02*X195600D01*
X194600D02*X194100Y285500D01*
Y288500D02*Y285500D01*
X194600Y289000D02*X194100Y288500D01*
X194600Y289000D02*X195600D01*
X196100Y288000D02*X194100Y286000D01*
X220500Y263500D02*Y261500D01*
Y263500D02*X221000Y264000D01*
X222000D01*
X222500Y263500D02*X222000Y264000D01*
X222500Y263500D02*Y262000D01*
X220500D02*X224500D01*
X222500Y262800D02*X224500Y264000D01*
X221300Y265200D02*X220500Y266000D01*
X224500D01*
Y266700D02*Y265200D01*
X224000Y267900D02*X224500Y268400D01*
X221000Y267900D02*X224000D01*
X221000D02*X220500Y268400D01*
Y269400D02*Y268400D01*
Y269400D02*X221000Y269900D01*
X224000D01*
X224500Y269400D02*X224000Y269900D01*
X224500Y269400D02*Y268400D01*
X223500Y267900D02*X221500Y269900D01*
X190000Y271500D02*X191300D01*
X192000Y270800D02*X191300Y271500D01*
X192000Y270800D02*Y268200D01*
X191300Y267500D01*
X190000D02*X191300D01*
X188300Y271500D02*X186800Y269500D01*
Y268000D01*
X187300Y267500D02*X186800Y268000D01*
X187300Y267500D02*X188300D01*
X188800Y268000D02*X188300Y267500D01*
X188800Y269000D02*Y268000D01*
Y269000D02*X188300Y269500D01*
X186800D02*X188300D01*
X222576Y282350D02*Y278350D01*
X221276D02*X220576Y279050D01*
Y281650D02*Y279050D01*
X221276Y282350D02*X220576Y281650D01*
X221276Y282350D02*X223076D01*
X221276Y278350D02*X223076D01*
X218876Y282350D02*X217376Y280350D01*
Y278850D01*
X217876Y278350D02*X217376Y278850D01*
X217876Y278350D02*X218876D01*
X219376Y278850D02*X218876Y278350D01*
X219376Y279850D02*Y278850D01*
Y279850D02*X218876Y280350D01*
X217376D02*X218876D01*
X195755Y346150D02*Y342150D01*
X197755D01*
X198955Y345650D02*X199455Y346150D01*
X200455D01*
X200955Y345650D01*
X200455Y342150D02*X200955Y342650D01*
X199455Y342150D02*X200455D01*
X198955Y342650D02*X199455Y342150D01*
Y344350D02*X200455D01*
X200955Y345650D02*Y344850D01*
Y343850D02*Y342650D01*
Y343850D02*X200455Y344350D01*
X200955Y344850D02*X200455Y344350D01*
M02*
