M48
INCH
T80C0.025
T79C0.028
T78C0.063
T77C0.128
T76C0.035
T75C0.050
T74C0.051
T73C0.038
T72C0.130
T71C0.030
T70C0.060
T69C0.020
%
T69
X001600Y011700
X001603Y018984
X002650Y029050
X003100Y019200
X003100Y012050
X004600Y011700
X004603Y018984
X005650Y029050
X006100Y019200
X006100Y012050
X010700Y023000
X012200Y028150
X013700Y023000
X015200Y028150
X015450Y029550
X018450Y029550
X018450Y028700
X018600Y021850
X018600Y018850
X021450Y028700
T80
X001600Y010100
X001650Y017900
X004236Y009100
X004750Y032120
X005147Y017050
X006089Y008900
X006550Y024053
X007100Y004850
X008800Y023603
X009380Y031800
X009600Y003950
X011950Y015450
X012100Y013950
X012700Y010350
X012850Y017650
X013900Y017650
X015200Y024600
X015500Y016150
X016200Y023450
X016900Y016281
X020400Y022353
X021000Y035900
X021400Y028000
X021650Y035047
T79
X017800Y005450
X018800Y005450
X019800Y005450
T71
X003250Y018100
X005250Y018100
X007300Y022400
X007300Y020400
X008200Y029850
X008200Y027850
X010200Y020850
X010700Y017300
X010700Y012300
X011200Y025750
X013200Y025750
X013200Y019850
X014400Y029150
X014400Y027150
X015100Y034500
X015100Y032500
X015200Y020850
X016050Y010650
X016050Y008650
X016450Y027100
X017150Y014100
X017150Y012100
X017750Y010650
X017750Y008650
X018000Y027350
X018800Y010650
X018800Y008650
X019450Y026100
X019450Y017700
X019450Y015700
X020000Y027350
X021450Y027100
T76
X017300Y006500
X017800Y007500
X018300Y006500
X018800Y007500
X019300Y006500
X019800Y007500
X020300Y006500
X020800Y007500
T73
X001650Y027900
X001650Y026900
X002650Y027900
X002650Y026900
X003650Y027900
X003650Y026900
X008350Y035900
X009350Y035900
X009500Y015450
X009500Y014450
X016050Y007600
X016050Y006600
X016450Y026150
X017450Y026150
T75
X005000Y030350
X005000Y020350
X020250Y035500
X020250Y032500
T74
X004231Y035850
X006200Y035850
X010531Y035850
X012499Y035850
T70
X001650Y030350
X002650Y030350
X003253Y021534
X003500Y013050
X003650Y030350
X004253Y021534
X004500Y013050
X005253Y021534
X005500Y013050
X007750Y018600
X007750Y008550
X008750Y018600
X008750Y008550
X009750Y018600
X009750Y008550
X011200Y029400
X012200Y029400
X012400Y018550
X013200Y029400
X013400Y018550
X014400Y018550
X017450Y030700
X018450Y030700
X019450Y030700
T78
X015946Y002799
X022146Y002799
T77
X016800Y004000
X021300Y004000
T72
X002650Y023650
X004253Y014834
X004500Y006350
X008750Y011900
X008750Y001850
X012200Y022700
X013400Y011850
X018450Y024000
M30
