G04 start of page 6 for group -4063 idx -4063 *
G04 Title: (unknown), componentmask *
G04 Creator: pcb 1.99z *
G04 CreationDate: Thu 18 Dec 2014 06:06:48 AM GMT UTC *
G04 For: commonadmin *
G04 Format: Gerber/RS-274X *
G04 PCB-Dimensions (mil): 2350.00 3800.00 *
G04 PCB-Coordinate-Origin: lower left *
%MOIN*%
%FSLAX25Y25*%
%LNTOPMASK*%
%ADD101R,0.0670X0.0670*%
%ADD100R,0.0430X0.0430*%
%ADD99R,0.0300X0.0300*%
%ADD98R,0.0355X0.0355*%
%ADD97R,0.0257X0.0257*%
%ADD96R,0.0572X0.0572*%
%ADD95C,0.0247*%
%ADD94R,0.0818X0.0818*%
%ADD93R,0.1510X0.1510*%
%ADD92C,0.0887*%
%ADD91C,0.1536*%
%ADD90C,0.0611*%
%ADD89C,0.0610*%
%ADD88C,0.0860*%
%ADD87C,0.0810*%
%ADD86C,0.0759*%
%ADD85C,0.1560*%
%ADD84C,0.0660*%
%ADD83C,0.0560*%
%ADD82C,0.0960*%
%ADD81C,0.0001*%
G54D81*G36*
X183200Y221300D02*Y215700D01*
X188800D01*
Y221300D01*
X183200D01*
G37*
G54D82*X122000Y294000D03*
G54D83*Y281500D03*
G54D82*X132000Y294000D03*
G54D81*G36*
X149200Y284300D02*Y278700D01*
X154800D01*
Y284300D01*
X149200D01*
G37*
G54D84*X144000Y291500D03*
G54D83*X154500Y295500D03*
G54D85*X122000Y227000D03*
G54D81*G36*
X134200Y232800D02*Y227200D01*
X139800D01*
Y232800D01*
X134200D01*
G37*
G54D83*X107000Y230000D03*
G54D81*G36*
X108700Y260800D02*Y254200D01*
X115300D01*
Y260800D01*
X108700D01*
G37*
G54D84*X132000Y257500D03*
G54D81*G36*
X140700Y274800D02*Y268200D01*
X147300D01*
Y274800D01*
X140700D01*
G37*
G36*
X160703Y274797D02*Y267203D01*
X168297D01*
Y274797D01*
X160703D01*
G37*
G36*
X171200Y264800D02*Y258200D01*
X177800D01*
Y264800D01*
X171200D01*
G37*
G54D84*X164500Y261500D03*
X180000Y273500D03*
G54D81*G36*
X181700Y298300D02*Y292700D01*
X187300D01*
Y298300D01*
X181700D01*
G37*
G54D83*X184500Y287000D03*
X186000Y188500D03*
G54D81*G36*
X169700Y311800D02*Y302200D01*
X179300D01*
Y311800D01*
X169700D01*
G37*
G54D82*X184500Y307000D03*
X194500D03*
G54D85*X184500Y240000D03*
G54D81*G36*
X211700Y289800D02*Y284200D01*
X217300D01*
Y289800D01*
X211700D01*
G37*
G54D86*X214500Y271000D03*
X194500Y261000D03*
G54D81*G36*
X196700Y276800D02*Y270200D01*
X203300D01*
Y276800D01*
X196700D01*
G37*
G36*
X191200Y160300D02*Y153700D01*
X197800D01*
Y160300D01*
X191200D01*
G37*
G54D84*X194500Y177000D03*
G54D87*X124992Y358500D03*
G54D81*G36*
X147700Y348300D02*Y341700D01*
X154300D01*
Y348300D01*
X147700D01*
G37*
G54D84*X151000Y325000D03*
G54D81*G36*
X199200Y328300D02*Y321700D01*
X205800D01*
Y328300D01*
X199200D01*
G37*
G54D84*X202500Y355000D03*
G54D87*X105307Y358500D03*
G54D81*G36*
X90200Y362300D02*Y355700D01*
X96800D01*
Y362300D01*
X90200D01*
G37*
G54D84*X83500Y359000D03*
G54D87*X62000Y358500D03*
X42315D03*
G54D81*G36*
X11700Y308300D02*Y298700D01*
X21300D01*
Y308300D01*
X11700D01*
G37*
G54D82*X26500Y303500D03*
X36500D03*
G54D81*G36*
X45700Y307800D02*Y299200D01*
X54300D01*
Y307800D01*
X45700D01*
G37*
G36*
X53700Y293300D02*Y287700D01*
X59300D01*
Y293300D01*
X53700D01*
G37*
G54D83*X26500Y290500D03*
G54D81*G36*
X33200Y282300D02*Y275700D01*
X39800D01*
Y282300D01*
X33200D01*
G37*
G54D84*X26500Y279000D03*
X16500D03*
Y269000D03*
X26500D03*
X36500D03*
G54D81*G36*
X78700Y281800D02*Y275200D01*
X85300D01*
Y281800D01*
X78700D01*
G37*
G54D84*X82000Y298500D03*
G54D81*G36*
X107200Y298800D02*Y289200D01*
X116800D01*
Y298800D01*
X107200D01*
G37*
G54D85*X26500Y236500D03*
G54D81*G36*
X27728Y220139D02*Y210539D01*
X37328D01*
Y220139D01*
X27728D01*
G37*
G54D82*X42528Y215339D03*
G54D81*G36*
X72700Y190800D02*Y181200D01*
X82300D01*
Y190800D01*
X72700D01*
G37*
G54D84*X52500Y181000D03*
G54D81*G36*
X58200Y194800D02*Y189200D01*
X63800D01*
Y194800D01*
X58200D01*
G37*
G54D88*X50000Y203500D03*
G54D81*G36*
X98203Y212297D02*Y204703D01*
X105797D01*
Y212297D01*
X98203D01*
G37*
G36*
X69700Y207300D02*Y200700D01*
X76300D01*
Y207300D01*
X69700D01*
G37*
G54D84*X73000Y224000D03*
G54D82*X52528Y215339D03*
G54D81*G36*
X29200Y184300D02*Y177700D01*
X35800D01*
Y184300D01*
X29200D01*
G37*
G54D83*X31000Y192000D03*
G54D81*G36*
X43228Y192639D02*Y187039D01*
X48828D01*
Y192639D01*
X43228D01*
G37*
G54D83*X16028Y189839D03*
G54D86*X152000Y208500D03*
X132000Y198500D03*
G54D81*G36*
X103950Y176050D02*Y169950D01*
X110050D01*
Y176050D01*
X103950D01*
G37*
G36*
X119200Y190300D02*Y180700D01*
X128800D01*
Y190300D01*
X119200D01*
G37*
G54D82*X134000Y185500D03*
X144000D03*
X87500Y186000D03*
X97500D03*
G54D81*G36*
X72700Y90300D02*Y80700D01*
X82300D01*
Y90300D01*
X72700D01*
G37*
G54D82*X87500Y85500D03*
X97500D03*
G54D85*X87500Y18500D03*
X134000Y118500D03*
X45000Y63500D03*
G54D81*G36*
X43200Y119800D02*Y114200D01*
X48800D01*
Y119800D01*
X43200D01*
G37*
G54D89*X107000Y123000D03*
G54D81*G36*
X91700Y157800D02*Y151200D01*
X98300D01*
Y157800D01*
X91700D01*
G37*
G54D84*X95000Y144500D03*
G54D85*X42528Y148339D03*
X87500Y119000D03*
G54D81*G36*
X58200Y123300D02*Y117700D01*
X63800D01*
Y123300D01*
X58200D01*
G37*
G54D83*X31000Y120500D03*
G54D81*G36*
X30200Y135300D02*Y125700D01*
X39800D01*
Y135300D01*
X30200D01*
G37*
G54D82*X45000Y130500D03*
X55000D03*
G54D83*X16000Y117000D03*
G54D81*G36*
X168200Y124300D02*Y117700D01*
X174800D01*
Y124300D01*
X168200D01*
G37*
G54D84*X171500Y141000D03*
G54D81*G36*
X174450Y109550D02*Y103450D01*
X180550D01*
Y109550D01*
X174450D01*
G37*
G54D89*X177500Y86500D03*
G54D81*G36*
X157450Y109550D02*Y103450D01*
X163550D01*
Y109550D01*
X157450D01*
G37*
G54D89*X160500Y86500D03*
G54D81*G36*
X184950Y109550D02*Y103450D01*
X191050D01*
Y109550D01*
X184950D01*
G37*
G54D89*X188000Y86500D03*
G54D81*G36*
X157200Y69300D02*Y62700D01*
X163800D01*
Y69300D01*
X157200D01*
G37*
G54D90*X173000Y65000D03*
X183000D03*
X193000D03*
X203000D03*
G54D84*X160500Y76000D03*
G54D91*X168000Y40000D03*
G54D92*X159457Y27992D03*
G54D90*X178000Y75000D03*
X188000D03*
G54D91*X213000Y40000D03*
G54D92*X221465Y27992D03*
G54D90*X198000Y75000D03*
X208000D03*
G54D81*G36*
X174700Y57800D02*Y51200D01*
X181300D01*
Y57800D01*
X174700D01*
G37*
G54D84*X188000Y54500D03*
X198000D03*
G54D93*X20500Y343000D02*X24500D01*
X20500Y321200D02*X24500D01*
X45500Y343000D02*X49500D01*
X45500Y321200D02*X49500D01*
X93800Y345000D02*Y341000D01*
X72000Y345000D02*Y341000D01*
Y320000D02*Y316000D01*
X116000Y343000D02*X120000D01*
X93800Y320000D02*Y316000D01*
X116000Y321200D02*X120000D01*
G54D94*X65500Y262772D02*Y259228D01*
G54D95*X61661Y266610D02*X69339D01*
X61661Y255390D02*X69339D01*
Y266610D02*Y255390D01*
X61661Y266610D02*Y255390D01*
G54D94*X65500Y242299D02*Y238756D01*
G54D95*X61661Y234917D02*X69339D01*
Y246138D02*Y234917D01*
X61661Y246138D02*Y234917D01*
Y246138D02*X69339D01*
G54D96*X116500Y248255D02*Y242745D01*
X128310Y248255D02*Y242745D01*
G54D95*X84161Y241638D02*X91839D01*
G54D94*X88000Y258272D02*Y254728D01*
G54D95*X84161Y262110D02*X91839D01*
Y250890D01*
X84161Y262110D02*Y250890D01*
X91839D01*
G54D96*X209690Y305681D02*Y303319D01*
X221500Y305681D02*Y303319D01*
G54D97*X221500Y280893D02*Y280107D01*
X218352Y280893D02*Y280107D01*
G54D96*X193000Y335681D02*Y333319D01*
X204810Y335681D02*Y333319D01*
X193000Y345181D02*Y342819D01*
X204810Y345181D02*Y342819D01*
G54D94*X216500Y331772D02*Y328228D01*
G54D95*X212661Y324390D02*X220339D01*
X212661Y335610D02*X220339D01*
X212661D02*Y324390D01*
X220339Y335610D02*Y324390D01*
G54D94*X216500Y352244D02*Y348701D01*
G54D95*X212661Y356083D02*Y344862D01*
X220339Y356083D02*Y344862D01*
X212661D02*X220339D01*
X212661Y356083D02*X220339D01*
G54D94*X152000Y227299D02*Y223756D01*
Y247772D02*Y244228D01*
G54D95*X148161Y240390D02*X155839D01*
X148161Y251610D02*X155839D01*
X148161D02*Y240390D01*
X155839Y251610D02*Y240390D01*
X148161Y219917D02*X155839D01*
G54D94*X204000Y225299D02*Y221756D01*
G54D95*X200161Y229138D02*X207839D01*
X200161Y217917D02*X207839D01*
Y229138D02*Y217917D01*
X200161Y229138D02*Y217917D01*
X148161Y231138D02*X155839D01*
G54D96*X165745Y233690D02*X171255D01*
X165745Y245500D02*X171255D01*
G54D95*X148161Y231138D02*Y219917D01*
X155839Y231138D02*Y219917D01*
G54D96*X166190Y287255D02*Y281745D01*
X178000Y287255D02*Y281745D01*
G54D94*X204000Y245772D02*Y242228D01*
G54D95*X200161Y249610D02*X207839D01*
X200161Y238390D02*X207839D01*
Y249610D02*Y238390D01*
X200161Y249610D02*Y238390D01*
G54D96*X135000Y155681D02*Y153319D01*
X115500Y155681D02*Y153319D01*
X127310Y155681D02*Y153319D01*
G54D94*X119228Y139500D02*X122772D01*
G54D95*X115390Y143339D02*X126610D01*
Y135661D01*
X115390Y143339D02*Y135661D01*
G54D98*X116500Y109492D02*Y108508D01*
X121618Y109492D02*Y108508D01*
G54D95*X115390Y135661D02*X126610D01*
G54D99*X120250Y176500D02*X126750D01*
X120250Y171500D02*X126750D01*
X120250Y166500D02*X126750D01*
X120250Y161500D02*X126750D01*
G54D94*X139701Y139500D02*X143244D01*
G54D95*X147083Y143339D02*Y135661D01*
X135862Y143339D02*Y135661D01*
X147083D01*
X135862Y143339D02*X147083D01*
G54D96*X146810Y155681D02*Y153319D01*
G54D99*X140750Y161500D02*X147250D01*
X140750Y166500D02*X147250D01*
X140750Y171500D02*X147250D01*
G54D96*X153819Y169310D02*X156181D01*
G54D99*X140750Y176500D02*X147250D01*
G54D96*X153819Y176690D02*X156181D01*
G54D94*X169000Y185054D02*Y181511D01*
G54D95*X165161Y188893D02*X172839D01*
X165161Y177672D02*X172839D01*
Y188893D02*Y177672D01*
X165161Y188893D02*Y177672D01*
G54D96*X153819Y188500D02*X156181D01*
G54D94*X169000Y164581D02*Y161038D01*
G54D95*X165161Y168420D02*X172839D01*
Y157200D01*
X165161Y168420D02*Y157200D01*
X172839D01*
G54D96*X153819Y157500D02*X156181D01*
X26810Y253681D02*Y251319D01*
X15000Y253681D02*Y251319D01*
G54D98*X20118Y260992D02*Y260008D01*
X15000Y260992D02*Y260008D01*
G54D94*X88000Y237799D02*Y234256D01*
G54D95*X84161Y230417D02*X91839D01*
Y241638D02*Y230417D01*
X84161Y241638D02*Y230417D01*
G54D96*X84690Y223755D02*Y218245D01*
X96500Y223755D02*Y218245D01*
X24190Y195255D02*Y189745D01*
X36000Y195255D02*Y189745D01*
X15819Y183190D02*X18181D01*
X15819Y195000D02*X18181D01*
G54D94*X29228Y170500D02*X32772D01*
G54D95*X25390Y174339D02*Y166661D01*
X36610Y174339D02*Y166661D01*
X25390Y174339D02*X36610D01*
X25390Y166661D02*X36610D01*
G54D94*X49701Y170500D02*X53244D01*
G54D95*X45862Y174339D02*Y166661D01*
X57083Y174339D02*Y166661D01*
X45862Y174339D02*X57083D01*
X45862Y166661D02*X57083D01*
G54D96*X19304Y109393D02*Y108607D01*
X26390Y109393D02*Y108607D01*
X33080Y109255D02*Y103745D01*
G54D94*X20118Y91000D02*X23661D01*
G54D95*X16280Y94839D02*Y87161D01*
X27500Y94839D02*Y87161D01*
X16280Y94839D02*X27500D01*
X16280Y87161D02*X27500D01*
G54D96*X44890Y109255D02*Y103745D01*
G54D94*X60890Y111244D02*Y107701D01*
G54D95*X57051Y115083D02*X64728D01*
X57051Y103862D02*X64728D01*
Y115083D02*Y103862D01*
X57051Y115083D02*Y103862D01*
G54D94*X40591Y91000D02*X44134D01*
G54D95*X36752Y94839D02*Y87161D01*
X47972Y94839D02*Y87161D01*
X36752Y94839D02*X47972D01*
X36752Y87161D02*X47972D01*
G54D94*X60890Y90772D02*Y87228D01*
G54D95*X57051Y94610D02*X64728D01*
X57051Y83390D02*X64728D01*
Y94610D02*Y83390D01*
X57051Y94610D02*Y83390D01*
G54D100*X76900Y50000D02*Y47600D01*
X83000Y50000D02*Y47600D01*
X89100Y50000D02*Y47600D01*
G54D101*X80000Y61000D02*X86000D01*
G54D96*X90086Y40393D02*Y39607D01*
X83000Y40393D02*Y39607D01*
X101607Y40414D02*X102393D01*
X101607Y47500D02*X102393D01*
M02*
