G04 start of page 3 for group 1 idx 1 *
G04 Title: (unknown), bottom *
G04 Creator: pcb 1.99z *
G04 CreationDate: Thu 18 Dec 2014 06:06:48 AM GMT UTC *
G04 For: commonadmin *
G04 Format: Gerber/RS-274X *
G04 PCB-Dimensions (mil): 2350.00 3800.00 *
G04 PCB-Coordinate-Origin: lower left *
%MOIN*%
%FSLAX25Y25*%
%LNBOTTOM*%
%ADD67C,0.0280*%
%ADD66C,0.0630*%
%ADD65C,0.1280*%
%ADD64C,0.0354*%
%ADD63C,0.0512*%
%ADD62C,0.0380*%
%ADD61C,0.1300*%
%ADD60C,0.0300*%
%ADD59C,0.0200*%
%ADD58C,0.0250*%
%ADD57C,0.0400*%
%ADD56C,0.0827*%
%ADD55C,0.1476*%
%ADD54C,0.0551*%
%ADD53C,0.0550*%
%ADD52C,0.0800*%
%ADD51C,0.0750*%
%ADD50C,0.0720*%
%ADD49C,0.1500*%
%ADD48C,0.0600*%
%ADD47C,0.0500*%
%ADD46C,0.0900*%
%ADD45C,0.0150*%
%ADD44C,0.0001*%
G54D44*G36*
X87486Y91000D02*X95100D01*
X94768Y90863D01*
X93962Y90369D01*
X93244Y89756D01*
X92631Y89038D01*
X92137Y88232D01*
X91776Y87360D01*
X91556Y86442D01*
X91481Y85500D01*
X91556Y84558D01*
X91776Y83640D01*
X92137Y82768D01*
X92631Y81962D01*
X93244Y81244D01*
X93962Y80631D01*
X94768Y80137D01*
X95640Y79776D01*
X96558Y79556D01*
X97500Y79481D01*
X98442Y79556D01*
X99360Y79776D01*
X100232Y80137D01*
X101038Y80631D01*
X101756Y81244D01*
X102369Y81962D01*
X102863Y82768D01*
X103224Y83640D01*
X103444Y84558D01*
X103500Y85500D01*
X103444Y86442D01*
X103224Y87360D01*
X102863Y88232D01*
X102369Y89038D01*
X101756Y89756D01*
X101038Y90369D01*
X100232Y90863D01*
X99900Y91000D01*
X149500D01*
Y8500D01*
X87486D01*
Y9473D01*
X87500Y9472D01*
X88912Y9583D01*
X90290Y9914D01*
X91599Y10456D01*
X92806Y11196D01*
X93884Y12116D01*
X94804Y13194D01*
X95544Y14401D01*
X96086Y15710D01*
X96417Y17088D01*
X96500Y18500D01*
X96417Y19912D01*
X96086Y21290D01*
X95544Y22599D01*
X94804Y23806D01*
X93884Y24884D01*
X92806Y25804D01*
X91599Y26544D01*
X90290Y27086D01*
X88912Y27417D01*
X87500Y27528D01*
X87486Y27527D01*
Y91000D01*
G37*
G36*
X44986D02*X71881D01*
X71783Y90884D01*
X71659Y90683D01*
X71569Y90465D01*
X71514Y90235D01*
X71500Y90000D01*
X71514Y80765D01*
X71569Y80535D01*
X71659Y80317D01*
X71783Y80116D01*
X71936Y79936D01*
X72116Y79783D01*
X72317Y79659D01*
X72535Y79569D01*
X72765Y79514D01*
X73000Y79500D01*
X82235Y79514D01*
X82465Y79569D01*
X82683Y79659D01*
X82884Y79783D01*
X83064Y79936D01*
X83217Y80116D01*
X83341Y80317D01*
X83431Y80535D01*
X83486Y80765D01*
X83500Y81000D01*
X83486Y90235D01*
X83431Y90465D01*
X83341Y90683D01*
X83217Y90884D01*
X83119Y91000D01*
X87486D01*
Y27527D01*
X86088Y27417D01*
X84710Y27086D01*
X83401Y26544D01*
X82194Y25804D01*
X81116Y24884D01*
X80196Y23806D01*
X79456Y22599D01*
X78914Y21290D01*
X78583Y19912D01*
X78472Y18500D01*
X78583Y17088D01*
X78914Y15710D01*
X79456Y14401D01*
X80196Y13194D01*
X81116Y12116D01*
X82194Y11196D01*
X83401Y10456D01*
X84710Y9914D01*
X86088Y9583D01*
X87486Y9473D01*
Y8500D01*
X44986D01*
Y54473D01*
X45000Y54472D01*
X46412Y54583D01*
X47790Y54914D01*
X49099Y55456D01*
X50306Y56196D01*
X51384Y57116D01*
X52304Y58194D01*
X53044Y59401D01*
X53586Y60710D01*
X53917Y62088D01*
X54000Y63500D01*
X53917Y64912D01*
X53586Y66290D01*
X53044Y67599D01*
X52304Y68806D01*
X51384Y69884D01*
X50306Y70804D01*
X49099Y71544D01*
X47790Y72086D01*
X46412Y72417D01*
X45000Y72528D01*
X44986Y72527D01*
Y91000D01*
G37*
G36*
X8500Y8500D02*Y91000D01*
X44986D01*
Y72527D01*
X43588Y72417D01*
X42210Y72086D01*
X40901Y71544D01*
X39694Y70804D01*
X38616Y69884D01*
X37696Y68806D01*
X36956Y67599D01*
X36414Y66290D01*
X36083Y64912D01*
X35972Y63500D01*
X36083Y62088D01*
X36414Y60710D01*
X36956Y59401D01*
X37696Y58194D01*
X38616Y57116D01*
X39694Y56196D01*
X40901Y55456D01*
X42210Y54914D01*
X43588Y54583D01*
X44986Y54473D01*
Y8500D01*
X8500D01*
G37*
G36*
X214500Y362500D02*X225000D01*
Y88500D01*
X214500D01*
Y265414D01*
X215374Y265483D01*
X216226Y265688D01*
X217036Y266023D01*
X217783Y266481D01*
X218450Y267050D01*
X219019Y267717D01*
X219477Y268464D01*
X219812Y269274D01*
X220017Y270126D01*
X220068Y271000D01*
X220017Y271874D01*
X219812Y272726D01*
X219477Y273536D01*
X219019Y274283D01*
X218450Y274950D01*
X217783Y275519D01*
X217036Y275977D01*
X216226Y276312D01*
X215374Y276517D01*
X214500Y276586D01*
Y283007D01*
X217235Y283014D01*
X217465Y283069D01*
X217683Y283159D01*
X217884Y283283D01*
X218064Y283436D01*
X218217Y283616D01*
X218341Y283817D01*
X218431Y284035D01*
X218486Y284265D01*
X218500Y284500D01*
X218486Y289735D01*
X218431Y289965D01*
X218341Y290183D01*
X218217Y290384D01*
X218064Y290564D01*
X217884Y290717D01*
X217683Y290841D01*
X217465Y290931D01*
X217235Y290986D01*
X217000Y291000D01*
X214500Y290993D01*
Y362500D01*
G37*
G36*
X200000D02*X214500D01*
Y290993D01*
X211765Y290986D01*
X211535Y290931D01*
X211317Y290841D01*
X211116Y290717D01*
X210936Y290564D01*
X210783Y290384D01*
X210659Y290183D01*
X210569Y289965D01*
X210514Y289735D01*
X210500Y289500D01*
X210514Y284265D01*
X210569Y284035D01*
X210659Y283817D01*
X210783Y283616D01*
X210936Y283436D01*
X211116Y283283D01*
X211317Y283159D01*
X211535Y283069D01*
X211765Y283014D01*
X212000Y283000D01*
X214500Y283007D01*
Y276586D01*
X213626Y276517D01*
X212774Y276312D01*
X211964Y275977D01*
X211217Y275519D01*
X210550Y274950D01*
X209981Y274283D01*
X209523Y273536D01*
X209188Y272726D01*
X208983Y271874D01*
X208914Y271000D01*
X208983Y270126D01*
X209188Y269274D01*
X209523Y268464D01*
X209981Y267717D01*
X210550Y267050D01*
X211217Y266481D01*
X211964Y266023D01*
X212774Y265688D01*
X213626Y265483D01*
X214500Y265414D01*
Y88500D01*
X200000D01*
Y260056D01*
X200017Y260126D01*
X200068Y261000D01*
X200017Y261874D01*
X200000Y261944D01*
Y269007D01*
X203235Y269014D01*
X203465Y269069D01*
X203683Y269159D01*
X203884Y269283D01*
X204064Y269436D01*
X204217Y269616D01*
X204341Y269817D01*
X204431Y270035D01*
X204486Y270265D01*
X204500Y270500D01*
X204486Y276735D01*
X204431Y276965D01*
X204341Y277183D01*
X204217Y277384D01*
X204064Y277564D01*
X203884Y277717D01*
X203683Y277841D01*
X203465Y277931D01*
X203235Y277986D01*
X203000Y278000D01*
X200000Y277993D01*
Y304600D01*
X200224Y305140D01*
X200444Y306058D01*
X200500Y307000D01*
X200444Y307942D01*
X200224Y308860D01*
X200000Y309400D01*
Y320501D01*
X205735Y320514D01*
X205965Y320569D01*
X206183Y320659D01*
X206384Y320783D01*
X206564Y320936D01*
X206717Y321116D01*
X206841Y321317D01*
X206931Y321535D01*
X206986Y321765D01*
X207000Y322000D01*
X206986Y328235D01*
X206931Y328465D01*
X206841Y328683D01*
X206717Y328884D01*
X206564Y329064D01*
X206384Y329217D01*
X206183Y329341D01*
X205965Y329431D01*
X205735Y329486D01*
X205500Y329500D01*
X200000Y329488D01*
Y351254D01*
X200451Y350978D01*
X201105Y350707D01*
X201794Y350542D01*
X202500Y350486D01*
X203206Y350542D01*
X203895Y350707D01*
X204549Y350978D01*
X205153Y351348D01*
X205692Y351808D01*
X206152Y352347D01*
X206522Y352951D01*
X206793Y353605D01*
X206958Y354294D01*
X207000Y355000D01*
X206958Y355706D01*
X206793Y356395D01*
X206522Y357049D01*
X206152Y357653D01*
X205692Y358192D01*
X205153Y358652D01*
X204549Y359022D01*
X203895Y359293D01*
X203206Y359458D01*
X202500Y359514D01*
X201794Y359458D01*
X201105Y359293D01*
X200451Y359022D01*
X200000Y358746D01*
Y362500D01*
G37*
G36*
Y309400D02*X199863Y309732D01*
X199369Y310538D01*
X198756Y311256D01*
X198038Y311869D01*
X197232Y312363D01*
X196360Y312724D01*
X195442Y312944D01*
X194500Y313019D01*
X194491Y313018D01*
Y352750D01*
X198601D01*
X198848Y352347D01*
X199308Y351808D01*
X199847Y351348D01*
X200000Y351254D01*
Y329488D01*
X199265Y329486D01*
X199035Y329431D01*
X198817Y329341D01*
X198616Y329217D01*
X198436Y329064D01*
X198283Y328884D01*
X198159Y328683D01*
X198069Y328465D01*
X198014Y328235D01*
X198000Y328000D01*
X198014Y321765D01*
X198069Y321535D01*
X198159Y321317D01*
X198283Y321116D01*
X198436Y320936D01*
X198616Y320783D01*
X198817Y320659D01*
X199035Y320569D01*
X199265Y320514D01*
X199500Y320500D01*
X200000Y320501D01*
Y309400D01*
G37*
G36*
Y261944D02*X199812Y262726D01*
X199477Y263536D01*
X199019Y264283D01*
X198450Y264950D01*
X197783Y265519D01*
X197036Y265977D01*
X196226Y266312D01*
X195374Y266517D01*
X194500Y266586D01*
X194491Y266585D01*
Y300982D01*
X194500Y300981D01*
X195442Y301056D01*
X196360Y301276D01*
X197232Y301637D01*
X198038Y302131D01*
X198756Y302744D01*
X199369Y303462D01*
X199863Y304268D01*
X200000Y304600D01*
Y277993D01*
X196765Y277986D01*
X196535Y277931D01*
X196317Y277841D01*
X196116Y277717D01*
X195936Y277564D01*
X195783Y277384D01*
X195659Y277183D01*
X195569Y276965D01*
X195514Y276735D01*
X195500Y276500D01*
X195514Y270265D01*
X195569Y270035D01*
X195659Y269817D01*
X195783Y269616D01*
X195936Y269436D01*
X196116Y269283D01*
X196317Y269159D01*
X196535Y269069D01*
X196765Y269014D01*
X197000Y269000D01*
X200000Y269007D01*
Y261944D01*
G37*
G36*
Y88500D02*X194491D01*
Y152507D01*
X197735Y152514D01*
X197965Y152569D01*
X198183Y152659D01*
X198384Y152783D01*
X198564Y152936D01*
X198717Y153116D01*
X198841Y153317D01*
X198931Y153535D01*
X198986Y153765D01*
X199000Y154000D01*
X198986Y160235D01*
X198931Y160465D01*
X198841Y160683D01*
X198717Y160884D01*
X198564Y161064D01*
X198384Y161217D01*
X198183Y161341D01*
X197965Y161431D01*
X197735Y161486D01*
X197500Y161500D01*
X194491Y161493D01*
Y172487D01*
X194500Y172486D01*
X195206Y172542D01*
X195895Y172707D01*
X196549Y172978D01*
X197153Y173348D01*
X197692Y173808D01*
X198152Y174347D01*
X198522Y174951D01*
X198793Y175605D01*
X198958Y176294D01*
X199000Y177000D01*
X198958Y177706D01*
X198793Y178395D01*
X198522Y179049D01*
X198152Y179653D01*
X197692Y180192D01*
X197153Y180652D01*
X196549Y181022D01*
X195895Y181293D01*
X195206Y181458D01*
X194500Y181514D01*
X194491Y181513D01*
Y255415D01*
X194500Y255414D01*
X195374Y255483D01*
X196226Y255688D01*
X197036Y256023D01*
X197783Y256481D01*
X198450Y257050D01*
X199019Y257717D01*
X199477Y258464D01*
X199812Y259274D01*
X200000Y260056D01*
Y88500D01*
G37*
G36*
X194491Y362500D02*X200000D01*
Y358746D01*
X199847Y358652D01*
X199308Y358192D01*
X198848Y357653D01*
X198601Y357250D01*
X194491D01*
Y362500D01*
G37*
G36*
Y313018D02*X193558Y312944D01*
X192640Y312724D01*
X191768Y312363D01*
X190962Y311869D01*
X190244Y311256D01*
X189631Y310538D01*
X189500Y310324D01*
X189369Y310538D01*
X188756Y311256D01*
X188038Y311869D01*
X187232Y312363D01*
X186360Y312724D01*
X186000Y312810D01*
Y352750D01*
X194491D01*
Y313018D01*
G37*
G36*
Y88500D02*X191759D01*
X191449Y89006D01*
X191014Y89514D01*
X190506Y89949D01*
X189935Y90298D01*
X189317Y90554D01*
X188667Y90711D01*
X188000Y90763D01*
X187333Y90711D01*
X186683Y90554D01*
X186065Y90298D01*
X186000Y90259D01*
Y102252D01*
X190985Y102264D01*
X191215Y102319D01*
X191433Y102409D01*
X191634Y102533D01*
X191814Y102686D01*
X191967Y102866D01*
X192091Y103067D01*
X192181Y103285D01*
X192236Y103515D01*
X192250Y103750D01*
X192236Y109485D01*
X192181Y109715D01*
X192091Y109933D01*
X191967Y110134D01*
X191814Y110314D01*
X191634Y110467D01*
X191433Y110591D01*
X191215Y110681D01*
X190985Y110736D01*
X190750Y110750D01*
X186000Y110738D01*
Y184488D01*
X186628Y184537D01*
X187240Y184684D01*
X187822Y184925D01*
X188358Y185254D01*
X188837Y185663D01*
X189246Y186142D01*
X189575Y186678D01*
X189816Y187260D01*
X189963Y187872D01*
X190000Y188500D01*
X189963Y189128D01*
X189816Y189740D01*
X189575Y190322D01*
X189246Y190858D01*
X188837Y191337D01*
X188358Y191746D01*
X187822Y192075D01*
X187240Y192316D01*
X186628Y192463D01*
X186000Y192512D01*
Y214507D01*
X188735Y214514D01*
X188965Y214569D01*
X189183Y214659D01*
X189384Y214783D01*
X189564Y214936D01*
X189717Y215116D01*
X189841Y215317D01*
X189931Y215535D01*
X189986Y215765D01*
X190000Y216000D01*
X189986Y221235D01*
X189931Y221465D01*
X189841Y221683D01*
X189717Y221884D01*
X189564Y222064D01*
X189384Y222217D01*
X189183Y222341D01*
X188965Y222431D01*
X188735Y222486D01*
X188500Y222500D01*
X186000Y222493D01*
Y231104D01*
X187290Y231414D01*
X188599Y231956D01*
X189806Y232696D01*
X190884Y233616D01*
X191804Y234694D01*
X192544Y235901D01*
X193086Y237210D01*
X193417Y238588D01*
X193500Y240000D01*
X193417Y241412D01*
X193086Y242790D01*
X192544Y244099D01*
X191804Y245306D01*
X190884Y246384D01*
X189806Y247304D01*
X188599Y248044D01*
X187290Y248586D01*
X186000Y248896D01*
Y283292D01*
X186322Y283425D01*
X186858Y283754D01*
X187337Y284163D01*
X187746Y284642D01*
X188075Y285178D01*
X188316Y285760D01*
X188463Y286372D01*
X188500Y287000D01*
X188463Y287628D01*
X188316Y288240D01*
X188075Y288822D01*
X187746Y289358D01*
X187337Y289837D01*
X186858Y290246D01*
X186322Y290575D01*
X186000Y290708D01*
Y291511D01*
X187235Y291514D01*
X187465Y291569D01*
X187683Y291659D01*
X187884Y291783D01*
X188064Y291936D01*
X188217Y292116D01*
X188341Y292317D01*
X188431Y292535D01*
X188486Y292765D01*
X188500Y293000D01*
X188486Y298235D01*
X188431Y298465D01*
X188341Y298683D01*
X188217Y298884D01*
X188064Y299064D01*
X187884Y299217D01*
X187683Y299341D01*
X187465Y299431D01*
X187235Y299486D01*
X187000Y299500D01*
X186000Y299497D01*
Y301190D01*
X186360Y301276D01*
X187232Y301637D01*
X188038Y302131D01*
X188756Y302744D01*
X189369Y303462D01*
X189500Y303676D01*
X189631Y303462D01*
X190244Y302744D01*
X190962Y302131D01*
X191768Y301637D01*
X192640Y301276D01*
X193558Y301056D01*
X194491Y300982D01*
Y266585D01*
X193626Y266517D01*
X192774Y266312D01*
X191964Y265977D01*
X191217Y265519D01*
X190550Y264950D01*
X189981Y264283D01*
X189523Y263536D01*
X189188Y262726D01*
X188983Y261874D01*
X188914Y261000D01*
X188983Y260126D01*
X189188Y259274D01*
X189523Y258464D01*
X189981Y257717D01*
X190550Y257050D01*
X191217Y256481D01*
X191964Y256023D01*
X192774Y255688D01*
X193626Y255483D01*
X194491Y255415D01*
Y181513D01*
X193794Y181458D01*
X193105Y181293D01*
X192451Y181022D01*
X191847Y180652D01*
X191308Y180192D01*
X190848Y179653D01*
X190478Y179049D01*
X190207Y178395D01*
X190042Y177706D01*
X189986Y177000D01*
X190042Y176294D01*
X190207Y175605D01*
X190478Y174951D01*
X190848Y174347D01*
X191308Y173808D01*
X191847Y173348D01*
X192451Y172978D01*
X193105Y172707D01*
X193794Y172542D01*
X194491Y172487D01*
Y161493D01*
X191265Y161486D01*
X191035Y161431D01*
X190817Y161341D01*
X190616Y161217D01*
X190436Y161064D01*
X190283Y160884D01*
X190159Y160683D01*
X190069Y160465D01*
X190014Y160235D01*
X190000Y160000D01*
X190014Y153765D01*
X190069Y153535D01*
X190159Y153317D01*
X190283Y153116D01*
X190436Y152936D01*
X190616Y152783D01*
X190817Y152659D01*
X191035Y152569D01*
X191265Y152514D01*
X191500Y152500D01*
X194491Y152507D01*
Y88500D01*
G37*
G36*
X186000Y362500D02*X194491D01*
Y357250D01*
X186000D01*
Y362500D01*
G37*
G36*
X174500Y343318D02*X183932Y352750D01*
X186000D01*
Y312810D01*
X185442Y312944D01*
X184500Y313019D01*
X183558Y312944D01*
X182640Y312724D01*
X181768Y312363D01*
X180962Y311869D01*
X180487Y311463D01*
X180486Y311735D01*
X180431Y311965D01*
X180341Y312183D01*
X180217Y312384D01*
X180064Y312564D01*
X179884Y312717D01*
X179683Y312841D01*
X179465Y312931D01*
X179235Y312986D01*
X179000Y313000D01*
X174500Y312993D01*
Y343318D01*
G37*
G36*
X186000Y90259D02*X185494Y89949D01*
X184986Y89514D01*
X184551Y89006D01*
X184241Y88500D01*
X181259D01*
X180949Y89006D01*
X180514Y89514D01*
X180006Y89949D01*
X179435Y90298D01*
X178817Y90554D01*
X178167Y90711D01*
X177500Y90763D01*
X176833Y90711D01*
X176183Y90554D01*
X175565Y90298D01*
X174994Y89949D01*
X174500Y89527D01*
Y102267D01*
X174515Y102264D01*
X174750Y102250D01*
X180485Y102264D01*
X180715Y102319D01*
X180933Y102409D01*
X181134Y102533D01*
X181314Y102686D01*
X181467Y102866D01*
X181591Y103067D01*
X181681Y103285D01*
X181736Y103515D01*
X181750Y103750D01*
X181736Y109485D01*
X181681Y109715D01*
X181591Y109933D01*
X181467Y110134D01*
X181314Y110314D01*
X181134Y110467D01*
X180933Y110591D01*
X180715Y110681D01*
X180485Y110736D01*
X180250Y110750D01*
X174515Y110736D01*
X174500Y110733D01*
Y116513D01*
X174735Y116514D01*
X174965Y116569D01*
X175183Y116659D01*
X175384Y116783D01*
X175564Y116936D01*
X175717Y117116D01*
X175841Y117317D01*
X175931Y117535D01*
X175986Y117765D01*
X176000Y118000D01*
X175986Y124235D01*
X175931Y124465D01*
X175841Y124683D01*
X175717Y124884D01*
X175564Y125064D01*
X175384Y125217D01*
X175183Y125341D01*
X174965Y125431D01*
X174735Y125486D01*
X174500Y125500D01*
Y257007D01*
X177735Y257014D01*
X177965Y257069D01*
X178183Y257159D01*
X178384Y257283D01*
X178564Y257436D01*
X178717Y257616D01*
X178841Y257817D01*
X178931Y258035D01*
X178986Y258265D01*
X179000Y258500D01*
X178986Y264735D01*
X178931Y264965D01*
X178841Y265183D01*
X178717Y265384D01*
X178564Y265564D01*
X178384Y265717D01*
X178183Y265841D01*
X177965Y265931D01*
X177735Y265986D01*
X177500Y266000D01*
X174500Y265993D01*
Y301007D01*
X179235Y301014D01*
X179465Y301069D01*
X179683Y301159D01*
X179884Y301283D01*
X180064Y301436D01*
X180217Y301616D01*
X180341Y301817D01*
X180431Y302035D01*
X180486Y302265D01*
X180500Y302500D01*
X180500Y302526D01*
X180962Y302131D01*
X181768Y301637D01*
X182640Y301276D01*
X183558Y301056D01*
X184500Y300981D01*
X185442Y301056D01*
X186000Y301190D01*
Y299497D01*
X181765Y299486D01*
X181535Y299431D01*
X181317Y299341D01*
X181116Y299217D01*
X180936Y299064D01*
X180783Y298884D01*
X180659Y298683D01*
X180569Y298465D01*
X180514Y298235D01*
X180500Y298000D01*
X180514Y292765D01*
X180569Y292535D01*
X180659Y292317D01*
X180783Y292116D01*
X180936Y291936D01*
X181116Y291783D01*
X181317Y291659D01*
X181535Y291569D01*
X181765Y291514D01*
X182000Y291500D01*
X186000Y291511D01*
Y290708D01*
X185740Y290816D01*
X185128Y290963D01*
X184500Y291012D01*
X183872Y290963D01*
X183260Y290816D01*
X182678Y290575D01*
X182142Y290246D01*
X181663Y289837D01*
X181254Y289358D01*
X180925Y288822D01*
X180684Y288240D01*
X180537Y287628D01*
X180488Y287000D01*
X180537Y286372D01*
X180684Y285760D01*
X180925Y285178D01*
X181254Y284642D01*
X181663Y284163D01*
X182142Y283754D01*
X182678Y283425D01*
X183260Y283184D01*
X183872Y283037D01*
X184500Y282988D01*
X185128Y283037D01*
X185740Y283184D01*
X186000Y283292D01*
Y248896D01*
X185912Y248917D01*
X184500Y249028D01*
X183088Y248917D01*
X181710Y248586D01*
X180401Y248044D01*
X179194Y247304D01*
X178116Y246384D01*
X177196Y245306D01*
X176456Y244099D01*
X175914Y242790D01*
X175583Y241412D01*
X175472Y240000D01*
X175583Y238588D01*
X175914Y237210D01*
X176456Y235901D01*
X177196Y234694D01*
X178116Y233616D01*
X179194Y232696D01*
X180401Y231956D01*
X181710Y231414D01*
X183088Y231083D01*
X184500Y230972D01*
X185912Y231083D01*
X186000Y231104D01*
Y222493D01*
X183265Y222486D01*
X183035Y222431D01*
X182817Y222341D01*
X182616Y222217D01*
X182436Y222064D01*
X182283Y221884D01*
X182159Y221683D01*
X182069Y221465D01*
X182014Y221235D01*
X182000Y221000D01*
X182014Y215765D01*
X182069Y215535D01*
X182159Y215317D01*
X182283Y215116D01*
X182436Y214936D01*
X182616Y214783D01*
X182817Y214659D01*
X183035Y214569D01*
X183265Y214514D01*
X183500Y214500D01*
X186000Y214507D01*
Y192512D01*
X185372Y192463D01*
X184760Y192316D01*
X184178Y192075D01*
X183642Y191746D01*
X183163Y191337D01*
X182754Y190858D01*
X182425Y190322D01*
X182184Y189740D01*
X182037Y189128D01*
X181988Y188500D01*
X182037Y187872D01*
X182184Y187260D01*
X182425Y186678D01*
X182754Y186142D01*
X183163Y185663D01*
X183642Y185254D01*
X184178Y184925D01*
X184760Y184684D01*
X185372Y184537D01*
X186000Y184488D01*
Y110738D01*
X185015Y110736D01*
X184785Y110681D01*
X184567Y110591D01*
X184366Y110467D01*
X184186Y110314D01*
X184033Y110134D01*
X183909Y109933D01*
X183819Y109715D01*
X183764Y109485D01*
X183750Y109250D01*
X183764Y103515D01*
X183819Y103285D01*
X183909Y103067D01*
X184033Y102866D01*
X184186Y102686D01*
X184366Y102533D01*
X184567Y102409D01*
X184785Y102319D01*
X185015Y102264D01*
X185250Y102250D01*
X186000Y102252D01*
Y90259D01*
G37*
G36*
X174500Y89527D02*X174486Y89514D01*
X174051Y89006D01*
X173741Y88500D01*
X164500D01*
Y102919D01*
X164591Y103067D01*
X164681Y103285D01*
X164736Y103515D01*
X164750Y103750D01*
X164736Y109485D01*
X164681Y109715D01*
X164591Y109933D01*
X164500Y110081D01*
Y256986D01*
X165206Y257042D01*
X165895Y257207D01*
X166549Y257478D01*
X167153Y257848D01*
X167692Y258308D01*
X168152Y258847D01*
X168522Y259451D01*
X168793Y260105D01*
X168958Y260794D01*
X169000Y261500D01*
X168958Y262206D01*
X168793Y262895D01*
X168522Y263549D01*
X168152Y264153D01*
X167692Y264692D01*
X167153Y265152D01*
X166674Y265446D01*
X168409Y265450D01*
X168710Y265522D01*
X168996Y265641D01*
X169261Y265803D01*
X169496Y266004D01*
X169697Y266239D01*
X169859Y266504D01*
X169978Y266790D01*
X170050Y267091D01*
X170068Y267400D01*
X170050Y274909D01*
X169978Y275210D01*
X169859Y275496D01*
X169697Y275761D01*
X169496Y275996D01*
X169261Y276197D01*
X168996Y276359D01*
X168710Y276478D01*
X168409Y276550D01*
X168100Y276568D01*
X164500Y276560D01*
Y333318D01*
X174500Y343318D01*
Y312993D01*
X169765Y312986D01*
X169535Y312931D01*
X169317Y312841D01*
X169116Y312717D01*
X168936Y312564D01*
X168783Y312384D01*
X168659Y312183D01*
X168569Y311965D01*
X168514Y311735D01*
X168500Y311500D01*
X168514Y302265D01*
X168569Y302035D01*
X168659Y301817D01*
X168783Y301616D01*
X168936Y301436D01*
X169116Y301283D01*
X169317Y301159D01*
X169535Y301069D01*
X169765Y301014D01*
X170000Y301000D01*
X174500Y301007D01*
Y265993D01*
X171265Y265986D01*
X171035Y265931D01*
X170817Y265841D01*
X170616Y265717D01*
X170436Y265564D01*
X170283Y265384D01*
X170159Y265183D01*
X170069Y264965D01*
X170014Y264735D01*
X170000Y264500D01*
X170014Y258265D01*
X170069Y258035D01*
X170159Y257817D01*
X170283Y257616D01*
X170436Y257436D01*
X170616Y257283D01*
X170817Y257159D01*
X171035Y257069D01*
X171265Y257014D01*
X171500Y257000D01*
X174500Y257007D01*
Y125500D01*
X168265Y125486D01*
X168035Y125431D01*
X167817Y125341D01*
X167616Y125217D01*
X167436Y125064D01*
X167283Y124884D01*
X167159Y124683D01*
X167069Y124465D01*
X167014Y124235D01*
X167000Y124000D01*
X167014Y117765D01*
X167069Y117535D01*
X167159Y117317D01*
X167283Y117116D01*
X167436Y116936D01*
X167616Y116783D01*
X167817Y116659D01*
X168035Y116569D01*
X168265Y116514D01*
X168500Y116500D01*
X174500Y116513D01*
Y110733D01*
X174285Y110681D01*
X174067Y110591D01*
X173866Y110467D01*
X173686Y110314D01*
X173533Y110134D01*
X173409Y109933D01*
X173319Y109715D01*
X173264Y109485D01*
X173250Y109250D01*
X173264Y103515D01*
X173319Y103285D01*
X173409Y103067D01*
X173533Y102866D01*
X173686Y102686D01*
X173866Y102533D01*
X174067Y102409D01*
X174285Y102319D01*
X174500Y102267D01*
Y89527D01*
G37*
G36*
X164500Y88500D02*X164259D01*
X163949Y89006D01*
X163514Y89514D01*
X163006Y89949D01*
X162435Y90298D01*
X161817Y90554D01*
X161167Y90711D01*
X160500Y90763D01*
X159833Y90711D01*
X159183Y90554D01*
X158565Y90298D01*
X157994Y89949D01*
X157486Y89514D01*
X157051Y89006D01*
X156741Y88500D01*
X152000D01*
Y202914D01*
X152874Y202983D01*
X153726Y203188D01*
X154536Y203523D01*
X155283Y203981D01*
X155950Y204550D01*
X156519Y205217D01*
X156977Y205964D01*
X157312Y206774D01*
X157517Y207626D01*
X157568Y208500D01*
X157517Y209374D01*
X157312Y210226D01*
X156977Y211036D01*
X156519Y211783D01*
X155950Y212450D01*
X155283Y213019D01*
X154536Y213477D01*
X153726Y213812D01*
X152874Y214017D01*
X152000Y214086D01*
Y277507D01*
X154735Y277514D01*
X154965Y277569D01*
X155183Y277659D01*
X155384Y277783D01*
X155564Y277936D01*
X155717Y278116D01*
X155841Y278317D01*
X155931Y278535D01*
X155986Y278765D01*
X156000Y279000D01*
X155986Y284235D01*
X155931Y284465D01*
X155841Y284683D01*
X155717Y284884D01*
X155564Y285064D01*
X155384Y285217D01*
X155183Y285341D01*
X154965Y285431D01*
X154735Y285486D01*
X154500Y285500D01*
X152000Y285493D01*
Y292375D01*
X152142Y292254D01*
X152678Y291925D01*
X153260Y291684D01*
X153872Y291537D01*
X154500Y291488D01*
X155128Y291537D01*
X155740Y291684D01*
X156322Y291925D01*
X156858Y292254D01*
X157337Y292663D01*
X157746Y293142D01*
X158075Y293678D01*
X158316Y294260D01*
X158463Y294872D01*
X158500Y295500D01*
X158463Y296128D01*
X158316Y296740D01*
X158075Y297322D01*
X157746Y297858D01*
X157337Y298337D01*
X156858Y298746D01*
X156322Y299075D01*
X155740Y299316D01*
X155128Y299463D01*
X154500Y299512D01*
X153872Y299463D01*
X153260Y299316D01*
X152678Y299075D01*
X152142Y298746D01*
X152000Y298625D01*
Y320612D01*
X152395Y320707D01*
X153049Y320978D01*
X153653Y321348D01*
X154192Y321808D01*
X154652Y322347D01*
X155022Y322951D01*
X155293Y323605D01*
X155458Y324294D01*
X155500Y325000D01*
X155458Y325706D01*
X155293Y326395D01*
X155022Y327049D01*
X154652Y327653D01*
X154192Y328192D01*
X153653Y328652D01*
X153049Y329022D01*
X152395Y329293D01*
X152000Y329388D01*
Y332250D01*
X162412D01*
X162500Y332243D01*
X162853Y332271D01*
X162853Y332271D01*
X163197Y332354D01*
X163525Y332489D01*
X163827Y332674D01*
X164096Y332904D01*
X164153Y332971D01*
X164500Y333318D01*
Y276560D01*
X160591Y276550D01*
X160290Y276478D01*
X160004Y276359D01*
X159739Y276197D01*
X159504Y275996D01*
X159303Y275761D01*
X159141Y275496D01*
X159022Y275210D01*
X158950Y274909D01*
X158932Y274600D01*
X158950Y267091D01*
X159022Y266790D01*
X159141Y266504D01*
X159303Y266239D01*
X159504Y266004D01*
X159739Y265803D01*
X160004Y265641D01*
X160290Y265522D01*
X160591Y265450D01*
X160900Y265432D01*
X162309Y265435D01*
X161847Y265152D01*
X161308Y264692D01*
X160848Y264153D01*
X160478Y263549D01*
X160207Y262895D01*
X160042Y262206D01*
X159986Y261500D01*
X160042Y260794D01*
X160207Y260105D01*
X160478Y259451D01*
X160848Y258847D01*
X161308Y258308D01*
X161847Y257848D01*
X162451Y257478D01*
X163105Y257207D01*
X163794Y257042D01*
X164500Y256986D01*
Y110081D01*
X164467Y110134D01*
X164314Y110314D01*
X164134Y110467D01*
X163933Y110591D01*
X163715Y110681D01*
X163485Y110736D01*
X163250Y110750D01*
X157515Y110736D01*
X157285Y110681D01*
X157067Y110591D01*
X156866Y110467D01*
X156686Y110314D01*
X156533Y110134D01*
X156409Y109933D01*
X156319Y109715D01*
X156264Y109485D01*
X156250Y109250D01*
X156264Y103515D01*
X156319Y103285D01*
X156409Y103067D01*
X156533Y102866D01*
X156686Y102686D01*
X156866Y102533D01*
X157067Y102409D01*
X157285Y102319D01*
X157515Y102264D01*
X157750Y102250D01*
X163485Y102264D01*
X163715Y102319D01*
X163933Y102409D01*
X164134Y102533D01*
X164314Y102686D01*
X164467Y102866D01*
X164500Y102919D01*
Y88500D01*
G37*
G36*
X152000D02*X144000D01*
Y179481D01*
X144942Y179556D01*
X145860Y179776D01*
X146732Y180137D01*
X147538Y180631D01*
X148256Y181244D01*
X148869Y181962D01*
X149363Y182768D01*
X149724Y183640D01*
X149944Y184558D01*
X150000Y185500D01*
X149944Y186442D01*
X149724Y187360D01*
X149363Y188232D01*
X148869Y189038D01*
X148256Y189756D01*
X147538Y190369D01*
X146732Y190863D01*
X145860Y191224D01*
X144942Y191444D01*
X144000Y191519D01*
Y267007D01*
X147235Y267014D01*
X147465Y267069D01*
X147683Y267159D01*
X147884Y267283D01*
X148064Y267436D01*
X148217Y267616D01*
X148341Y267817D01*
X148431Y268035D01*
X148486Y268265D01*
X148500Y268500D01*
X148486Y274735D01*
X148431Y274965D01*
X148341Y275183D01*
X148217Y275384D01*
X148064Y275564D01*
X147884Y275717D01*
X147683Y275841D01*
X147465Y275931D01*
X147235Y275986D01*
X147000Y276000D01*
X144000Y275993D01*
Y332250D01*
X152000D01*
Y329388D01*
X151706Y329458D01*
X151000Y329514D01*
X150294Y329458D01*
X149605Y329293D01*
X148951Y329022D01*
X148347Y328652D01*
X147808Y328192D01*
X147348Y327653D01*
X146978Y327049D01*
X146707Y326395D01*
X146542Y325706D01*
X146486Y325000D01*
X146542Y324294D01*
X146707Y323605D01*
X146978Y322951D01*
X147348Y322347D01*
X147808Y321808D01*
X148347Y321348D01*
X148951Y320978D01*
X149605Y320707D01*
X150294Y320542D01*
X151000Y320486D01*
X151706Y320542D01*
X152000Y320612D01*
Y298625D01*
X151663Y298337D01*
X151254Y297858D01*
X150925Y297322D01*
X150684Y296740D01*
X150537Y296128D01*
X150488Y295500D01*
X150537Y294872D01*
X150684Y294260D01*
X150925Y293678D01*
X151254Y293142D01*
X151663Y292663D01*
X152000Y292375D01*
Y285493D01*
X149265Y285486D01*
X149035Y285431D01*
X148817Y285341D01*
X148616Y285217D01*
X148436Y285064D01*
X148283Y284884D01*
X148159Y284683D01*
X148069Y284465D01*
X148014Y284235D01*
X148000Y284000D01*
X148014Y278765D01*
X148069Y278535D01*
X148159Y278317D01*
X148283Y278116D01*
X148436Y277936D01*
X148616Y277783D01*
X148817Y277659D01*
X149035Y277569D01*
X149265Y277514D01*
X149500Y277500D01*
X152000Y277507D01*
Y214086D01*
X151126Y214017D01*
X150274Y213812D01*
X149464Y213477D01*
X148717Y213019D01*
X148050Y212450D01*
X147481Y211783D01*
X147023Y211036D01*
X146688Y210226D01*
X146483Y209374D01*
X146414Y208500D01*
X146483Y207626D01*
X146688Y206774D01*
X147023Y205964D01*
X147481Y205217D01*
X148050Y204550D01*
X148717Y203981D01*
X149464Y203523D01*
X150274Y203188D01*
X151126Y202983D01*
X152000Y202914D01*
Y88500D01*
G37*
G36*
X144000Y191519D02*X143058Y191444D01*
X142140Y191224D01*
X141268Y190863D01*
X140462Y190369D01*
X139744Y189756D01*
X139131Y189038D01*
X139000Y188824D01*
X138869Y189038D01*
X138256Y189756D01*
X137538Y190369D01*
X136732Y190863D01*
X135860Y191224D01*
X134942Y191444D01*
X134000Y191519D01*
X133058Y191444D01*
X132140Y191224D01*
X131991Y191162D01*
Y192915D01*
X132000Y192914D01*
X132874Y192983D01*
X133726Y193188D01*
X134536Y193523D01*
X135283Y193981D01*
X135950Y194550D01*
X136519Y195217D01*
X136977Y195964D01*
X137312Y196774D01*
X137517Y197626D01*
X137568Y198500D01*
X137517Y199374D01*
X137312Y200226D01*
X136977Y201036D01*
X136519Y201783D01*
X135950Y202450D01*
X135283Y203019D01*
X134536Y203477D01*
X133726Y203812D01*
X132874Y204017D01*
X132000Y204086D01*
X131991Y204085D01*
Y231827D01*
X133004Y230814D01*
X133014Y227265D01*
X133069Y227035D01*
X133159Y226817D01*
X133283Y226616D01*
X133436Y226436D01*
X133616Y226283D01*
X133817Y226159D01*
X134035Y226069D01*
X134265Y226014D01*
X134500Y226000D01*
X139735Y226014D01*
X139965Y226069D01*
X140183Y226159D01*
X140384Y226283D01*
X140564Y226436D01*
X140717Y226616D01*
X140841Y226817D01*
X140931Y227035D01*
X140986Y227265D01*
X141000Y227500D01*
X140986Y232735D01*
X140931Y232965D01*
X140841Y233183D01*
X140717Y233384D01*
X140564Y233564D01*
X140384Y233717D01*
X140183Y233841D01*
X139965Y233931D01*
X139735Y233986D01*
X139500Y234000D01*
X136191Y233991D01*
X131991Y238191D01*
Y287982D01*
X132000Y287981D01*
X132942Y288056D01*
X133860Y288276D01*
X134732Y288637D01*
X135538Y289131D01*
X136256Y289744D01*
X136869Y290462D01*
X137363Y291268D01*
X137724Y292140D01*
X137944Y293058D01*
X138000Y294000D01*
X137944Y294942D01*
X137724Y295860D01*
X137363Y296732D01*
X136869Y297538D01*
X136256Y298256D01*
X135538Y298869D01*
X134732Y299363D01*
X133860Y299724D01*
X132942Y299944D01*
X132000Y300019D01*
X131991Y300018D01*
Y332250D01*
X144000D01*
Y275993D01*
X140765Y275986D01*
X140535Y275931D01*
X140317Y275841D01*
X140116Y275717D01*
X139936Y275564D01*
X139783Y275384D01*
X139659Y275183D01*
X139569Y274965D01*
X139514Y274735D01*
X139500Y274500D01*
X139514Y268265D01*
X139569Y268035D01*
X139659Y267817D01*
X139783Y267616D01*
X139936Y267436D01*
X140116Y267283D01*
X140317Y267159D01*
X140535Y267069D01*
X140765Y267014D01*
X141000Y267000D01*
X144000Y267007D01*
Y191519D01*
G37*
G36*
X131991Y300018D02*X131058Y299944D01*
X130140Y299724D01*
X129268Y299363D01*
X128462Y298869D01*
X127744Y298256D01*
X127131Y297538D01*
X127000Y297324D01*
X126869Y297538D01*
X126256Y298256D01*
X125538Y298869D01*
X125495Y298895D01*
Y332250D01*
X131991D01*
Y300018D01*
G37*
G36*
Y238191D02*X126153Y244029D01*
X126096Y244096D01*
X125827Y244326D01*
X125525Y244511D01*
X125495Y244523D01*
Y279547D01*
X125575Y279678D01*
X125816Y280260D01*
X125963Y280872D01*
X126000Y281500D01*
X125963Y282128D01*
X125816Y282740D01*
X125575Y283322D01*
X125495Y283453D01*
Y289105D01*
X125538Y289131D01*
X126256Y289744D01*
X126869Y290462D01*
X127000Y290676D01*
X127131Y290462D01*
X127744Y289744D01*
X128462Y289131D01*
X129268Y288637D01*
X130140Y288276D01*
X131058Y288056D01*
X131991Y287982D01*
Y238191D01*
G37*
G36*
Y191162D02*X131268Y190863D01*
X130462Y190369D01*
X129987Y189963D01*
X129986Y190235D01*
X129931Y190465D01*
X129841Y190683D01*
X129717Y190884D01*
X129564Y191064D01*
X129384Y191217D01*
X129183Y191341D01*
X128965Y191431D01*
X128735Y191486D01*
X128500Y191500D01*
X125495Y191495D01*
Y218706D01*
X126099Y218956D01*
X127306Y219696D01*
X128384Y220616D01*
X129304Y221694D01*
X130044Y222901D01*
X130586Y224210D01*
X130917Y225588D01*
X131000Y227000D01*
X130917Y228412D01*
X130586Y229790D01*
X130044Y231099D01*
X129304Y232306D01*
X128384Y233384D01*
X127306Y234304D01*
X126099Y235044D01*
X125495Y235294D01*
Y238323D01*
X131991Y231827D01*
Y204085D01*
X131126Y204017D01*
X130274Y203812D01*
X129464Y203477D01*
X128717Y203019D01*
X128050Y202450D01*
X127481Y201783D01*
X127023Y201036D01*
X126688Y200226D01*
X126483Y199374D01*
X126414Y198500D01*
X126483Y197626D01*
X126688Y196774D01*
X127023Y195964D01*
X127481Y195217D01*
X128050Y194550D01*
X128717Y193981D01*
X129464Y193523D01*
X130274Y193188D01*
X131126Y192983D01*
X131991Y192915D01*
Y191162D01*
G37*
G36*
X144000Y88500D02*X125495D01*
Y115516D01*
X125956Y114401D01*
X126696Y113194D01*
X127616Y112116D01*
X128694Y111196D01*
X129901Y110456D01*
X131210Y109914D01*
X132588Y109583D01*
X134000Y109472D01*
X135412Y109583D01*
X136790Y109914D01*
X138099Y110456D01*
X139306Y111196D01*
X140384Y112116D01*
X141304Y113194D01*
X142044Y114401D01*
X142586Y115710D01*
X142917Y117088D01*
X143000Y118500D01*
X142917Y119912D01*
X142586Y121290D01*
X142044Y122599D01*
X141304Y123806D01*
X140384Y124884D01*
X139306Y125804D01*
X138099Y126544D01*
X136790Y127086D01*
X135412Y127417D01*
X134000Y127528D01*
X132588Y127417D01*
X131210Y127086D01*
X129901Y126544D01*
X128694Y125804D01*
X127616Y124884D01*
X126696Y123806D01*
X125956Y122599D01*
X125495Y121484D01*
Y179509D01*
X128735Y179514D01*
X128965Y179569D01*
X129183Y179659D01*
X129384Y179783D01*
X129564Y179936D01*
X129717Y180116D01*
X129841Y180317D01*
X129931Y180535D01*
X129986Y180765D01*
X130000Y181000D01*
X130000Y181026D01*
X130462Y180631D01*
X131268Y180137D01*
X132140Y179776D01*
X133058Y179556D01*
X134000Y179481D01*
X134942Y179556D01*
X135860Y179776D01*
X136732Y180137D01*
X137538Y180631D01*
X138256Y181244D01*
X138869Y181962D01*
X139000Y182176D01*
X139131Y181962D01*
X139744Y181244D01*
X140462Y180631D01*
X141268Y180137D01*
X142140Y179776D01*
X143058Y179556D01*
X144000Y179481D01*
Y88500D01*
G37*
G36*
X151000Y362500D02*X186000D01*
Y357250D01*
X183088D01*
X183000Y357257D01*
X182647Y357229D01*
X182303Y357146D01*
X181975Y357011D01*
X181673Y356826D01*
X181673Y356826D01*
X181404Y356596D01*
X181347Y356529D01*
X161568Y336750D01*
X151000D01*
Y340507D01*
X154235Y340514D01*
X154465Y340569D01*
X154683Y340659D01*
X154884Y340783D01*
X155064Y340936D01*
X155217Y341116D01*
X155341Y341317D01*
X155431Y341535D01*
X155486Y341765D01*
X155500Y342000D01*
X155486Y348235D01*
X155431Y348465D01*
X155341Y348683D01*
X155217Y348884D01*
X155064Y349064D01*
X154884Y349217D01*
X154683Y349341D01*
X154465Y349431D01*
X154235Y349486D01*
X154000Y349500D01*
X151000Y349493D01*
Y362500D01*
G37*
G36*
X125495Y353976D02*X125706Y353992D01*
X126402Y354159D01*
X127064Y354433D01*
X127675Y354808D01*
X128219Y355273D01*
X128685Y355817D01*
X129059Y356428D01*
X129333Y357090D01*
X129500Y357786D01*
X129542Y358500D01*
X129500Y359214D01*
X129333Y359910D01*
X129059Y360572D01*
X128685Y361183D01*
X128219Y361727D01*
X127675Y362192D01*
X127173Y362500D01*
X151000D01*
Y349493D01*
X147765Y349486D01*
X147535Y349431D01*
X147317Y349341D01*
X147116Y349217D01*
X146936Y349064D01*
X146783Y348884D01*
X146659Y348683D01*
X146569Y348465D01*
X146514Y348235D01*
X146500Y348000D01*
X146514Y341765D01*
X146569Y341535D01*
X146659Y341317D01*
X146783Y341116D01*
X146936Y340936D01*
X147116Y340783D01*
X147317Y340659D01*
X147535Y340569D01*
X147765Y340514D01*
X148000Y340500D01*
X151000Y340507D01*
Y336750D01*
X125495D01*
Y353976D01*
G37*
G36*
X106994Y239312D02*X107932Y240250D01*
X123568D01*
X125495Y238323D01*
Y235294D01*
X124790Y235586D01*
X123412Y235917D01*
X122000Y236028D01*
X120588Y235917D01*
X119210Y235586D01*
X117901Y235044D01*
X116694Y234304D01*
X115616Y233384D01*
X114696Y232306D01*
X113956Y231099D01*
X113414Y229790D01*
X113083Y228412D01*
X112972Y227000D01*
X113083Y225588D01*
X113414Y224210D01*
X113956Y222901D01*
X114696Y221694D01*
X115616Y220616D01*
X116694Y219696D01*
X117901Y218956D01*
X119210Y218414D01*
X120588Y218083D01*
X122000Y217972D01*
X123412Y218083D01*
X124790Y218414D01*
X125495Y218706D01*
Y191495D01*
X119265Y191486D01*
X119035Y191431D01*
X118817Y191341D01*
X118616Y191217D01*
X118436Y191064D01*
X118283Y190884D01*
X118159Y190683D01*
X118069Y190465D01*
X118014Y190235D01*
X118000Y190000D01*
X118014Y180765D01*
X118069Y180535D01*
X118159Y180317D01*
X118283Y180116D01*
X118436Y179936D01*
X118616Y179783D01*
X118817Y179659D01*
X119035Y179569D01*
X119265Y179514D01*
X119500Y179500D01*
X125495Y179509D01*
Y121484D01*
X125414Y121290D01*
X125083Y119912D01*
X124972Y118500D01*
X125083Y117088D01*
X125414Y115710D01*
X125495Y115516D01*
Y88500D01*
X106994D01*
Y118737D01*
X107000Y118737D01*
X107667Y118789D01*
X108317Y118946D01*
X108935Y119202D01*
X109506Y119551D01*
X110014Y119986D01*
X110449Y120494D01*
X110798Y121065D01*
X111054Y121683D01*
X111211Y122333D01*
X111250Y123000D01*
X111211Y123667D01*
X111054Y124317D01*
X110798Y124935D01*
X110449Y125506D01*
X110014Y126014D01*
X109506Y126449D01*
X108935Y126798D01*
X108317Y127054D01*
X107667Y127211D01*
X107000Y127263D01*
X106994Y127263D01*
Y168757D01*
X109985Y168764D01*
X110215Y168819D01*
X110433Y168909D01*
X110634Y169033D01*
X110814Y169186D01*
X110967Y169366D01*
X111091Y169567D01*
X111181Y169785D01*
X111236Y170015D01*
X111250Y170250D01*
X111236Y175985D01*
X111181Y176215D01*
X111091Y176433D01*
X110967Y176634D01*
X110814Y176814D01*
X110634Y176967D01*
X110433Y177091D01*
X110215Y177181D01*
X109985Y177236D01*
X109750Y177250D01*
X106994Y177243D01*
Y203502D01*
X106996Y203504D01*
X107197Y203739D01*
X107359Y204004D01*
X107478Y204290D01*
X107550Y204591D01*
X107568Y204900D01*
X107550Y212409D01*
X107478Y212710D01*
X107359Y212996D01*
X107197Y213261D01*
X106996Y213496D01*
X106994Y213498D01*
Y225988D01*
X107000Y225988D01*
X107628Y226037D01*
X108240Y226184D01*
X108822Y226425D01*
X109358Y226754D01*
X109837Y227163D01*
X110246Y227642D01*
X110575Y228178D01*
X110816Y228760D01*
X110963Y229372D01*
X111000Y230000D01*
X110963Y230628D01*
X110816Y231240D01*
X110575Y231822D01*
X110246Y232358D01*
X109837Y232837D01*
X109358Y233246D01*
X108822Y233575D01*
X108240Y233816D01*
X107628Y233963D01*
X107000Y234012D01*
X106994Y234012D01*
Y239312D01*
G37*
G36*
X97491Y203148D02*X97504Y203141D01*
X97790Y203022D01*
X98091Y202950D01*
X98400Y202932D01*
X105909Y202950D01*
X106210Y203022D01*
X106496Y203141D01*
X106761Y203303D01*
X106994Y203502D01*
Y177243D01*
X104015Y177236D01*
X103785Y177181D01*
X103567Y177091D01*
X103366Y176967D01*
X103186Y176814D01*
X103033Y176634D01*
X102909Y176433D01*
X102819Y176215D01*
X102764Y175985D01*
X102750Y175750D01*
X102764Y170015D01*
X102819Y169785D01*
X102909Y169567D01*
X103033Y169366D01*
X103186Y169186D01*
X103366Y169033D01*
X103567Y168909D01*
X103785Y168819D01*
X104015Y168764D01*
X104250Y168750D01*
X106994Y168757D01*
Y127263D01*
X106333Y127211D01*
X105683Y127054D01*
X105065Y126798D01*
X104494Y126449D01*
X103986Y126014D01*
X103551Y125506D01*
X103202Y124935D01*
X102946Y124317D01*
X102789Y123667D01*
X102737Y123000D01*
X102789Y122333D01*
X102946Y121683D01*
X103202Y121065D01*
X103551Y120494D01*
X103986Y119986D01*
X104494Y119551D01*
X105065Y119202D01*
X105683Y118946D01*
X106333Y118789D01*
X106994Y118737D01*
Y88500D01*
X102699D01*
X102369Y89038D01*
X101756Y89756D01*
X101038Y90369D01*
X100232Y90863D01*
X99360Y91224D01*
X98442Y91444D01*
X97500Y91519D01*
X97491Y91518D01*
Y140749D01*
X97653Y140848D01*
X98192Y141308D01*
X98652Y141847D01*
X99022Y142451D01*
X99293Y143105D01*
X99458Y143794D01*
X99500Y144500D01*
X99458Y145206D01*
X99293Y145895D01*
X99022Y146549D01*
X98652Y147153D01*
X98192Y147692D01*
X97653Y148152D01*
X97491Y148251D01*
Y150012D01*
X98235Y150014D01*
X98465Y150069D01*
X98683Y150159D01*
X98884Y150283D01*
X99064Y150436D01*
X99217Y150616D01*
X99341Y150817D01*
X99431Y151035D01*
X99486Y151265D01*
X99500Y151500D01*
X99486Y157735D01*
X99431Y157965D01*
X99341Y158183D01*
X99217Y158384D01*
X99064Y158564D01*
X98884Y158717D01*
X98683Y158841D01*
X98465Y158931D01*
X98235Y158986D01*
X98000Y159000D01*
X97491Y158999D01*
Y179982D01*
X97500Y179981D01*
X98442Y180056D01*
X99360Y180276D01*
X100232Y180637D01*
X101038Y181131D01*
X101756Y181744D01*
X102369Y182462D01*
X102863Y183268D01*
X103224Y184140D01*
X103444Y185058D01*
X103500Y186000D01*
X103444Y186942D01*
X103224Y187860D01*
X102863Y188732D01*
X102369Y189538D01*
X101756Y190256D01*
X101038Y190869D01*
X100232Y191363D01*
X99360Y191724D01*
X98442Y191944D01*
X97500Y192019D01*
X97491Y192018D01*
Y203148D01*
G37*
G36*
Y229809D02*X106994Y239312D01*
Y234012D01*
X106372Y233963D01*
X105760Y233816D01*
X105178Y233575D01*
X104642Y233246D01*
X104163Y232837D01*
X103754Y232358D01*
X103425Y231822D01*
X103184Y231240D01*
X103037Y230628D01*
X102988Y230000D01*
X103037Y229372D01*
X103184Y228760D01*
X103425Y228178D01*
X103754Y227642D01*
X104163Y227163D01*
X104642Y226754D01*
X105178Y226425D01*
X105760Y226184D01*
X106372Y226037D01*
X106994Y225988D01*
Y213498D01*
X106761Y213697D01*
X106496Y213859D01*
X106210Y213978D01*
X105909Y214050D01*
X105600Y214068D01*
X98091Y214050D01*
X97790Y213978D01*
X97504Y213859D01*
X97491Y213852D01*
Y229809D01*
G37*
G36*
X87486Y219804D02*X97491Y229809D01*
Y213852D01*
X97239Y213697D01*
X97004Y213496D01*
X96803Y213261D01*
X96641Y212996D01*
X96522Y212710D01*
X96450Y212409D01*
X96432Y212100D01*
X96450Y204591D01*
X96522Y204290D01*
X96641Y204004D01*
X96803Y203739D01*
X97004Y203504D01*
X97239Y203303D01*
X97491Y203148D01*
Y192018D01*
X96558Y191944D01*
X95640Y191724D01*
X94768Y191363D01*
X93962Y190869D01*
X93244Y190256D01*
X92631Y189538D01*
X92137Y188732D01*
X91776Y187860D01*
X91556Y186942D01*
X91481Y186000D01*
X91556Y185058D01*
X91776Y184140D01*
X92137Y183268D01*
X92631Y182462D01*
X93244Y181744D01*
X93962Y181131D01*
X94768Y180637D01*
X95640Y180276D01*
X96558Y180056D01*
X97491Y179982D01*
Y158999D01*
X91765Y158986D01*
X91535Y158931D01*
X91317Y158841D01*
X91116Y158717D01*
X90936Y158564D01*
X90783Y158384D01*
X90659Y158183D01*
X90569Y157965D01*
X90514Y157735D01*
X90500Y157500D01*
X90514Y151265D01*
X90569Y151035D01*
X90659Y150817D01*
X90783Y150616D01*
X90936Y150436D01*
X91116Y150283D01*
X91317Y150159D01*
X91535Y150069D01*
X91765Y150014D01*
X92000Y150000D01*
X97491Y150012D01*
Y148251D01*
X97049Y148522D01*
X96395Y148793D01*
X95706Y148958D01*
X95000Y149014D01*
X94294Y148958D01*
X93605Y148793D01*
X92951Y148522D01*
X92347Y148152D01*
X91808Y147692D01*
X91348Y147153D01*
X90978Y146549D01*
X90707Y145895D01*
X90542Y145206D01*
X90486Y144500D01*
X90542Y143794D01*
X90707Y143105D01*
X90978Y142451D01*
X91348Y141847D01*
X91808Y141308D01*
X92347Y140848D01*
X92951Y140478D01*
X93605Y140207D01*
X94294Y140042D01*
X95000Y139986D01*
X95706Y140042D01*
X96395Y140207D01*
X97049Y140478D01*
X97491Y140749D01*
Y91518D01*
X96558Y91444D01*
X95640Y91224D01*
X94768Y90863D01*
X93962Y90369D01*
X93244Y89756D01*
X92631Y89038D01*
X92301Y88500D01*
X87486D01*
Y109973D01*
X87500Y109972D01*
X88912Y110083D01*
X90290Y110414D01*
X91599Y110956D01*
X92806Y111696D01*
X93884Y112616D01*
X94804Y113694D01*
X95544Y114901D01*
X96086Y116210D01*
X96417Y117588D01*
X96500Y119000D01*
X96417Y120412D01*
X96086Y121790D01*
X95544Y123099D01*
X94804Y124306D01*
X93884Y125384D01*
X92806Y126304D01*
X91599Y127044D01*
X90290Y127586D01*
X88912Y127917D01*
X87500Y128028D01*
X87486Y128027D01*
Y219804D01*
G37*
G36*
X77500Y213750D02*X80412D01*
X80500Y213743D01*
X80853Y213771D01*
X80853Y213771D01*
X81197Y213854D01*
X81525Y213989D01*
X81827Y214174D01*
X82096Y214404D01*
X82153Y214471D01*
X87486Y219804D01*
Y128027D01*
X86088Y127917D01*
X84710Y127586D01*
X83401Y127044D01*
X82194Y126304D01*
X81116Y125384D01*
X80196Y124306D01*
X79456Y123099D01*
X78914Y121790D01*
X78583Y120412D01*
X78472Y119000D01*
X78583Y117588D01*
X78914Y116210D01*
X79456Y114901D01*
X80196Y113694D01*
X81116Y112616D01*
X82194Y111696D01*
X83401Y110956D01*
X84710Y110414D01*
X86088Y110083D01*
X87486Y109973D01*
Y88500D01*
X83489D01*
X83486Y90235D01*
X83431Y90465D01*
X83341Y90683D01*
X83217Y90884D01*
X83064Y91064D01*
X82884Y91217D01*
X82683Y91341D01*
X82465Y91431D01*
X82235Y91486D01*
X82000Y91500D01*
X77500Y91493D01*
Y180007D01*
X82235Y180014D01*
X82465Y180069D01*
X82683Y180159D01*
X82884Y180283D01*
X83064Y180436D01*
X83217Y180616D01*
X83341Y180817D01*
X83431Y181035D01*
X83486Y181265D01*
X83500Y181500D01*
X83486Y190735D01*
X83431Y190965D01*
X83341Y191183D01*
X83217Y191384D01*
X83064Y191564D01*
X82884Y191717D01*
X82683Y191841D01*
X82465Y191931D01*
X82235Y191986D01*
X82000Y192000D01*
X77500Y191993D01*
Y213750D01*
G37*
G36*
X61000D02*X77500D01*
Y201000D01*
X77486Y207235D01*
X77431Y207465D01*
X77341Y207683D01*
X77217Y207884D01*
X77064Y208064D01*
X76884Y208217D01*
X76683Y208341D01*
X76465Y208431D01*
X76235Y208486D01*
X76000Y208500D01*
X69765Y208486D01*
X69535Y208431D01*
X69317Y208341D01*
X69116Y208217D01*
X68936Y208064D01*
X68783Y207884D01*
X68659Y207683D01*
X68569Y207465D01*
X68514Y207235D01*
X68500Y207000D01*
X68514Y200765D01*
X68569Y200535D01*
X68659Y200317D01*
X68783Y200116D01*
X68936Y199936D01*
X69116Y199783D01*
X69317Y199659D01*
X69535Y199569D01*
X69765Y199514D01*
X70000Y199500D01*
X76235Y199514D01*
X76465Y199569D01*
X76683Y199659D01*
X76884Y199783D01*
X77064Y199936D01*
X77217Y200116D01*
X77341Y200317D01*
X77431Y200535D01*
X77486Y200765D01*
X77500Y201000D01*
Y191993D01*
X72765Y191986D01*
X72535Y191931D01*
X72317Y191841D01*
X72116Y191717D01*
X71936Y191564D01*
X71783Y191384D01*
X71659Y191183D01*
X71569Y190965D01*
X71514Y190735D01*
X71500Y190500D01*
X71514Y181265D01*
X71569Y181035D01*
X71659Y180817D01*
X71783Y180616D01*
X71936Y180436D01*
X72116Y180283D01*
X72317Y180159D01*
X72535Y180069D01*
X72765Y180014D01*
X73000Y180000D01*
X77500Y180007D01*
Y91493D01*
X72765Y91486D01*
X72535Y91431D01*
X72317Y91341D01*
X72116Y91217D01*
X71936Y91064D01*
X71783Y90884D01*
X71659Y90683D01*
X71569Y90465D01*
X71514Y90235D01*
X71500Y90000D01*
X71502Y88500D01*
X61000D01*
Y116507D01*
X63735Y116514D01*
X63965Y116569D01*
X64183Y116659D01*
X64384Y116783D01*
X64564Y116936D01*
X64717Y117116D01*
X64841Y117317D01*
X64931Y117535D01*
X64986Y117765D01*
X65000Y118000D01*
X64986Y123235D01*
X64931Y123465D01*
X64841Y123683D01*
X64717Y123884D01*
X64564Y124064D01*
X64384Y124217D01*
X64183Y124341D01*
X63965Y124431D01*
X63735Y124486D01*
X63500Y124500D01*
X61000Y124493D01*
Y133318D01*
X62529Y134847D01*
X62596Y134904D01*
X62826Y135173D01*
X62826Y135173D01*
X63011Y135475D01*
X63146Y135803D01*
X63229Y136147D01*
X63257Y136500D01*
X63250Y136588D01*
Y188013D01*
X63735Y188014D01*
X63965Y188069D01*
X64183Y188159D01*
X64384Y188283D01*
X64564Y188436D01*
X64717Y188616D01*
X64841Y188817D01*
X64931Y189035D01*
X64986Y189265D01*
X65000Y189500D01*
X64986Y194735D01*
X64931Y194965D01*
X64841Y195183D01*
X64717Y195384D01*
X64564Y195564D01*
X64384Y195717D01*
X64183Y195841D01*
X63965Y195931D01*
X63735Y195986D01*
X63500Y196000D01*
X61000Y195993D01*
Y213750D01*
G37*
G36*
Y130500D02*X60944Y131442D01*
X60724Y132360D01*
X60524Y132842D01*
X61000Y133318D01*
Y130500D01*
G37*
G36*
Y88500D02*X45994D01*
Y113007D01*
X48735Y113014D01*
X48965Y113069D01*
X49183Y113159D01*
X49384Y113283D01*
X49564Y113436D01*
X49717Y113616D01*
X49841Y113817D01*
X49931Y114035D01*
X49986Y114265D01*
X50000Y114500D01*
X49986Y119735D01*
X49931Y119965D01*
X49841Y120183D01*
X49717Y120384D01*
X49564Y120564D01*
X49384Y120717D01*
X49183Y120841D01*
X48965Y120931D01*
X48735Y120986D01*
X48500Y121000D01*
X45994Y120993D01*
Y124568D01*
X46860Y124776D01*
X47732Y125137D01*
X48538Y125631D01*
X49256Y126244D01*
X49869Y126962D01*
X50000Y127176D01*
X50131Y126962D01*
X50744Y126244D01*
X51462Y125631D01*
X52268Y125137D01*
X53140Y124776D01*
X54058Y124556D01*
X55000Y124481D01*
X55942Y124556D01*
X56860Y124776D01*
X57732Y125137D01*
X58538Y125631D01*
X59256Y126244D01*
X59869Y126962D01*
X60363Y127768D01*
X60724Y128640D01*
X60944Y129558D01*
X61000Y130500D01*
Y124493D01*
X58265Y124486D01*
X58035Y124431D01*
X57817Y124341D01*
X57616Y124217D01*
X57436Y124064D01*
X57283Y123884D01*
X57159Y123683D01*
X57069Y123465D01*
X57014Y123235D01*
X57000Y123000D01*
X57014Y117765D01*
X57069Y117535D01*
X57159Y117317D01*
X57283Y117116D01*
X57436Y116936D01*
X57616Y116783D01*
X57817Y116659D01*
X58035Y116569D01*
X58265Y116514D01*
X58500Y116500D01*
X61000Y116507D01*
Y88500D01*
G37*
G36*
X45994Y210426D02*X46065Y210470D01*
X46783Y211083D01*
X47397Y211801D01*
X47528Y212015D01*
X47658Y211801D01*
X48272Y211083D01*
X48990Y210470D01*
X49795Y209976D01*
X50668Y209615D01*
X51586Y209394D01*
X52528Y209320D01*
X53469Y209394D01*
X54387Y209615D01*
X55260Y209976D01*
X56065Y210470D01*
X56783Y211083D01*
X57397Y211801D01*
X57890Y212606D01*
X58251Y213479D01*
X58317Y213750D01*
X61000D01*
Y195993D01*
X58265Y195986D01*
X58035Y195931D01*
X57817Y195841D01*
X57616Y195717D01*
X57436Y195564D01*
X57283Y195384D01*
X57159Y195183D01*
X57069Y194965D01*
X57014Y194735D01*
X57000Y194500D01*
X57014Y189265D01*
X57069Y189035D01*
X57159Y188817D01*
X57283Y188616D01*
X57436Y188436D01*
X57616Y188283D01*
X57817Y188159D01*
X58035Y188069D01*
X58265Y188014D01*
X58500Y188000D01*
X58750Y188001D01*
Y137432D01*
X57342Y136024D01*
X56860Y136224D01*
X55942Y136444D01*
X55000Y136519D01*
X54058Y136444D01*
X53140Y136224D01*
X52268Y135863D01*
X51462Y135369D01*
X50744Y134756D01*
X50131Y134038D01*
X50000Y133824D01*
X49869Y134038D01*
X49256Y134756D01*
X48538Y135369D01*
X47732Y135863D01*
X46860Y136224D01*
X45994Y136432D01*
Y140033D01*
X46626Y140295D01*
X47834Y141035D01*
X48911Y141955D01*
X49831Y143032D01*
X50571Y144240D01*
X51113Y145549D01*
X51444Y146926D01*
X51528Y148339D01*
X51444Y149751D01*
X51113Y151128D01*
X50571Y152437D01*
X49831Y153645D01*
X48911Y154722D01*
X47834Y155642D01*
X46626Y156382D01*
X45994Y156644D01*
Y185845D01*
X48763Y185852D01*
X48993Y185908D01*
X49211Y185998D01*
X49412Y186121D01*
X49591Y186275D01*
X49745Y186454D01*
X49868Y186655D01*
X49959Y186874D01*
X50014Y187103D01*
X50028Y187339D01*
X50014Y192574D01*
X49959Y192804D01*
X49868Y193022D01*
X49745Y193223D01*
X49591Y193403D01*
X49412Y193556D01*
X49211Y193679D01*
X48993Y193770D01*
X48763Y193825D01*
X48528Y193839D01*
X45994Y193832D01*
Y199722D01*
X46099Y199599D01*
X46757Y199037D01*
X47495Y198584D01*
X48295Y198253D01*
X49137Y198051D01*
X50000Y197983D01*
X50863Y198051D01*
X51705Y198253D01*
X52505Y198584D01*
X53243Y199037D01*
X53901Y199599D01*
X54463Y200257D01*
X54916Y200995D01*
X55247Y201795D01*
X55449Y202637D01*
X55500Y203500D01*
X55449Y204363D01*
X55247Y205205D01*
X54916Y206005D01*
X54463Y206743D01*
X53901Y207401D01*
X53243Y207963D01*
X52505Y208416D01*
X51705Y208747D01*
X50863Y208949D01*
X50000Y209017D01*
X49137Y208949D01*
X48295Y208747D01*
X47495Y208416D01*
X46757Y207963D01*
X46099Y207401D01*
X45994Y207278D01*
Y210426D01*
G37*
G36*
X112000Y288007D02*X116735Y288014D01*
X116965Y288069D01*
X117183Y288159D01*
X117384Y288283D01*
X117564Y288436D01*
X117717Y288616D01*
X117841Y288817D01*
X117931Y289035D01*
X117986Y289265D01*
X118000Y289500D01*
X118000Y289526D01*
X118462Y289131D01*
X119268Y288637D01*
X120140Y288276D01*
X121058Y288056D01*
X122000Y287981D01*
X122942Y288056D01*
X123860Y288276D01*
X124732Y288637D01*
X125495Y289105D01*
Y283453D01*
X125246Y283858D01*
X124837Y284337D01*
X124358Y284746D01*
X123822Y285075D01*
X123240Y285316D01*
X122628Y285463D01*
X122000Y285512D01*
X121372Y285463D01*
X120760Y285316D01*
X120178Y285075D01*
X119642Y284746D01*
X119163Y284337D01*
X118754Y283858D01*
X118425Y283322D01*
X118184Y282740D01*
X118037Y282128D01*
X117988Y281500D01*
X118037Y280872D01*
X118184Y280260D01*
X118425Y279678D01*
X118754Y279142D01*
X119163Y278663D01*
X119642Y278254D01*
X120178Y277925D01*
X120760Y277684D01*
X121372Y277537D01*
X122000Y277488D01*
X122628Y277537D01*
X123240Y277684D01*
X123822Y277925D01*
X124358Y278254D01*
X124837Y278663D01*
X125246Y279142D01*
X125495Y279547D01*
Y244523D01*
X125197Y244646D01*
X124853Y244729D01*
X124853Y244729D01*
X124500Y244757D01*
X124412Y244750D01*
X112000D01*
Y253007D01*
X115235Y253014D01*
X115465Y253069D01*
X115683Y253159D01*
X115884Y253283D01*
X116064Y253436D01*
X116217Y253616D01*
X116341Y253817D01*
X116431Y254035D01*
X116486Y254265D01*
X116500Y254500D01*
X116486Y260735D01*
X116431Y260965D01*
X116341Y261183D01*
X116217Y261384D01*
X116064Y261564D01*
X115884Y261717D01*
X115683Y261841D01*
X115465Y261931D01*
X115235Y261986D01*
X115000Y262000D01*
X112000Y261993D01*
Y288007D01*
G37*
G36*
Y332250D02*X125495D01*
Y298895D01*
X124732Y299363D01*
X123860Y299724D01*
X122942Y299944D01*
X122000Y300019D01*
X121058Y299944D01*
X120140Y299724D01*
X119268Y299363D01*
X118462Y298869D01*
X117987Y298463D01*
X117986Y298735D01*
X117931Y298965D01*
X117841Y299183D01*
X117717Y299384D01*
X117564Y299564D01*
X117384Y299717D01*
X117183Y299841D01*
X116965Y299931D01*
X116735Y299986D01*
X116500Y300000D01*
X112000Y299993D01*
Y332250D01*
G37*
G36*
X82000Y318950D02*X89668D01*
X90313Y318305D01*
X90289Y318000D01*
X90332Y317451D01*
X90461Y316915D01*
X90672Y316406D01*
X90960Y315936D01*
X91317Y315517D01*
X91736Y315160D01*
X92206Y314872D01*
X92715Y314661D01*
X93251Y314532D01*
X93800Y314489D01*
X94349Y314532D01*
X94885Y314661D01*
X95394Y314872D01*
X95864Y315160D01*
X96283Y315517D01*
X96640Y315936D01*
X96928Y316406D01*
X97139Y316915D01*
X97268Y317451D01*
X97300Y318000D01*
X97282Y318300D01*
X111232Y332250D01*
X112000D01*
Y299993D01*
X107265Y299986D01*
X107035Y299931D01*
X106817Y299841D01*
X106616Y299717D01*
X106436Y299564D01*
X106283Y299384D01*
X106159Y299183D01*
X106069Y298965D01*
X106014Y298735D01*
X106000Y298500D01*
X106014Y289265D01*
X106069Y289035D01*
X106159Y288817D01*
X106283Y288616D01*
X106436Y288436D01*
X106616Y288283D01*
X106817Y288159D01*
X107035Y288069D01*
X107265Y288014D01*
X107500Y288000D01*
X112000Y288007D01*
Y261993D01*
X108765Y261986D01*
X108535Y261931D01*
X108317Y261841D01*
X108116Y261717D01*
X107936Y261564D01*
X107783Y261384D01*
X107659Y261183D01*
X107569Y260965D01*
X107514Y260735D01*
X107500Y260500D01*
X107514Y254265D01*
X107569Y254035D01*
X107659Y253817D01*
X107783Y253616D01*
X107936Y253436D01*
X108116Y253283D01*
X108317Y253159D01*
X108535Y253069D01*
X108765Y253014D01*
X109000Y253000D01*
X112000Y253007D01*
Y244750D01*
X107088D01*
X107000Y244757D01*
X106647Y244729D01*
X106303Y244646D01*
X105975Y244511D01*
X105673Y244326D01*
X105673Y244326D01*
X105404Y244096D01*
X105347Y244029D01*
X82000Y220682D01*
Y274007D01*
X85235Y274014D01*
X85465Y274069D01*
X85683Y274159D01*
X85884Y274283D01*
X86064Y274436D01*
X86217Y274616D01*
X86341Y274817D01*
X86431Y275035D01*
X86486Y275265D01*
X86500Y275500D01*
X86486Y281735D01*
X86431Y281965D01*
X86341Y282183D01*
X86217Y282384D01*
X86064Y282564D01*
X85884Y282717D01*
X85683Y282841D01*
X85465Y282931D01*
X85235Y282986D01*
X85000Y283000D01*
X82000Y282993D01*
Y318950D01*
G37*
G36*
X56500D02*X82000D01*
Y282993D01*
X78765Y282986D01*
X78535Y282931D01*
X78317Y282841D01*
X78116Y282717D01*
X77936Y282564D01*
X77783Y282384D01*
X77659Y282183D01*
X77569Y281965D01*
X77514Y281735D01*
X77500Y281500D01*
X77514Y275265D01*
X77569Y275035D01*
X77659Y274817D01*
X77783Y274616D01*
X77936Y274436D01*
X78116Y274283D01*
X78317Y274159D01*
X78535Y274069D01*
X78765Y274014D01*
X79000Y274000D01*
X82000Y274007D01*
Y220682D01*
X79568Y218250D01*
X57780D01*
X57397Y218876D01*
X56783Y219594D01*
X56500Y219836D01*
Y286507D01*
X59235Y286514D01*
X59465Y286569D01*
X59683Y286659D01*
X59884Y286783D01*
X60064Y286936D01*
X60217Y287116D01*
X60341Y287317D01*
X60431Y287535D01*
X60486Y287765D01*
X60500Y288000D01*
X60486Y293235D01*
X60431Y293465D01*
X60341Y293683D01*
X60217Y293884D01*
X60064Y294064D01*
X59884Y294217D01*
X59683Y294341D01*
X59465Y294431D01*
X59235Y294486D01*
X59000Y294500D01*
X56500Y294493D01*
Y318950D01*
G37*
G36*
X45994Y318036D02*X46415Y317861D01*
X46951Y317732D01*
X47500Y317689D01*
X48049Y317732D01*
X48585Y317861D01*
X49094Y318072D01*
X49564Y318360D01*
X49983Y318717D01*
X50181Y318950D01*
X56500D01*
Y294493D01*
X53765Y294486D01*
X53535Y294431D01*
X53317Y294341D01*
X53116Y294217D01*
X52936Y294064D01*
X52783Y293884D01*
X52659Y293683D01*
X52569Y293465D01*
X52514Y293235D01*
X52500Y293000D01*
X52514Y287765D01*
X52569Y287535D01*
X52659Y287317D01*
X52783Y287116D01*
X52936Y286936D01*
X53116Y286783D01*
X53317Y286659D01*
X53535Y286569D01*
X53765Y286514D01*
X54000Y286500D01*
X56500Y286507D01*
Y219836D01*
X56065Y220208D01*
X55260Y220701D01*
X54387Y221063D01*
X53469Y221283D01*
X52528Y221357D01*
X51586Y221283D01*
X50668Y221063D01*
X49795Y220701D01*
X48990Y220208D01*
X48272Y219594D01*
X47658Y218876D01*
X47528Y218663D01*
X47397Y218876D01*
X46783Y219594D01*
X46065Y220208D01*
X45994Y220251D01*
Y298000D01*
X46000Y298000D01*
X54235Y298014D01*
X54465Y298069D01*
X54683Y298159D01*
X54884Y298283D01*
X55064Y298436D01*
X55217Y298616D01*
X55341Y298817D01*
X55431Y299035D01*
X55486Y299265D01*
X55500Y299500D01*
X55486Y307735D01*
X55431Y307965D01*
X55341Y308183D01*
X55217Y308384D01*
X55064Y308564D01*
X54884Y308717D01*
X54683Y308841D01*
X54465Y308931D01*
X54235Y308986D01*
X54000Y309000D01*
X45994Y308986D01*
Y318036D01*
G37*
G36*
Y355802D02*X46007Y355817D01*
X46382Y356428D01*
X46656Y357090D01*
X46823Y357786D01*
X46865Y358500D01*
X46823Y359214D01*
X46656Y359910D01*
X46382Y360572D01*
X46007Y361183D01*
X45994Y361198D01*
Y362500D01*
X59819D01*
X59317Y362192D01*
X58773Y361727D01*
X58308Y361183D01*
X57933Y360572D01*
X57659Y359910D01*
X57492Y359214D01*
X57436Y358500D01*
X57492Y357786D01*
X57659Y357090D01*
X57933Y356428D01*
X58308Y355817D01*
X58773Y355273D01*
X59317Y354808D01*
X59928Y354433D01*
X60590Y354159D01*
X61286Y353992D01*
X62000Y353936D01*
X62714Y353992D01*
X63410Y354159D01*
X64072Y354433D01*
X64683Y354808D01*
X65227Y355273D01*
X65692Y355817D01*
X66067Y356428D01*
X66341Y357090D01*
X66508Y357786D01*
X66550Y358500D01*
X66508Y359214D01*
X66341Y359910D01*
X66067Y360572D01*
X65692Y361183D01*
X65227Y361727D01*
X64683Y362192D01*
X64181Y362500D01*
X80669D01*
X80308Y362192D01*
X79848Y361653D01*
X79478Y361049D01*
X79207Y360395D01*
X79042Y359706D01*
X78986Y359000D01*
X79042Y358294D01*
X79207Y357605D01*
X79478Y356951D01*
X79848Y356347D01*
X80308Y355808D01*
X80847Y355348D01*
X81451Y354978D01*
X82105Y354707D01*
X82794Y354542D01*
X83500Y354486D01*
X84206Y354542D01*
X84895Y354707D01*
X85549Y354978D01*
X86153Y355348D01*
X86692Y355808D01*
X87152Y356347D01*
X87522Y356951D01*
X87793Y357605D01*
X87958Y358294D01*
X88000Y359000D01*
X87958Y359706D01*
X87793Y360395D01*
X87522Y361049D01*
X87152Y361653D01*
X86692Y362192D01*
X86331Y362500D01*
X89084D01*
X89069Y362465D01*
X89014Y362235D01*
X89000Y362000D01*
X89014Y355765D01*
X89069Y355535D01*
X89159Y355317D01*
X89283Y355116D01*
X89436Y354936D01*
X89616Y354783D01*
X89817Y354659D01*
X90035Y354569D01*
X90265Y354514D01*
X90500Y354500D01*
X96735Y354514D01*
X96965Y354569D01*
X97183Y354659D01*
X97384Y354783D01*
X97564Y354936D01*
X97717Y355116D01*
X97841Y355317D01*
X97931Y355535D01*
X97986Y355765D01*
X98000Y356000D01*
X97986Y362235D01*
X97931Y362465D01*
X97916Y362500D01*
X103126D01*
X102624Y362192D01*
X102080Y361727D01*
X101615Y361183D01*
X101241Y360572D01*
X100966Y359910D01*
X100799Y359214D01*
X100743Y358500D01*
X100799Y357786D01*
X100966Y357090D01*
X101241Y356428D01*
X101615Y355817D01*
X102080Y355273D01*
X102624Y354808D01*
X103235Y354433D01*
X103897Y354159D01*
X104593Y353992D01*
X105307Y353936D01*
X106021Y353992D01*
X106717Y354159D01*
X107379Y354433D01*
X107990Y354808D01*
X108534Y355273D01*
X109000Y355817D01*
X109374Y356428D01*
X109648Y357090D01*
X109815Y357786D01*
X109857Y358500D01*
X109815Y359214D01*
X109648Y359910D01*
X109374Y360572D01*
X109000Y361183D01*
X108534Y361727D01*
X107990Y362192D01*
X107488Y362500D01*
X122811D01*
X122309Y362192D01*
X121765Y361727D01*
X121300Y361183D01*
X120926Y360572D01*
X120651Y359910D01*
X120484Y359214D01*
X120428Y358500D01*
X120484Y357786D01*
X120651Y357090D01*
X120926Y356428D01*
X121300Y355817D01*
X121765Y355273D01*
X122309Y354808D01*
X122920Y354433D01*
X123582Y354159D01*
X124278Y353992D01*
X124992Y353936D01*
X125495Y353976D01*
Y336750D01*
X110388D01*
X110300Y336757D01*
X109947Y336729D01*
X109603Y336646D01*
X109275Y336511D01*
X108973Y336326D01*
X108973Y336326D01*
X108704Y336096D01*
X108647Y336029D01*
X94105Y321487D01*
X93800Y321511D01*
X93495Y321487D01*
X92253Y322729D01*
X92196Y322796D01*
X91927Y323026D01*
X91927Y323026D01*
X91812Y323096D01*
X91625Y323211D01*
X91393Y323307D01*
X91297Y323346D01*
X90953Y323429D01*
X90600Y323457D01*
X90512Y323450D01*
X50181D01*
X49983Y323683D01*
X49564Y324040D01*
X49094Y324328D01*
X48585Y324539D01*
X48049Y324668D01*
X47500Y324711D01*
X46951Y324668D01*
X46415Y324539D01*
X45994Y324364D01*
Y355802D01*
G37*
G36*
Y361198D02*X45542Y361727D01*
X44998Y362192D01*
X44496Y362500D01*
X45994D01*
Y361198D01*
G37*
G36*
X36500Y124509D02*X39735Y124514D01*
X39965Y124569D01*
X40183Y124659D01*
X40384Y124783D01*
X40564Y124936D01*
X40717Y125116D01*
X40841Y125317D01*
X40931Y125535D01*
X40986Y125765D01*
X41000Y126000D01*
X41000Y126026D01*
X41462Y125631D01*
X42268Y125137D01*
X43140Y124776D01*
X44058Y124556D01*
X45000Y124481D01*
X45942Y124556D01*
X45994Y124568D01*
Y120993D01*
X43265Y120986D01*
X43035Y120931D01*
X42817Y120841D01*
X42616Y120717D01*
X42436Y120564D01*
X42283Y120384D01*
X42159Y120183D01*
X42069Y119965D01*
X42014Y119735D01*
X42000Y119500D01*
X42014Y114265D01*
X42069Y114035D01*
X42159Y113817D01*
X42283Y113616D01*
X42436Y113436D01*
X42616Y113283D01*
X42817Y113159D01*
X43035Y113069D01*
X43265Y113014D01*
X43500Y113000D01*
X45994Y113007D01*
Y88500D01*
X36500D01*
Y124509D01*
G37*
G36*
Y141651D02*X37221Y141035D01*
X38429Y140295D01*
X39738Y139753D01*
X41115Y139422D01*
X42528Y139311D01*
X43940Y139422D01*
X45317Y139753D01*
X45994Y140033D01*
Y136432D01*
X45942Y136444D01*
X45000Y136519D01*
X44058Y136444D01*
X43140Y136224D01*
X42268Y135863D01*
X41462Y135369D01*
X40987Y134963D01*
X40986Y135235D01*
X40931Y135465D01*
X40841Y135683D01*
X40717Y135884D01*
X40564Y136064D01*
X40384Y136217D01*
X40183Y136341D01*
X39965Y136431D01*
X39735Y136486D01*
X39500Y136500D01*
X36500Y136495D01*
Y141651D01*
G37*
G36*
Y209351D02*X37263Y209352D01*
X37493Y209408D01*
X37711Y209498D01*
X37912Y209621D01*
X38091Y209775D01*
X38245Y209954D01*
X38368Y210155D01*
X38459Y210374D01*
X38514Y210603D01*
X38528Y210839D01*
X38528Y210864D01*
X38990Y210470D01*
X39795Y209976D01*
X40668Y209615D01*
X41586Y209394D01*
X42528Y209320D01*
X43469Y209394D01*
X44387Y209615D01*
X45260Y209976D01*
X45994Y210426D01*
Y207278D01*
X45537Y206743D01*
X45084Y206005D01*
X44753Y205205D01*
X44551Y204363D01*
X44483Y203500D01*
X44551Y202637D01*
X44753Y201795D01*
X45084Y200995D01*
X45537Y200257D01*
X45994Y199722D01*
Y193832D01*
X43292Y193825D01*
X43063Y193770D01*
X42844Y193679D01*
X42643Y193556D01*
X42464Y193403D01*
X42310Y193223D01*
X42187Y193022D01*
X42097Y192804D01*
X42041Y192574D01*
X42028Y192339D01*
X42041Y187103D01*
X42097Y186874D01*
X42187Y186655D01*
X42310Y186454D01*
X42464Y186275D01*
X42643Y186121D01*
X42844Y185998D01*
X43063Y185908D01*
X43292Y185852D01*
X43528Y185839D01*
X45994Y185845D01*
Y156644D01*
X45317Y156924D01*
X43940Y157255D01*
X42528Y157366D01*
X41115Y157255D01*
X39738Y156924D01*
X38429Y156382D01*
X37221Y155642D01*
X36500Y155026D01*
Y176881D01*
X36564Y176936D01*
X36717Y177116D01*
X36841Y177317D01*
X36931Y177535D01*
X36986Y177765D01*
X37000Y178000D01*
X36986Y184235D01*
X36931Y184465D01*
X36841Y184683D01*
X36717Y184884D01*
X36564Y185064D01*
X36500Y185119D01*
Y209351D01*
G37*
G36*
Y362500D02*X40134D01*
X39632Y362192D01*
X39088Y361727D01*
X38623Y361183D01*
X38248Y360572D01*
X37974Y359910D01*
X37807Y359214D01*
X37751Y358500D01*
X37807Y357786D01*
X37974Y357090D01*
X38248Y356428D01*
X38623Y355817D01*
X39088Y355273D01*
X39632Y354808D01*
X40243Y354433D01*
X40905Y354159D01*
X41601Y353992D01*
X42315Y353936D01*
X43029Y353992D01*
X43725Y354159D01*
X44387Y354433D01*
X44998Y354808D01*
X45542Y355273D01*
X45994Y355802D01*
Y324364D01*
X45906Y324328D01*
X45436Y324040D01*
X45017Y323683D01*
X44660Y323264D01*
X44372Y322794D01*
X44161Y322285D01*
X44032Y321749D01*
X43989Y321200D01*
X44032Y320651D01*
X44161Y320115D01*
X44372Y319606D01*
X44660Y319136D01*
X45017Y318717D01*
X45436Y318360D01*
X45906Y318072D01*
X45994Y318036D01*
Y308986D01*
X45765Y308986D01*
X45535Y308931D01*
X45317Y308841D01*
X45116Y308717D01*
X44936Y308564D01*
X44783Y308384D01*
X44659Y308183D01*
X44569Y307965D01*
X44514Y307735D01*
X44500Y307500D01*
X44514Y299265D01*
X44569Y299035D01*
X44659Y298817D01*
X44783Y298616D01*
X44936Y298436D01*
X45116Y298283D01*
X45317Y298159D01*
X45535Y298069D01*
X45765Y298014D01*
X45994Y298000D01*
Y220251D01*
X45260Y220701D01*
X44387Y221063D01*
X43469Y221283D01*
X42528Y221357D01*
X41586Y221283D01*
X40668Y221063D01*
X39795Y220701D01*
X38990Y220208D01*
X38514Y219801D01*
X38514Y220074D01*
X38459Y220304D01*
X38368Y220522D01*
X38245Y220723D01*
X38091Y220903D01*
X37912Y221056D01*
X37711Y221179D01*
X37493Y221270D01*
X37263Y221325D01*
X37028Y221339D01*
X36500Y221338D01*
Y264486D01*
X37206Y264542D01*
X37895Y264707D01*
X38549Y264978D01*
X39153Y265348D01*
X39692Y265808D01*
X40152Y266347D01*
X40522Y266951D01*
X40793Y267605D01*
X40958Y268294D01*
X41000Y269000D01*
X40958Y269706D01*
X40793Y270395D01*
X40522Y271049D01*
X40152Y271653D01*
X39692Y272192D01*
X39153Y272652D01*
X38549Y273022D01*
X37895Y273293D01*
X37206Y273458D01*
X36500Y273514D01*
Y274507D01*
X39735Y274514D01*
X39965Y274569D01*
X40183Y274659D01*
X40384Y274783D01*
X40564Y274936D01*
X40717Y275116D01*
X40841Y275317D01*
X40931Y275535D01*
X40986Y275765D01*
X41000Y276000D01*
X40986Y282235D01*
X40931Y282465D01*
X40841Y282683D01*
X40717Y282884D01*
X40564Y283064D01*
X40384Y283217D01*
X40183Y283341D01*
X39965Y283431D01*
X39735Y283486D01*
X39500Y283500D01*
X36500Y283493D01*
Y297481D01*
X37442Y297556D01*
X38360Y297776D01*
X39232Y298137D01*
X40038Y298631D01*
X40756Y299244D01*
X41369Y299962D01*
X41863Y300768D01*
X42224Y301640D01*
X42444Y302558D01*
X42500Y303500D01*
X42444Y304442D01*
X42224Y305360D01*
X41863Y306232D01*
X41369Y307038D01*
X40756Y307756D01*
X40038Y308369D01*
X39232Y308863D01*
X38360Y309224D01*
X37442Y309444D01*
X36500Y309519D01*
Y362500D01*
G37*
G36*
X30994Y116488D02*X31000Y116488D01*
X31628Y116537D01*
X32240Y116684D01*
X32822Y116925D01*
X33358Y117254D01*
X33837Y117663D01*
X34246Y118142D01*
X34575Y118678D01*
X34816Y119260D01*
X34963Y119872D01*
X35000Y120500D01*
X34963Y121128D01*
X34816Y121740D01*
X34575Y122322D01*
X34246Y122858D01*
X33837Y123337D01*
X33358Y123746D01*
X32822Y124075D01*
X32240Y124316D01*
X31628Y124463D01*
X31144Y124501D01*
X36500Y124509D01*
Y88500D01*
X30994D01*
Y116488D01*
G37*
G36*
Y176503D02*X35735Y176514D01*
X35965Y176569D01*
X36183Y176659D01*
X36384Y176783D01*
X36500Y176881D01*
Y155026D01*
X36144Y154722D01*
X35224Y153645D01*
X34484Y152437D01*
X33942Y151128D01*
X33611Y149751D01*
X33500Y148339D01*
X33611Y146926D01*
X33942Y145549D01*
X34484Y144240D01*
X35224Y143032D01*
X36144Y141955D01*
X36500Y141651D01*
Y136495D01*
X30994Y136487D01*
Y176503D01*
G37*
G36*
Y209343D02*X36500Y209351D01*
Y185119D01*
X36384Y185217D01*
X36183Y185341D01*
X35965Y185431D01*
X35735Y185486D01*
X35500Y185500D01*
X30994Y185490D01*
Y187988D01*
X31000Y187988D01*
X31628Y188037D01*
X32240Y188184D01*
X32822Y188425D01*
X33358Y188754D01*
X33837Y189163D01*
X34246Y189642D01*
X34575Y190178D01*
X34816Y190760D01*
X34963Y191372D01*
X35000Y192000D01*
X34963Y192628D01*
X34816Y193240D01*
X34575Y193822D01*
X34246Y194358D01*
X33837Y194837D01*
X33358Y195246D01*
X32822Y195575D01*
X32240Y195816D01*
X31628Y195963D01*
X31000Y196012D01*
X30994Y196012D01*
Y209343D01*
G37*
G36*
X36500Y221338D02*X30994Y221330D01*
Y228698D01*
X31806Y229196D01*
X32884Y230116D01*
X33804Y231194D01*
X34544Y232401D01*
X35086Y233710D01*
X35417Y235088D01*
X35500Y236500D01*
X35417Y237912D01*
X35086Y239290D01*
X34544Y240599D01*
X33804Y241806D01*
X32884Y242884D01*
X31806Y243804D01*
X30994Y244302D01*
Y268896D01*
X31000Y269000D01*
X30994Y269104D01*
Y278896D01*
X31000Y279000D01*
X30994Y279104D01*
Y299523D01*
X31369Y299962D01*
X31500Y300176D01*
X31631Y299962D01*
X32244Y299244D01*
X32962Y298631D01*
X33768Y298137D01*
X34640Y297776D01*
X35558Y297556D01*
X36500Y297481D01*
Y283493D01*
X33265Y283486D01*
X33035Y283431D01*
X32817Y283341D01*
X32616Y283217D01*
X32436Y283064D01*
X32283Y282884D01*
X32159Y282683D01*
X32069Y282465D01*
X32014Y282235D01*
X32000Y282000D01*
X32014Y275765D01*
X32069Y275535D01*
X32159Y275317D01*
X32283Y275116D01*
X32436Y274936D01*
X32616Y274783D01*
X32817Y274659D01*
X33035Y274569D01*
X33265Y274514D01*
X33500Y274500D01*
X36500Y274507D01*
Y273514D01*
X35794Y273458D01*
X35105Y273293D01*
X34451Y273022D01*
X33847Y272652D01*
X33308Y272192D01*
X32848Y271653D01*
X32478Y271049D01*
X32207Y270395D01*
X32042Y269706D01*
X31986Y269000D01*
X32042Y268294D01*
X32207Y267605D01*
X32478Y266951D01*
X32848Y266347D01*
X33308Y265808D01*
X33847Y265348D01*
X34451Y264978D01*
X35105Y264707D01*
X35794Y264542D01*
X36500Y264486D01*
Y221338D01*
G37*
G36*
X30994Y279104D02*X30958Y279706D01*
X30793Y280395D01*
X30522Y281049D01*
X30152Y281653D01*
X29692Y282192D01*
X29153Y282652D01*
X28549Y283022D01*
X27895Y283293D01*
X27206Y283458D01*
X26500Y283514D01*
Y286488D01*
X27128Y286537D01*
X27740Y286684D01*
X28322Y286925D01*
X28858Y287254D01*
X29337Y287663D01*
X29746Y288142D01*
X30075Y288678D01*
X30316Y289260D01*
X30463Y289872D01*
X30500Y290500D01*
X30463Y291128D01*
X30316Y291740D01*
X30075Y292322D01*
X29746Y292858D01*
X29337Y293337D01*
X28858Y293746D01*
X28322Y294075D01*
X27740Y294316D01*
X27128Y294463D01*
X26500Y294512D01*
Y297481D01*
X27442Y297556D01*
X28360Y297776D01*
X29232Y298137D01*
X30038Y298631D01*
X30756Y299244D01*
X30994Y299523D01*
Y279104D01*
G37*
G36*
Y269104D02*X30958Y269706D01*
X30793Y270395D01*
X30522Y271049D01*
X30152Y271653D01*
X29692Y272192D01*
X29153Y272652D01*
X28549Y273022D01*
X27895Y273293D01*
X27206Y273458D01*
X26500Y273514D01*
Y274486D01*
X27206Y274542D01*
X27895Y274707D01*
X28549Y274978D01*
X29153Y275348D01*
X29692Y275808D01*
X30152Y276347D01*
X30522Y276951D01*
X30793Y277605D01*
X30958Y278294D01*
X30994Y278896D01*
Y269104D01*
G37*
G36*
Y244302D02*X30599Y244544D01*
X29290Y245086D01*
X27912Y245417D01*
X26500Y245528D01*
Y264486D01*
X27206Y264542D01*
X27895Y264707D01*
X28549Y264978D01*
X29153Y265348D01*
X29692Y265808D01*
X30152Y266347D01*
X30522Y266951D01*
X30793Y267605D01*
X30958Y268294D01*
X30994Y268896D01*
Y244302D01*
G37*
G36*
Y221330D02*X27792Y221325D01*
X27563Y221270D01*
X27344Y221179D01*
X27143Y221056D01*
X26964Y220903D01*
X26810Y220723D01*
X26687Y220522D01*
X26597Y220304D01*
X26541Y220074D01*
X26528Y219839D01*
X26541Y210603D01*
X26597Y210374D01*
X26687Y210155D01*
X26810Y209954D01*
X26964Y209775D01*
X27143Y209621D01*
X27344Y209498D01*
X27563Y209408D01*
X27792Y209352D01*
X28028Y209339D01*
X30994Y209343D01*
Y196012D01*
X30372Y195963D01*
X29760Y195816D01*
X29178Y195575D01*
X28642Y195246D01*
X28163Y194837D01*
X27754Y194358D01*
X27425Y193822D01*
X27184Y193240D01*
X27037Y192628D01*
X26988Y192000D01*
X27037Y191372D01*
X27184Y190760D01*
X27425Y190178D01*
X27754Y189642D01*
X28163Y189163D01*
X28642Y188754D01*
X29178Y188425D01*
X29760Y188184D01*
X30372Y188037D01*
X30994Y187988D01*
Y185490D01*
X29265Y185486D01*
X29035Y185431D01*
X28817Y185341D01*
X28616Y185217D01*
X28436Y185064D01*
X28283Y184884D01*
X28159Y184683D01*
X28069Y184465D01*
X28014Y184235D01*
X28000Y184000D01*
X28014Y177765D01*
X28069Y177535D01*
X28159Y177317D01*
X28283Y177116D01*
X28436Y176936D01*
X28616Y176783D01*
X28817Y176659D01*
X29035Y176569D01*
X29265Y176514D01*
X29500Y176500D01*
X30994Y176503D01*
Y136487D01*
X30265Y136486D01*
X30035Y136431D01*
X29817Y136341D01*
X29616Y136217D01*
X29436Y136064D01*
X29283Y135884D01*
X29159Y135683D01*
X29069Y135465D01*
X29014Y135235D01*
X29000Y135000D01*
X29014Y125765D01*
X29069Y125535D01*
X29159Y125317D01*
X29283Y125116D01*
X29436Y124936D01*
X29616Y124783D01*
X29817Y124659D01*
X30035Y124569D01*
X30265Y124514D01*
X30500Y124500D01*
X30850Y124501D01*
X30372Y124463D01*
X29760Y124316D01*
X29178Y124075D01*
X28642Y123746D01*
X28163Y123337D01*
X27754Y122858D01*
X27425Y122322D01*
X27184Y121740D01*
X27037Y121128D01*
X26988Y120500D01*
X27037Y119872D01*
X27184Y119260D01*
X27425Y118678D01*
X27754Y118142D01*
X28163Y117663D01*
X28642Y117254D01*
X29178Y116925D01*
X29760Y116684D01*
X30372Y116537D01*
X30994Y116488D01*
Y88500D01*
X26500D01*
Y227472D01*
X27912Y227583D01*
X29290Y227914D01*
X30599Y228456D01*
X30994Y228698D01*
Y221330D01*
G37*
G36*
X26500Y362500D02*X36500D01*
Y309519D01*
X35558Y309444D01*
X34640Y309224D01*
X33768Y308863D01*
X32962Y308369D01*
X32244Y307756D01*
X31631Y307038D01*
X31500Y306824D01*
X31369Y307038D01*
X30756Y307756D01*
X30038Y308369D01*
X29232Y308863D01*
X28360Y309224D01*
X27442Y309444D01*
X26500Y309519D01*
Y362500D01*
G37*
G36*
X16493Y297507D02*X21235Y297514D01*
X21465Y297569D01*
X21683Y297659D01*
X21884Y297783D01*
X22064Y297936D01*
X22217Y298116D01*
X22341Y298317D01*
X22431Y298535D01*
X22486Y298765D01*
X22500Y299000D01*
X22500Y299026D01*
X22962Y298631D01*
X23768Y298137D01*
X24640Y297776D01*
X25558Y297556D01*
X26500Y297481D01*
Y294512D01*
X25872Y294463D01*
X25260Y294316D01*
X24678Y294075D01*
X24142Y293746D01*
X23663Y293337D01*
X23254Y292858D01*
X22925Y292322D01*
X22684Y291740D01*
X22537Y291128D01*
X22488Y290500D01*
X22537Y289872D01*
X22684Y289260D01*
X22925Y288678D01*
X23254Y288142D01*
X23663Y287663D01*
X24142Y287254D01*
X24678Y286925D01*
X25260Y286684D01*
X25872Y286537D01*
X26500Y286488D01*
Y283514D01*
X25794Y283458D01*
X25105Y283293D01*
X24451Y283022D01*
X23847Y282652D01*
X23308Y282192D01*
X22848Y281653D01*
X22478Y281049D01*
X22207Y280395D01*
X22042Y279706D01*
X21986Y279000D01*
X22042Y278294D01*
X22207Y277605D01*
X22478Y276951D01*
X22848Y276347D01*
X23308Y275808D01*
X23847Y275348D01*
X24451Y274978D01*
X25105Y274707D01*
X25794Y274542D01*
X26500Y274486D01*
Y273514D01*
X25794Y273458D01*
X25105Y273293D01*
X24451Y273022D01*
X23847Y272652D01*
X23308Y272192D01*
X22848Y271653D01*
X22478Y271049D01*
X22207Y270395D01*
X22042Y269706D01*
X21986Y269000D01*
X22042Y268294D01*
X22207Y267605D01*
X22478Y266951D01*
X22848Y266347D01*
X23308Y265808D01*
X23847Y265348D01*
X24451Y264978D01*
X25105Y264707D01*
X25794Y264542D01*
X26500Y264486D01*
Y245528D01*
X25088Y245417D01*
X23710Y245086D01*
X22401Y244544D01*
X21194Y243804D01*
X20116Y242884D01*
X19196Y241806D01*
X18456Y240599D01*
X17914Y239290D01*
X17583Y237912D01*
X17472Y236500D01*
X17583Y235088D01*
X17914Y233710D01*
X18456Y232401D01*
X19196Y231194D01*
X20116Y230116D01*
X21194Y229196D01*
X22401Y228456D01*
X23710Y227914D01*
X25088Y227583D01*
X26500Y227472D01*
Y88500D01*
X16493D01*
Y113026D01*
X16628Y113037D01*
X17240Y113184D01*
X17822Y113425D01*
X18358Y113754D01*
X18837Y114163D01*
X19246Y114642D01*
X19575Y115178D01*
X19816Y115760D01*
X19963Y116372D01*
X20000Y117000D01*
X19963Y117628D01*
X19816Y118240D01*
X19575Y118822D01*
X19246Y119358D01*
X18837Y119837D01*
X18358Y120246D01*
X17822Y120575D01*
X17240Y120816D01*
X16628Y120963D01*
X16493Y120974D01*
Y185863D01*
X16655Y185876D01*
X17267Y186023D01*
X17849Y186264D01*
X18386Y186593D01*
X18865Y187001D01*
X19274Y187480D01*
X19603Y188017D01*
X19844Y188599D01*
X19990Y189211D01*
X20028Y189839D01*
X19990Y190466D01*
X19844Y191078D01*
X19603Y191660D01*
X19274Y192197D01*
X18865Y192676D01*
X18386Y193085D01*
X17849Y193414D01*
X17267Y193655D01*
X16655Y193802D01*
X16493Y193814D01*
Y264487D01*
X16500Y264486D01*
X17206Y264542D01*
X17895Y264707D01*
X18549Y264978D01*
X19153Y265348D01*
X19692Y265808D01*
X20152Y266347D01*
X20522Y266951D01*
X20793Y267605D01*
X20958Y268294D01*
X21000Y269000D01*
X20958Y269706D01*
X20793Y270395D01*
X20522Y271049D01*
X20152Y271653D01*
X19692Y272192D01*
X19153Y272652D01*
X18549Y273022D01*
X17895Y273293D01*
X17206Y273458D01*
X16500Y273514D01*
X16493Y273513D01*
Y274487D01*
X16500Y274486D01*
X17206Y274542D01*
X17895Y274707D01*
X18549Y274978D01*
X19153Y275348D01*
X19692Y275808D01*
X20152Y276347D01*
X20522Y276951D01*
X20793Y277605D01*
X20958Y278294D01*
X21000Y279000D01*
X20958Y279706D01*
X20793Y280395D01*
X20522Y281049D01*
X20152Y281653D01*
X19692Y282192D01*
X19153Y282652D01*
X18549Y283022D01*
X17895Y283293D01*
X17206Y283458D01*
X16500Y283514D01*
X16493Y283513D01*
Y297507D01*
G37*
G36*
Y362500D02*X26500D01*
Y309519D01*
X25558Y309444D01*
X24640Y309224D01*
X23768Y308863D01*
X22962Y308369D01*
X22487Y307963D01*
X22486Y308235D01*
X22431Y308465D01*
X22341Y308683D01*
X22217Y308884D01*
X22064Y309064D01*
X21884Y309217D01*
X21683Y309341D01*
X21465Y309431D01*
X21235Y309486D01*
X21000Y309500D01*
X16493Y309493D01*
Y362500D01*
G37*
G36*
X8500D02*X16493D01*
Y309493D01*
X11765Y309486D01*
X11535Y309431D01*
X11317Y309341D01*
X11116Y309217D01*
X10936Y309064D01*
X10783Y308884D01*
X10659Y308683D01*
X10569Y308465D01*
X10514Y308235D01*
X10500Y308000D01*
X10514Y298765D01*
X10569Y298535D01*
X10659Y298317D01*
X10783Y298116D01*
X10936Y297936D01*
X11116Y297783D01*
X11317Y297659D01*
X11535Y297569D01*
X11765Y297514D01*
X12000Y297500D01*
X16493Y297507D01*
Y283513D01*
X15794Y283458D01*
X15105Y283293D01*
X14451Y283022D01*
X13847Y282652D01*
X13308Y282192D01*
X12848Y281653D01*
X12478Y281049D01*
X12207Y280395D01*
X12042Y279706D01*
X11986Y279000D01*
X12042Y278294D01*
X12207Y277605D01*
X12478Y276951D01*
X12848Y276347D01*
X13308Y275808D01*
X13847Y275348D01*
X14451Y274978D01*
X15105Y274707D01*
X15794Y274542D01*
X16493Y274487D01*
Y273513D01*
X15794Y273458D01*
X15105Y273293D01*
X14451Y273022D01*
X13847Y272652D01*
X13308Y272192D01*
X12848Y271653D01*
X12478Y271049D01*
X12207Y270395D01*
X12042Y269706D01*
X11986Y269000D01*
X12042Y268294D01*
X12207Y267605D01*
X12478Y266951D01*
X12848Y266347D01*
X13308Y265808D01*
X13847Y265348D01*
X14451Y264978D01*
X15105Y264707D01*
X15794Y264542D01*
X16493Y264487D01*
Y193814D01*
X16028Y193851D01*
X15400Y193802D01*
X14788Y193655D01*
X14206Y193414D01*
X13669Y193085D01*
X13190Y192676D01*
X12782Y192197D01*
X12453Y191660D01*
X12212Y191078D01*
X12065Y190466D01*
X12015Y189839D01*
X12065Y189211D01*
X12212Y188599D01*
X12453Y188017D01*
X12782Y187480D01*
X13190Y187001D01*
X13669Y186593D01*
X14206Y186264D01*
X14788Y186023D01*
X15400Y185876D01*
X16028Y185826D01*
X16493Y185863D01*
Y120974D01*
X16000Y121012D01*
X15372Y120963D01*
X14760Y120816D01*
X14178Y120575D01*
X13642Y120246D01*
X13163Y119837D01*
X12754Y119358D01*
X12425Y118822D01*
X12184Y118240D01*
X12037Y117628D01*
X11988Y117000D01*
X12037Y116372D01*
X12184Y115760D01*
X12425Y115178D01*
X12754Y114642D01*
X13163Y114163D01*
X13642Y113754D01*
X14178Y113425D01*
X14760Y113184D01*
X15372Y113037D01*
X16000Y112988D01*
X16493Y113026D01*
Y88500D01*
X8500D01*
Y362500D01*
G37*
G36*
X225500Y8500D02*X202994D01*
Y37750D01*
X213000D01*
X213353Y37771D01*
X213697Y37854D01*
X214025Y37989D01*
X214327Y38174D01*
X214596Y38404D01*
X214826Y38673D01*
X215011Y38975D01*
X215146Y39303D01*
X215229Y39647D01*
X215257Y40000D01*
X215229Y40353D01*
X215146Y40697D01*
X215011Y41025D01*
X214826Y41327D01*
X214596Y41596D01*
X214327Y41826D01*
X214025Y42011D01*
X213697Y42146D01*
X213353Y42229D01*
X213000Y42250D01*
X202994D01*
Y61233D01*
X203000Y61233D01*
X203589Y61279D01*
X204164Y61417D01*
X204710Y61643D01*
X205214Y61952D01*
X205664Y62336D01*
X206048Y62786D01*
X206357Y63290D01*
X206583Y63836D01*
X206721Y64411D01*
X206756Y65000D01*
X206721Y65589D01*
X206583Y66164D01*
X206357Y66710D01*
X206048Y67214D01*
X205664Y67664D01*
X205214Y68048D01*
X204710Y68357D01*
X204164Y68583D01*
X203589Y68721D01*
X203000Y68767D01*
X202994Y68767D01*
Y81000D01*
X225500D01*
Y8500D01*
G37*
G36*
X202994Y42250D02*X192994D01*
Y61233D01*
X193000Y61233D01*
X193589Y61279D01*
X194164Y61417D01*
X194710Y61643D01*
X195214Y61952D01*
X195664Y62336D01*
X196048Y62786D01*
X196357Y63290D01*
X196583Y63836D01*
X196721Y64411D01*
X196756Y65000D01*
X196721Y65589D01*
X196583Y66164D01*
X196357Y66710D01*
X196048Y67214D01*
X195664Y67664D01*
X195214Y68048D01*
X194710Y68357D01*
X194164Y68583D01*
X193589Y68721D01*
X193000Y68767D01*
X192994Y68767D01*
Y81000D01*
X202994D01*
Y68767D01*
X202411Y68721D01*
X201836Y68583D01*
X201290Y68357D01*
X200786Y68048D01*
X200336Y67664D01*
X199952Y67214D01*
X199643Y66710D01*
X199417Y66164D01*
X199279Y65589D01*
X199233Y65000D01*
X199279Y64411D01*
X199417Y63836D01*
X199643Y63290D01*
X199952Y62786D01*
X200336Y62336D01*
X200786Y61952D01*
X201290Y61643D01*
X201836Y61417D01*
X202411Y61279D01*
X202994Y61233D01*
Y42250D01*
G37*
G36*
Y8500D02*X192994D01*
Y37750D01*
X202994D01*
Y8500D01*
G37*
G36*
X192994Y42250D02*X187994D01*
Y49987D01*
X188000Y49986D01*
X188706Y50042D01*
X189395Y50207D01*
X190049Y50478D01*
X190653Y50848D01*
X191192Y51308D01*
X191652Y51847D01*
X192022Y52451D01*
X192293Y53105D01*
X192458Y53794D01*
X192500Y54500D01*
X192458Y55206D01*
X192293Y55895D01*
X192022Y56549D01*
X191652Y57153D01*
X191192Y57692D01*
X190653Y58152D01*
X190049Y58522D01*
X189395Y58793D01*
X188706Y58958D01*
X188000Y59014D01*
X187994Y59013D01*
Y71233D01*
X188000Y71233D01*
X188589Y71279D01*
X189164Y71417D01*
X189710Y71643D01*
X190214Y71952D01*
X190664Y72336D01*
X191048Y72786D01*
X191357Y73290D01*
X191583Y73836D01*
X191721Y74411D01*
X191756Y75000D01*
X191721Y75589D01*
X191583Y76164D01*
X191357Y76710D01*
X191048Y77214D01*
X190664Y77664D01*
X190214Y78048D01*
X189710Y78357D01*
X189164Y78583D01*
X188589Y78721D01*
X188000Y78767D01*
X187994Y78767D01*
Y81000D01*
X192994D01*
Y68767D01*
X192411Y68721D01*
X191836Y68583D01*
X191290Y68357D01*
X190786Y68048D01*
X190336Y67664D01*
X189952Y67214D01*
X189643Y66710D01*
X189417Y66164D01*
X189279Y65589D01*
X189233Y65000D01*
X189279Y64411D01*
X189417Y63836D01*
X189643Y63290D01*
X189952Y62786D01*
X190336Y62336D01*
X190786Y61952D01*
X191290Y61643D01*
X191836Y61417D01*
X192411Y61279D01*
X192994Y61233D01*
Y42250D01*
G37*
G36*
X187994D02*X182994D01*
Y61233D01*
X183000Y61233D01*
X183589Y61279D01*
X184164Y61417D01*
X184710Y61643D01*
X185214Y61952D01*
X185664Y62336D01*
X186048Y62786D01*
X186357Y63290D01*
X186583Y63836D01*
X186721Y64411D01*
X186756Y65000D01*
X186721Y65589D01*
X186583Y66164D01*
X186357Y66710D01*
X186048Y67214D01*
X185664Y67664D01*
X185214Y68048D01*
X184710Y68357D01*
X184164Y68583D01*
X183589Y68721D01*
X183000Y68767D01*
X182994Y68767D01*
Y81000D01*
X187994D01*
Y78767D01*
X187411Y78721D01*
X186836Y78583D01*
X186290Y78357D01*
X185786Y78048D01*
X185336Y77664D01*
X184952Y77214D01*
X184643Y76710D01*
X184417Y76164D01*
X184279Y75589D01*
X184233Y75000D01*
X184279Y74411D01*
X184417Y73836D01*
X184643Y73290D01*
X184952Y72786D01*
X185336Y72336D01*
X185786Y71952D01*
X186290Y71643D01*
X186836Y71417D01*
X187411Y71279D01*
X187994Y71233D01*
Y59013D01*
X187294Y58958D01*
X186605Y58793D01*
X185951Y58522D01*
X185347Y58152D01*
X184808Y57692D01*
X184348Y57153D01*
X183978Y56549D01*
X183707Y55895D01*
X183542Y55206D01*
X183486Y54500D01*
X183542Y53794D01*
X183707Y53105D01*
X183978Y52451D01*
X184348Y51847D01*
X184808Y51308D01*
X185347Y50848D01*
X185951Y50478D01*
X186605Y50207D01*
X187294Y50042D01*
X187994Y49987D01*
Y42250D01*
G37*
G36*
X192994Y8500D02*X182994D01*
Y37750D01*
X192994D01*
Y8500D01*
G37*
G36*
X182994Y42250D02*X178000D01*
Y50007D01*
X181235Y50014D01*
X181465Y50069D01*
X181683Y50159D01*
X181884Y50283D01*
X182064Y50436D01*
X182217Y50616D01*
X182341Y50817D01*
X182431Y51035D01*
X182486Y51265D01*
X182500Y51500D01*
X182486Y57735D01*
X182431Y57965D01*
X182341Y58183D01*
X182217Y58384D01*
X182064Y58564D01*
X181884Y58717D01*
X181683Y58841D01*
X181465Y58931D01*
X181235Y58986D01*
X181000Y59000D01*
X178000Y58993D01*
Y81000D01*
X182994D01*
Y68767D01*
X182411Y68721D01*
X181836Y68583D01*
X181290Y68357D01*
X180786Y68048D01*
X180336Y67664D01*
X179952Y67214D01*
X179643Y66710D01*
X179417Y66164D01*
X179279Y65589D01*
X179233Y65000D01*
X179279Y64411D01*
X179417Y63836D01*
X179643Y63290D01*
X179952Y62786D01*
X180336Y62336D01*
X180786Y61952D01*
X181290Y61643D01*
X181836Y61417D01*
X182411Y61279D01*
X182994Y61233D01*
Y42250D01*
G37*
G36*
X178000D02*X172994D01*
Y61233D01*
X173000Y61233D01*
X173589Y61279D01*
X174164Y61417D01*
X174710Y61643D01*
X175214Y61952D01*
X175664Y62336D01*
X176048Y62786D01*
X176357Y63290D01*
X176583Y63836D01*
X176721Y64411D01*
X176756Y65000D01*
X176721Y65589D01*
X176583Y66164D01*
X176357Y66710D01*
X176048Y67214D01*
X175664Y67664D01*
X175214Y68048D01*
X174710Y68357D01*
X174164Y68583D01*
X173589Y68721D01*
X173000Y68767D01*
X172994Y68767D01*
Y81000D01*
X178000D01*
Y58993D01*
X174765Y58986D01*
X174535Y58931D01*
X174317Y58841D01*
X174116Y58717D01*
X173936Y58564D01*
X173783Y58384D01*
X173659Y58183D01*
X173569Y57965D01*
X173514Y57735D01*
X173500Y57500D01*
X173514Y51265D01*
X173569Y51035D01*
X173659Y50817D01*
X173783Y50616D01*
X173936Y50436D01*
X174116Y50283D01*
X174317Y50159D01*
X174535Y50069D01*
X174765Y50014D01*
X175000Y50000D01*
X178000Y50007D01*
Y42250D01*
G37*
G36*
X182994Y8500D02*X172994D01*
Y37750D01*
X182994D01*
Y8500D01*
G37*
G36*
X172994D02*X160493D01*
Y71487D01*
X160500Y71486D01*
X161206Y71542D01*
X161895Y71707D01*
X162549Y71978D01*
X163153Y72348D01*
X163692Y72808D01*
X164152Y73347D01*
X164522Y73951D01*
X164793Y74605D01*
X164958Y75294D01*
X165000Y76000D01*
X164958Y76706D01*
X164793Y77395D01*
X164522Y78049D01*
X164152Y78653D01*
X163692Y79192D01*
X163153Y79652D01*
X162549Y80022D01*
X161895Y80293D01*
X161206Y80458D01*
X160500Y80514D01*
X160493Y80513D01*
Y81000D01*
X172994D01*
Y68767D01*
X172411Y68721D01*
X171836Y68583D01*
X171290Y68357D01*
X170786Y68048D01*
X170336Y67664D01*
X169952Y67214D01*
X169643Y66710D01*
X169417Y66164D01*
X169279Y65589D01*
X169233Y65000D01*
X169279Y64411D01*
X169417Y63836D01*
X169643Y63290D01*
X169952Y62786D01*
X170336Y62336D01*
X170786Y61952D01*
X171290Y61643D01*
X171836Y61417D01*
X172411Y61279D01*
X172994Y61233D01*
Y42250D01*
X168000D01*
X167647Y42229D01*
X167303Y42146D01*
X166975Y42011D01*
X166673Y41826D01*
X166404Y41596D01*
X166174Y41327D01*
X165989Y41025D01*
X165854Y40697D01*
X165771Y40353D01*
X165743Y40000D01*
X165771Y39647D01*
X165854Y39303D01*
X165989Y38975D01*
X166174Y38673D01*
X166404Y38404D01*
X166673Y38174D01*
X166975Y37989D01*
X167303Y37854D01*
X167647Y37771D01*
X168000Y37750D01*
X172994D01*
Y8500D01*
G37*
G36*
X160493D02*X155500D01*
Y81000D01*
X160493D01*
Y80513D01*
X159794Y80458D01*
X159105Y80293D01*
X158451Y80022D01*
X157847Y79652D01*
X157308Y79192D01*
X156848Y78653D01*
X156478Y78049D01*
X156207Y77395D01*
X156042Y76706D01*
X155986Y76000D01*
X156042Y75294D01*
X156207Y74605D01*
X156478Y73951D01*
X156848Y73347D01*
X157308Y72808D01*
X157847Y72348D01*
X158451Y71978D01*
X159105Y71707D01*
X159794Y71542D01*
X160493Y71487D01*
Y8500D01*
G37*
G54D45*X80500Y216000D02*X53189D01*
X52528Y215339D01*
X61000Y192000D02*Y136500D01*
X55000Y130500D01*
X137000Y230000D02*X124500Y242500D01*
X107000D01*
X80500Y216000D01*
X168000Y40000D02*X213000D01*
X47500Y321200D02*X90600D01*
X93800Y318000D01*
X110300Y334500D02*X93800Y318000D01*
X202500Y355000D02*X183000D01*
X162500Y334500D01*
X110300D01*
G54D44*G36*
X183500Y221000D02*Y216000D01*
X188500D01*
Y221000D01*
X183500D01*
G37*
G54D46*X122000Y294000D03*
G54D47*Y281500D03*
G54D46*X132000Y294000D03*
G54D44*G36*
X149500Y284000D02*Y279000D01*
X154500D01*
Y284000D01*
X149500D01*
G37*
G54D48*X144000Y291500D03*
G54D47*X154500Y295500D03*
G54D49*X122000Y227000D03*
G54D44*G36*
X134500Y232500D02*Y227500D01*
X139500D01*
Y232500D01*
X134500D01*
G37*
G54D47*X107000Y230000D03*
G54D44*G36*
X109000Y260500D02*Y254500D01*
X115000D01*
Y260500D01*
X109000D01*
G37*
G54D48*X132000Y257500D03*
G54D44*G36*
X141000Y274500D02*Y268500D01*
X147000D01*
Y274500D01*
X141000D01*
G37*
G36*
X160900Y274600D02*Y267400D01*
X168100D01*
Y274600D01*
X160900D01*
G37*
G36*
X171500Y264500D02*Y258500D01*
X177500D01*
Y264500D01*
X171500D01*
G37*
G54D48*X164500Y261500D03*
X180000Y273500D03*
G54D44*G36*
X182000Y298000D02*Y293000D01*
X187000D01*
Y298000D01*
X182000D01*
G37*
G54D47*X184500Y287000D03*
X186000Y188500D03*
G54D44*G36*
X170000Y311500D02*Y302500D01*
X179000D01*
Y311500D01*
X170000D01*
G37*
G54D46*X184500Y307000D03*
X194500D03*
G54D49*X184500Y240000D03*
G54D44*G36*
X212000Y289500D02*Y284500D01*
X217000D01*
Y289500D01*
X212000D01*
G37*
G54D50*X214500Y271000D03*
X194500Y261000D03*
G54D44*G36*
X197000Y276500D02*Y270500D01*
X203000D01*
Y276500D01*
X197000D01*
G37*
G36*
X191500Y160000D02*Y154000D01*
X197500D01*
Y160000D01*
X191500D01*
G37*
G54D48*X194500Y177000D03*
G54D51*X124992Y358500D03*
G54D44*G36*
X148000Y348000D02*Y342000D01*
X154000D01*
Y348000D01*
X148000D01*
G37*
G54D48*X151000Y325000D03*
G54D44*G36*
X199500Y328000D02*Y322000D01*
X205500D01*
Y328000D01*
X199500D01*
G37*
G54D48*X202500Y355000D03*
G54D51*X105307Y358500D03*
G54D44*G36*
X90500Y362000D02*Y356000D01*
X96500D01*
Y362000D01*
X90500D01*
G37*
G54D48*X83500Y359000D03*
G54D51*X62000Y358500D03*
X42315D03*
G54D44*G36*
X12000Y308000D02*Y299000D01*
X21000D01*
Y308000D01*
X12000D01*
G37*
G54D46*X26500Y303500D03*
X36500D03*
G54D44*G36*
X46000Y307500D02*Y299500D01*
X54000D01*
Y307500D01*
X46000D01*
G37*
G36*
X54000Y293000D02*Y288000D01*
X59000D01*
Y293000D01*
X54000D01*
G37*
G54D47*X26500Y290500D03*
G54D44*G36*
X33500Y282000D02*Y276000D01*
X39500D01*
Y282000D01*
X33500D01*
G37*
G54D48*X26500Y279000D03*
X16500D03*
Y269000D03*
X26500D03*
X36500D03*
G54D44*G36*
X79000Y281500D02*Y275500D01*
X85000D01*
Y281500D01*
X79000D01*
G37*
G54D48*X82000Y298500D03*
G54D44*G36*
X107500D02*Y289500D01*
X116500D01*
Y298500D01*
X107500D01*
G37*
G54D49*X26500Y236500D03*
G54D44*G36*
X28028Y219839D02*Y210839D01*
X37028D01*
Y219839D01*
X28028D01*
G37*
G54D46*X42528Y215339D03*
G54D44*G36*
X73000Y190500D02*Y181500D01*
X82000D01*
Y190500D01*
X73000D01*
G37*
G54D48*X52500Y181000D03*
G54D44*G36*
X58500Y194500D02*Y189500D01*
X63500D01*
Y194500D01*
X58500D01*
G37*
G54D52*X50000Y203500D03*
G54D44*G36*
X98400Y212100D02*Y204900D01*
X105600D01*
Y212100D01*
X98400D01*
G37*
G36*
X70000Y207000D02*Y201000D01*
X76000D01*
Y207000D01*
X70000D01*
G37*
G54D48*X73000Y224000D03*
G54D46*X52528Y215339D03*
G54D44*G36*
X29500Y184000D02*Y178000D01*
X35500D01*
Y184000D01*
X29500D01*
G37*
G54D47*X31000Y192000D03*
G54D44*G36*
X43528Y192339D02*Y187339D01*
X48528D01*
Y192339D01*
X43528D01*
G37*
G54D47*X16028Y189839D03*
G54D50*X152000Y208500D03*
X132000Y198500D03*
G54D44*G36*
X104250Y175750D02*Y170250D01*
X109750D01*
Y175750D01*
X104250D01*
G37*
G36*
X119500Y190000D02*Y181000D01*
X128500D01*
Y190000D01*
X119500D01*
G37*
G54D46*X134000Y185500D03*
X144000D03*
X87500Y186000D03*
X97500D03*
G54D44*G36*
X73000Y90000D02*Y81000D01*
X82000D01*
Y90000D01*
X73000D01*
G37*
G54D46*X87500Y85500D03*
X97500D03*
G54D49*X87500Y18500D03*
X134000Y118500D03*
X45000Y63500D03*
G54D44*G36*
X43500Y119500D02*Y114500D01*
X48500D01*
Y119500D01*
X43500D01*
G37*
G54D53*X107000Y123000D03*
G54D44*G36*
X92000Y157500D02*Y151500D01*
X98000D01*
Y157500D01*
X92000D01*
G37*
G54D48*X95000Y144500D03*
G54D49*X42528Y148339D03*
X87500Y119000D03*
G54D44*G36*
X58500Y123000D02*Y118000D01*
X63500D01*
Y123000D01*
X58500D01*
G37*
G54D47*X31000Y120500D03*
G54D44*G36*
X30500Y135000D02*Y126000D01*
X39500D01*
Y135000D01*
X30500D01*
G37*
G54D46*X45000Y130500D03*
X55000D03*
G54D47*X16000Y117000D03*
G54D44*G36*
X168500Y124000D02*Y118000D01*
X174500D01*
Y124000D01*
X168500D01*
G37*
G54D48*X171500Y141000D03*
G54D44*G36*
X174750Y109250D02*Y103750D01*
X180250D01*
Y109250D01*
X174750D01*
G37*
G54D53*X177500Y86500D03*
G54D44*G36*
X157750Y109250D02*Y103750D01*
X163250D01*
Y109250D01*
X157750D01*
G37*
G54D53*X160500Y86500D03*
G54D44*G36*
X185250Y109250D02*Y103750D01*
X190750D01*
Y109250D01*
X185250D01*
G37*
G54D53*X188000Y86500D03*
G54D44*G36*
X157500Y69000D02*Y63000D01*
X163500D01*
Y69000D01*
X157500D01*
G37*
G54D54*X173000Y65000D03*
X183000D03*
X193000D03*
X203000D03*
G54D48*X160500Y76000D03*
G54D55*X168000Y40000D03*
G54D56*X159457Y27992D03*
G54D54*X178000Y75000D03*
X188000D03*
G54D55*X213000Y40000D03*
G54D56*X221465Y27992D03*
G54D54*X198000Y75000D03*
X208000D03*
G54D44*G36*
X175000Y57500D02*Y51500D01*
X181000D01*
Y57500D01*
X175000D01*
G37*
G54D48*X188000Y54500D03*
X198000D03*
G54D57*X128500Y176500D03*
X139000D03*
X155000Y161500D03*
X169000Y162810D03*
X51472Y170500D03*
X119500Y154500D03*
X121000Y139500D03*
X127000Y103500D03*
X60890Y89000D03*
X71000Y48500D03*
X96000Y39500D03*
X42362Y91000D03*
X16000Y101000D03*
X47500Y321200D03*
X16500Y179000D03*
X65500Y240528D03*
X152000Y246000D03*
X88000Y236028D03*
X162000Y234500D03*
X204000Y223528D03*
X216500Y350472D03*
X210000Y359000D03*
X214000Y280000D03*
X93800Y318000D03*
G54D58*G54D59*G54D48*G54D59*G54D48*G54D59*G54D60*G54D59*G54D61*G54D59*G54D60*G54D62*G54D60*G54D59*G54D48*G54D61*G54D59*G54D60*G54D63*G54D60*G54D47*G54D63*G54D62*G54D63*G54D48*G54D47*G54D59*G54D62*G54D60*G54D48*G54D61*G54D48*G54D60*G54D59*G54D47*G54D60*G54D48*G54D60*G54D59*G54D60*G54D48*G54D61*G54D59*G54D60*G54D62*G54D61*G54D59*G54D48*G54D59*G54D60*G54D62*G54D64*G54D62*G54D65*G54D66*G54D64*G54D65*G54D66*G54D64*G54D67*M02*
