G04 start of page 2 for group 0 idx 0 *
G04 Title: (unknown), top *
G04 Creator: pcb 1.99z *
G04 CreationDate: Thu 18 Dec 2014 06:06:48 AM GMT UTC *
G04 For: commonadmin *
G04 Format: Gerber/RS-274X *
G04 PCB-Dimensions (mil): 2350.00 3800.00 *
G04 PCB-Coordinate-Origin: lower left *
%MOIN*%
%FSLAX25Y25*%
%LNTOP*%
%ADD43C,0.0280*%
%ADD42C,0.0630*%
%ADD41C,0.1280*%
%ADD40C,0.0354*%
%ADD39C,0.0512*%
%ADD38C,0.0380*%
%ADD37C,0.1300*%
%ADD36C,0.0300*%
%ADD35C,0.0200*%
%ADD34C,0.0250*%
%ADD33C,0.0400*%
%ADD32R,0.0610X0.0610*%
%ADD31R,0.0370X0.0370*%
%ADD30R,0.0200X0.0200*%
%ADD29R,0.0295X0.0295*%
%ADD28R,0.0197X0.0197*%
%ADD27R,0.0512X0.0512*%
%ADD26C,0.0197*%
%ADD25R,0.0768X0.0768*%
%ADD24R,0.1450X0.1450*%
%ADD23C,0.0827*%
%ADD22C,0.1476*%
%ADD21C,0.0551*%
%ADD20C,0.0550*%
%ADD19C,0.0800*%
%ADD18C,0.0750*%
%ADD17C,0.0720*%
%ADD16C,0.1500*%
%ADD15C,0.0600*%
%ADD14C,0.0500*%
%ADD13C,0.0900*%
%ADD12C,0.0150*%
%ADD11C,0.0001*%
G54D11*G36*
X142747Y179630D02*X143058Y179556D01*
X144000Y179481D01*
X144942Y179556D01*
X145860Y179776D01*
X146732Y180137D01*
X147538Y180631D01*
X148173Y181174D01*
X148361Y181059D01*
X148475Y180989D01*
X148803Y180854D01*
X149147Y180771D01*
X149147D01*
X149500Y180743D01*
X149588Y180750D01*
X159912D01*
X160000Y180743D01*
X160353Y180771D01*
X160353Y180771D01*
X160697Y180854D01*
X161025Y180989D01*
X161327Y181174D01*
X161596Y181404D01*
X161653Y181471D01*
X163029Y182847D01*
X163096Y182904D01*
X163326Y183173D01*
X163326Y183173D01*
X163511Y183475D01*
X163587Y183658D01*
Y181051D01*
X161596Y179060D01*
X159731D01*
X159731Y179406D01*
X159694Y179559D01*
X159634Y179704D01*
X159552Y179838D01*
X159449Y179958D01*
X159330Y180060D01*
X159195Y180143D01*
X159050Y180203D01*
X158897Y180240D01*
X158740Y180249D01*
X151103Y180240D01*
X150950Y180203D01*
X150805Y180143D01*
X150670Y180060D01*
X150551Y179958D01*
X150448Y179838D01*
X150366Y179704D01*
X150306Y179559D01*
X150269Y179406D01*
X150260Y179249D01*
X150269Y173974D01*
X150306Y173821D01*
X150335Y173750D01*
X144000D01*
X143647Y173729D01*
X143303Y173646D01*
X142975Y173511D01*
X142747Y173371D01*
Y174250D01*
X144000D01*
X144353Y174271D01*
X144697Y174354D01*
X145025Y174489D01*
X145327Y174674D01*
X145596Y174904D01*
X145681Y175003D01*
X148328Y175005D01*
X148405Y175023D01*
X148478Y175053D01*
X148545Y175094D01*
X148605Y175145D01*
X148656Y175205D01*
X148697Y175272D01*
X148727Y175345D01*
X148745Y175422D01*
X148750Y175500D01*
X148745Y177578D01*
X148727Y177655D01*
X148697Y177728D01*
X148656Y177795D01*
X148605Y177855D01*
X148545Y177906D01*
X148478Y177947D01*
X148405Y177977D01*
X148328Y177995D01*
X148250Y178000D01*
X145679Y177999D01*
X145596Y178096D01*
X145327Y178326D01*
X145025Y178511D01*
X144697Y178646D01*
X144353Y178729D01*
X144000Y178750D01*
X142747D01*
Y179630D01*
G37*
G36*
X211585Y323238D02*X211733Y323112D01*
X211944Y322982D01*
X212173Y322887D01*
X212414Y322830D01*
X212661Y322810D01*
X212723Y322815D01*
X214250D01*
Y322432D01*
X211585Y319767D01*
Y323238D01*
G37*
G36*
Y231526D02*X211827Y231674D01*
X212096Y231904D01*
X212153Y231971D01*
X215029Y234847D01*
X215096Y234904D01*
X215326Y235173D01*
X215326Y235173D01*
X215511Y235475D01*
X215646Y235803D01*
X215729Y236147D01*
X215757Y236500D01*
X215750Y236588D01*
Y250412D01*
X215757Y250500D01*
X215729Y250853D01*
X215729Y250853D01*
X215646Y251197D01*
X215511Y251525D01*
X215326Y251827D01*
X215096Y252096D01*
X215029Y252153D01*
X211585Y255597D01*
Y266256D01*
X211964Y266023D01*
X212774Y265688D01*
X213626Y265483D01*
X214500Y265414D01*
X215374Y265483D01*
X216226Y265688D01*
X217036Y266023D01*
X217783Y266481D01*
X218450Y267050D01*
X219019Y267717D01*
X219477Y268464D01*
X219812Y269274D01*
X220017Y270126D01*
X220068Y271000D01*
X220017Y271874D01*
X219812Y272726D01*
X219477Y273536D01*
X219019Y274283D01*
X218450Y274950D01*
X217783Y275519D01*
X217036Y275977D01*
X216226Y276312D01*
X215374Y276517D01*
X214500Y276586D01*
X213626Y276517D01*
X212774Y276312D01*
X211964Y275977D01*
X211585Y275744D01*
Y283057D01*
X211765Y283014D01*
X212000Y283000D01*
X217235Y283014D01*
X217465Y283069D01*
X217683Y283159D01*
X217884Y283283D01*
X218064Y283436D01*
X218217Y283616D01*
X218341Y283817D01*
X218431Y284035D01*
X218486Y284265D01*
X218500Y284500D01*
X218486Y289735D01*
X218431Y289965D01*
X218341Y290183D01*
X218217Y290384D01*
X218064Y290564D01*
X217884Y290717D01*
X217683Y290841D01*
X217465Y290931D01*
X217235Y290986D01*
X217000Y291000D01*
X213691Y290991D01*
X211585Y293097D01*
Y299768D01*
X212406Y299769D01*
X212559Y299806D01*
X212704Y299866D01*
X212838Y299948D01*
X212958Y300051D01*
X213060Y300170D01*
X213143Y300305D01*
X213203Y300450D01*
X213240Y300603D01*
X213249Y300760D01*
X213240Y308397D01*
X213203Y308550D01*
X213143Y308695D01*
X213060Y308830D01*
X212958Y308949D01*
X212838Y309052D01*
X212704Y309134D01*
X212559Y309194D01*
X212406Y309231D01*
X212249Y309240D01*
X211585Y309239D01*
Y315250D01*
X212412D01*
X212500Y315243D01*
X212853Y315271D01*
X212853Y315271D01*
X213197Y315354D01*
X213525Y315489D01*
X213827Y315674D01*
X214096Y315904D01*
X214153Y315971D01*
X218029Y319847D01*
X218096Y319904D01*
X218326Y320173D01*
X218326Y320173D01*
X218511Y320475D01*
X218646Y320803D01*
X218729Y321147D01*
X218757Y321500D01*
X218750Y321588D01*
Y322815D01*
X220277D01*
X220339Y322810D01*
X220585Y322830D01*
X220586Y322830D01*
X220827Y322887D01*
X221056Y322982D01*
X221267Y323112D01*
X221456Y323273D01*
X221617Y323461D01*
X221746Y323673D01*
X221841Y323902D01*
X221899Y324143D01*
X221918Y324390D01*
X221913Y324452D01*
Y335548D01*
X221918Y335610D01*
X221899Y335857D01*
X221841Y336098D01*
X221746Y336327D01*
X221617Y336539D01*
X221456Y336727D01*
X221267Y336888D01*
X221056Y337018D01*
X220827Y337113D01*
X220586Y337170D01*
X220339Y337190D01*
X220277Y337185D01*
X212723D01*
X212661Y337190D01*
X212414Y337170D01*
X212173Y337113D01*
X211944Y337018D01*
X211733Y336888D01*
X211585Y336762D01*
Y342371D01*
X211623Y342404D01*
X211681Y342471D01*
X212504Y343295D01*
X212661Y343283D01*
X212723Y343287D01*
X220277D01*
X220339Y343283D01*
X220585Y343302D01*
X220586Y343302D01*
X220827Y343360D01*
X221056Y343455D01*
X221267Y343584D01*
X221456Y343745D01*
X221617Y343934D01*
X221746Y344145D01*
X221841Y344374D01*
X221899Y344615D01*
X221918Y344862D01*
X221913Y344924D01*
Y356021D01*
X221918Y356083D01*
X221899Y356330D01*
X221841Y356571D01*
X221746Y356800D01*
X221617Y357011D01*
X221456Y357200D01*
X221267Y357361D01*
X221056Y357490D01*
X220827Y357585D01*
X220586Y357643D01*
X220339Y357662D01*
X220277Y357657D01*
X212723D01*
X212661Y357662D01*
X212414Y357643D01*
X212173Y357585D01*
X211944Y357490D01*
X211733Y357361D01*
X211585Y357234D01*
Y362500D01*
X225000D01*
Y308581D01*
X224953Y308695D01*
X224870Y308830D01*
X224768Y308949D01*
X224648Y309052D01*
X224514Y309134D01*
X224369Y309194D01*
X224216Y309231D01*
X224059Y309240D01*
X218784Y309231D01*
X218631Y309194D01*
X218485Y309134D01*
X218351Y309052D01*
X218232Y308949D01*
X218129Y308830D01*
X218047Y308695D01*
X217987Y308550D01*
X217950Y308397D01*
X217941Y308240D01*
X217950Y300603D01*
X217987Y300450D01*
X218047Y300305D01*
X218129Y300170D01*
X218232Y300051D01*
X218351Y299948D01*
X218485Y299866D01*
X218631Y299806D01*
X218784Y299769D01*
X218941Y299760D01*
X219250Y299761D01*
Y282877D01*
X217211Y282868D01*
X217058Y282831D01*
X216913Y282771D01*
X216778Y282689D01*
X216659Y282586D01*
X216556Y282467D01*
X216474Y282332D01*
X216440Y282250D01*
X214000D01*
X213647Y282229D01*
X213303Y282146D01*
X212975Y282011D01*
X212673Y281826D01*
X212404Y281596D01*
X212174Y281327D01*
X211989Y281025D01*
X211854Y280697D01*
X211771Y280353D01*
X211743Y280000D01*
X211771Y279647D01*
X211854Y279303D01*
X211989Y278975D01*
X212174Y278673D01*
X212404Y278404D01*
X212673Y278174D01*
X212975Y277989D01*
X213303Y277854D01*
X213647Y277771D01*
X214000Y277750D01*
X217764D01*
X217852Y277743D01*
X218205Y277771D01*
X218205Y277771D01*
X218549Y277854D01*
X218877Y277989D01*
X219108Y278131D01*
X219493Y278132D01*
X219646Y278169D01*
X219791Y278229D01*
X219926Y278311D01*
X219926Y278312D01*
X219926Y278311D01*
X220061Y278229D01*
X220206Y278169D01*
X220359Y278132D01*
X220516Y278123D01*
X222641Y278132D01*
X222794Y278169D01*
X222939Y278229D01*
X223074Y278311D01*
X223193Y278414D01*
X223295Y278533D01*
X223378Y278668D01*
X223438Y278813D01*
X223475Y278966D01*
X223484Y279123D01*
X223483Y279430D01*
X223511Y279475D01*
X223646Y279803D01*
X223729Y280147D01*
X223750Y280500D01*
Y299768D01*
X224216Y299769D01*
X224369Y299806D01*
X224514Y299866D01*
X224648Y299948D01*
X224768Y300051D01*
X224870Y300170D01*
X224953Y300305D01*
X225000Y300419D01*
Y88500D01*
X211585D01*
Y231526D01*
G37*
G36*
Y336762D02*X211571Y336750D01*
X208362D01*
X208360Y338397D01*
X208323Y338550D01*
X208263Y338695D01*
X208181Y338830D01*
X208078Y338949D01*
X207959Y339052D01*
X207825Y339134D01*
X207679Y339194D01*
X207526Y339231D01*
X207369Y339240D01*
X202094Y339231D01*
X201941Y339194D01*
X201796Y339134D01*
X201662Y339052D01*
X201542Y338949D01*
X201440Y338830D01*
X201357Y338695D01*
X201297Y338550D01*
X201260Y338397D01*
X201251Y338240D01*
X201260Y330603D01*
X201297Y330450D01*
X201357Y330305D01*
X201440Y330170D01*
X201542Y330051D01*
X201662Y329948D01*
X201796Y329866D01*
X201941Y329806D01*
X202094Y329769D01*
X202251Y329760D01*
X207526Y329769D01*
X207679Y329806D01*
X207825Y329866D01*
X207959Y329948D01*
X208078Y330051D01*
X208181Y330170D01*
X208263Y330305D01*
X208323Y330450D01*
X208360Y330603D01*
X208369Y330760D01*
X208367Y332250D01*
X211068D01*
X211087Y332231D01*
Y324451D01*
X211082Y324390D01*
X211101Y324143D01*
X211159Y323902D01*
X211254Y323673D01*
X211383Y323461D01*
X211544Y323273D01*
X211585Y323238D01*
Y319767D01*
X211568Y319750D01*
X198221D01*
Y321217D01*
X198283Y321116D01*
X198436Y320936D01*
X198616Y320783D01*
X198817Y320659D01*
X199035Y320569D01*
X199265Y320514D01*
X199500Y320500D01*
X205735Y320514D01*
X205965Y320569D01*
X206183Y320659D01*
X206384Y320783D01*
X206564Y320936D01*
X206717Y321116D01*
X206841Y321317D01*
X206931Y321535D01*
X206986Y321765D01*
X207000Y322000D01*
X206986Y328235D01*
X206931Y328465D01*
X206841Y328683D01*
X206717Y328884D01*
X206564Y329064D01*
X206384Y329217D01*
X206183Y329341D01*
X205965Y329431D01*
X205735Y329486D01*
X205500Y329500D01*
X201192Y329490D01*
X198221Y332461D01*
Y347539D01*
X201334Y350652D01*
X201794Y350542D01*
X202500Y350486D01*
X203206Y350542D01*
X203895Y350707D01*
X204549Y350978D01*
X205153Y351348D01*
X205692Y351808D01*
X206152Y352347D01*
X206522Y352951D01*
X206793Y353605D01*
X206958Y354294D01*
X207000Y355000D01*
X206958Y355706D01*
X206793Y356395D01*
X206522Y357049D01*
X206152Y357653D01*
X205692Y358192D01*
X205153Y358652D01*
X204549Y359022D01*
X203895Y359293D01*
X203206Y359458D01*
X202500Y359514D01*
X201794Y359458D01*
X201105Y359293D01*
X200451Y359022D01*
X199847Y358652D01*
X199308Y358192D01*
X198848Y357653D01*
X198478Y357049D01*
X198221Y356427D01*
Y362500D01*
X211585D01*
Y357234D01*
X211544Y357200D01*
X211383Y357011D01*
X211254Y356800D01*
X211159Y356571D01*
X211101Y356330D01*
X211101Y356330D01*
X211082Y356083D01*
X211087Y356021D01*
Y348241D01*
X209096Y346250D01*
X208362D01*
X208360Y347897D01*
X208323Y348050D01*
X208263Y348195D01*
X208181Y348330D01*
X208078Y348449D01*
X207959Y348552D01*
X207825Y348634D01*
X207679Y348694D01*
X207526Y348731D01*
X207369Y348740D01*
X202094Y348731D01*
X201941Y348694D01*
X201796Y348634D01*
X201662Y348552D01*
X201542Y348449D01*
X201440Y348330D01*
X201357Y348195D01*
X201297Y348050D01*
X201260Y347897D01*
X201251Y347740D01*
X201260Y340103D01*
X201297Y339950D01*
X201357Y339805D01*
X201440Y339670D01*
X201542Y339551D01*
X201662Y339448D01*
X201796Y339366D01*
X201941Y339306D01*
X202094Y339269D01*
X202251Y339260D01*
X207526Y339269D01*
X207679Y339306D01*
X207825Y339366D01*
X207959Y339448D01*
X208078Y339551D01*
X208181Y339670D01*
X208263Y339805D01*
X208323Y339950D01*
X208360Y340103D01*
X208369Y340260D01*
X208367Y341750D01*
X209939D01*
X210028Y341743D01*
X210380Y341771D01*
X210381Y341771D01*
X210725Y341854D01*
X211052Y341989D01*
X211354Y342174D01*
X211585Y342371D01*
Y336762D01*
G37*
G36*
X198221Y319750D02*X142747D01*
Y340750D01*
X147169D01*
X147317Y340659D01*
X147535Y340569D01*
X147765Y340514D01*
X148000Y340500D01*
X154235Y340514D01*
X154465Y340569D01*
X154683Y340659D01*
X154884Y340783D01*
X155064Y340936D01*
X155217Y341116D01*
X155341Y341317D01*
X155431Y341535D01*
X155486Y341765D01*
X155500Y342000D01*
X155486Y348235D01*
X155431Y348465D01*
X155341Y348683D01*
X155217Y348884D01*
X155064Y349064D01*
X154884Y349217D01*
X154683Y349341D01*
X154465Y349431D01*
X154235Y349486D01*
X154000Y349500D01*
X147765Y349486D01*
X147535Y349431D01*
X147317Y349341D01*
X147116Y349217D01*
X146936Y349064D01*
X146783Y348884D01*
X146659Y348683D01*
X146569Y348465D01*
X146514Y348235D01*
X146500Y348000D01*
X146506Y345250D01*
X142747D01*
Y362500D01*
X198221D01*
Y356427D01*
X198207Y356395D01*
X198042Y355706D01*
X197986Y355000D01*
X198042Y354294D01*
X198152Y353834D01*
X193054Y348736D01*
X190284Y348731D01*
X190131Y348694D01*
X189986Y348634D01*
X189852Y348552D01*
X189732Y348449D01*
X189630Y348330D01*
X189547Y348195D01*
X189487Y348050D01*
X189450Y347897D01*
X189441Y347740D01*
X189450Y340103D01*
X189487Y339950D01*
X189547Y339805D01*
X189630Y339670D01*
X189732Y339551D01*
X189852Y339448D01*
X189986Y339366D01*
X190131Y339306D01*
X190284Y339269D01*
X190441Y339260D01*
X195716Y339269D01*
X195869Y339306D01*
X196015Y339366D01*
X196149Y339448D01*
X196268Y339551D01*
X196371Y339670D01*
X196453Y339805D01*
X196513Y339950D01*
X196550Y340103D01*
X196559Y340260D01*
X196552Y345870D01*
X198221Y347539D01*
Y332461D01*
X196555Y334127D01*
X196550Y338397D01*
X196513Y338550D01*
X196453Y338695D01*
X196371Y338830D01*
X196268Y338949D01*
X196149Y339052D01*
X196015Y339134D01*
X195869Y339194D01*
X195716Y339231D01*
X195559Y339240D01*
X190284Y339231D01*
X190131Y339194D01*
X189986Y339134D01*
X189852Y339052D01*
X189732Y338949D01*
X189630Y338830D01*
X189547Y338695D01*
X189487Y338550D01*
X189450Y338397D01*
X189441Y338240D01*
X189446Y334128D01*
X182568Y327250D01*
X154899D01*
X154652Y327653D01*
X154192Y328192D01*
X153653Y328652D01*
X153049Y329022D01*
X152395Y329293D01*
X151706Y329458D01*
X151000Y329514D01*
X150294Y329458D01*
X149605Y329293D01*
X148951Y329022D01*
X148347Y328652D01*
X147808Y328192D01*
X147348Y327653D01*
X146978Y327049D01*
X146707Y326395D01*
X146542Y325706D01*
X146486Y325000D01*
X146542Y324294D01*
X146707Y323605D01*
X146978Y322951D01*
X147348Y322347D01*
X147808Y321808D01*
X148347Y321348D01*
X148951Y320978D01*
X149605Y320707D01*
X150294Y320542D01*
X151000Y320486D01*
X151706Y320542D01*
X152395Y320707D01*
X153049Y320978D01*
X153653Y321348D01*
X154192Y321808D01*
X154652Y322347D01*
X154899Y322750D01*
X183412D01*
X183500Y322743D01*
X183853Y322771D01*
X183853Y322771D01*
X184197Y322854D01*
X184525Y322989D01*
X184827Y323174D01*
X185096Y323404D01*
X185153Y323471D01*
X191444Y329762D01*
X194551Y329767D01*
X198004Y326314D01*
X198014Y321765D01*
X198069Y321535D01*
X198159Y321317D01*
X198221Y321217D01*
Y319750D01*
G37*
G36*
X211585Y309239D02*X207511Y309232D01*
X207190Y309257D01*
X207102Y309250D01*
X200062D01*
X199863Y309732D01*
X199369Y310538D01*
X198756Y311256D01*
X198038Y311869D01*
X197232Y312363D01*
X196752Y312561D01*
X196729Y312853D01*
X196729Y312853D01*
X196646Y313197D01*
X196511Y313525D01*
X196326Y313827D01*
X196096Y314096D01*
X196029Y314153D01*
X194932Y315250D01*
X211585D01*
Y309239D01*
G37*
G36*
Y293097D02*X200024Y304658D01*
X200062Y304750D01*
X206135D01*
X206140Y300603D01*
X206177Y300450D01*
X206237Y300305D01*
X206319Y300170D01*
X206422Y300051D01*
X206541Y299948D01*
X206675Y299866D01*
X206821Y299806D01*
X206974Y299769D01*
X207131Y299760D01*
X211585Y299768D01*
Y293097D01*
G37*
G36*
Y275744D02*X211217Y275519D01*
X210550Y274950D01*
X209981Y274283D01*
X209523Y273536D01*
X209250Y272876D01*
Y280412D01*
X209257Y280500D01*
X209229Y280853D01*
X209229Y280853D01*
X209146Y281197D01*
X209011Y281525D01*
X208826Y281827D01*
X208596Y282096D01*
X208529Y282153D01*
X204653Y286029D01*
X204596Y286096D01*
X204327Y286326D01*
X204327Y286326D01*
X204212Y286396D01*
X204025Y286511D01*
X203793Y286607D01*
X203697Y286646D01*
X203353Y286729D01*
X203000Y286757D01*
X202912Y286750D01*
X188485D01*
X188500Y287000D01*
X188463Y287628D01*
X188316Y288240D01*
X188075Y288822D01*
X187746Y289358D01*
X187337Y289837D01*
X186858Y290246D01*
X186750Y290312D01*
Y291513D01*
X187235Y291514D01*
X187465Y291569D01*
X187683Y291659D01*
X187884Y291783D01*
X188064Y291936D01*
X188217Y292116D01*
X188341Y292317D01*
X188431Y292535D01*
X188486Y292765D01*
X188500Y293000D01*
X188486Y298235D01*
X188431Y298465D01*
X188341Y298683D01*
X188217Y298884D01*
X188064Y299064D01*
X187884Y299217D01*
X187683Y299341D01*
X187465Y299431D01*
X187235Y299486D01*
X187000Y299500D01*
X186750Y299499D01*
Y301438D01*
X187232Y301637D01*
X188038Y302131D01*
X188756Y302744D01*
X189369Y303462D01*
X189500Y303676D01*
X189631Y303462D01*
X190244Y302744D01*
X190962Y302131D01*
X191768Y301637D01*
X192640Y301276D01*
X193558Y301056D01*
X194500Y300981D01*
X195442Y301056D01*
X196360Y301276D01*
X196842Y301476D01*
X210504Y287814D01*
X210514Y284265D01*
X210569Y284035D01*
X210659Y283817D01*
X210783Y283616D01*
X210936Y283436D01*
X211116Y283283D01*
X211317Y283159D01*
X211535Y283069D01*
X211585Y283057D01*
Y275744D01*
G37*
G36*
Y255597D02*X209250Y257932D01*
Y269124D01*
X209523Y268464D01*
X209981Y267717D01*
X210550Y267050D01*
X211217Y266481D01*
X211585Y266256D01*
Y255597D01*
G37*
G36*
X204000Y171818D02*X204029Y171847D01*
X204096Y171904D01*
X204326Y172173D01*
X204326Y172173D01*
X204511Y172475D01*
X204646Y172803D01*
X204729Y173147D01*
X204757Y173500D01*
X204750Y173588D01*
Y179912D01*
X204757Y180000D01*
X204729Y180353D01*
X204646Y180697D01*
X204607Y180793D01*
X204511Y181025D01*
X204396Y181212D01*
X204326Y181327D01*
X204326Y181327D01*
X204096Y181596D01*
X204029Y181653D01*
X204000Y181682D01*
Y216343D01*
X207777D01*
X207839Y216338D01*
X208085Y216357D01*
X208086Y216357D01*
X208327Y216415D01*
X208556Y216510D01*
X208767Y216639D01*
X208956Y216800D01*
X209117Y216989D01*
X209246Y217200D01*
X209341Y217429D01*
X209399Y217670D01*
X209418Y217917D01*
X209413Y217979D01*
Y229076D01*
X209418Y229138D01*
X209399Y229385D01*
X209341Y229626D01*
X209246Y229855D01*
X209117Y230066D01*
X208956Y230255D01*
X208767Y230416D01*
X208556Y230545D01*
X208327Y230640D01*
X208086Y230698D01*
X207839Y230717D01*
X207777Y230713D01*
X204000D01*
Y231250D01*
X210412D01*
X210500Y231243D01*
X210853Y231271D01*
X210853Y231271D01*
X211197Y231354D01*
X211525Y231489D01*
X211585Y231526D01*
Y88500D01*
X204000D01*
Y171818D01*
G37*
G36*
Y181682D02*X197250Y188432D01*
Y221912D01*
X197257Y222000D01*
X197229Y222353D01*
X197229Y222353D01*
X197146Y222697D01*
X197011Y223025D01*
X196826Y223327D01*
X196596Y223596D01*
X196529Y223653D01*
X193182Y227000D01*
X197432Y231250D01*
X204000D01*
Y230713D01*
X200223D01*
X200161Y230717D01*
X199914Y230698D01*
X199673Y230640D01*
X199444Y230545D01*
X199233Y230416D01*
X199044Y230255D01*
X198883Y230066D01*
X198754Y229855D01*
X198659Y229626D01*
X198601Y229385D01*
X198601Y229385D01*
X198582Y229138D01*
X198587Y229076D01*
Y217979D01*
X198582Y217917D01*
X198601Y217670D01*
X198659Y217429D01*
X198754Y217200D01*
X198883Y216989D01*
X199044Y216800D01*
X199233Y216639D01*
X199444Y216510D01*
X199673Y216415D01*
X199914Y216357D01*
X200161Y216338D01*
X200223Y216343D01*
X204000D01*
Y181682D01*
G37*
G36*
X169000Y116501D02*X174735Y116514D01*
X174791Y116527D01*
X180612Y110706D01*
X180485Y110736D01*
X180250Y110750D01*
X174515Y110736D01*
X174285Y110681D01*
X174067Y110591D01*
X173866Y110467D01*
X173686Y110314D01*
X173533Y110134D01*
X173409Y109933D01*
X173319Y109715D01*
X173264Y109485D01*
X173250Y109250D01*
X173264Y103515D01*
X173319Y103285D01*
X173409Y103067D01*
X173533Y102866D01*
X173686Y102686D01*
X173866Y102533D01*
X174067Y102409D01*
X174285Y102319D01*
X174515Y102264D01*
X174750Y102250D01*
X178060Y102258D01*
X182347Y97971D01*
X182404Y97904D01*
X182673Y97674D01*
X182673Y97674D01*
X182975Y97489D01*
X183303Y97354D01*
X183647Y97271D01*
X184000Y97243D01*
X184088Y97250D01*
X191912D01*
X192000Y97243D01*
X192353Y97271D01*
X192353Y97271D01*
X192697Y97354D01*
X193025Y97489D01*
X193327Y97674D01*
X193596Y97904D01*
X193653Y97971D01*
X196529Y100847D01*
X196596Y100904D01*
X196826Y101173D01*
X196826Y101173D01*
X197011Y101475D01*
X197146Y101803D01*
X197229Y102147D01*
X197257Y102500D01*
X197250Y102588D01*
Y152513D01*
X197735Y152514D01*
X197965Y152569D01*
X198183Y152659D01*
X198384Y152783D01*
X198564Y152936D01*
X198717Y153116D01*
X198841Y153317D01*
X198931Y153535D01*
X198986Y153765D01*
X199000Y154000D01*
X198986Y160235D01*
X198931Y160465D01*
X198841Y160683D01*
X198717Y160884D01*
X198564Y161064D01*
X198384Y161217D01*
X198183Y161341D01*
X197965Y161431D01*
X197735Y161486D01*
X197500Y161500D01*
X196750Y161498D01*
Y164568D01*
X204000Y171818D01*
Y88500D01*
X191759D01*
X191449Y89006D01*
X191014Y89514D01*
X190506Y89949D01*
X189935Y90298D01*
X189317Y90554D01*
X188667Y90711D01*
X188000Y90763D01*
X187333Y90711D01*
X186683Y90554D01*
X186065Y90298D01*
X185494Y89949D01*
X184986Y89514D01*
X184551Y89006D01*
X184241Y88500D01*
X181259D01*
X180949Y89006D01*
X180514Y89514D01*
X180006Y89949D01*
X179435Y90298D01*
X178817Y90554D01*
X178167Y90711D01*
X177500Y90763D01*
X176833Y90711D01*
X176183Y90554D01*
X175565Y90298D01*
X174994Y89949D01*
X174486Y89514D01*
X174051Y89006D01*
X173741Y88500D01*
X169000D01*
Y116501D01*
G37*
G36*
Y145750D02*X185750D01*
Y111932D01*
X175992Y121690D01*
X175986Y124235D01*
X175931Y124465D01*
X175841Y124683D01*
X175717Y124884D01*
X175564Y125064D01*
X175384Y125217D01*
X175183Y125341D01*
X174965Y125431D01*
X174735Y125486D01*
X174500Y125500D01*
X169000Y125488D01*
Y135318D01*
X173091Y139409D01*
X173326Y139673D01*
X173511Y139975D01*
X173646Y140303D01*
X173729Y140647D01*
X173757Y141000D01*
X173729Y141353D01*
X173646Y141697D01*
X173511Y142025D01*
X173326Y142327D01*
X173096Y142596D01*
X172827Y142826D01*
X172525Y143011D01*
X172197Y143146D01*
X171853Y143229D01*
X171500Y143257D01*
X171147Y143229D01*
X170803Y143146D01*
X170475Y143011D01*
X170173Y142826D01*
X169909Y142591D01*
X169000Y141682D01*
Y145750D01*
G37*
G36*
Y176097D02*X172777D01*
X172839Y176092D01*
X173085Y176112D01*
X173086Y176112D01*
X173327Y176170D01*
X173556Y176265D01*
X173767Y176394D01*
X173956Y176555D01*
X174117Y176744D01*
X174246Y176955D01*
X174341Y177184D01*
X174399Y177425D01*
X174418Y177672D01*
X174413Y177734D01*
Y188831D01*
X174418Y188893D01*
X174399Y189140D01*
X174341Y189381D01*
X174246Y189610D01*
X174117Y189821D01*
X173956Y190010D01*
X173767Y190170D01*
X173556Y190300D01*
X173327Y190395D01*
X173086Y190453D01*
X172839Y190472D01*
X172777Y190467D01*
X169000D01*
Y191750D01*
X179568D01*
X182067Y189251D01*
X182037Y189128D01*
X181988Y188500D01*
X182037Y187872D01*
X182184Y187260D01*
X182425Y186678D01*
X182754Y186142D01*
X183163Y185663D01*
X183642Y185254D01*
X184178Y184925D01*
X184760Y184684D01*
X185372Y184537D01*
X185750Y184507D01*
Y183588D01*
X185743Y183500D01*
X185750Y183412D01*
Y150250D01*
X169000D01*
Y155625D01*
X172777D01*
X172839Y155620D01*
X173085Y155639D01*
X173086Y155639D01*
X173327Y155697D01*
X173556Y155792D01*
X173767Y155922D01*
X173956Y156083D01*
X174117Y156271D01*
X174246Y156482D01*
X174341Y156711D01*
X174399Y156952D01*
X174418Y157200D01*
X174413Y157261D01*
Y168358D01*
X174418Y168420D01*
X174399Y168667D01*
X174341Y168908D01*
X174246Y169137D01*
X174117Y169349D01*
X173956Y169537D01*
X173767Y169698D01*
X173556Y169828D01*
X173327Y169922D01*
X173086Y169980D01*
X172839Y170000D01*
X172777Y169995D01*
X169000D01*
Y176097D01*
G37*
G36*
Y190467D02*X165223D01*
X165161Y190472D01*
X164914Y190453D01*
X164673Y190395D01*
X164444Y190300D01*
X164233Y190170D01*
X164044Y190010D01*
X163883Y189821D01*
X163754Y189610D01*
X163750Y189600D01*
Y191068D01*
X164432Y191750D01*
X169000D01*
Y190467D01*
G37*
G36*
X142747Y134087D02*X147021D01*
X147083Y134082D01*
X147330Y134101D01*
X147330Y134101D01*
X147571Y134159D01*
X147800Y134254D01*
X148011Y134383D01*
X148200Y134544D01*
X148361Y134733D01*
X148490Y134944D01*
X148585Y135173D01*
X148643Y135414D01*
X148662Y135661D01*
X148657Y135723D01*
Y143277D01*
X148662Y143339D01*
X148643Y143586D01*
X148585Y143827D01*
X148490Y144056D01*
X148361Y144267D01*
X148200Y144456D01*
X148011Y144617D01*
X147800Y144746D01*
X147571Y144841D01*
X147330Y144899D01*
X147083Y144918D01*
X147021Y144913D01*
X142747D01*
Y160002D01*
X148328Y160005D01*
X148405Y160023D01*
X148478Y160053D01*
X148545Y160094D01*
X148605Y160145D01*
X148656Y160205D01*
X148697Y160272D01*
X148727Y160345D01*
X148745Y160422D01*
X148750Y160500D01*
X148745Y162578D01*
X148727Y162655D01*
X148697Y162728D01*
X148656Y162795D01*
X148605Y162855D01*
X148545Y162906D01*
X148478Y162947D01*
X148405Y162977D01*
X148328Y162995D01*
X148250Y163000D01*
X142747Y162997D01*
Y164250D01*
X144000D01*
X144353Y164271D01*
X144697Y164354D01*
X145025Y164489D01*
X145327Y164674D01*
X145596Y164904D01*
X145681Y165003D01*
X148328Y165005D01*
X148405Y165023D01*
X148478Y165053D01*
X148545Y165094D01*
X148605Y165145D01*
X148656Y165205D01*
X148697Y165272D01*
X148727Y165345D01*
X148745Y165422D01*
X148750Y165500D01*
X148745Y167578D01*
X148727Y167655D01*
X148697Y167728D01*
X148656Y167795D01*
X148605Y167855D01*
X148545Y167906D01*
X148478Y167947D01*
X148405Y167977D01*
X148328Y167995D01*
X148250Y168000D01*
X145679Y167999D01*
X145596Y168096D01*
X145327Y168326D01*
X145025Y168511D01*
X144697Y168646D01*
X144353Y168729D01*
X144000Y168750D01*
X142747D01*
Y169629D01*
X142975Y169489D01*
X143303Y169354D01*
X143647Y169271D01*
X144000Y169250D01*
X150265D01*
X150269Y166594D01*
X150306Y166441D01*
X150366Y166296D01*
X150448Y166162D01*
X150551Y166042D01*
X150670Y165940D01*
X150805Y165857D01*
X150950Y165797D01*
X151103Y165760D01*
X151260Y165751D01*
X158897Y165760D01*
X159050Y165797D01*
X159195Y165857D01*
X159330Y165940D01*
X159449Y166042D01*
X159552Y166162D01*
X159634Y166296D01*
X159694Y166441D01*
X159731Y166594D01*
X159740Y166751D01*
X159731Y172026D01*
X159694Y172179D01*
X159634Y172325D01*
X159552Y172459D01*
X159449Y172578D01*
X159330Y172681D01*
X159195Y172763D01*
X159050Y172823D01*
X158897Y172860D01*
X158740Y172869D01*
X157250Y172867D01*
Y173138D01*
X158897Y173140D01*
X159050Y173177D01*
X159195Y173237D01*
X159330Y173319D01*
X159449Y173422D01*
X159552Y173541D01*
X159634Y173675D01*
X159694Y173821D01*
X159731Y173974D01*
X159740Y174131D01*
X159739Y174560D01*
X162439D01*
X162528Y174553D01*
X162881Y174581D01*
X162881Y174581D01*
X163144Y174644D01*
X163225Y174664D01*
X163225Y174664D01*
X163225Y174664D01*
X163552Y174799D01*
X163810Y174957D01*
X163854Y174984D01*
X163854Y174984D01*
X163854Y174984D01*
X164123Y175214D01*
X164181Y175281D01*
X165004Y176105D01*
X165161Y176092D01*
X165223Y176097D01*
X169000D01*
Y169995D01*
X165223D01*
X165161Y170000D01*
X164914Y169980D01*
X164673Y169922D01*
X164444Y169828D01*
X164233Y169698D01*
X164044Y169537D01*
X163883Y169349D01*
X163754Y169137D01*
X163659Y168908D01*
X163601Y168667D01*
X163601Y168667D01*
X163582Y168420D01*
X163587Y168358D01*
Y157261D01*
X163582Y157200D01*
X163601Y156952D01*
X163659Y156711D01*
X163754Y156482D01*
X163883Y156271D01*
X164044Y156083D01*
X164233Y155922D01*
X164444Y155792D01*
X164673Y155697D01*
X164914Y155639D01*
X165161Y155620D01*
X165223Y155625D01*
X169000D01*
Y150250D01*
X152932D01*
X150367Y152815D01*
X150365Y154490D01*
X150366Y154486D01*
X150448Y154352D01*
X150551Y154232D01*
X150670Y154130D01*
X150805Y154047D01*
X150950Y153987D01*
X151103Y153950D01*
X151260Y153941D01*
X158897Y153950D01*
X159050Y153987D01*
X159195Y154047D01*
X159330Y154130D01*
X159449Y154232D01*
X159552Y154352D01*
X159634Y154486D01*
X159694Y154631D01*
X159731Y154784D01*
X159740Y154941D01*
X159731Y160216D01*
X159694Y160369D01*
X159634Y160515D01*
X159552Y160649D01*
X159449Y160768D01*
X159330Y160871D01*
X159195Y160953D01*
X159050Y161013D01*
X158897Y161050D01*
X158740Y161059D01*
X157250Y161057D01*
Y161500D01*
X157229Y161853D01*
X157146Y162197D01*
X157011Y162525D01*
X156826Y162827D01*
X156596Y163096D01*
X156327Y163326D01*
X156025Y163511D01*
X155697Y163646D01*
X155353Y163729D01*
X155000Y163757D01*
X154647Y163729D01*
X154303Y163646D01*
X153975Y163511D01*
X153673Y163326D01*
X153404Y163096D01*
X153174Y162827D01*
X152989Y162525D01*
X152854Y162197D01*
X152771Y161853D01*
X152750Y161500D01*
Y161052D01*
X151103Y161050D01*
X150950Y161013D01*
X150805Y160953D01*
X150670Y160871D01*
X150551Y160768D01*
X150448Y160649D01*
X150366Y160515D01*
X150306Y160369D01*
X150269Y160216D01*
X150260Y160059D01*
X150262Y158696D01*
X150181Y158830D01*
X150078Y158949D01*
X149959Y159052D01*
X149825Y159134D01*
X149679Y159194D01*
X149526Y159231D01*
X149369Y159240D01*
X144094Y159231D01*
X143941Y159194D01*
X143796Y159134D01*
X143662Y159052D01*
X143542Y158949D01*
X143440Y158830D01*
X143357Y158695D01*
X143297Y158550D01*
X143260Y158397D01*
X143251Y158240D01*
X143260Y150603D01*
X143297Y150450D01*
X143357Y150305D01*
X143440Y150170D01*
X143542Y150051D01*
X143662Y149948D01*
X143796Y149866D01*
X143941Y149806D01*
X144094Y149769D01*
X144251Y149760D01*
X147053Y149765D01*
X150347Y146471D01*
X150404Y146404D01*
X150673Y146174D01*
X150673Y146174D01*
X150975Y145989D01*
X151303Y145854D01*
X151647Y145771D01*
X152000Y145743D01*
X152088Y145750D01*
X169000D01*
Y141682D01*
X158971Y131653D01*
X158904Y131596D01*
X158674Y131327D01*
X158489Y131025D01*
X158354Y130697D01*
X158271Y130353D01*
X158271Y130353D01*
X158243Y130000D01*
X158250Y129912D01*
Y110738D01*
X157515Y110736D01*
X157285Y110681D01*
X157067Y110591D01*
X156866Y110467D01*
X156686Y110314D01*
X156533Y110134D01*
X156409Y109933D01*
X156319Y109715D01*
X156264Y109485D01*
X156250Y109250D01*
X156264Y103515D01*
X156319Y103285D01*
X156409Y103067D01*
X156533Y102866D01*
X156686Y102686D01*
X156866Y102533D01*
X157067Y102409D01*
X157285Y102319D01*
X157515Y102264D01*
X157750Y102250D01*
X163485Y102264D01*
X163715Y102319D01*
X163933Y102409D01*
X164134Y102533D01*
X164314Y102686D01*
X164467Y102866D01*
X164591Y103067D01*
X164681Y103285D01*
X164736Y103515D01*
X164750Y103750D01*
X164736Y109485D01*
X164681Y109715D01*
X164591Y109933D01*
X164467Y110134D01*
X164314Y110314D01*
X164134Y110467D01*
X163933Y110591D01*
X163715Y110681D01*
X163485Y110736D01*
X163250Y110750D01*
X162750Y110749D01*
Y129068D01*
X169000Y135318D01*
Y125488D01*
X168265Y125486D01*
X168035Y125431D01*
X167817Y125341D01*
X167616Y125217D01*
X167436Y125064D01*
X167283Y124884D01*
X167159Y124683D01*
X167069Y124465D01*
X167014Y124235D01*
X167000Y124000D01*
X167014Y117765D01*
X167069Y117535D01*
X167159Y117317D01*
X167283Y117116D01*
X167436Y116936D01*
X167616Y116783D01*
X167817Y116659D01*
X168035Y116569D01*
X168265Y116514D01*
X168500Y116500D01*
X169000Y116501D01*
Y88500D01*
X164259D01*
X163949Y89006D01*
X163514Y89514D01*
X163006Y89949D01*
X162435Y90298D01*
X161817Y90554D01*
X161167Y90711D01*
X160500Y90763D01*
X159833Y90711D01*
X159183Y90554D01*
X158565Y90298D01*
X157994Y89949D01*
X157486Y89514D01*
X157051Y89006D01*
X156741Y88500D01*
X142747D01*
Y116379D01*
X142917Y117088D01*
X143000Y118500D01*
X142917Y119912D01*
X142747Y120621D01*
Y134087D01*
G37*
G36*
Y345250D02*X128244D01*
X128241Y350407D01*
X128204Y350560D01*
X128144Y350705D01*
X128062Y350840D01*
X127959Y350959D01*
X127840Y351062D01*
X127705Y351144D01*
X127560Y351204D01*
X127407Y351241D01*
X127250Y351250D01*
X124199Y351248D01*
Y354011D01*
X124278Y353992D01*
X124992Y353936D01*
X125706Y353992D01*
X126402Y354159D01*
X127064Y354433D01*
X127675Y354808D01*
X128219Y355273D01*
X128685Y355817D01*
X129059Y356428D01*
X129333Y357090D01*
X129500Y357786D01*
X129542Y358500D01*
X129500Y359214D01*
X129333Y359910D01*
X129059Y360572D01*
X128685Y361183D01*
X128219Y361727D01*
X127675Y362192D01*
X127173Y362500D01*
X142747D01*
Y345250D01*
G37*
G36*
Y319750D02*X138088D01*
X138000Y319757D01*
X137647Y319729D01*
X137303Y319646D01*
X136975Y319511D01*
X136673Y319326D01*
X136673Y319326D01*
X136404Y319096D01*
X136347Y319029D01*
X128068Y310750D01*
X124199D01*
Y312958D01*
X127407Y312959D01*
X127560Y312996D01*
X127705Y313056D01*
X127840Y313138D01*
X127959Y313241D01*
X128062Y313360D01*
X128144Y313495D01*
X128204Y313640D01*
X128241Y313793D01*
X128250Y313950D01*
X128241Y328607D01*
X128204Y328760D01*
X128144Y328905D01*
X128062Y329040D01*
X127959Y329159D01*
X127840Y329262D01*
X127705Y329344D01*
X127560Y329404D01*
X127407Y329441D01*
X127250Y329450D01*
X124199Y329448D01*
Y334758D01*
X127407Y334759D01*
X127560Y334796D01*
X127705Y334856D01*
X127840Y334938D01*
X127959Y335041D01*
X128062Y335160D01*
X128144Y335295D01*
X128204Y335440D01*
X128241Y335593D01*
X128250Y335750D01*
X128247Y340750D01*
X142747D01*
Y319750D01*
G37*
G36*
Y168750D02*X137588D01*
X137500Y168757D01*
X137147Y168729D01*
X136803Y168646D01*
X136475Y168511D01*
X136173Y168326D01*
X136173Y168326D01*
X135962Y168145D01*
X136009Y168222D01*
X136010Y168224D01*
X136011Y168225D01*
X136077Y168386D01*
X136145Y168549D01*
X136146Y168551D01*
X136146Y168553D01*
X136187Y168721D01*
X136229Y168893D01*
X136229Y168895D01*
X136229Y168897D01*
X136230Y168910D01*
X136257Y169246D01*
X136250Y169336D01*
Y179938D01*
X136732Y180137D01*
X137538Y180631D01*
X138256Y181244D01*
X138869Y181962D01*
X139000Y182176D01*
X139131Y181962D01*
X139744Y181244D01*
X140462Y180631D01*
X141268Y180137D01*
X142140Y179776D01*
X142747Y179630D01*
Y178750D01*
X139000D01*
X138647Y178729D01*
X138303Y178646D01*
X137975Y178511D01*
X137673Y178326D01*
X137404Y178096D01*
X137174Y177827D01*
X136989Y177525D01*
X136854Y177197D01*
X136771Y176853D01*
X136743Y176500D01*
X136771Y176147D01*
X136854Y175803D01*
X136989Y175475D01*
X137174Y175173D01*
X137404Y174904D01*
X137673Y174674D01*
X137975Y174489D01*
X138303Y174354D01*
X138647Y174271D01*
X139000Y174250D01*
X142747D01*
Y173371D01*
X142673Y173326D01*
X142404Y173096D01*
X142319Y172997D01*
X139672Y172995D01*
X139595Y172977D01*
X139522Y172947D01*
X139455Y172906D01*
X139395Y172855D01*
X139344Y172795D01*
X139303Y172728D01*
X139273Y172655D01*
X139255Y172578D01*
X139250Y172500D01*
X139255Y170422D01*
X139273Y170345D01*
X139303Y170272D01*
X139344Y170205D01*
X139395Y170145D01*
X139455Y170094D01*
X139522Y170053D01*
X139595Y170023D01*
X139672Y170005D01*
X139750Y170000D01*
X142321Y170001D01*
X142404Y169904D01*
X142673Y169674D01*
X142747Y169629D01*
Y168750D01*
G37*
G36*
Y144913D02*X139241D01*
X137250Y146904D01*
Y149768D01*
X137716Y149769D01*
X137869Y149806D01*
X138015Y149866D01*
X138149Y149948D01*
X138268Y150051D01*
X138371Y150170D01*
X138453Y150305D01*
X138513Y150450D01*
X138550Y150603D01*
X138559Y150760D01*
X138550Y158397D01*
X138513Y158550D01*
X138453Y158695D01*
X138371Y158830D01*
X138268Y158949D01*
X138149Y159052D01*
X138015Y159134D01*
X137869Y159194D01*
X137716Y159231D01*
X137559Y159240D01*
X137250Y159239D01*
Y163068D01*
X138432Y164250D01*
X142747D01*
Y162997D01*
X139672Y162995D01*
X139595Y162977D01*
X139522Y162947D01*
X139455Y162906D01*
X139395Y162855D01*
X139344Y162795D01*
X139303Y162728D01*
X139273Y162655D01*
X139255Y162578D01*
X139250Y162500D01*
X139255Y160422D01*
X139273Y160345D01*
X139303Y160272D01*
X139344Y160205D01*
X139395Y160145D01*
X139455Y160094D01*
X139522Y160053D01*
X139595Y160023D01*
X139672Y160005D01*
X139750Y160000D01*
X142747Y160002D01*
Y144913D01*
G37*
G36*
X124199Y148208D02*X125754Y149762D01*
X130026Y149769D01*
X130179Y149806D01*
X130325Y149866D01*
X130459Y149948D01*
X130578Y150051D01*
X130681Y150170D01*
X130763Y150305D01*
X130823Y150450D01*
X130860Y150603D01*
X130869Y150760D01*
X130867Y152250D01*
X131448D01*
X131450Y150603D01*
X131487Y150450D01*
X131547Y150305D01*
X131630Y150170D01*
X131732Y150051D01*
X131852Y149948D01*
X131986Y149866D01*
X132131Y149806D01*
X132284Y149769D01*
X132441Y149760D01*
X132750Y149761D01*
Y146061D01*
X132743Y145972D01*
X132771Y145619D01*
X132854Y145275D01*
X132989Y144948D01*
X133174Y144646D01*
X133174Y144646D01*
X133404Y144377D01*
X133471Y144319D01*
X134295Y143496D01*
X134283Y143339D01*
X134287Y143277D01*
Y135723D01*
X134283Y135661D01*
X134302Y135414D01*
X134360Y135173D01*
X134455Y134944D01*
X134584Y134733D01*
X134745Y134544D01*
X134934Y134383D01*
X135145Y134254D01*
X135374Y134159D01*
X135615Y134101D01*
X135862Y134082D01*
X135924Y134087D01*
X142747D01*
Y120621D01*
X142586Y121290D01*
X142044Y122599D01*
X141304Y123806D01*
X140384Y124884D01*
X139306Y125804D01*
X138099Y126544D01*
X136790Y127086D01*
X135412Y127417D01*
X134000Y127528D01*
X132588Y127417D01*
X131210Y127086D01*
X129901Y126544D01*
X128694Y125804D01*
X127616Y124884D01*
X126696Y123806D01*
X125956Y122599D01*
X125414Y121290D01*
X125083Y119912D01*
X124972Y118500D01*
X125083Y117088D01*
X125414Y115710D01*
X125956Y114401D01*
X126696Y113194D01*
X127616Y112116D01*
X128694Y111196D01*
X129901Y110456D01*
X131210Y109914D01*
X132588Y109583D01*
X134000Y109472D01*
X135412Y109583D01*
X136790Y109914D01*
X138099Y110456D01*
X139306Y111196D01*
X140384Y112116D01*
X141304Y113194D01*
X142044Y114401D01*
X142586Y115710D01*
X142747Y116379D01*
Y88500D01*
X124199D01*
Y103119D01*
X125409Y101909D01*
X125673Y101674D01*
X125975Y101489D01*
X126303Y101354D01*
X126647Y101271D01*
X127000Y101243D01*
X127353Y101271D01*
X127697Y101354D01*
X128025Y101489D01*
X128327Y101674D01*
X128596Y101904D01*
X128826Y102173D01*
X129011Y102475D01*
X129146Y102803D01*
X129229Y103147D01*
X129257Y103500D01*
X129229Y103853D01*
X129146Y104197D01*
X129011Y104525D01*
X128826Y104827D01*
X128591Y105091D01*
X124199Y109482D01*
Y134087D01*
X126549D01*
X126610Y134082D01*
X126857Y134101D01*
X126857Y134101D01*
X127098Y134159D01*
X127327Y134254D01*
X127539Y134383D01*
X127727Y134544D01*
X127888Y134733D01*
X128018Y134944D01*
X128113Y135173D01*
X128170Y135414D01*
X128190Y135661D01*
X128185Y135723D01*
Y143277D01*
X128190Y143339D01*
X128170Y143586D01*
X128113Y143827D01*
X128018Y144056D01*
X127888Y144267D01*
X127727Y144456D01*
X127539Y144617D01*
X127327Y144746D01*
X127098Y144841D01*
X126857Y144899D01*
X126610Y144918D01*
X126549Y144913D01*
X124199D01*
Y148208D01*
G37*
G36*
Y351248D02*X108593Y351241D01*
X108440Y351204D01*
X108295Y351144D01*
X108160Y351062D01*
X108041Y350959D01*
X107938Y350840D01*
X107856Y350705D01*
X107796Y350560D01*
X107759Y350407D01*
X107750Y350250D01*
X107753Y345250D01*
X102044D01*
X102041Y352407D01*
X102004Y352560D01*
X101944Y352705D01*
X101862Y352840D01*
X101759Y352959D01*
X101640Y353062D01*
X101505Y353144D01*
X101360Y353204D01*
X101207Y353241D01*
X101050Y353250D01*
X86393Y353241D01*
X86240Y353204D01*
X86095Y353144D01*
X85960Y353062D01*
X85841Y352959D01*
X85750Y352853D01*
Y355101D01*
X86153Y355348D01*
X86692Y355808D01*
X87152Y356347D01*
X87522Y356951D01*
X87793Y357605D01*
X87958Y358294D01*
X88000Y359000D01*
X87958Y359706D01*
X87793Y360395D01*
X87522Y361049D01*
X87152Y361653D01*
X86692Y362192D01*
X86331Y362500D01*
X89084D01*
X89069Y362465D01*
X89014Y362235D01*
X89000Y362000D01*
X89014Y355765D01*
X89069Y355535D01*
X89159Y355317D01*
X89283Y355116D01*
X89436Y354936D01*
X89616Y354783D01*
X89817Y354659D01*
X90035Y354569D01*
X90265Y354514D01*
X90500Y354500D01*
X96735Y354514D01*
X96965Y354569D01*
X97183Y354659D01*
X97384Y354783D01*
X97564Y354936D01*
X97717Y355116D01*
X97841Y355317D01*
X97931Y355535D01*
X97986Y355765D01*
X98000Y356000D01*
X97999Y356250D01*
X101350D01*
X101615Y355817D01*
X102080Y355273D01*
X102624Y354808D01*
X103235Y354433D01*
X103897Y354159D01*
X104593Y353992D01*
X105307Y353936D01*
X106021Y353992D01*
X106717Y354159D01*
X107379Y354433D01*
X107990Y354808D01*
X108534Y355273D01*
X109000Y355817D01*
X109265Y356250D01*
X121035D01*
X121300Y355817D01*
X121765Y355273D01*
X122309Y354808D01*
X122920Y354433D01*
X123582Y354159D01*
X124199Y354011D01*
Y351248D01*
G37*
G36*
Y329448D02*X118736Y329446D01*
X116153Y332029D01*
X116096Y332096D01*
X115827Y332326D01*
X115525Y332511D01*
X115197Y332646D01*
X114853Y332729D01*
X114853Y332729D01*
X114500Y332757D01*
X114412Y332750D01*
X86550D01*
X101207Y332759D01*
X101360Y332796D01*
X101505Y332856D01*
X101640Y332938D01*
X101759Y333041D01*
X101862Y333160D01*
X101944Y333295D01*
X102004Y333440D01*
X102041Y333593D01*
X102050Y333750D01*
X102047Y340750D01*
X107756D01*
X107759Y335593D01*
X107796Y335440D01*
X107856Y335295D01*
X107938Y335160D01*
X108041Y335041D01*
X108160Y334938D01*
X108295Y334856D01*
X108440Y334796D01*
X108593Y334759D01*
X108750Y334750D01*
X124199Y334758D01*
Y329448D01*
G37*
G36*
X47500Y334755D02*X56907Y334759D01*
X57060Y334796D01*
X57205Y334856D01*
X57340Y334938D01*
X57459Y335041D01*
X57562Y335160D01*
X57644Y335295D01*
X57704Y335440D01*
X57741Y335593D01*
X57750Y335750D01*
X57747Y340750D01*
X63756D01*
X63759Y334000D01*
X47500D01*
Y334755D01*
G37*
G36*
X124199Y310750D02*X106088D01*
X106000Y310757D01*
X105647Y310729D01*
X105303Y310646D01*
X104975Y310511D01*
X104673Y310326D01*
X104673Y310326D01*
X104404Y310096D01*
X104347Y310029D01*
X101568Y307250D01*
X62932D01*
X58153Y312029D01*
X58096Y312096D01*
X57827Y312326D01*
X57827Y312326D01*
X57712Y312396D01*
X57525Y312511D01*
X57293Y312607D01*
X57197Y312646D01*
X56853Y312729D01*
X56500Y312757D01*
X56412Y312750D01*
X47500D01*
Y312955D01*
X56907Y312959D01*
X57060Y312996D01*
X57205Y313056D01*
X57340Y313138D01*
X57459Y313241D01*
X57562Y313360D01*
X57644Y313495D01*
X57704Y313640D01*
X57741Y313793D01*
X57750Y313950D01*
X57741Y328607D01*
X57704Y328760D01*
X57644Y328905D01*
X57562Y329040D01*
X57459Y329159D01*
X57340Y329262D01*
X57205Y329344D01*
X57060Y329404D01*
X56907Y329441D01*
X56750Y329450D01*
X47500Y329445D01*
Y329500D01*
X66818D01*
X67347Y328971D01*
X67404Y328904D01*
X67471Y328847D01*
X68075Y328243D01*
X64593Y328241D01*
X64440Y328204D01*
X64295Y328144D01*
X64160Y328062D01*
X64041Y327959D01*
X63938Y327840D01*
X63856Y327705D01*
X63796Y327560D01*
X63759Y327407D01*
X63750Y327250D01*
X63759Y308593D01*
X63796Y308440D01*
X63856Y308295D01*
X63938Y308160D01*
X64041Y308041D01*
X64160Y307938D01*
X64295Y307856D01*
X64440Y307796D01*
X64593Y307759D01*
X64750Y307750D01*
X79407Y307759D01*
X79560Y307796D01*
X79705Y307856D01*
X79840Y307938D01*
X79959Y308041D01*
X80062Y308160D01*
X80144Y308295D01*
X80204Y308440D01*
X80241Y308593D01*
X80250Y308750D01*
X80243Y323061D01*
X85029Y327847D01*
X85096Y327904D01*
X85326Y328173D01*
X85326Y328173D01*
X85373Y328250D01*
X101050D01*
X86393Y328241D01*
X86240Y328204D01*
X86095Y328144D01*
X85960Y328062D01*
X85841Y327959D01*
X85738Y327840D01*
X85656Y327705D01*
X85596Y327560D01*
X85559Y327407D01*
X85550Y327250D01*
X85559Y308593D01*
X85596Y308440D01*
X85656Y308295D01*
X85738Y308160D01*
X85841Y308041D01*
X85960Y307938D01*
X86095Y307856D01*
X86240Y307796D01*
X86393Y307759D01*
X86550Y307750D01*
X101207Y307759D01*
X101360Y307796D01*
X101505Y307856D01*
X101640Y307938D01*
X101759Y308041D01*
X101862Y308160D01*
X101944Y308295D01*
X102004Y308440D01*
X102041Y308593D01*
X102050Y308750D01*
X102041Y327407D01*
X102004Y327560D01*
X101944Y327705D01*
X101862Y327840D01*
X101759Y327959D01*
X101640Y328062D01*
X101505Y328144D01*
X101360Y328204D01*
X101207Y328241D01*
X101050Y328250D01*
X107750D01*
X107759Y313793D01*
X107796Y313640D01*
X107856Y313495D01*
X107938Y313360D01*
X108041Y313241D01*
X108160Y313138D01*
X108295Y313056D01*
X108440Y312996D01*
X108593Y312959D01*
X108750Y312950D01*
X124199Y312958D01*
Y310750D01*
G37*
G36*
X47500Y312750D02*X43588D01*
X43500Y312757D01*
X43147Y312729D01*
X42803Y312646D01*
X42475Y312511D01*
X42173Y312326D01*
X42173Y312326D01*
X41904Y312096D01*
X41847Y312029D01*
X38842Y309024D01*
X38360Y309224D01*
X37442Y309444D01*
X36500Y309519D01*
X35558Y309444D01*
X34640Y309224D01*
X33768Y308863D01*
X32962Y308369D01*
X32244Y307756D01*
X31631Y307038D01*
X31500Y306824D01*
X31369Y307038D01*
X30756Y307756D01*
X30038Y308369D01*
X29232Y308863D01*
X28360Y309224D01*
X27442Y309444D01*
X26500Y309519D01*
X25558Y309444D01*
X24640Y309224D01*
X23768Y308863D01*
X22962Y308369D01*
X22487Y307963D01*
X22486Y308235D01*
X22431Y308465D01*
X22341Y308683D01*
X22217Y308884D01*
X22064Y309064D01*
X21884Y309217D01*
X21683Y309341D01*
X21465Y309431D01*
X21235Y309486D01*
X21000Y309500D01*
X11765Y309486D01*
X11535Y309431D01*
X11317Y309341D01*
X11116Y309217D01*
X10936Y309064D01*
X10783Y308884D01*
X10659Y308683D01*
X10569Y308465D01*
X10514Y308235D01*
X10500Y308000D01*
X10514Y298765D01*
X10569Y298535D01*
X10659Y298317D01*
X10783Y298116D01*
X10936Y297936D01*
X11116Y297783D01*
X11317Y297659D01*
X11535Y297569D01*
X11765Y297514D01*
X12000Y297500D01*
X14250Y297503D01*
Y291932D01*
X8500Y286182D01*
Y362500D01*
X40134D01*
X39632Y362192D01*
X39088Y361727D01*
X38623Y361183D01*
X38357Y360750D01*
X38088D01*
X38000Y360757D01*
X37647Y360729D01*
X37303Y360646D01*
X36975Y360511D01*
X36673Y360326D01*
X36673Y360326D01*
X36404Y360096D01*
X36347Y360029D01*
X27566Y351248D01*
X13093Y351241D01*
X12940Y351204D01*
X12795Y351144D01*
X12660Y351062D01*
X12541Y350959D01*
X12438Y350840D01*
X12356Y350705D01*
X12296Y350560D01*
X12259Y350407D01*
X12250Y350250D01*
X12259Y335593D01*
X12296Y335440D01*
X12356Y335295D01*
X12438Y335160D01*
X12541Y335041D01*
X12660Y334938D01*
X12795Y334856D01*
X12940Y334796D01*
X13093Y334759D01*
X13250Y334750D01*
X31907Y334759D01*
X32060Y334796D01*
X32205Y334856D01*
X32340Y334938D01*
X32459Y335041D01*
X32562Y335160D01*
X32644Y335295D01*
X32704Y335440D01*
X32741Y335593D01*
X32750Y335750D01*
X32747Y340750D01*
X37256D01*
X37259Y335593D01*
X37296Y335440D01*
X37356Y335295D01*
X37438Y335160D01*
X37541Y335041D01*
X37660Y334938D01*
X37795Y334856D01*
X37940Y334796D01*
X38093Y334759D01*
X38250Y334750D01*
X47500Y334755D01*
Y334000D01*
X33338D01*
X33250Y334007D01*
X32897Y333979D01*
X32553Y333896D01*
X32225Y333761D01*
X31923Y333576D01*
X31923Y333576D01*
X31654Y333346D01*
X31597Y333279D01*
X27766Y329448D01*
X13093Y329441D01*
X12940Y329404D01*
X12795Y329344D01*
X12660Y329262D01*
X12541Y329159D01*
X12438Y329040D01*
X12356Y328905D01*
X12296Y328760D01*
X12259Y328607D01*
X12250Y328450D01*
X12259Y313793D01*
X12296Y313640D01*
X12356Y313495D01*
X12438Y313360D01*
X12541Y313241D01*
X12660Y313138D01*
X12795Y313056D01*
X12940Y312996D01*
X13093Y312959D01*
X13250Y312950D01*
X31907Y312959D01*
X32060Y312996D01*
X32205Y313056D01*
X32340Y313138D01*
X32459Y313241D01*
X32562Y313360D01*
X32644Y313495D01*
X32704Y313640D01*
X32741Y313793D01*
X32750Y313950D01*
X32741Y328059D01*
X34182Y329500D01*
X47500D01*
Y329445D01*
X38093Y329441D01*
X37940Y329404D01*
X37795Y329344D01*
X37660Y329262D01*
X37541Y329159D01*
X37438Y329040D01*
X37356Y328905D01*
X37296Y328760D01*
X37259Y328607D01*
X37250Y328450D01*
X37259Y313793D01*
X37296Y313640D01*
X37356Y313495D01*
X37438Y313360D01*
X37541Y313241D01*
X37660Y313138D01*
X37795Y313056D01*
X37940Y312996D01*
X38093Y312959D01*
X38250Y312950D01*
X47500Y312955D01*
Y312750D01*
G37*
G36*
X42514Y244250D02*X44068D01*
X63250Y225068D01*
Y206954D01*
X63229Y207219D01*
X63229Y207219D01*
X63146Y207564D01*
X63011Y207891D01*
X62826Y208193D01*
X62596Y208462D01*
X62529Y208520D01*
X58052Y212996D01*
X58251Y213479D01*
X58472Y214397D01*
X58528Y215339D01*
X58472Y216280D01*
X58251Y217198D01*
X57890Y218071D01*
X57397Y218876D01*
X56783Y219594D01*
X56065Y220208D01*
X55260Y220701D01*
X54387Y221063D01*
X53469Y221283D01*
X52528Y221357D01*
X51586Y221283D01*
X50668Y221063D01*
X49795Y220701D01*
X48990Y220208D01*
X48272Y219594D01*
X47658Y218876D01*
X47528Y218663D01*
X47397Y218876D01*
X46783Y219594D01*
X46065Y220208D01*
X45260Y220701D01*
X44387Y221063D01*
X43469Y221283D01*
X42528Y221357D01*
X42514Y221356D01*
Y244250D01*
G37*
G36*
Y159804D02*X43347Y158971D01*
X43404Y158904D01*
X43673Y158674D01*
X43673Y158674D01*
X43861Y158559D01*
X43975Y158489D01*
X44303Y158354D01*
X44647Y158271D01*
X44647D01*
X45000Y158243D01*
X45088Y158250D01*
X57412D01*
X57500Y158243D01*
X57853Y158271D01*
X57853Y158271D01*
X58197Y158354D01*
X58525Y158489D01*
X58827Y158674D01*
X59096Y158904D01*
X59153Y158971D01*
X71029Y170847D01*
X71096Y170904D01*
X71326Y171173D01*
X71326Y171173D01*
X71511Y171475D01*
X71646Y171803D01*
X71729Y172147D01*
X71757Y172500D01*
X71752Y172566D01*
X76250Y168068D01*
Y131432D01*
X72471Y127653D01*
X72404Y127596D01*
X72174Y127327D01*
X71989Y127025D01*
X71854Y126697D01*
X71771Y126353D01*
X71771Y126353D01*
X71743Y126000D01*
X71750Y125912D01*
Y113088D01*
X71743Y113000D01*
X71771Y112647D01*
X71854Y112303D01*
X71989Y111975D01*
X72174Y111673D01*
X72174Y111673D01*
X72404Y111404D01*
X72471Y111347D01*
X78347Y105471D01*
X78404Y105404D01*
X78673Y105174D01*
X78673Y105174D01*
X78861Y105059D01*
X78975Y104989D01*
X79303Y104854D01*
X79647Y104771D01*
X79647D01*
X80000Y104743D01*
X80088Y104750D01*
X103912D01*
X104000Y104743D01*
X104353Y104771D01*
X104353Y104771D01*
X104697Y104854D01*
X105025Y104989D01*
X105327Y105174D01*
X105596Y105404D01*
X105653Y105471D01*
X114250Y114068D01*
Y111601D01*
X114213Y111558D01*
X114130Y111423D01*
X114070Y111278D01*
X114033Y111125D01*
X114024Y110968D01*
X114033Y106875D01*
X114070Y106722D01*
X114130Y106577D01*
X114213Y106442D01*
X114315Y106323D01*
X114434Y106220D01*
X114569Y106138D01*
X114714Y106078D01*
X114867Y106041D01*
X115024Y106032D01*
X118133Y106041D01*
X118286Y106078D01*
X118431Y106138D01*
X118566Y106220D01*
X118685Y106323D01*
X118788Y106442D01*
X118870Y106577D01*
X118930Y106722D01*
X118967Y106875D01*
X118976Y107032D01*
X118967Y111125D01*
X118930Y111278D01*
X118870Y111423D01*
X118788Y111558D01*
X118750Y111602D01*
Y115412D01*
X118757Y115500D01*
X118729Y115853D01*
X118646Y116197D01*
X118607Y116293D01*
X118511Y116525D01*
X118396Y116712D01*
X118326Y116827D01*
X118326Y116827D01*
X118096Y117096D01*
X118029Y117153D01*
X116750Y118432D01*
Y127412D01*
X116757Y127500D01*
X116729Y127853D01*
X116729Y127853D01*
X116646Y128197D01*
X116511Y128525D01*
X116326Y128827D01*
X116096Y129096D01*
X116029Y129153D01*
X108153Y137029D01*
X108096Y137096D01*
X107827Y137326D01*
X107525Y137511D01*
X107197Y137646D01*
X106853Y137729D01*
X106853Y137729D01*
X106500Y137757D01*
X106412Y137750D01*
X91250D01*
Y142007D01*
X91348Y141847D01*
X91808Y141308D01*
X92347Y140848D01*
X92951Y140478D01*
X93605Y140207D01*
X94294Y140042D01*
X95000Y139986D01*
X95706Y140042D01*
X96395Y140207D01*
X97049Y140478D01*
X97653Y140848D01*
X98192Y141308D01*
X98652Y141847D01*
X98899Y142250D01*
X110412D01*
X110500Y142243D01*
X110853Y142271D01*
X110853Y142271D01*
X111197Y142354D01*
X111525Y142489D01*
X111827Y142674D01*
X112096Y142904D01*
X112153Y142971D01*
X114432Y145250D01*
X120222D01*
X120310Y145243D01*
X120663Y145271D01*
X120663Y145271D01*
X121007Y145354D01*
X121335Y145489D01*
X121637Y145674D01*
X121906Y145904D01*
X121963Y145971D01*
X124199Y148208D01*
Y144913D01*
X115451D01*
X115390Y144918D01*
X115143Y144899D01*
X114902Y144841D01*
X114673Y144746D01*
X114461Y144617D01*
X114273Y144456D01*
X114112Y144267D01*
X113982Y144056D01*
X113887Y143827D01*
X113830Y143586D01*
X113830Y143585D01*
X113810Y143339D01*
X113815Y143277D01*
Y135723D01*
X113810Y135661D01*
X113830Y135414D01*
X113887Y135173D01*
X113982Y134944D01*
X114112Y134733D01*
X114273Y134544D01*
X114461Y134383D01*
X114673Y134254D01*
X114902Y134159D01*
X115143Y134101D01*
X115390Y134082D01*
X115451Y134087D01*
X124199D01*
Y109482D01*
X124088Y109594D01*
X124085Y111125D01*
X124048Y111278D01*
X123988Y111423D01*
X123906Y111558D01*
X123803Y111677D01*
X123684Y111780D01*
X123549Y111862D01*
X123404Y111922D01*
X123251Y111959D01*
X123094Y111968D01*
X119985Y111959D01*
X119832Y111922D01*
X119687Y111862D01*
X119552Y111780D01*
X119433Y111677D01*
X119331Y111558D01*
X119248Y111423D01*
X119188Y111278D01*
X119151Y111125D01*
X119142Y110968D01*
X119151Y106875D01*
X119188Y106722D01*
X119248Y106577D01*
X119331Y106442D01*
X119433Y106323D01*
X119552Y106220D01*
X119687Y106138D01*
X119832Y106078D01*
X119985Y106041D01*
X120142Y106032D01*
X121283Y106035D01*
X124199Y103119D01*
Y88500D01*
X102699D01*
X102369Y89038D01*
X101756Y89756D01*
X101038Y90369D01*
X100232Y90863D01*
X99360Y91224D01*
X98442Y91444D01*
X97500Y91519D01*
X96558Y91444D01*
X95640Y91224D01*
X94768Y90863D01*
X93962Y90369D01*
X93244Y89756D01*
X92631Y89038D01*
X92301Y88500D01*
X83489D01*
X83486Y90235D01*
X83431Y90465D01*
X83341Y90683D01*
X83217Y90884D01*
X83064Y91064D01*
X82884Y91217D01*
X82683Y91341D01*
X82465Y91431D01*
X82235Y91486D01*
X82000Y91500D01*
X79750Y91497D01*
Y92774D01*
X79757Y92862D01*
X79729Y93215D01*
X79646Y93560D01*
X79607Y93655D01*
X79511Y93887D01*
X79396Y94074D01*
X79326Y94189D01*
X79326Y94189D01*
X79096Y94458D01*
X79029Y94516D01*
X66303Y107241D01*
Y115021D01*
X66308Y115083D01*
X66289Y115330D01*
X66231Y115571D01*
X66136Y115800D01*
X66006Y116011D01*
X65845Y116200D01*
X65657Y116361D01*
X65446Y116490D01*
X65216Y116585D01*
X64975Y116643D01*
X64728Y116662D01*
X64667Y116657D01*
X64179D01*
X64183Y116659D01*
X64384Y116783D01*
X64564Y116936D01*
X64717Y117116D01*
X64841Y117317D01*
X64931Y117535D01*
X64986Y117765D01*
X65000Y118000D01*
X64986Y123235D01*
X64931Y123465D01*
X64841Y123683D01*
X64717Y123884D01*
X64564Y124064D01*
X64384Y124217D01*
X64183Y124341D01*
X63965Y124431D01*
X63735Y124486D01*
X63500Y124500D01*
X60191Y124491D01*
X58815Y125867D01*
X59256Y126244D01*
X59869Y126962D01*
X60363Y127768D01*
X60724Y128640D01*
X60944Y129558D01*
X61000Y130500D01*
X60944Y131442D01*
X60724Y132360D01*
X60363Y133232D01*
X59869Y134038D01*
X59256Y134756D01*
X58538Y135369D01*
X57732Y135863D01*
X56860Y136224D01*
X55942Y136444D01*
X55000Y136519D01*
X54058Y136444D01*
X53140Y136224D01*
X52268Y135863D01*
X51462Y135369D01*
X50744Y134756D01*
X50131Y134038D01*
X50000Y133824D01*
X49869Y134038D01*
X49256Y134756D01*
X48538Y135369D01*
X47732Y135863D01*
X46860Y136224D01*
X45942Y136444D01*
X45000Y136519D01*
X44058Y136444D01*
X43140Y136224D01*
X42514Y135964D01*
Y139312D01*
X42528Y139311D01*
X43940Y139422D01*
X45317Y139753D01*
X46626Y140295D01*
X47834Y141035D01*
X48911Y141955D01*
X49831Y143032D01*
X50571Y144240D01*
X51113Y145549D01*
X51444Y146926D01*
X51528Y148339D01*
X51444Y149751D01*
X51113Y151128D01*
X50571Y152437D01*
X49831Y153645D01*
X48911Y154722D01*
X47834Y155642D01*
X46626Y156382D01*
X45317Y156924D01*
X43940Y157255D01*
X42528Y157366D01*
X42514Y157365D01*
Y159804D01*
G37*
G36*
X36549Y165087D02*X36610Y165082D01*
X36857Y165101D01*
X36857Y165101D01*
X37098Y165159D01*
X37327Y165254D01*
X37539Y165383D01*
X37727Y165544D01*
X37888Y165733D01*
X38018Y165944D01*
X38113Y166173D01*
X38170Y166414D01*
X38190Y166661D01*
X38185Y166723D01*
Y174277D01*
X38190Y174339D01*
X38170Y174586D01*
X38113Y174827D01*
X38018Y175056D01*
X37888Y175267D01*
X37727Y175456D01*
X37539Y175617D01*
X37327Y175746D01*
X37098Y175841D01*
X36857Y175899D01*
X36610Y175918D01*
X36549Y175913D01*
X34750D01*
Y176512D01*
X35735Y176514D01*
X35965Y176569D01*
X36183Y176659D01*
X36384Y176783D01*
X36564Y176936D01*
X36717Y177116D01*
X36841Y177317D01*
X36931Y177535D01*
X36986Y177765D01*
X37000Y178000D01*
X36986Y184235D01*
X36931Y184465D01*
X36841Y184683D01*
X36717Y184884D01*
X36564Y185064D01*
X36384Y185217D01*
X36183Y185341D01*
X35965Y185431D01*
X35735Y185486D01*
X35500Y185500D01*
X31192Y185490D01*
X27747Y188935D01*
X27747Y189653D01*
X27754Y189642D01*
X28163Y189163D01*
X28642Y188754D01*
X29178Y188425D01*
X29760Y188184D01*
X30372Y188037D01*
X31000Y187988D01*
X31628Y188037D01*
X32240Y188184D01*
X32449Y188271D01*
X32450Y187029D01*
X32487Y186876D01*
X32547Y186731D01*
X32629Y186596D01*
X32732Y186477D01*
X32851Y186374D01*
X32985Y186292D01*
X33131Y186232D01*
X33284Y186195D01*
X33441Y186186D01*
X36127Y186191D01*
X39750Y182568D01*
Y163588D01*
X39743Y163500D01*
X39771Y163147D01*
Y163147D01*
X39854Y162803D01*
X39989Y162475D01*
X40059Y162361D01*
X40174Y162173D01*
X40174Y162173D01*
X40404Y161904D01*
X40471Y161847D01*
X42514Y159804D01*
Y157365D01*
X41115Y157255D01*
X39738Y156924D01*
X38429Y156382D01*
X37221Y155642D01*
X36144Y154722D01*
X35224Y153645D01*
X34484Y152437D01*
X33942Y151128D01*
X33611Y149751D01*
X33500Y148339D01*
X33611Y146926D01*
X33942Y145549D01*
X34484Y144240D01*
X35224Y143032D01*
X36144Y141955D01*
X37221Y141035D01*
X38429Y140295D01*
X39738Y139753D01*
X41115Y139422D01*
X42514Y139312D01*
Y135964D01*
X42268Y135863D01*
X41462Y135369D01*
X40987Y134963D01*
X40986Y135235D01*
X40931Y135465D01*
X40841Y135683D01*
X40717Y135884D01*
X40564Y136064D01*
X40384Y136217D01*
X40183Y136341D01*
X39965Y136431D01*
X39735Y136486D01*
X39500Y136500D01*
X30265Y136486D01*
X30035Y136431D01*
X29817Y136341D01*
X29616Y136217D01*
X29436Y136064D01*
X29283Y135884D01*
X29159Y135683D01*
X29069Y135465D01*
X29014Y135235D01*
X29000Y135000D01*
X29004Y132181D01*
X28904Y132096D01*
X28847Y132029D01*
X22471Y125653D01*
X22404Y125596D01*
X22174Y125327D01*
X21989Y125025D01*
X21854Y124697D01*
X21771Y124353D01*
X21771Y124353D01*
X21743Y124000D01*
X21750Y123912D01*
Y119250D01*
X19312D01*
X19246Y119358D01*
X18837Y119837D01*
X18358Y120246D01*
X17822Y120575D01*
X17240Y120816D01*
X16628Y120963D01*
X16000Y121012D01*
X15372Y120963D01*
X14760Y120816D01*
X14178Y120575D01*
X13642Y120246D01*
X13163Y119837D01*
X12754Y119358D01*
X12425Y118822D01*
X12184Y118240D01*
X12037Y117628D01*
X11988Y117000D01*
X12037Y116372D01*
X12184Y115760D01*
X12425Y115178D01*
X12754Y114642D01*
X13163Y114163D01*
X13642Y113754D01*
X14178Y113425D01*
X14760Y113184D01*
X15372Y113037D01*
X16000Y112988D01*
X16628Y113037D01*
X17240Y113184D01*
X17822Y113425D01*
X18358Y113754D01*
X18837Y114163D01*
X19246Y114642D01*
X19312Y114750D01*
X24068D01*
X24847Y113971D01*
X24904Y113904D01*
X25173Y113674D01*
X25173Y113674D01*
X25361Y113559D01*
X25475Y113489D01*
X25803Y113354D01*
X26147Y113271D01*
X26147D01*
X26500Y113243D01*
X26588Y113250D01*
X30568D01*
X30830Y112988D01*
Y112806D01*
X30364Y112805D01*
X30211Y112768D01*
X30065Y112708D01*
X29931Y112626D01*
X29811Y112523D01*
X29788Y112496D01*
X29760Y112542D01*
X29658Y112661D01*
X29538Y112764D01*
X29404Y112846D01*
X29259Y112906D01*
X29106Y112943D01*
X28949Y112952D01*
X23674Y112943D01*
X23521Y112906D01*
X23375Y112846D01*
X23241Y112764D01*
X23122Y112661D01*
X23019Y112542D01*
X22937Y112407D01*
X22877Y112262D01*
X22847Y112137D01*
X22817Y112262D01*
X22757Y112407D01*
X22674Y112542D01*
X22572Y112661D01*
X22452Y112764D01*
X22318Y112846D01*
X22173Y112906D01*
X22020Y112943D01*
X21863Y112952D01*
X16588Y112943D01*
X16435Y112906D01*
X16289Y112846D01*
X16155Y112764D01*
X16036Y112661D01*
X15933Y112542D01*
X15851Y112407D01*
X15791Y112262D01*
X15754Y112109D01*
X15745Y111952D01*
X15754Y105891D01*
X15791Y105738D01*
X15851Y105593D01*
X15933Y105458D01*
X16036Y105339D01*
X16155Y105236D01*
X16289Y105154D01*
X16435Y105094D01*
X16588Y105057D01*
X16745Y105048D01*
X16866Y105048D01*
X14409Y102591D01*
X14174Y102327D01*
X13989Y102025D01*
X13854Y101697D01*
X13771Y101353D01*
X13743Y101000D01*
X13771Y100647D01*
X13854Y100303D01*
X13989Y99975D01*
X14174Y99673D01*
X14404Y99404D01*
X14673Y99174D01*
X14975Y98989D01*
X15303Y98854D01*
X15647Y98771D01*
X16000Y98743D01*
X16353Y98771D01*
X16697Y98854D01*
X17025Y98989D01*
X17327Y99174D01*
X17591Y99409D01*
X20833Y102651D01*
X20900Y102708D01*
X21130Y102977D01*
X21130Y102977D01*
X21315Y103279D01*
X21450Y103607D01*
X21533Y103951D01*
X21561Y104304D01*
X21554Y104392D01*
Y105056D01*
X22020Y105057D01*
X22173Y105094D01*
X22318Y105154D01*
X22452Y105236D01*
X22572Y105339D01*
X22674Y105458D01*
X22757Y105593D01*
X22817Y105738D01*
X22847Y105863D01*
X22877Y105738D01*
X22937Y105593D01*
X23019Y105458D01*
X23122Y105339D01*
X23241Y105236D01*
X23375Y105154D01*
X23521Y105094D01*
X23674Y105057D01*
X23831Y105048D01*
X27154Y105054D01*
X27236Y104971D01*
X27294Y104904D01*
X27563Y104674D01*
X27563Y104674D01*
X27750Y104559D01*
X27865Y104489D01*
X28192Y104354D01*
X28537Y104271D01*
X28537D01*
X28890Y104243D01*
X28978Y104250D01*
X29527D01*
X29529Y101821D01*
X24121Y96413D01*
X16341D01*
X16280Y96418D01*
X16032Y96399D01*
X15791Y96341D01*
X15562Y96246D01*
X15351Y96117D01*
X15163Y95956D01*
X15002Y95767D01*
X14872Y95556D01*
X14777Y95327D01*
X14719Y95086D01*
X14719Y95085D01*
X14700Y94839D01*
X14705Y94777D01*
Y88500D01*
X8500D01*
Y263818D01*
X12530Y259788D01*
X12533Y258375D01*
X12570Y258222D01*
X12630Y258077D01*
X12713Y257942D01*
X12750Y257899D01*
Y257232D01*
X12284Y257231D01*
X12131Y257194D01*
X11986Y257134D01*
X11852Y257052D01*
X11732Y256949D01*
X11630Y256830D01*
X11547Y256695D01*
X11487Y256550D01*
X11450Y256397D01*
X11441Y256240D01*
X11450Y248603D01*
X11487Y248450D01*
X11547Y248305D01*
X11630Y248170D01*
X11732Y248051D01*
X11852Y247948D01*
X11986Y247866D01*
X12131Y247806D01*
X12284Y247769D01*
X12441Y247760D01*
X12762Y247761D01*
X12771Y247647D01*
Y247647D01*
X12854Y247303D01*
X12989Y246975D01*
X13059Y246861D01*
X13174Y246673D01*
X13174Y246673D01*
X13404Y246404D01*
X13471Y246347D01*
X14847Y244971D01*
X14904Y244904D01*
X15173Y244674D01*
X15173Y244674D01*
X15475Y244489D01*
X15803Y244354D01*
X16147Y244271D01*
X16500Y244243D01*
X16588Y244250D01*
X21922D01*
X21194Y243804D01*
X20116Y242884D01*
X19196Y241806D01*
X18456Y240599D01*
X17914Y239290D01*
X17583Y237912D01*
X17472Y236500D01*
X17583Y235088D01*
X17914Y233710D01*
X18456Y232401D01*
X19196Y231194D01*
X20116Y230116D01*
X21194Y229196D01*
X22401Y228456D01*
X23710Y227914D01*
X25088Y227583D01*
X26500Y227472D01*
X27912Y227583D01*
X29290Y227914D01*
X30599Y228456D01*
X31806Y229196D01*
X32884Y230116D01*
X33804Y231194D01*
X34544Y232401D01*
X35086Y233710D01*
X35417Y235088D01*
X35500Y236500D01*
X35417Y237912D01*
X35086Y239290D01*
X34544Y240599D01*
X33804Y241806D01*
X32884Y242884D01*
X31806Y243804D01*
X31078Y244250D01*
X42514D01*
Y221356D01*
X41586Y221283D01*
X40668Y221063D01*
X39795Y220701D01*
X38990Y220208D01*
X38514Y219801D01*
X38514Y220074D01*
X38459Y220304D01*
X38368Y220522D01*
X38245Y220723D01*
X38091Y220903D01*
X37912Y221056D01*
X37711Y221179D01*
X37493Y221270D01*
X37263Y221325D01*
X37028Y221339D01*
X27792Y221325D01*
X27563Y221270D01*
X27344Y221179D01*
X27143Y221056D01*
X26964Y220903D01*
X26810Y220723D01*
X26687Y220522D01*
X26597Y220304D01*
X26541Y220074D01*
X26528Y219839D01*
X26541Y210603D01*
X26597Y210374D01*
X26687Y210155D01*
X26810Y209954D01*
X26964Y209775D01*
X27143Y209621D01*
X27344Y209498D01*
X27563Y209408D01*
X27792Y209352D01*
X28028Y209339D01*
X30160Y209342D01*
X22661Y201843D01*
X22594Y201786D01*
X22364Y201517D01*
X22179Y201215D01*
X22044Y200887D01*
X21961Y200543D01*
X21961Y200543D01*
X21933Y200190D01*
X21940Y200102D01*
Y198806D01*
X21474Y198805D01*
X21321Y198768D01*
X21175Y198708D01*
X21041Y198626D01*
X20940Y198539D01*
X20897Y198550D01*
X20740Y198559D01*
X13103Y198550D01*
X12950Y198513D01*
X12805Y198453D01*
X12670Y198370D01*
X12551Y198268D01*
X12448Y198148D01*
X12366Y198014D01*
X12306Y197869D01*
X12269Y197716D01*
X12260Y197559D01*
X12269Y192284D01*
X12306Y192131D01*
X12366Y191985D01*
X12448Y191851D01*
X12519Y191769D01*
X12453Y191660D01*
X12212Y191078D01*
X12065Y190466D01*
X12015Y189839D01*
X12065Y189211D01*
X12212Y188599D01*
X12453Y188017D01*
X12782Y187480D01*
X13190Y187001D01*
X13496Y186740D01*
X13103Y186740D01*
X12950Y186703D01*
X12805Y186643D01*
X12670Y186560D01*
X12551Y186458D01*
X12448Y186338D01*
X12366Y186204D01*
X12306Y186059D01*
X12269Y185906D01*
X12260Y185749D01*
X12269Y180474D01*
X12306Y180321D01*
X12366Y180175D01*
X12448Y180041D01*
X12551Y179922D01*
X12670Y179819D01*
X12805Y179737D01*
X12950Y179677D01*
X13103Y179640D01*
X13260Y179631D01*
X14338Y179632D01*
X14271Y179353D01*
X14243Y179000D01*
X14271Y178647D01*
X14354Y178303D01*
X14489Y177975D01*
X14674Y177673D01*
X14904Y177404D01*
X15173Y177174D01*
X15475Y176989D01*
X15803Y176854D01*
X16147Y176771D01*
X16500Y176743D01*
X16853Y176771D01*
X17197Y176854D01*
X17525Y176989D01*
X17827Y177174D01*
X18091Y177409D01*
X18529Y177847D01*
X18596Y177904D01*
X18826Y178173D01*
X18826Y178173D01*
X19011Y178475D01*
X19146Y178803D01*
X19229Y179147D01*
X19257Y179500D01*
X19250Y179588D01*
Y179638D01*
X20897Y179640D01*
X21050Y179677D01*
X21195Y179737D01*
X21330Y179819D01*
X21449Y179922D01*
X21552Y180041D01*
X21634Y180175D01*
X21694Y180321D01*
X21731Y180474D01*
X21740Y180631D01*
X21731Y185906D01*
X21694Y186059D01*
X21641Y186186D01*
X24128Y186190D01*
X28004Y182314D01*
X28014Y177765D01*
X28069Y177535D01*
X28159Y177317D01*
X28283Y177116D01*
X28436Y176936D01*
X28616Y176783D01*
X28817Y176659D01*
X29035Y176569D01*
X29265Y176514D01*
X29500Y176500D01*
X30250Y176502D01*
Y175913D01*
X25451D01*
X25390Y175918D01*
X25143Y175899D01*
X24902Y175841D01*
X24673Y175746D01*
X24461Y175617D01*
X24273Y175456D01*
X24112Y175267D01*
X23982Y175056D01*
X23887Y174827D01*
X23830Y174586D01*
X23830Y174585D01*
X23810Y174339D01*
X23815Y174277D01*
Y166723D01*
X23810Y166661D01*
X23830Y166414D01*
X23887Y166173D01*
X23982Y165944D01*
X24112Y165733D01*
X24273Y165544D01*
X24461Y165383D01*
X24673Y165254D01*
X24902Y165159D01*
X25143Y165101D01*
X25390Y165082D01*
X25451Y165087D01*
X36549D01*
G37*
G36*
X85750Y333147D02*X85841Y333041D01*
X85960Y332938D01*
X86095Y332856D01*
X86240Y332796D01*
X86393Y332759D01*
X86550Y332750D01*
X85750D01*
Y333147D01*
G37*
G36*
X27743Y194340D02*X27740Y197971D01*
X27703Y198124D01*
X27643Y198269D01*
X27560Y198404D01*
X27458Y198523D01*
X27338Y198626D01*
X27204Y198708D01*
X27059Y198768D01*
X26906Y198805D01*
X26749Y198814D01*
X26440Y198813D01*
Y199258D01*
X34056Y206874D01*
X34123Y206932D01*
X34353Y207201D01*
X34353Y207201D01*
X34539Y207503D01*
X34674Y207830D01*
X34757Y208174D01*
X34784Y208528D01*
X34778Y208616D01*
Y209349D01*
X37263Y209352D01*
X37493Y209408D01*
X37711Y209498D01*
X37912Y209621D01*
X38091Y209775D01*
X38245Y209954D01*
X38368Y210155D01*
X38459Y210374D01*
X38514Y210603D01*
X38528Y210839D01*
X38528Y210864D01*
X38990Y210470D01*
X39795Y209976D01*
X40250Y209788D01*
Y208432D01*
X34471Y202653D01*
X34404Y202596D01*
X34174Y202327D01*
X33989Y202025D01*
X33854Y201697D01*
X33771Y201353D01*
X33771Y201353D01*
X33743Y201000D01*
X33750Y200912D01*
Y198806D01*
X33284Y198805D01*
X33131Y198768D01*
X32985Y198708D01*
X32851Y198626D01*
X32732Y198523D01*
X32629Y198404D01*
X32547Y198269D01*
X32487Y198124D01*
X32450Y197971D01*
X32441Y197814D01*
X32443Y195732D01*
X32240Y195816D01*
X31628Y195963D01*
X31000Y196012D01*
X30372Y195963D01*
X29760Y195816D01*
X29178Y195575D01*
X28642Y195246D01*
X28163Y194837D01*
X27754Y194358D01*
X27743Y194340D01*
G37*
G36*
X19690Y191449D02*X20636Y191450D01*
X20640Y187029D01*
X20677Y186876D01*
X20730Y186749D01*
X18566Y186746D01*
X18865Y187001D01*
X19274Y187480D01*
X19603Y188017D01*
X19844Y188599D01*
X19990Y189211D01*
X20028Y189839D01*
X19990Y190466D01*
X19844Y191078D01*
X19690Y191449D01*
G37*
G36*
X53669Y124649D02*X57004Y121314D01*
X57014Y117765D01*
X57069Y117535D01*
X57159Y117317D01*
X57283Y117116D01*
X57436Y116936D01*
X57616Y116783D01*
X57817Y116659D01*
X57821Y116657D01*
X57113D01*
X57051Y116662D01*
X56804Y116643D01*
X56563Y116585D01*
X56334Y116490D01*
X56123Y116361D01*
X55934Y116200D01*
X55773Y116011D01*
X55644Y115800D01*
X55549Y115571D01*
X55491Y115330D01*
X55491Y115330D01*
X55472Y115083D01*
X55476Y115021D01*
Y108750D01*
X48442D01*
X48439Y111971D01*
X48403Y112124D01*
X48342Y112269D01*
X48260Y112404D01*
X48158Y112523D01*
X48038Y112626D01*
X47904Y112708D01*
X47759Y112768D01*
X47606Y112805D01*
X47449Y112814D01*
X47140Y112813D01*
Y113010D01*
X48735Y113014D01*
X48965Y113069D01*
X49183Y113159D01*
X49384Y113283D01*
X49564Y113436D01*
X49717Y113616D01*
X49841Y113817D01*
X49931Y114035D01*
X49986Y114265D01*
X50000Y114500D01*
X49986Y119735D01*
X49931Y119965D01*
X49841Y120183D01*
X49717Y120384D01*
X49564Y120564D01*
X49384Y120717D01*
X49183Y120841D01*
X48965Y120931D01*
X48735Y120986D01*
X48500Y121000D01*
X47250Y120997D01*
Y124938D01*
X47732Y125137D01*
X48538Y125631D01*
X49256Y126244D01*
X49869Y126962D01*
X50000Y127176D01*
X50131Y126962D01*
X50744Y126244D01*
X51462Y125631D01*
X52268Y125137D01*
X53140Y124776D01*
X53669Y124649D01*
G37*
G36*
X81250Y355101D02*Y332750D01*
X69932D01*
X69929Y332753D01*
X79407Y332759D01*
X79560Y332796D01*
X79705Y332856D01*
X79840Y332938D01*
X79959Y333041D01*
X80062Y333160D01*
X80144Y333295D01*
X80204Y333440D01*
X80241Y333593D01*
X80250Y333750D01*
X80241Y352407D01*
X80204Y352560D01*
X80144Y352705D01*
X80062Y352840D01*
X79959Y352959D01*
X79840Y353062D01*
X79705Y353144D01*
X79560Y353204D01*
X79407Y353241D01*
X79250Y353250D01*
X64593Y353241D01*
X64440Y353204D01*
X64295Y353144D01*
X64160Y353062D01*
X64041Y352959D01*
X63938Y352840D01*
X63856Y352705D01*
X63796Y352560D01*
X63759Y352407D01*
X63750Y352250D01*
X63753Y345250D01*
X57744D01*
X57741Y350407D01*
X57704Y350560D01*
X57644Y350705D01*
X57562Y350840D01*
X57459Y350959D01*
X57340Y351062D01*
X57205Y351144D01*
X57060Y351204D01*
X56907Y351241D01*
X56750Y351250D01*
X38093Y351241D01*
X37940Y351204D01*
X37795Y351144D01*
X37660Y351062D01*
X37541Y350959D01*
X37438Y350840D01*
X37356Y350705D01*
X37296Y350560D01*
X37259Y350407D01*
X37250Y350250D01*
X37253Y345250D01*
X32744D01*
X32741Y350059D01*
X38576Y355894D01*
X38623Y355817D01*
X39088Y355273D01*
X39632Y354808D01*
X40243Y354433D01*
X40905Y354159D01*
X41601Y353992D01*
X42315Y353936D01*
X43029Y353992D01*
X43725Y354159D01*
X44387Y354433D01*
X44998Y354808D01*
X45542Y355273D01*
X46007Y355817D01*
X46272Y356250D01*
X58042D01*
X58308Y355817D01*
X58773Y355273D01*
X59317Y354808D01*
X59928Y354433D01*
X60590Y354159D01*
X61286Y353992D01*
X62000Y353936D01*
X62714Y353992D01*
X63410Y354159D01*
X64072Y354433D01*
X64683Y354808D01*
X65227Y355273D01*
X65692Y355817D01*
X66067Y356428D01*
X66341Y357090D01*
X66508Y357786D01*
X66550Y358500D01*
X66508Y359214D01*
X66341Y359910D01*
X66067Y360572D01*
X65692Y361183D01*
X65227Y361727D01*
X64683Y362192D01*
X64181Y362500D01*
X80669D01*
X80308Y362192D01*
X79848Y361653D01*
X79478Y361049D01*
X79207Y360395D01*
X79042Y359706D01*
X78986Y359000D01*
X79042Y358294D01*
X79207Y357605D01*
X79478Y356951D01*
X79848Y356347D01*
X80308Y355808D01*
X80847Y355348D01*
X81250Y355101D01*
G37*
G36*
X58042Y360750D02*X46272D01*
X46007Y361183D01*
X45542Y361727D01*
X44998Y362192D01*
X44496Y362500D01*
X59819D01*
X59317Y362192D01*
X58773Y361727D01*
X58308Y361183D01*
X58042Y360750D01*
G37*
G36*
X40399Y266750D02*X44912D01*
X45000Y266743D01*
X45353Y266771D01*
X45353Y266771D01*
X45697Y266854D01*
X46025Y266989D01*
X46327Y267174D01*
X46596Y267404D01*
X46653Y267471D01*
X63529Y284347D01*
X63596Y284404D01*
X63826Y284673D01*
X63826Y284673D01*
X64011Y284975D01*
X64146Y285303D01*
X64229Y285647D01*
X64257Y286000D01*
X64250Y286088D01*
Y297912D01*
X64257Y298000D01*
X64229Y298353D01*
X64229Y298353D01*
X64146Y298697D01*
X64011Y299025D01*
X63826Y299327D01*
X63596Y299596D01*
X63529Y299653D01*
X58153Y305029D01*
X58096Y305096D01*
X57827Y305326D01*
X57827Y305326D01*
X57712Y305396D01*
X57525Y305511D01*
X57293Y305607D01*
X57197Y305646D01*
X56853Y305729D01*
X56500Y305757D01*
X56412Y305750D01*
X55489D01*
X55486Y307735D01*
X55431Y307965D01*
X55341Y308183D01*
X55300Y308250D01*
X55568D01*
X60347Y303471D01*
X60404Y303404D01*
X60673Y303174D01*
X60673Y303174D01*
X60861Y303059D01*
X60975Y302989D01*
X61303Y302854D01*
X61647Y302771D01*
X61647D01*
X62000Y302743D01*
X62088Y302750D01*
X102412D01*
X102500Y302743D01*
X102853Y302771D01*
X102853Y302771D01*
X103197Y302854D01*
X103525Y302989D01*
X103827Y303174D01*
X104096Y303404D01*
X104153Y303471D01*
X106932Y306250D01*
X128912D01*
X129000Y306243D01*
X129353Y306271D01*
X129353Y306271D01*
X129697Y306354D01*
X130025Y306489D01*
X130327Y306674D01*
X130596Y306904D01*
X130653Y306971D01*
X138932Y315250D01*
X155068D01*
X144971Y305153D01*
X144904Y305096D01*
X144674Y304827D01*
X144489Y304525D01*
X144354Y304197D01*
X144271Y303853D01*
X144271Y303853D01*
X144243Y303500D01*
X144250Y303412D01*
Y299056D01*
X144244Y298937D01*
X144266Y298732D01*
X144271Y298647D01*
X144278Y298616D01*
X144282Y298584D01*
X144320Y298444D01*
X144354Y298303D01*
X144366Y298273D01*
X144374Y298243D01*
X144411Y298165D01*
X144489Y297975D01*
X144552Y297873D01*
X150467Y287028D01*
X150489Y286975D01*
X150674Y286673D01*
X150697Y286646D01*
X150712Y286623D01*
X150810Y286515D01*
X150904Y286404D01*
X150928Y286383D01*
X150950Y286360D01*
X151063Y286269D01*
X151173Y286174D01*
X151200Y286158D01*
X151225Y286138D01*
X151351Y286065D01*
X151475Y285989D01*
X151505Y285977D01*
X151532Y285961D01*
X151668Y285909D01*
X151803Y285854D01*
X151833Y285846D01*
X151863Y285835D01*
X152006Y285805D01*
X152147Y285771D01*
X152175Y285769D01*
X152210Y285762D01*
X152563Y285744D01*
X152620Y285750D01*
X155068D01*
X156750Y284068D01*
Y278932D01*
X151568Y273750D01*
X148488D01*
X148486Y274735D01*
X148431Y274965D01*
X148341Y275183D01*
X148217Y275384D01*
X148064Y275564D01*
X147884Y275717D01*
X147683Y275841D01*
X147465Y275931D01*
X147235Y275986D01*
X147000Y276000D01*
X140765Y275986D01*
X140535Y275931D01*
X140317Y275841D01*
X140116Y275717D01*
X139936Y275564D01*
X139783Y275384D01*
X139659Y275183D01*
X139569Y274965D01*
X139514Y274735D01*
X139500Y274500D01*
X139502Y273750D01*
X126932D01*
X124250Y276432D01*
Y278188D01*
X124358Y278254D01*
X124837Y278663D01*
X125246Y279142D01*
X125575Y279678D01*
X125816Y280260D01*
X125963Y280872D01*
X126000Y281500D01*
X125963Y282128D01*
X125816Y282740D01*
X125575Y283322D01*
X125246Y283858D01*
X124837Y284337D01*
X124358Y284746D01*
X124250Y284812D01*
Y288438D01*
X124732Y288637D01*
X125538Y289131D01*
X126256Y289744D01*
X126869Y290462D01*
X127000Y290676D01*
X127131Y290462D01*
X127744Y289744D01*
X128462Y289131D01*
X129268Y288637D01*
X129750Y288438D01*
Y287588D01*
X129743Y287500D01*
X129771Y287147D01*
Y287147D01*
X129854Y286803D01*
X129989Y286475D01*
X130059Y286361D01*
X130174Y286173D01*
X130174Y286173D01*
X130404Y285904D01*
X130471Y285847D01*
X136347Y279971D01*
X136404Y279904D01*
X136673Y279674D01*
X136673Y279674D01*
X136861Y279559D01*
X136975Y279489D01*
X137303Y279354D01*
X137647Y279271D01*
X137647D01*
X138000Y279243D01*
X138088Y279250D01*
X148013D01*
X148014Y278765D01*
X148069Y278535D01*
X148159Y278317D01*
X148283Y278116D01*
X148436Y277936D01*
X148616Y277783D01*
X148817Y277659D01*
X149035Y277569D01*
X149265Y277514D01*
X149500Y277500D01*
X154735Y277514D01*
X154965Y277569D01*
X155183Y277659D01*
X155384Y277783D01*
X155564Y277936D01*
X155717Y278116D01*
X155841Y278317D01*
X155931Y278535D01*
X155986Y278765D01*
X156000Y279000D01*
X155986Y284235D01*
X155931Y284465D01*
X155841Y284683D01*
X155717Y284884D01*
X155564Y285064D01*
X155384Y285217D01*
X155183Y285341D01*
X154965Y285431D01*
X154735Y285486D01*
X154500Y285500D01*
X149265Y285486D01*
X149035Y285431D01*
X148817Y285341D01*
X148616Y285217D01*
X148436Y285064D01*
X148283Y284884D01*
X148159Y284683D01*
X148069Y284465D01*
X148014Y284235D01*
X148000Y284000D01*
X148001Y283750D01*
X138932D01*
X134250Y288432D01*
Y288438D01*
X134732Y288637D01*
X135538Y289131D01*
X136256Y289744D01*
X136869Y290462D01*
X137363Y291268D01*
X137724Y292140D01*
X137944Y293058D01*
X138000Y294000D01*
X137944Y294942D01*
X137724Y295860D01*
X137363Y296732D01*
X136869Y297538D01*
X136256Y298256D01*
X135538Y298869D01*
X134732Y299363D01*
X133860Y299724D01*
X132942Y299944D01*
X132720Y299962D01*
X128653Y304029D01*
X128596Y304096D01*
X128327Y304326D01*
X128025Y304511D01*
X127697Y304646D01*
X127353Y304729D01*
X127353Y304729D01*
X127000Y304757D01*
X126912Y304750D01*
X107088D01*
X107000Y304757D01*
X106647Y304729D01*
X106303Y304646D01*
X105975Y304511D01*
X105673Y304326D01*
X105673Y304326D01*
X105404Y304096D01*
X105347Y304029D01*
X84316Y282998D01*
X78765Y282986D01*
X78535Y282931D01*
X78317Y282841D01*
X78116Y282717D01*
X77936Y282564D01*
X77783Y282384D01*
X77659Y282183D01*
X77569Y281965D01*
X77514Y281735D01*
X77500Y281500D01*
X77510Y277192D01*
X68503Y268185D01*
X61723D01*
X61661Y268190D01*
X61414Y268170D01*
X61173Y268113D01*
X60944Y268018D01*
X60733Y267888D01*
X60544Y267727D01*
X60383Y267539D01*
X60254Y267327D01*
X60159Y267098D01*
X60101Y266857D01*
X60101Y266857D01*
X60082Y266610D01*
X60087Y266549D01*
Y263250D01*
X60000Y263257D01*
X59647Y263229D01*
X59303Y263146D01*
X58975Y263011D01*
X58673Y262826D01*
X58673Y262826D01*
X58404Y262596D01*
X58347Y262529D01*
X44568Y248750D01*
X30369D01*
X30369Y248760D01*
X30360Y256397D01*
X30323Y256550D01*
X30263Y256695D01*
X30181Y256830D01*
X30078Y256949D01*
X29959Y257052D01*
X29825Y257134D01*
X29679Y257194D01*
X29526Y257231D01*
X29369Y257240D01*
X29060Y257239D01*
Y265291D01*
X29153Y265348D01*
X29692Y265808D01*
X30152Y266347D01*
X30522Y266951D01*
X30793Y267605D01*
X30958Y268294D01*
X31000Y269000D01*
X30958Y269706D01*
X30793Y270395D01*
X30522Y271049D01*
X30152Y271653D01*
X29692Y272192D01*
X29153Y272652D01*
X28549Y273022D01*
X27895Y273293D01*
X27206Y273458D01*
X26500Y273514D01*
X25794Y273458D01*
X25105Y273293D01*
X24451Y273022D01*
X23847Y272652D01*
X23308Y272192D01*
X22848Y271653D01*
X22478Y271049D01*
X22207Y270395D01*
X22042Y269706D01*
X21986Y269000D01*
X22042Y268294D01*
X22207Y267605D01*
X22478Y266951D01*
X22848Y266347D01*
X23308Y265808D01*
X23847Y265348D01*
X24451Y264978D01*
X24560Y264933D01*
Y257232D01*
X24094Y257231D01*
X23941Y257194D01*
X23796Y257134D01*
X23662Y257052D01*
X23542Y256949D01*
X23440Y256830D01*
X23357Y256695D01*
X23297Y256550D01*
X23260Y256397D01*
X23251Y256240D01*
X23260Y248750D01*
X18559D01*
X18559Y248760D01*
X18550Y256397D01*
X18513Y256550D01*
X18453Y256695D01*
X18371Y256830D01*
X18268Y256949D01*
X18149Y257052D01*
X18015Y257134D01*
X17869Y257194D01*
X17716Y257231D01*
X17559Y257240D01*
X17250Y257239D01*
Y257898D01*
X17288Y257942D01*
X17370Y258077D01*
X17430Y258222D01*
X17467Y258375D01*
X17476Y258532D01*
X17467Y262625D01*
X17430Y262778D01*
X17370Y262923D01*
X17288Y263058D01*
X17185Y263177D01*
X17066Y263280D01*
X16931Y263362D01*
X16786Y263422D01*
X16633Y263459D01*
X16476Y263468D01*
X15218Y263464D01*
X12250Y266432D01*
Y267501D01*
X12478Y266951D01*
X12848Y266347D01*
X13308Y265808D01*
X13847Y265348D01*
X14451Y264978D01*
X15105Y264707D01*
X15794Y264542D01*
X16500Y264486D01*
X17206Y264542D01*
X17666Y264652D01*
X17868Y264450D01*
Y263102D01*
X17831Y263058D01*
X17748Y262923D01*
X17688Y262778D01*
X17651Y262625D01*
X17642Y262468D01*
X17651Y258375D01*
X17688Y258222D01*
X17748Y258077D01*
X17831Y257942D01*
X17933Y257823D01*
X18052Y257720D01*
X18187Y257638D01*
X18332Y257578D01*
X18485Y257541D01*
X18642Y257532D01*
X21751Y257541D01*
X21904Y257578D01*
X22049Y257638D01*
X22184Y257720D01*
X22303Y257823D01*
X22406Y257942D01*
X22488Y258077D01*
X22548Y258222D01*
X22585Y258375D01*
X22594Y258532D01*
X22585Y262625D01*
X22548Y262778D01*
X22488Y262923D01*
X22406Y263058D01*
X22368Y263101D01*
Y265294D01*
X22375Y265382D01*
X22347Y265735D01*
X22347Y265735D01*
X22265Y266079D01*
X22129Y266407D01*
X21944Y266708D01*
X21714Y266978D01*
X21647Y267035D01*
X20848Y267834D01*
X20958Y268294D01*
X21000Y269000D01*
X20958Y269706D01*
X20793Y270395D01*
X20522Y271049D01*
X20152Y271653D01*
X19692Y272192D01*
X19153Y272652D01*
X18549Y273022D01*
X17895Y273293D01*
X17206Y273458D01*
X16500Y273514D01*
X15794Y273458D01*
X15105Y273293D01*
X14451Y273022D01*
X13847Y272652D01*
X13308Y272192D01*
X12848Y271653D01*
X12478Y271049D01*
X12250Y270499D01*
Y277501D01*
X12478Y276951D01*
X12848Y276347D01*
X13308Y275808D01*
X13847Y275348D01*
X14451Y274978D01*
X15105Y274707D01*
X15794Y274542D01*
X16500Y274486D01*
X17206Y274542D01*
X17895Y274707D01*
X18549Y274978D01*
X19153Y275348D01*
X19692Y275808D01*
X20152Y276347D01*
X20399Y276750D01*
X22601D01*
X22848Y276347D01*
X23308Y275808D01*
X23847Y275348D01*
X24451Y274978D01*
X25105Y274707D01*
X25794Y274542D01*
X26500Y274486D01*
X27206Y274542D01*
X27895Y274707D01*
X28549Y274978D01*
X29153Y275348D01*
X29692Y275808D01*
X30152Y276347D01*
X30399Y276750D01*
X32012D01*
X32014Y275765D01*
X32069Y275535D01*
X32159Y275317D01*
X32283Y275116D01*
X32436Y274936D01*
X32616Y274783D01*
X32817Y274659D01*
X33035Y274569D01*
X33265Y274514D01*
X33500Y274500D01*
X39735Y274514D01*
X39965Y274569D01*
X40183Y274659D01*
X40384Y274783D01*
X40564Y274936D01*
X40717Y275116D01*
X40841Y275317D01*
X40931Y275535D01*
X40986Y275765D01*
X41000Y276000D01*
X40986Y282235D01*
X40931Y282465D01*
X40841Y282683D01*
X40717Y282884D01*
X40564Y283064D01*
X40384Y283217D01*
X40183Y283341D01*
X39965Y283431D01*
X39735Y283486D01*
X39500Y283500D01*
X33265Y283486D01*
X33035Y283431D01*
X32817Y283341D01*
X32616Y283217D01*
X32436Y283064D01*
X32283Y282884D01*
X32159Y282683D01*
X32069Y282465D01*
X32014Y282235D01*
X32000Y282000D01*
X32002Y281250D01*
X30399D01*
X30152Y281653D01*
X29692Y282192D01*
X29153Y282652D01*
X28750Y282899D01*
Y287188D01*
X28858Y287254D01*
X29337Y287663D01*
X29746Y288142D01*
X30075Y288678D01*
X30316Y289260D01*
X30463Y289872D01*
X30500Y290500D01*
X30463Y291128D01*
X30316Y291740D01*
X30075Y292322D01*
X29746Y292858D01*
X29337Y293337D01*
X28858Y293746D01*
X28750Y293812D01*
Y297938D01*
X29232Y298137D01*
X30038Y298631D01*
X30756Y299244D01*
X31369Y299962D01*
X31500Y300176D01*
X31631Y299962D01*
X32244Y299244D01*
X32962Y298631D01*
X33768Y298137D01*
X34640Y297776D01*
X35558Y297556D01*
X36500Y297481D01*
X37442Y297556D01*
X38360Y297776D01*
X38842Y297976D01*
X47847Y288971D01*
X47904Y288904D01*
X48173Y288674D01*
X48173Y288674D01*
X48361Y288559D01*
X48475Y288489D01*
X48803Y288354D01*
X49147Y288271D01*
X49147D01*
X49500Y288243D01*
X49588Y288250D01*
X52513D01*
X52514Y287765D01*
X52569Y287535D01*
X52659Y287317D01*
X52783Y287116D01*
X52936Y286936D01*
X53116Y286783D01*
X53317Y286659D01*
X53535Y286569D01*
X53765Y286514D01*
X54000Y286500D01*
X59235Y286514D01*
X59362Y286544D01*
X44068Y271250D01*
X40399D01*
X40152Y271653D01*
X39692Y272192D01*
X39153Y272652D01*
X38549Y273022D01*
X37895Y273293D01*
X37206Y273458D01*
X36500Y273514D01*
X35794Y273458D01*
X35105Y273293D01*
X34451Y273022D01*
X33847Y272652D01*
X33308Y272192D01*
X32848Y271653D01*
X32478Y271049D01*
X32207Y270395D01*
X32042Y269706D01*
X31986Y269000D01*
X32042Y268294D01*
X32207Y267605D01*
X32478Y266951D01*
X32848Y266347D01*
X33308Y265808D01*
X33847Y265348D01*
X34451Y264978D01*
X35105Y264707D01*
X35794Y264542D01*
X36500Y264486D01*
X37206Y264542D01*
X37895Y264707D01*
X38549Y264978D01*
X39153Y265348D01*
X39692Y265808D01*
X40152Y266347D01*
X40399Y266750D01*
G37*
G36*
X55497Y301250D02*X55568D01*
X59750Y297068D01*
Y294300D01*
X59683Y294341D01*
X59465Y294431D01*
X59235Y294486D01*
X59000Y294500D01*
X53765Y294486D01*
X53535Y294431D01*
X53317Y294341D01*
X53116Y294217D01*
X52936Y294064D01*
X52783Y293884D01*
X52659Y293683D01*
X52569Y293465D01*
X52514Y293235D01*
X52500Y293000D01*
X52501Y292750D01*
X50432D01*
X42024Y301158D01*
X42224Y301640D01*
X42444Y302558D01*
X42500Y303500D01*
X42444Y304442D01*
X42224Y305360D01*
X42024Y305842D01*
X44432Y308250D01*
X44700D01*
X44659Y308183D01*
X44569Y307965D01*
X44514Y307735D01*
X44500Y307500D01*
X44514Y299265D01*
X44569Y299035D01*
X44659Y298817D01*
X44783Y298616D01*
X44936Y298436D01*
X45116Y298283D01*
X45317Y298159D01*
X45535Y298069D01*
X45765Y298014D01*
X46000Y298000D01*
X54235Y298014D01*
X54465Y298069D01*
X54683Y298159D01*
X54884Y298283D01*
X55064Y298436D01*
X55217Y298616D01*
X55341Y298817D01*
X55431Y299035D01*
X55486Y299265D01*
X55500Y299500D01*
X55497Y301250D01*
G37*
G36*
X119750Y288438D02*Y284812D01*
X119642Y284746D01*
X119163Y284337D01*
X118754Y283858D01*
X118425Y283322D01*
X118184Y282740D01*
X118037Y282128D01*
X117988Y281500D01*
X118037Y280872D01*
X118184Y280260D01*
X118425Y279678D01*
X118754Y279142D01*
X119163Y278663D01*
X119642Y278254D01*
X119750Y278188D01*
Y275588D01*
X119743Y275500D01*
X119750Y275412D01*
Y257088D01*
X119743Y257000D01*
X119771Y256647D01*
Y256647D01*
X119854Y256303D01*
X119989Y255975D01*
X120059Y255861D01*
X120174Y255673D01*
X120174Y255673D01*
X120404Y255404D01*
X120471Y255347D01*
X121986Y253832D01*
Y236027D01*
X120588Y235917D01*
X119210Y235586D01*
X117901Y235044D01*
X116694Y234304D01*
X115616Y233384D01*
X114696Y232306D01*
X113956Y231099D01*
X113414Y229790D01*
X113083Y228412D01*
X112972Y227000D01*
X113083Y225588D01*
X113414Y224210D01*
X113956Y222901D01*
X114696Y221694D01*
X115616Y220616D01*
X116694Y219696D01*
X117901Y218956D01*
X119210Y218414D01*
X120588Y218083D01*
X121986Y217973D01*
Y210196D01*
X109250Y222932D01*
Y226688D01*
X109358Y226754D01*
X109837Y227163D01*
X110246Y227642D01*
X110575Y228178D01*
X110816Y228760D01*
X110963Y229372D01*
X111000Y230000D01*
X110963Y230628D01*
X110933Y230751D01*
X118029Y237847D01*
X118096Y237904D01*
X118326Y238173D01*
X118326Y238173D01*
X118511Y238475D01*
X118646Y238803D01*
X118729Y239147D01*
X118733Y239194D01*
X119216Y239195D01*
X119369Y239232D01*
X119515Y239292D01*
X119649Y239374D01*
X119768Y239477D01*
X119871Y239596D01*
X119953Y239731D01*
X120013Y239876D01*
X120050Y240029D01*
X120059Y240186D01*
X120050Y250971D01*
X120013Y251124D01*
X119953Y251269D01*
X119871Y251404D01*
X119768Y251523D01*
X119649Y251626D01*
X119515Y251708D01*
X119369Y251768D01*
X119216Y251805D01*
X119059Y251814D01*
X118750Y251813D01*
Y252912D01*
X118757Y253000D01*
X118729Y253353D01*
X118646Y253697D01*
X118607Y253793D01*
X118511Y254025D01*
X118396Y254212D01*
X118326Y254327D01*
X118326Y254327D01*
X118096Y254596D01*
X118029Y254653D01*
X116496Y256186D01*
X116486Y260735D01*
X116431Y260965D01*
X116341Y261183D01*
X116217Y261384D01*
X116064Y261564D01*
X115884Y261717D01*
X115683Y261841D01*
X115465Y261931D01*
X115235Y261986D01*
X115000Y262000D01*
X114250Y261998D01*
Y288010D01*
X116735Y288014D01*
X116965Y288069D01*
X117183Y288159D01*
X117384Y288283D01*
X117564Y288436D01*
X117717Y288616D01*
X117841Y288817D01*
X117931Y289035D01*
X117986Y289265D01*
X118000Y289500D01*
X118000Y289526D01*
X118462Y289131D01*
X119268Y288637D01*
X119750Y288438D01*
G37*
G36*
X121986Y253832D02*X124777Y251041D01*
X124760Y250971D01*
X124751Y250814D01*
X124760Y240029D01*
X124797Y239876D01*
X124857Y239731D01*
X124940Y239596D01*
X125042Y239477D01*
X125162Y239374D01*
X125296Y239292D01*
X125441Y239232D01*
X125594Y239195D01*
X125751Y239186D01*
X126060Y239187D01*
Y238778D01*
X126053Y238690D01*
X126081Y238337D01*
X126081Y238337D01*
X126164Y237993D01*
X126299Y237665D01*
X126369Y237551D01*
X126405Y237492D01*
X126484Y237363D01*
X126484Y237363D01*
X126714Y237094D01*
X126781Y237037D01*
X133004Y230814D01*
X133014Y227265D01*
X133069Y227035D01*
X133159Y226817D01*
X133283Y226616D01*
X133436Y226436D01*
X133616Y226283D01*
X133817Y226159D01*
X134035Y226069D01*
X134265Y226014D01*
X134500Y226000D01*
X137809Y226009D01*
X139819Y223999D01*
X139877Y223932D01*
X140146Y223702D01*
X140146Y223702D01*
X140333Y223587D01*
X140448Y223517D01*
X140775Y223381D01*
X141119Y223298D01*
X141119D01*
X141472Y223271D01*
X141561Y223278D01*
X146587D01*
Y219979D01*
X146582Y219917D01*
X146601Y219670D01*
X146659Y219429D01*
X146754Y219200D01*
X146883Y218989D01*
X147044Y218800D01*
X147233Y218639D01*
X147444Y218510D01*
X147673Y218415D01*
X147914Y218357D01*
X148161Y218338D01*
X148223Y218343D01*
X152000D01*
Y214086D01*
X152000D01*
X151126Y214017D01*
X150274Y213812D01*
X149464Y213477D01*
X148717Y213019D01*
X148050Y212450D01*
X147481Y211783D01*
X147023Y211036D01*
X146688Y210226D01*
X146483Y209374D01*
X146414Y208500D01*
X146483Y207626D01*
X146688Y206774D01*
X147023Y205964D01*
X147481Y205217D01*
X148050Y204550D01*
X148717Y203981D01*
X149464Y203523D01*
X150274Y203188D01*
X151126Y202983D01*
X152000Y202914D01*
X152000D01*
Y192051D01*
X151103Y192050D01*
X150950Y192013D01*
X150805Y191953D01*
X150670Y191870D01*
X150551Y191768D01*
X150448Y191648D01*
X150366Y191514D01*
X150306Y191369D01*
X150269Y191216D01*
X150260Y191059D01*
X150269Y185784D01*
X150306Y185631D01*
X150366Y185485D01*
X150448Y185351D01*
X150535Y185250D01*
X150432D01*
X149989Y185693D01*
X149944Y186442D01*
X149724Y187360D01*
X149363Y188232D01*
X148869Y189038D01*
X148256Y189756D01*
X147538Y190369D01*
X146732Y190863D01*
X146171Y191095D01*
X146146Y191197D01*
X146011Y191525D01*
X145826Y191827D01*
X145596Y192096D01*
X145529Y192153D01*
X143653Y194029D01*
X143596Y194096D01*
X143327Y194326D01*
X143327Y194326D01*
X143212Y194396D01*
X143025Y194511D01*
X142793Y194607D01*
X142697Y194646D01*
X142353Y194729D01*
X142000Y194757D01*
X141912Y194750D01*
X136120D01*
X136519Y195217D01*
X136977Y195964D01*
X137312Y196774D01*
X137517Y197626D01*
X137568Y198500D01*
X137517Y199374D01*
X137312Y200226D01*
X136977Y201036D01*
X136519Y201783D01*
X135950Y202450D01*
X135283Y203019D01*
X134536Y203477D01*
X133726Y203812D01*
X132874Y204017D01*
X132000Y204086D01*
X131126Y204017D01*
X130274Y203812D01*
X129464Y203477D01*
X128994Y203188D01*
X121986Y210196D01*
Y217973D01*
X122000Y217972D01*
X123412Y218083D01*
X124790Y218414D01*
X126099Y218956D01*
X127306Y219696D01*
X128384Y220616D01*
X129304Y221694D01*
X130044Y222901D01*
X130586Y224210D01*
X130917Y225588D01*
X131000Y227000D01*
X130917Y228412D01*
X130586Y229790D01*
X130044Y231099D01*
X129304Y232306D01*
X128384Y233384D01*
X127306Y234304D01*
X126099Y235044D01*
X124790Y235586D01*
X123412Y235917D01*
X122000Y236028D01*
X121986Y236027D01*
Y253832D01*
G37*
G36*
X152000Y232713D02*X148223D01*
X148161Y232717D01*
X147914Y232698D01*
X147673Y232640D01*
X147444Y232545D01*
X147233Y232416D01*
X147044Y232255D01*
X146883Y232066D01*
X146754Y231855D01*
X146659Y231626D01*
X146601Y231385D01*
X146601Y231385D01*
X146582Y231138D01*
X146587Y231076D01*
Y227778D01*
X142404D01*
X140996Y229186D01*
X140986Y232735D01*
X140931Y232965D01*
X140841Y233183D01*
X140717Y233384D01*
X140564Y233564D01*
X140384Y233717D01*
X140183Y233841D01*
X139965Y233931D01*
X139735Y233986D01*
X139500Y234000D01*
X136191Y233991D01*
X130987Y239195D01*
X131026Y239195D01*
X131179Y239232D01*
X131325Y239292D01*
X131459Y239374D01*
X131578Y239477D01*
X131681Y239596D01*
X131763Y239731D01*
X131823Y239876D01*
X131860Y240029D01*
X131869Y240186D01*
X131860Y250971D01*
X131823Y251124D01*
X131763Y251269D01*
X131681Y251404D01*
X131578Y251523D01*
X131459Y251626D01*
X131325Y251708D01*
X131179Y251768D01*
X131026Y251805D01*
X130869Y251814D01*
X130261Y251813D01*
X130136Y252017D01*
X129906Y252286D01*
X129839Y252343D01*
X124250Y257932D01*
Y270068D01*
X124347Y269971D01*
X124404Y269904D01*
X124673Y269674D01*
X124673Y269674D01*
X124861Y269559D01*
X124975Y269489D01*
X125303Y269354D01*
X125647Y269271D01*
X125647D01*
X126000Y269243D01*
X126088Y269250D01*
X139512D01*
X139514Y268265D01*
X139569Y268035D01*
X139659Y267817D01*
X139783Y267616D01*
X139936Y267436D01*
X140116Y267283D01*
X140317Y267159D01*
X140535Y267069D01*
X140765Y267014D01*
X141000Y267000D01*
X147235Y267014D01*
X147465Y267069D01*
X147683Y267159D01*
X147884Y267283D01*
X148064Y267436D01*
X148217Y267616D01*
X148341Y267817D01*
X148431Y268035D01*
X148486Y268265D01*
X148500Y268500D01*
X148498Y269250D01*
X152000D01*
Y253185D01*
X148223D01*
X148161Y253190D01*
X147914Y253170D01*
X147673Y253113D01*
X147444Y253018D01*
X147233Y252888D01*
X147044Y252727D01*
X146883Y252539D01*
X146754Y252327D01*
X146659Y252098D01*
X146601Y251857D01*
X146601Y251857D01*
X146582Y251610D01*
X146587Y251549D01*
Y240451D01*
X146582Y240390D01*
X146601Y240143D01*
X146659Y239902D01*
X146754Y239673D01*
X146883Y239461D01*
X147044Y239273D01*
X147233Y239112D01*
X147444Y238982D01*
X147673Y238887D01*
X147914Y238830D01*
X148161Y238810D01*
X148223Y238815D01*
X152000D01*
Y232713D01*
G37*
G36*
Y218343D02*X155777D01*
X155839Y218338D01*
X156085Y218357D01*
X156086Y218357D01*
X156327Y218415D01*
X156556Y218510D01*
X156767Y218639D01*
X156956Y218800D01*
X157117Y218989D01*
X157246Y219200D01*
X157341Y219429D01*
X157399Y219670D01*
X157418Y219917D01*
X157413Y219979D01*
Y231076D01*
X157418Y231138D01*
X157399Y231385D01*
X157341Y231626D01*
X157246Y231855D01*
X157117Y232066D01*
X156956Y232255D01*
X156767Y232416D01*
X156556Y232545D01*
X156327Y232640D01*
X156086Y232698D01*
X155839Y232717D01*
X155777Y232713D01*
X152000D01*
Y238815D01*
X155777D01*
X155839Y238810D01*
X156085Y238830D01*
X156086Y238830D01*
X156327Y238887D01*
X156556Y238982D01*
X156767Y239112D01*
X156956Y239273D01*
X157117Y239461D01*
X157246Y239673D01*
X157341Y239902D01*
X157399Y240143D01*
X157418Y240390D01*
X157413Y240452D01*
Y251548D01*
X157418Y251610D01*
X157399Y251857D01*
X157341Y252098D01*
X157246Y252327D01*
X157117Y252539D01*
X156956Y252727D01*
X156767Y252888D01*
X156556Y253018D01*
X156327Y253113D01*
X156086Y253170D01*
X155839Y253190D01*
X155777Y253185D01*
X152000D01*
Y269250D01*
X152412D01*
X152500Y269243D01*
X152853Y269271D01*
X152853Y269271D01*
X153197Y269354D01*
X153525Y269489D01*
X153827Y269674D01*
X154096Y269904D01*
X154153Y269971D01*
X158941Y274759D01*
X158932Y274600D01*
X158950Y267091D01*
X159022Y266790D01*
X159141Y266504D01*
X159303Y266239D01*
X159504Y266004D01*
X159739Y265803D01*
X160004Y265641D01*
X160290Y265522D01*
X160591Y265450D01*
X160900Y265432D01*
X162250Y265435D01*
Y265399D01*
X161847Y265152D01*
X161308Y264692D01*
X160848Y264153D01*
X160478Y263549D01*
X160207Y262895D01*
X160042Y262206D01*
X159986Y261500D01*
X160042Y260794D01*
X160207Y260105D01*
X160478Y259451D01*
X160848Y258847D01*
X161308Y258308D01*
X161847Y257848D01*
X162250Y257601D01*
Y249588D01*
X162243Y249500D01*
X162271Y249147D01*
Y249147D01*
X162354Y248803D01*
X162403Y248682D01*
X162374Y248648D01*
X162292Y248514D01*
X162232Y248369D01*
X162195Y248216D01*
X162186Y248059D01*
X162195Y242784D01*
X162232Y242631D01*
X162292Y242485D01*
X162374Y242351D01*
X162477Y242232D01*
X162596Y242129D01*
X162731Y242047D01*
X162876Y241987D01*
X163029Y241950D01*
X163186Y241941D01*
X167279Y241944D01*
Y237243D01*
X163029Y237240D01*
X162876Y237203D01*
X162731Y237143D01*
X162596Y237060D01*
X162477Y236958D01*
X162374Y236838D01*
X162310Y236733D01*
X162000Y236757D01*
X161647Y236729D01*
X161303Y236646D01*
X160975Y236511D01*
X160673Y236326D01*
X160404Y236096D01*
X160174Y235827D01*
X159989Y235525D01*
X159854Y235197D01*
X159771Y234853D01*
X159743Y234500D01*
X159771Y234147D01*
X159854Y233803D01*
X159989Y233475D01*
X160174Y233173D01*
X160409Y232909D01*
X161157Y232161D01*
X161214Y232094D01*
X161483Y231864D01*
X161483Y231864D01*
X161785Y231679D01*
X162113Y231544D01*
X162194Y231524D01*
X162195Y230974D01*
X162232Y230821D01*
X162292Y230675D01*
X162374Y230541D01*
X162477Y230422D01*
X162596Y230319D01*
X162731Y230237D01*
X162876Y230177D01*
X163029Y230140D01*
X163186Y230131D01*
X167279Y230134D01*
Y229250D01*
X163088D01*
X163000Y229257D01*
X162647Y229229D01*
X162303Y229146D01*
X161975Y229011D01*
X161673Y228826D01*
X161673Y228826D01*
X161404Y228596D01*
X161347Y228529D01*
X159471Y226653D01*
X159404Y226596D01*
X159174Y226327D01*
X158989Y226025D01*
X158854Y225697D01*
X158771Y225353D01*
X158771Y225353D01*
X158743Y225000D01*
X158750Y224912D01*
Y207932D01*
X157115Y206297D01*
X157312Y206774D01*
X157517Y207626D01*
X157568Y208500D01*
X157517Y209374D01*
X157312Y210226D01*
X156977Y211036D01*
X156519Y211783D01*
X155950Y212450D01*
X155283Y213019D01*
X154536Y213477D01*
X153726Y213812D01*
X152874Y214017D01*
X152000Y214086D01*
Y218343D01*
G37*
G36*
Y202914D02*X152874Y202983D01*
X153726Y203188D01*
X154203Y203385D01*
X153471Y202653D01*
X153404Y202596D01*
X153174Y202327D01*
X152989Y202025D01*
X152854Y201697D01*
X152771Y201353D01*
X152771Y201353D01*
X152743Y201000D01*
X152750Y200912D01*
Y192052D01*
X152000Y192051D01*
Y202914D01*
G37*
G36*
X167279Y249903D02*X166750Y250432D01*
Y257601D01*
X167153Y257848D01*
X167279Y257955D01*
Y249903D01*
G37*
G36*
Y265045D02*X167153Y265152D01*
X166750Y265399D01*
Y265446D01*
X167279Y265447D01*
Y265045D01*
G37*
G36*
Y276567D02*X160721Y276551D01*
X160826Y276673D01*
X160826Y276673D01*
X161011Y276975D01*
X161146Y277303D01*
X161229Y277647D01*
X161257Y278000D01*
X161250Y278088D01*
Y284912D01*
X161257Y285000D01*
X161229Y285353D01*
X161229Y285353D01*
X161146Y285697D01*
X161011Y286025D01*
X160826Y286327D01*
X160596Y286596D01*
X160529Y286653D01*
X157653Y289529D01*
X157596Y289596D01*
X157327Y289826D01*
X157025Y290011D01*
X156697Y290146D01*
X156353Y290229D01*
X156353Y290229D01*
X156000Y290257D01*
X155912Y290250D01*
X153836D01*
X152993Y291795D01*
X153260Y291684D01*
X153872Y291537D01*
X154500Y291488D01*
X155128Y291537D01*
X155740Y291684D01*
X156322Y291925D01*
X156858Y292254D01*
X157337Y292663D01*
X157746Y293142D01*
X157812Y293250D01*
X161568D01*
X163940Y290878D01*
Y290806D01*
X163474Y290805D01*
X163321Y290768D01*
X163175Y290708D01*
X163041Y290626D01*
X162922Y290523D01*
X162819Y290404D01*
X162737Y290269D01*
X162677Y290124D01*
X162640Y289971D01*
X162631Y289814D01*
X162640Y279029D01*
X162677Y278876D01*
X162737Y278731D01*
X162819Y278596D01*
X162922Y278477D01*
X163041Y278374D01*
X163175Y278292D01*
X163321Y278232D01*
X163474Y278195D01*
X163631Y278186D01*
X167279Y278192D01*
Y276567D01*
G37*
G36*
Y293903D02*X165682Y295500D01*
X167279Y297097D01*
Y293903D01*
G37*
G36*
Y241944D02*X173971Y241950D01*
X174124Y241987D01*
X174269Y242047D01*
X174404Y242129D01*
X174523Y242232D01*
X174626Y242351D01*
X174708Y242485D01*
X174768Y242631D01*
X174805Y242784D01*
X174814Y242941D01*
X174805Y248216D01*
X174768Y248369D01*
X174708Y248514D01*
X174626Y248648D01*
X174523Y248768D01*
X174404Y248870D01*
X174269Y248953D01*
X174124Y249013D01*
X173971Y249050D01*
X173814Y249059D01*
X168128Y249054D01*
X167279Y249903D01*
Y257955D01*
X167692Y258308D01*
X168152Y258847D01*
X168522Y259451D01*
X168793Y260105D01*
X168958Y260794D01*
X169000Y261500D01*
X168958Y262206D01*
X168793Y262895D01*
X168522Y263549D01*
X168152Y264153D01*
X167692Y264692D01*
X167279Y265045D01*
Y265447D01*
X168409Y265450D01*
X168710Y265522D01*
X168996Y265641D01*
X169261Y265803D01*
X169496Y266004D01*
X169697Y266239D01*
X169859Y266504D01*
X169978Y266790D01*
X170050Y267091D01*
X170068Y267400D01*
X170050Y274909D01*
X169978Y275210D01*
X169859Y275496D01*
X169697Y275761D01*
X169496Y275996D01*
X169261Y276197D01*
X168996Y276359D01*
X168710Y276478D01*
X168409Y276550D01*
X168100Y276568D01*
X167279Y276567D01*
Y278192D01*
X168124Y278194D01*
X170250Y276068D01*
Y265331D01*
X170159Y265183D01*
X170069Y264965D01*
X170014Y264735D01*
X170000Y264500D01*
X170014Y258265D01*
X170069Y258035D01*
X170159Y257817D01*
X170283Y257616D01*
X170436Y257436D01*
X170616Y257283D01*
X170817Y257159D01*
X171035Y257069D01*
X171265Y257014D01*
X171500Y257000D01*
X177735Y257014D01*
X177965Y257069D01*
X178183Y257159D01*
X178384Y257283D01*
X178564Y257436D01*
X178717Y257616D01*
X178841Y257817D01*
X178931Y258035D01*
X178986Y258265D01*
X179000Y258500D01*
X178999Y258750D01*
X184486D01*
Y249027D01*
X183088Y248917D01*
X181710Y248586D01*
X180401Y248044D01*
X179194Y247304D01*
X178116Y246384D01*
X177196Y245306D01*
X176456Y244099D01*
X175914Y242790D01*
X175583Y241412D01*
X175472Y240000D01*
X175583Y238588D01*
X175914Y237210D01*
X176456Y235901D01*
X177196Y234694D01*
X178116Y233616D01*
X179194Y232696D01*
X180401Y231956D01*
X181710Y231414D01*
X183088Y231083D01*
X184486Y230973D01*
Y229250D01*
X167279D01*
Y230134D01*
X173971Y230140D01*
X174124Y230177D01*
X174269Y230237D01*
X174404Y230319D01*
X174523Y230422D01*
X174626Y230541D01*
X174708Y230675D01*
X174768Y230821D01*
X174805Y230974D01*
X174814Y231131D01*
X174805Y236406D01*
X174768Y236559D01*
X174708Y236704D01*
X174626Y236838D01*
X174523Y236958D01*
X174404Y237060D01*
X174269Y237143D01*
X174124Y237203D01*
X173971Y237240D01*
X173814Y237249D01*
X167279Y237243D01*
Y241944D01*
G37*
G36*
X184486Y263250D02*X178989D01*
X178986Y264735D01*
X178931Y264965D01*
X178841Y265183D01*
X178717Y265384D01*
X178564Y265564D01*
X178384Y265717D01*
X178183Y265841D01*
X177965Y265931D01*
X177735Y265986D01*
X177500Y266000D01*
X174750Y265994D01*
Y276912D01*
X174757Y277000D01*
X174729Y277353D01*
X174646Y277697D01*
X174607Y277793D01*
X174511Y278025D01*
X174396Y278212D01*
X174326Y278327D01*
X174326Y278327D01*
X174096Y278596D01*
X174029Y278653D01*
X169746Y282936D01*
X169740Y289971D01*
X169703Y290124D01*
X169643Y290269D01*
X169560Y290404D01*
X169458Y290523D01*
X169338Y290626D01*
X169204Y290708D01*
X169059Y290768D01*
X168906Y290805D01*
X168749Y290814D01*
X168440Y290813D01*
Y291722D01*
X168447Y291810D01*
X168419Y292163D01*
X168336Y292507D01*
X168297Y292603D01*
X168201Y292835D01*
X168086Y293022D01*
X168016Y293137D01*
X168016Y293137D01*
X167786Y293406D01*
X167719Y293463D01*
X167279Y293903D01*
Y297097D01*
X171184Y301002D01*
X179235Y301014D01*
X179465Y301069D01*
X179683Y301159D01*
X179884Y301283D01*
X180064Y301436D01*
X180217Y301616D01*
X180341Y301817D01*
X180431Y302035D01*
X180486Y302265D01*
X180500Y302500D01*
X180500Y302526D01*
X180962Y302131D01*
X181768Y301637D01*
X182250Y301438D01*
Y299487D01*
X181765Y299486D01*
X181535Y299431D01*
X181317Y299341D01*
X181116Y299217D01*
X180936Y299064D01*
X180783Y298884D01*
X180659Y298683D01*
X180569Y298465D01*
X180514Y298235D01*
X180500Y298000D01*
X180514Y292765D01*
X180569Y292535D01*
X180659Y292317D01*
X180783Y292116D01*
X180936Y291936D01*
X181116Y291783D01*
X181317Y291659D01*
X181535Y291569D01*
X181765Y291514D01*
X182000Y291500D01*
X182250Y291501D01*
Y290312D01*
X182142Y290246D01*
X181663Y289837D01*
X181550Y289705D01*
X181550Y289971D01*
X181513Y290124D01*
X181453Y290269D01*
X181370Y290404D01*
X181268Y290523D01*
X181148Y290626D01*
X181014Y290708D01*
X180869Y290768D01*
X180716Y290805D01*
X180559Y290814D01*
X175284Y290805D01*
X175131Y290768D01*
X174985Y290708D01*
X174851Y290626D01*
X174732Y290523D01*
X174629Y290404D01*
X174547Y290269D01*
X174487Y290124D01*
X174450Y289971D01*
X174441Y289814D01*
X174450Y279029D01*
X174487Y278876D01*
X174547Y278731D01*
X174629Y278596D01*
X174732Y278477D01*
X174851Y278374D01*
X174985Y278292D01*
X175131Y278232D01*
X175284Y278195D01*
X175441Y278186D01*
X180716Y278195D01*
X180869Y278232D01*
X181014Y278292D01*
X181148Y278374D01*
X181268Y278477D01*
X181370Y278596D01*
X181453Y278731D01*
X181513Y278876D01*
X181550Y279029D01*
X181559Y279186D01*
X181554Y284290D01*
X181663Y284163D01*
X182142Y283754D01*
X182678Y283425D01*
X183260Y283184D01*
X183872Y283037D01*
X184486Y282989D01*
Y263250D01*
G37*
G36*
Y258750D02*X189405D01*
X189523Y258464D01*
X189981Y257717D01*
X190550Y257050D01*
X191217Y256481D01*
X191964Y256023D01*
X192250Y255905D01*
Y253588D01*
X192243Y253500D01*
X192271Y253147D01*
X192354Y252803D01*
X192489Y252475D01*
X192674Y252173D01*
X192674Y252173D01*
X192904Y251904D01*
X192971Y251847D01*
X198587Y246231D01*
Y238451D01*
X198582Y238390D01*
X198601Y238143D01*
X198659Y237902D01*
X198754Y237673D01*
X198883Y237461D01*
X199044Y237273D01*
X199233Y237112D01*
X199444Y236982D01*
X199673Y236887D01*
X199914Y236830D01*
X200161Y236810D01*
X200223Y236815D01*
X207777D01*
X207839Y236810D01*
X208085Y236830D01*
X208086Y236830D01*
X208327Y236887D01*
X208556Y236982D01*
X208767Y237112D01*
X208956Y237273D01*
X209117Y237461D01*
X209246Y237673D01*
X209341Y237902D01*
X209399Y238143D01*
X209418Y238390D01*
X209413Y238452D01*
Y249548D01*
X209418Y249610D01*
X209399Y249857D01*
X209341Y250098D01*
X209246Y250327D01*
X209117Y250539D01*
X208956Y250727D01*
X208767Y250888D01*
X208556Y251018D01*
X208327Y251113D01*
X208086Y251170D01*
X207839Y251190D01*
X207777Y251185D01*
X200223D01*
X200161Y251190D01*
X200004Y251178D01*
X196750Y254432D01*
Y255905D01*
X197036Y256023D01*
X197783Y256481D01*
X198450Y257050D01*
X199019Y257717D01*
X199477Y258464D01*
X199812Y259274D01*
X200017Y260126D01*
X200068Y261000D01*
X200017Y261874D01*
X199812Y262726D01*
X199694Y263012D01*
X201529Y264847D01*
X201596Y264904D01*
X201826Y265173D01*
X201826Y265173D01*
X202011Y265475D01*
X202146Y265803D01*
X202229Y266147D01*
X202257Y266500D01*
X202250Y266588D01*
Y269012D01*
X203235Y269014D01*
X203465Y269069D01*
X203683Y269159D01*
X203884Y269283D01*
X204064Y269436D01*
X204217Y269616D01*
X204341Y269817D01*
X204431Y270035D01*
X204486Y270265D01*
X204500Y270500D01*
X204486Y276735D01*
X204431Y276965D01*
X204341Y277183D01*
X204217Y277384D01*
X204064Y277564D01*
X203884Y277717D01*
X203683Y277841D01*
X203465Y277931D01*
X203235Y277986D01*
X203000Y278000D01*
X196765Y277986D01*
X196535Y277931D01*
X196317Y277841D01*
X196116Y277717D01*
X195936Y277564D01*
X195783Y277384D01*
X195659Y277183D01*
X195569Y276965D01*
X195514Y276735D01*
X195500Y276500D01*
X195514Y270265D01*
X195569Y270035D01*
X195659Y269817D01*
X195783Y269616D01*
X195936Y269436D01*
X196116Y269283D01*
X196317Y269159D01*
X196535Y269069D01*
X196765Y269014D01*
X197000Y269000D01*
X197750Y269002D01*
Y267432D01*
X196512Y266194D01*
X196226Y266312D01*
X195374Y266517D01*
X194500Y266586D01*
X193626Y266517D01*
X192774Y266312D01*
X191964Y265977D01*
X191217Y265519D01*
X190550Y264950D01*
X189981Y264283D01*
X189523Y263536D01*
X189405Y263250D01*
X184486D01*
Y282989D01*
X184500Y282988D01*
X185128Y283037D01*
X185251Y283067D01*
X185347Y282971D01*
X185404Y282904D01*
X185673Y282674D01*
X185673Y282674D01*
X185975Y282489D01*
X186303Y282354D01*
X186647Y282271D01*
X187000Y282243D01*
X187088Y282250D01*
X202068D01*
X204750Y279568D01*
Y257088D01*
X204743Y257000D01*
X204771Y256647D01*
Y256647D01*
X204854Y256303D01*
X204989Y255975D01*
X205059Y255861D01*
X205174Y255673D01*
X205174Y255673D01*
X205404Y255404D01*
X205471Y255347D01*
X211250Y249568D01*
Y237432D01*
X209568Y235750D01*
X196588D01*
X196500Y235757D01*
X196147Y235729D01*
X195803Y235646D01*
X195475Y235511D01*
X195173Y235326D01*
X195173Y235326D01*
X194904Y235096D01*
X194847Y235029D01*
X189068Y229250D01*
X186088D01*
X186000Y229257D01*
X185912Y229250D01*
X184486D01*
Y230973D01*
X184500Y230972D01*
X185912Y231083D01*
X187290Y231414D01*
X188599Y231956D01*
X189806Y232696D01*
X190884Y233616D01*
X191804Y234694D01*
X192544Y235901D01*
X193086Y237210D01*
X193417Y238588D01*
X193500Y240000D01*
X193417Y241412D01*
X193086Y242790D01*
X192544Y244099D01*
X191804Y245306D01*
X190884Y246384D01*
X189806Y247304D01*
X188599Y248044D01*
X187290Y248586D01*
X185912Y248917D01*
X184500Y249028D01*
X184486Y249027D01*
Y258750D01*
G37*
G36*
X150565Y296246D02*X148750Y299574D01*
Y302568D01*
X158432Y312250D01*
X168700D01*
X168659Y312183D01*
X168569Y311965D01*
X168514Y311735D01*
X168500Y311500D01*
X168510Y304692D01*
X161568Y297750D01*
X157812D01*
X157746Y297858D01*
X157337Y298337D01*
X156858Y298746D01*
X156322Y299075D01*
X155740Y299316D01*
X155128Y299463D01*
X154500Y299512D01*
X153872Y299463D01*
X153260Y299316D01*
X152678Y299075D01*
X152142Y298746D01*
X151663Y298337D01*
X151254Y297858D01*
X150925Y297322D01*
X150684Y296740D01*
X150565Y296246D01*
G37*
G36*
X180300Y312250D02*X181584D01*
X180962Y311869D01*
X180487Y311463D01*
X180486Y311735D01*
X180431Y311965D01*
X180341Y312183D01*
X180300Y312250D01*
G37*
G36*
X187416D02*X191568D01*
X191574Y312244D01*
X190962Y311869D01*
X190244Y311256D01*
X189631Y310538D01*
X189500Y310324D01*
X189369Y310538D01*
X188756Y311256D01*
X188038Y311869D01*
X187416Y312250D01*
G37*
G36*
X121035Y360750D02*X109265D01*
X109000Y361183D01*
X108534Y361727D01*
X107990Y362192D01*
X107488Y362500D01*
X122811D01*
X122309Y362192D01*
X121765Y361727D01*
X121300Y361183D01*
X121035Y360750D01*
G37*
G36*
X101350D02*X97989D01*
X97986Y362235D01*
X97931Y362465D01*
X97916Y362500D01*
X103126D01*
X102624Y362192D01*
X102080Y361727D01*
X101615Y361183D01*
X101350Y360750D01*
G37*
G36*
X24250Y297938D02*Y293812D01*
X24142Y293746D01*
X23663Y293337D01*
X23254Y292858D01*
X22925Y292322D01*
X22684Y291740D01*
X22537Y291128D01*
X22488Y290500D01*
X22537Y289872D01*
X22684Y289260D01*
X22925Y288678D01*
X23254Y288142D01*
X23663Y287663D01*
X24142Y287254D01*
X24250Y287188D01*
Y282899D01*
X23847Y282652D01*
X23308Y282192D01*
X22848Y281653D01*
X22601Y281250D01*
X20399D01*
X20152Y281653D01*
X19692Y282192D01*
X19153Y282652D01*
X18549Y283022D01*
X17895Y283293D01*
X17206Y283458D01*
X16500Y283514D01*
X15794Y283458D01*
X15105Y283293D01*
X14451Y283022D01*
X13847Y282652D01*
X13308Y282192D01*
X12848Y281653D01*
X12478Y281049D01*
X12250Y280499D01*
Y283568D01*
X18029Y289347D01*
X18096Y289404D01*
X18326Y289673D01*
X18326Y289673D01*
X18511Y289975D01*
X18646Y290303D01*
X18729Y290647D01*
X18757Y291000D01*
X18750Y291088D01*
Y297510D01*
X21235Y297514D01*
X21465Y297569D01*
X21683Y297659D01*
X21884Y297783D01*
X22064Y297936D01*
X22217Y298116D01*
X22341Y298317D01*
X22431Y298535D01*
X22486Y298765D01*
X22500Y299000D01*
X22500Y299026D01*
X22962Y298631D01*
X23768Y298137D01*
X24250Y297938D01*
G37*
G36*
X79496Y191996D02*X72765Y191986D01*
X72535Y191931D01*
X72317Y191841D01*
X72116Y191717D01*
X71936Y191564D01*
X71783Y191384D01*
X71750Y191331D01*
Y196068D01*
X74529Y198847D01*
X74596Y198904D01*
X74826Y199173D01*
X74826Y199173D01*
X75011Y199475D01*
X75026Y199511D01*
X76235Y199514D01*
X76465Y199569D01*
X76683Y199659D01*
X76884Y199783D01*
X77064Y199936D01*
X77217Y200116D01*
X77341Y200317D01*
X77431Y200535D01*
X77486Y200765D01*
X77500Y201000D01*
X77486Y207235D01*
X77431Y207465D01*
X77341Y207683D01*
X77217Y207884D01*
X77064Y208064D01*
X76884Y208217D01*
X76683Y208341D01*
X76465Y208431D01*
X76235Y208486D01*
X76000Y208500D01*
X69765Y208486D01*
X69535Y208431D01*
X69317Y208341D01*
X69116Y208217D01*
X68936Y208064D01*
X68783Y207884D01*
X68659Y207683D01*
X68569Y207465D01*
X68514Y207235D01*
X68500Y207000D01*
X68514Y200765D01*
X68569Y200535D01*
X68659Y200317D01*
X68783Y200116D01*
X68936Y199936D01*
X69108Y199790D01*
X67971Y198653D01*
X67946Y198631D01*
X67826Y198827D01*
X67750Y198915D01*
Y225912D01*
X67757Y226000D01*
X67729Y226353D01*
X67729Y226353D01*
X67646Y226697D01*
X67511Y227025D01*
X67326Y227327D01*
X67096Y227596D01*
X67029Y227653D01*
X61297Y233385D01*
X61414Y233357D01*
X61661Y233338D01*
X61723Y233343D01*
X69277D01*
X69339Y233338D01*
X69585Y233357D01*
X69586Y233357D01*
X69827Y233415D01*
X70056Y233510D01*
X70267Y233639D01*
X70456Y233800D01*
X70617Y233989D01*
X70746Y234200D01*
X70841Y234429D01*
X70899Y234670D01*
X70918Y234917D01*
X70913Y234979D01*
Y246076D01*
X70918Y246138D01*
X70899Y246385D01*
X70841Y246626D01*
X70746Y246855D01*
X70617Y247066D01*
X70456Y247255D01*
X70267Y247416D01*
X70056Y247545D01*
X69827Y247640D01*
X69586Y247698D01*
X69339Y247717D01*
X69277Y247713D01*
X61723D01*
X61661Y247717D01*
X61414Y247698D01*
X61173Y247640D01*
X60944Y247545D01*
X60733Y247416D01*
X60544Y247255D01*
X60383Y247066D01*
X60254Y246855D01*
X60159Y246626D01*
X60101Y246385D01*
X60101Y246385D01*
X60082Y246138D01*
X60087Y246076D01*
Y234979D01*
X60082Y234917D01*
X60101Y234670D01*
X60129Y234553D01*
X51091Y243591D01*
X48432Y246250D01*
X60087Y257905D01*
Y255451D01*
X60082Y255390D01*
X60101Y255143D01*
X60159Y254902D01*
X60254Y254673D01*
X60383Y254461D01*
X60544Y254273D01*
X60733Y254112D01*
X60944Y253982D01*
X61173Y253887D01*
X61414Y253830D01*
X61661Y253810D01*
X61723Y253815D01*
X69277D01*
X69339Y253810D01*
X69585Y253830D01*
X69586Y253830D01*
X69827Y253887D01*
X70056Y253982D01*
X70267Y254112D01*
X70456Y254273D01*
X70617Y254461D01*
X70746Y254673D01*
X70841Y254902D01*
X70899Y255143D01*
X70918Y255390D01*
X70913Y255452D01*
Y264231D01*
X79496Y272814D01*
Y223250D01*
X76932D01*
X74591Y225591D01*
X74327Y225826D01*
X74025Y226011D01*
X73697Y226146D01*
X73353Y226229D01*
X73000Y226257D01*
X72647Y226229D01*
X72303Y226146D01*
X71975Y226011D01*
X71673Y225826D01*
X71404Y225596D01*
X71174Y225327D01*
X70989Y225025D01*
X70854Y224697D01*
X70771Y224353D01*
X70743Y224000D01*
X70771Y223647D01*
X70854Y223303D01*
X70989Y222975D01*
X71174Y222673D01*
X71409Y222409D01*
X74347Y219471D01*
X74404Y219404D01*
X74673Y219174D01*
X74673Y219174D01*
X74861Y219059D01*
X74975Y218989D01*
X75303Y218854D01*
X75647Y218771D01*
X75647D01*
X76000Y218743D01*
X76088Y218750D01*
X79496D01*
Y191996D01*
G37*
G36*
X88000Y263685D02*X84223D01*
X84161Y263690D01*
X83914Y263670D01*
X83673Y263613D01*
X83444Y263518D01*
X83233Y263388D01*
X83044Y263227D01*
X82883Y263039D01*
X82754Y262827D01*
X82659Y262598D01*
X82601Y262357D01*
X82601Y262357D01*
X82582Y262110D01*
X82587Y262049D01*
Y250951D01*
X82582Y250890D01*
X82601Y250643D01*
X82659Y250402D01*
X82754Y250173D01*
X82883Y249961D01*
X83044Y249773D01*
X83233Y249612D01*
X83444Y249482D01*
X83673Y249387D01*
X83914Y249330D01*
X84161Y249310D01*
X84223Y249315D01*
X88000D01*
Y243213D01*
X84223D01*
X84161Y243217D01*
X83914Y243198D01*
X83673Y243140D01*
X83444Y243045D01*
X83233Y242916D01*
X83044Y242755D01*
X82883Y242566D01*
X82754Y242355D01*
X82659Y242126D01*
X82601Y241885D01*
X82601Y241885D01*
X82582Y241638D01*
X82587Y241576D01*
Y230479D01*
X82582Y230417D01*
X82601Y230170D01*
X82659Y229929D01*
X82754Y229700D01*
X82883Y229489D01*
X83044Y229300D01*
X83233Y229139D01*
X83444Y229010D01*
X83673Y228915D01*
X83914Y228857D01*
X84161Y228838D01*
X84223Y228843D01*
X88000D01*
Y226974D01*
X87958Y227023D01*
X87838Y227126D01*
X87704Y227208D01*
X87559Y227268D01*
X87406Y227305D01*
X87249Y227314D01*
X81974Y227305D01*
X81821Y227268D01*
X81675Y227208D01*
X81541Y227126D01*
X81422Y227023D01*
X81319Y226904D01*
X81237Y226769D01*
X81177Y226624D01*
X81140Y226471D01*
X81131Y226314D01*
X81134Y223250D01*
X79496D01*
Y272814D01*
X80686Y274004D01*
X85235Y274014D01*
X85465Y274069D01*
X85683Y274159D01*
X85884Y274283D01*
X86064Y274436D01*
X86217Y274616D01*
X86341Y274817D01*
X86431Y275035D01*
X86486Y275265D01*
X86500Y275500D01*
X86493Y278811D01*
X88000Y280318D01*
Y263685D01*
G37*
G36*
Y180250D02*X82932D01*
X82892Y180290D01*
X83064Y180436D01*
X83217Y180616D01*
X83341Y180817D01*
X83431Y181035D01*
X83486Y181265D01*
X83500Y181500D01*
X83486Y190735D01*
X83431Y190965D01*
X83341Y191183D01*
X83217Y191384D01*
X83064Y191564D01*
X82884Y191717D01*
X82683Y191841D01*
X82465Y191931D01*
X82235Y191986D01*
X82000Y192000D01*
X79496Y191996D01*
Y218750D01*
X81137D01*
X81140Y215529D01*
X81177Y215376D01*
X81237Y215231D01*
X81319Y215096D01*
X81422Y214977D01*
X81541Y214874D01*
X81675Y214792D01*
X81821Y214732D01*
X81974Y214695D01*
X82131Y214686D01*
X87406Y214695D01*
X87559Y214732D01*
X87704Y214792D01*
X87838Y214874D01*
X87958Y214977D01*
X88000Y215026D01*
Y180250D01*
G37*
G36*
X109750Y288003D02*Y261988D01*
X108765Y261986D01*
X108535Y261931D01*
X108317Y261841D01*
X108116Y261717D01*
X107936Y261564D01*
X107783Y261384D01*
X107659Y261183D01*
X107569Y260965D01*
X107514Y260735D01*
X107500Y260500D01*
X107502Y259750D01*
X93413D01*
Y262048D01*
X93418Y262110D01*
X93399Y262357D01*
X93341Y262598D01*
X93246Y262827D01*
X93117Y263039D01*
X92956Y263227D01*
X92767Y263388D01*
X92556Y263518D01*
X92327Y263613D01*
X92086Y263670D01*
X91839Y263690D01*
X91777Y263685D01*
X88000D01*
Y280318D01*
X106000Y298318D01*
X106014Y289265D01*
X106069Y289035D01*
X106159Y288817D01*
X106283Y288616D01*
X106436Y288436D01*
X106616Y288283D01*
X106817Y288159D01*
X107035Y288069D01*
X107265Y288014D01*
X107500Y288000D01*
X109750Y288003D01*
G37*
G36*
X88000Y249315D02*X91777D01*
X91839Y249310D01*
X92085Y249330D01*
X92086Y249330D01*
X92327Y249387D01*
X92556Y249482D01*
X92767Y249612D01*
X92956Y249773D01*
X93117Y249961D01*
X93246Y250173D01*
X93341Y250402D01*
X93399Y250643D01*
X93418Y250890D01*
X93413Y250952D01*
Y255250D01*
X100255D01*
Y214056D01*
X99628Y214054D01*
X98987Y214695D01*
X99216Y214695D01*
X99369Y214732D01*
X99514Y214792D01*
X99648Y214874D01*
X99768Y214977D01*
X99870Y215096D01*
X99953Y215231D01*
X100013Y215376D01*
X100050Y215529D01*
X100059Y215686D01*
X100050Y226471D01*
X100013Y226624D01*
X99953Y226769D01*
X99870Y226904D01*
X99768Y227023D01*
X99648Y227126D01*
X99514Y227208D01*
X99369Y227268D01*
X99216Y227305D01*
X99059Y227314D01*
X93784Y227305D01*
X93631Y227268D01*
X93485Y227208D01*
X93351Y227126D01*
X93232Y227023D01*
X93129Y226904D01*
X93047Y226769D01*
X92987Y226624D01*
X92950Y226471D01*
X92941Y226314D01*
X92950Y215529D01*
X92987Y215376D01*
X93047Y215231D01*
X93129Y215096D01*
X93232Y214977D01*
X93351Y214874D01*
X93485Y214792D01*
X93631Y214732D01*
X93784Y214695D01*
X93941Y214686D01*
X94250Y214687D01*
Y214088D01*
X94243Y214000D01*
X94271Y213647D01*
Y213647D01*
X94354Y213303D01*
X94489Y212975D01*
X94559Y212861D01*
X94674Y212673D01*
X94674Y212673D01*
X94904Y212404D01*
X94971Y212347D01*
X96434Y210884D01*
X96450Y204591D01*
X96522Y204290D01*
X96641Y204004D01*
X96803Y203739D01*
X97004Y203504D01*
X97239Y203303D01*
X97504Y203141D01*
X97790Y203022D01*
X98091Y202950D01*
X98400Y202932D01*
X100255Y202936D01*
Y191349D01*
X100232Y191363D01*
X99360Y191724D01*
X98442Y191944D01*
X97500Y192019D01*
X96558Y191944D01*
X95640Y191724D01*
X94768Y191363D01*
X93962Y190869D01*
X93244Y190256D01*
X92631Y189538D01*
X92137Y188732D01*
X91776Y187860D01*
X91556Y186942D01*
X91481Y186000D01*
X91556Y185058D01*
X91776Y184140D01*
X92137Y183268D01*
X92631Y182462D01*
X93244Y181744D01*
X93962Y181131D01*
X94768Y180637D01*
X95640Y180276D01*
X95749Y180250D01*
X88000D01*
Y215026D01*
X88060Y215096D01*
X88143Y215231D01*
X88203Y215376D01*
X88240Y215529D01*
X88249Y215686D01*
X88240Y226471D01*
X88203Y226624D01*
X88143Y226769D01*
X88060Y226904D01*
X88000Y226974D01*
Y228843D01*
X91777D01*
X91839Y228838D01*
X92085Y228857D01*
X92086Y228857D01*
X92327Y228915D01*
X92556Y229010D01*
X92767Y229139D01*
X92956Y229300D01*
X93117Y229489D01*
X93246Y229700D01*
X93341Y229929D01*
X93399Y230170D01*
X93418Y230417D01*
X93413Y230479D01*
Y241576D01*
X93418Y241638D01*
X93399Y241885D01*
X93341Y242126D01*
X93246Y242355D01*
X93117Y242566D01*
X92956Y242755D01*
X92767Y242916D01*
X92556Y243045D01*
X92327Y243140D01*
X92086Y243198D01*
X91839Y243217D01*
X91777Y243213D01*
X88000D01*
Y249315D01*
G37*
G36*
X100255Y255250D02*X107512D01*
X107514Y254265D01*
X107569Y254035D01*
X107659Y253817D01*
X107783Y253616D01*
X107936Y253436D01*
X108116Y253283D01*
X108317Y253159D01*
X108535Y253069D01*
X108765Y253014D01*
X109000Y253000D01*
X113308Y253010D01*
X114250Y252068D01*
Y251806D01*
X113784Y251805D01*
X113631Y251768D01*
X113486Y251708D01*
X113352Y251626D01*
X113232Y251523D01*
X113130Y251404D01*
X113047Y251269D01*
X112987Y251124D01*
X112950Y250971D01*
X112941Y250814D01*
X112950Y240029D01*
X112987Y239876D01*
X113047Y239731D01*
X113130Y239596D01*
X113232Y239477D01*
X113266Y239448D01*
X107751Y233933D01*
X107628Y233963D01*
X107000Y234012D01*
X106372Y233963D01*
X105760Y233816D01*
X105178Y233575D01*
X104642Y233246D01*
X104163Y232837D01*
X103754Y232358D01*
X103425Y231822D01*
X103184Y231240D01*
X103037Y230628D01*
X102988Y230000D01*
X103037Y229372D01*
X103184Y228760D01*
X103425Y228178D01*
X103754Y227642D01*
X104163Y227163D01*
X104642Y226754D01*
X104750Y226688D01*
Y222088D01*
X104743Y222000D01*
X104771Y221647D01*
X104854Y221303D01*
X104989Y220975D01*
X105174Y220673D01*
X105174Y220673D01*
X105404Y220404D01*
X105471Y220347D01*
X126480Y199338D01*
X126414Y198500D01*
X126483Y197626D01*
X126688Y196774D01*
X127023Y195964D01*
X127461Y195250D01*
X116088D01*
X116000Y195257D01*
X115647Y195229D01*
X115303Y195146D01*
X114975Y195011D01*
X114673Y194826D01*
X114673Y194826D01*
X114404Y194596D01*
X114347Y194529D01*
X108068Y188250D01*
X103062D01*
X102863Y188732D01*
X102369Y189538D01*
X101756Y190256D01*
X101038Y190869D01*
X100255Y191349D01*
Y202936D01*
X105909Y202950D01*
X106210Y203022D01*
X106496Y203141D01*
X106761Y203303D01*
X106996Y203504D01*
X107197Y203739D01*
X107359Y204004D01*
X107478Y204290D01*
X107550Y204591D01*
X107568Y204900D01*
X107550Y212409D01*
X107478Y212710D01*
X107359Y212996D01*
X107197Y213261D01*
X106996Y213496D01*
X106761Y213697D01*
X106496Y213859D01*
X106210Y213978D01*
X105909Y214050D01*
X105600Y214068D01*
X100255Y214056D01*
Y255250D01*
G37*
G36*
X124753Y173371D02*X124525Y173511D01*
X124197Y173646D01*
X123853Y173729D01*
X123500Y173750D01*
X111242D01*
X111237Y175750D01*
X111912D01*
X112000Y175743D01*
X112353Y175771D01*
X112353Y175771D01*
X112697Y175854D01*
X113025Y175989D01*
X113327Y176174D01*
X113596Y176404D01*
X113653Y176471D01*
X118014Y180832D01*
X118014Y180765D01*
X118069Y180535D01*
X118159Y180317D01*
X118283Y180116D01*
X118436Y179936D01*
X118616Y179783D01*
X118817Y179659D01*
X119035Y179569D01*
X119265Y179514D01*
X119500Y179500D01*
X124753Y179508D01*
Y178750D01*
X123500D01*
X123147Y178729D01*
X122803Y178646D01*
X122475Y178511D01*
X122173Y178326D01*
X121904Y178096D01*
X121819Y177997D01*
X119172Y177995D01*
X119095Y177977D01*
X119022Y177947D01*
X118955Y177906D01*
X118895Y177855D01*
X118844Y177795D01*
X118803Y177728D01*
X118773Y177655D01*
X118755Y177578D01*
X118750Y177500D01*
X118755Y175422D01*
X118773Y175345D01*
X118803Y175272D01*
X118844Y175205D01*
X118895Y175145D01*
X118955Y175094D01*
X119022Y175053D01*
X119095Y175023D01*
X119172Y175005D01*
X119250Y175000D01*
X121821Y175001D01*
X121904Y174904D01*
X122173Y174674D01*
X122475Y174489D01*
X122803Y174354D01*
X123147Y174271D01*
X123500Y174250D01*
X124753D01*
Y173371D01*
G37*
G36*
Y168750D02*X115088D01*
X115000Y168757D01*
X114647Y168729D01*
X114303Y168646D01*
X113975Y168511D01*
X113673Y168326D01*
X113673Y168326D01*
X113404Y168096D01*
X113347Y168029D01*
X105971Y160653D01*
X105904Y160596D01*
X105674Y160327D01*
X105489Y160025D01*
X105354Y159697D01*
X105271Y159353D01*
X105271Y159353D01*
X105243Y159000D01*
X105250Y158912D01*
Y153432D01*
X103568Y151750D01*
X99499D01*
X99490Y155808D01*
X108529Y164847D01*
X108596Y164904D01*
X108826Y165173D01*
X108826Y165173D01*
X109011Y165475D01*
X109146Y165803D01*
X109229Y166147D01*
X109257Y166500D01*
X109250Y166588D01*
Y168762D01*
X109985Y168764D01*
X110215Y168819D01*
X110433Y168909D01*
X110634Y169033D01*
X110814Y169186D01*
X110869Y169250D01*
X123500D01*
X123853Y169271D01*
X124197Y169354D01*
X124525Y169489D01*
X124753Y169629D01*
Y168750D01*
G37*
G36*
X125181Y170003D02*X127828Y170005D01*
X127905Y170023D01*
X127978Y170053D01*
X128045Y170094D01*
X128105Y170145D01*
X128156Y170205D01*
X128197Y170272D01*
X128227Y170345D01*
X128245Y170422D01*
X128250Y170500D01*
X128245Y172578D01*
X128227Y172655D01*
X128197Y172728D01*
X128156Y172795D01*
X128105Y172855D01*
X128045Y172906D01*
X127978Y172947D01*
X127905Y172977D01*
X127828Y172995D01*
X127750Y173000D01*
X125179Y172999D01*
X125096Y173096D01*
X124827Y173326D01*
X124753Y173371D01*
Y174250D01*
X128500D01*
X128853Y174271D01*
X129197Y174354D01*
X129525Y174489D01*
X129827Y174674D01*
X130096Y174904D01*
X130326Y175173D01*
X130511Y175475D01*
X130646Y175803D01*
X130729Y176147D01*
X130757Y176500D01*
X130729Y176853D01*
X130646Y177197D01*
X130511Y177525D01*
X130326Y177827D01*
X130096Y178096D01*
X129827Y178326D01*
X129525Y178511D01*
X129197Y178646D01*
X128853Y178729D01*
X128500Y178750D01*
X124753D01*
Y179508D01*
X128735Y179514D01*
X128965Y179569D01*
X129183Y179659D01*
X129384Y179783D01*
X129564Y179936D01*
X129717Y180116D01*
X129841Y180317D01*
X129931Y180535D01*
X129986Y180765D01*
X130000Y181000D01*
X130000Y181026D01*
X130462Y180631D01*
X131268Y180137D01*
X131750Y179938D01*
Y170182D01*
X130318Y168750D01*
X124753D01*
Y169629D01*
X124827Y169674D01*
X125096Y169904D01*
X125181Y170003D01*
G37*
G36*
X104750Y168751D02*Y167432D01*
X96314Y158996D01*
X91765Y158986D01*
X91535Y158931D01*
X91317Y158841D01*
X91116Y158717D01*
X90936Y158564D01*
X90783Y158384D01*
X90659Y158183D01*
X90569Y157965D01*
X90514Y157735D01*
X90500Y157500D01*
X90513Y151697D01*
X90303Y151646D01*
X89975Y151511D01*
X89673Y151326D01*
X89673Y151326D01*
X89404Y151096D01*
X89347Y151029D01*
X87471Y149153D01*
X87404Y149096D01*
X87174Y148827D01*
X86989Y148525D01*
X86854Y148197D01*
X86771Y147853D01*
X86771Y147853D01*
X86743Y147500D01*
X86750Y147412D01*
Y135588D01*
X86743Y135500D01*
X86771Y135147D01*
X86854Y134803D01*
X86989Y134475D01*
X87174Y134173D01*
X87404Y133904D01*
X87673Y133674D01*
X87975Y133489D01*
X88303Y133354D01*
X88647Y133271D01*
X89000Y133243D01*
X89088Y133250D01*
X105568D01*
X112250Y126568D01*
Y118432D01*
X103068Y109250D01*
X80932D01*
X76250Y113932D01*
Y125068D01*
X80029Y128847D01*
X80096Y128904D01*
X80326Y129173D01*
X80326Y129173D01*
X80511Y129475D01*
X80646Y129803D01*
X80729Y130147D01*
X80757Y130500D01*
X80750Y130588D01*
Y168912D01*
X80757Y169000D01*
X80729Y169353D01*
X80729Y169353D01*
X80646Y169697D01*
X80511Y170025D01*
X80326Y170327D01*
X80096Y170596D01*
X80029Y170653D01*
X71750Y178932D01*
Y180669D01*
X71783Y180616D01*
X71936Y180436D01*
X72116Y180283D01*
X72317Y180159D01*
X72535Y180069D01*
X72765Y180014D01*
X73000Y180000D01*
X76812Y180006D01*
X80347Y176471D01*
X80404Y176404D01*
X80673Y176174D01*
X80673Y176174D01*
X80975Y175989D01*
X81303Y175854D01*
X81647Y175771D01*
X82000Y175743D01*
X82088Y175750D01*
X94568D01*
X82471Y163653D01*
X82404Y163596D01*
X82174Y163327D01*
X81989Y163025D01*
X81854Y162697D01*
X81771Y162353D01*
X81771Y162353D01*
X81743Y162000D01*
X81750Y161912D01*
Y133088D01*
X81743Y133000D01*
X81771Y132647D01*
X81854Y132303D01*
X81989Y131975D01*
X82174Y131673D01*
X82174Y131673D01*
X82404Y131404D01*
X82471Y131347D01*
X85347Y128471D01*
X85404Y128404D01*
X85673Y128174D01*
X85673Y128174D01*
X85861Y128059D01*
X85975Y127989D01*
X86140Y127921D01*
X86088Y127917D01*
X84710Y127586D01*
X83401Y127044D01*
X82194Y126304D01*
X81116Y125384D01*
X80196Y124306D01*
X79456Y123099D01*
X78914Y121790D01*
X78583Y120412D01*
X78472Y119000D01*
X78583Y117588D01*
X78914Y116210D01*
X79456Y114901D01*
X80196Y113694D01*
X81116Y112616D01*
X82194Y111696D01*
X83401Y110956D01*
X84710Y110414D01*
X86088Y110083D01*
X87500Y109972D01*
X88912Y110083D01*
X90290Y110414D01*
X91599Y110956D01*
X92806Y111696D01*
X93884Y112616D01*
X94804Y113694D01*
X95544Y114901D01*
X96086Y116210D01*
X96417Y117588D01*
X96500Y119000D01*
X96417Y120412D01*
X96086Y121790D01*
X95544Y123099D01*
X94804Y124306D01*
X93884Y125384D01*
X92806Y126304D01*
X91599Y127044D01*
X90290Y127586D01*
X89606Y127750D01*
X93068D01*
X99347Y121471D01*
X99404Y121404D01*
X99673Y121174D01*
X99673Y121174D01*
X99861Y121059D01*
X99975Y120989D01*
X100303Y120854D01*
X100647Y120771D01*
X100647D01*
X101000Y120743D01*
X101088Y120750D01*
X103394D01*
X103551Y120494D01*
X103986Y119986D01*
X104494Y119551D01*
X105065Y119202D01*
X105683Y118946D01*
X106333Y118789D01*
X107000Y118737D01*
X107667Y118789D01*
X108317Y118946D01*
X108935Y119202D01*
X109506Y119551D01*
X110014Y119986D01*
X110449Y120494D01*
X110798Y121065D01*
X111054Y121683D01*
X111211Y122333D01*
X111250Y123000D01*
X111211Y123667D01*
X111054Y124317D01*
X110798Y124935D01*
X110449Y125506D01*
X110014Y126014D01*
X109506Y126449D01*
X108935Y126798D01*
X108317Y127054D01*
X107667Y127211D01*
X107000Y127263D01*
X106333Y127211D01*
X105683Y127054D01*
X105065Y126798D01*
X104494Y126449D01*
X103986Y126014D01*
X103551Y125506D01*
X103394Y125250D01*
X101932D01*
X95653Y131529D01*
X95596Y131596D01*
X95327Y131826D01*
X95025Y132011D01*
X94697Y132146D01*
X94353Y132229D01*
X94353Y132229D01*
X94000Y132257D01*
X93912Y132250D01*
X87932D01*
X86250Y133932D01*
Y161068D01*
X100932Y175750D01*
X102750D01*
Y175750D01*
X102764Y170015D01*
X102819Y169785D01*
X102909Y169567D01*
X103033Y169366D01*
X103186Y169186D01*
X103366Y169033D01*
X103567Y168909D01*
X103785Y168819D01*
X104015Y168764D01*
X104250Y168750D01*
X104750Y168751D01*
G37*
G36*
X118004Y187181D02*X117904Y187096D01*
X117847Y187029D01*
X111068Y180250D01*
X100088D01*
X100000Y180257D01*
X99912Y180250D01*
X99251D01*
X99360Y180276D01*
X100232Y180637D01*
X101038Y181131D01*
X101756Y181744D01*
X102369Y182462D01*
X102863Y183268D01*
X103062Y183750D01*
X108912D01*
X109000Y183743D01*
X109353Y183771D01*
X109353Y183771D01*
X109697Y183854D01*
X110025Y183989D01*
X110327Y184174D01*
X110596Y184404D01*
X110653Y184471D01*
X116932Y190750D01*
X118200D01*
X118159Y190683D01*
X118069Y190465D01*
X118014Y190235D01*
X118000Y190000D01*
X118004Y187181D01*
G37*
G36*
X190250Y160831D02*Y175501D01*
X190478Y174951D01*
X190848Y174347D01*
X191308Y173808D01*
X191847Y173348D01*
X192451Y172978D01*
X193105Y172707D01*
X193794Y172542D01*
X194500Y172486D01*
X195206Y172542D01*
X195895Y172707D01*
X196549Y172978D01*
X197153Y173348D01*
X197692Y173808D01*
X198152Y174347D01*
X198522Y174951D01*
X198793Y175605D01*
X198958Y176294D01*
X199000Y177000D01*
X198958Y177706D01*
X198793Y178395D01*
X198522Y179049D01*
X198152Y179653D01*
X197692Y180192D01*
X197153Y180652D01*
X196549Y181022D01*
X195895Y181293D01*
X195206Y181458D01*
X194500Y181514D01*
X193794Y181458D01*
X193334Y181348D01*
X190250Y184432D01*
Y186412D01*
X190257Y186500D01*
X190229Y186853D01*
X190229Y186853D01*
X190146Y187197D01*
X190011Y187525D01*
X189916Y187679D01*
X189963Y187872D01*
X190000Y188500D01*
X189963Y189128D01*
X189816Y189740D01*
X189575Y190322D01*
X189246Y190858D01*
X188837Y191337D01*
X188358Y191746D01*
X187822Y192075D01*
X187240Y192316D01*
X186628Y192463D01*
X186000Y192512D01*
X185372Y192463D01*
X185249Y192433D01*
X182153Y195529D01*
X182096Y195596D01*
X181827Y195826D01*
X181827Y195826D01*
X181712Y195896D01*
X181525Y196011D01*
X181293Y196107D01*
X181197Y196146D01*
X180853Y196229D01*
X180500Y196257D01*
X180412Y196250D01*
X163588D01*
X163500Y196257D01*
X163147Y196229D01*
X162803Y196146D01*
X162475Y196011D01*
X162173Y195826D01*
X162173Y195826D01*
X161904Y195596D01*
X161847Y195529D01*
X159971Y193653D01*
X159904Y193596D01*
X159674Y193327D01*
X159489Y193025D01*
X159354Y192697D01*
X159271Y192353D01*
X159271Y192353D01*
X159243Y192000D01*
X159249Y191920D01*
X159195Y191953D01*
X159050Y192013D01*
X158897Y192050D01*
X158740Y192059D01*
X157250Y192057D01*
Y200068D01*
X162529Y205347D01*
X162596Y205404D01*
X162826Y205673D01*
X162826Y205673D01*
X163011Y205975D01*
X163146Y206303D01*
X163229Y206647D01*
X163257Y207000D01*
X163250Y207088D01*
Y224068D01*
X163932Y224750D01*
X183750D01*
Y222487D01*
X183265Y222486D01*
X183035Y222431D01*
X182817Y222341D01*
X182616Y222217D01*
X182436Y222064D01*
X182283Y221884D01*
X182159Y221683D01*
X182069Y221465D01*
X182014Y221235D01*
X182000Y221000D01*
X182014Y215765D01*
X182069Y215535D01*
X182159Y215317D01*
X182283Y215116D01*
X182436Y214936D01*
X182616Y214783D01*
X182817Y214659D01*
X183035Y214569D01*
X183265Y214514D01*
X183500Y214500D01*
X188735Y214514D01*
X188965Y214569D01*
X189183Y214659D01*
X189384Y214783D01*
X189564Y214936D01*
X189717Y215116D01*
X189841Y215317D01*
X189931Y215535D01*
X189986Y215765D01*
X190000Y216000D01*
X189986Y221235D01*
X189931Y221465D01*
X189841Y221683D01*
X189717Y221884D01*
X189564Y222064D01*
X189384Y222217D01*
X189183Y222341D01*
X188965Y222431D01*
X188735Y222486D01*
X188500Y222500D01*
X188250Y222499D01*
Y224750D01*
X189068D01*
X192750Y221068D01*
Y187588D01*
X192743Y187500D01*
X192771Y187147D01*
Y187147D01*
X192854Y186803D01*
X192989Y186475D01*
X193059Y186361D01*
X193174Y186173D01*
X193174Y186173D01*
X193404Y185904D01*
X193471Y185847D01*
X200250Y179068D01*
Y174432D01*
X192971Y167153D01*
X192904Y167096D01*
X192674Y166827D01*
X192489Y166525D01*
X192354Y166197D01*
X192271Y165853D01*
X192271Y165853D01*
X192243Y165500D01*
X192250Y165412D01*
Y161488D01*
X191265Y161486D01*
X191035Y161431D01*
X190817Y161341D01*
X190616Y161217D01*
X190436Y161064D01*
X190283Y160884D01*
X190250Y160831D01*
G37*
G36*
X129983Y190250D02*X130323D01*
X129987Y189963D01*
X129986Y190235D01*
X129983Y190250D01*
G37*
G36*
X137677D02*X140323D01*
X139744Y189756D01*
X139131Y189038D01*
X139000Y188824D01*
X138869Y189038D01*
X138256Y189756D01*
X137677Y190250D01*
G37*
G36*
X51472Y208803D02*X50863Y208949D01*
X50000Y209017D01*
X49137Y208949D01*
X48295Y208747D01*
X47495Y208416D01*
X46757Y207963D01*
X46099Y207401D01*
X45537Y206743D01*
X45084Y206005D01*
X44753Y205205D01*
X44551Y204363D01*
X44483Y203500D01*
X44551Y202637D01*
X44753Y201795D01*
X45084Y200995D01*
X45537Y200257D01*
X46099Y199599D01*
X46757Y199037D01*
X47495Y198584D01*
X48295Y198253D01*
X49137Y198051D01*
X50000Y197983D01*
X50863Y198051D01*
X51472Y198197D01*
Y175913D01*
X45924D01*
X45862Y175918D01*
X45615Y175899D01*
X45374Y175841D01*
X45145Y175746D01*
X44934Y175617D01*
X44745Y175456D01*
X44584Y175267D01*
X44455Y175056D01*
X44360Y174827D01*
X44302Y174586D01*
X44302Y174585D01*
X44283Y174339D01*
X44287Y174277D01*
Y166723D01*
X44283Y166661D01*
X44302Y166414D01*
X44360Y166173D01*
X44455Y165944D01*
X44584Y165733D01*
X44745Y165544D01*
X44934Y165383D01*
X45145Y165254D01*
X45374Y165159D01*
X45615Y165101D01*
X45862Y165082D01*
X45924Y165087D01*
X51472D01*
Y162750D01*
X45932D01*
X44250Y164432D01*
Y182879D01*
X47219Y185848D01*
X48763Y185852D01*
X48993Y185908D01*
X49211Y185998D01*
X49412Y186121D01*
X49591Y186275D01*
X49745Y186454D01*
X49868Y186655D01*
X49959Y186874D01*
X50014Y187103D01*
X50028Y187339D01*
X50014Y192574D01*
X49959Y192804D01*
X49868Y193022D01*
X49745Y193223D01*
X49591Y193403D01*
X49412Y193556D01*
X49211Y193679D01*
X48993Y193770D01*
X48763Y193825D01*
X48528Y193839D01*
X43292Y193825D01*
X43063Y193770D01*
X42844Y193679D01*
X42643Y193556D01*
X42464Y193403D01*
X42310Y193223D01*
X42187Y193022D01*
X42097Y192804D01*
X42041Y192574D01*
X42028Y192339D01*
X42041Y187103D01*
X42055Y187048D01*
X41844Y186837D01*
X39557Y189125D01*
X39550Y197971D01*
X39513Y198124D01*
X39453Y198269D01*
X39370Y198404D01*
X39268Y198523D01*
X39148Y198626D01*
X39014Y198708D01*
X38869Y198768D01*
X38716Y198805D01*
X38559Y198814D01*
X38250Y198813D01*
Y200068D01*
X44029Y205847D01*
X44096Y205904D01*
X44326Y206173D01*
X44326Y206173D01*
X44511Y206475D01*
X44646Y206803D01*
X44729Y207147D01*
X44757Y207500D01*
X44750Y207588D01*
Y209765D01*
X45260Y209976D01*
X46065Y210470D01*
X46783Y211083D01*
X47397Y211801D01*
X47528Y212015D01*
X47658Y211801D01*
X48272Y211083D01*
X48990Y210470D01*
X49795Y209976D01*
X50668Y209615D01*
X51472Y209421D01*
Y208803D01*
G37*
G36*
X54870Y209814D02*X58750Y205934D01*
Y195987D01*
X58265Y195986D01*
X58035Y195931D01*
X57817Y195841D01*
X57616Y195717D01*
X57436Y195564D01*
X57283Y195384D01*
X57159Y195183D01*
X57069Y194965D01*
X57014Y194735D01*
X57000Y194500D01*
X57014Y189265D01*
X57069Y189035D01*
X57159Y188817D01*
X57283Y188616D01*
X57436Y188436D01*
X57616Y188283D01*
X57669Y188250D01*
X57432D01*
X56750Y188932D01*
Y198912D01*
X56757Y199000D01*
X56729Y199353D01*
X56729Y199353D01*
X56646Y199697D01*
X56511Y200025D01*
X56326Y200327D01*
X56096Y200596D01*
X56029Y200653D01*
X55141Y201541D01*
X55247Y201795D01*
X55449Y202637D01*
X55500Y203500D01*
X55449Y204363D01*
X55247Y205205D01*
X54916Y206005D01*
X54463Y206743D01*
X53901Y207401D01*
X53243Y207963D01*
X52505Y208416D01*
X51705Y208747D01*
X51472Y208803D01*
Y209421D01*
X51586Y209394D01*
X52528Y209320D01*
X53469Y209394D01*
X54387Y209615D01*
X54870Y209814D01*
G37*
G36*
X51472Y198197D02*X51705Y198253D01*
X51959Y198359D01*
X52250Y198068D01*
Y188088D01*
X52243Y188000D01*
X52271Y187647D01*
Y187647D01*
X52354Y187303D01*
X52489Y186975D01*
X52559Y186861D01*
X52674Y186673D01*
X52674Y186673D01*
X52904Y186404D01*
X52971Y186347D01*
X54847Y184471D01*
X54904Y184404D01*
X55173Y184174D01*
X55173Y184174D01*
X55475Y183989D01*
X55803Y183854D01*
X56147Y183771D01*
X56500Y183743D01*
X56588Y183750D01*
X64912D01*
X65000Y183743D01*
X65353Y183771D01*
X65353Y183771D01*
X65697Y183854D01*
X66025Y183989D01*
X66327Y184174D01*
X66596Y184404D01*
X66653Y184471D01*
X67250Y185068D01*
Y178088D01*
X67243Y178000D01*
X67250Y177912D01*
Y173432D01*
X56568Y162750D01*
X51472D01*
Y165087D01*
X57021D01*
X57083Y165082D01*
X57330Y165101D01*
X57330Y165101D01*
X57571Y165159D01*
X57800Y165254D01*
X58011Y165383D01*
X58200Y165544D01*
X58361Y165733D01*
X58490Y165944D01*
X58585Y166173D01*
X58643Y166414D01*
X58662Y166661D01*
X58657Y166723D01*
Y174277D01*
X58662Y174339D01*
X58643Y174586D01*
X58585Y174827D01*
X58490Y175056D01*
X58361Y175267D01*
X58200Y175456D01*
X58011Y175617D01*
X57800Y175746D01*
X57571Y175841D01*
X57330Y175899D01*
X57083Y175918D01*
X57021Y175913D01*
X51472D01*
Y198197D01*
G37*
G36*
X63250Y195999D02*Y197912D01*
X63271Y197647D01*
Y197647D01*
X63354Y197303D01*
X63489Y196975D01*
X63559Y196861D01*
X63674Y196673D01*
X63674Y196673D01*
X63750Y196585D01*
Y195983D01*
X63735Y195986D01*
X63500Y196000D01*
X63250Y195999D01*
G37*
G36*
X98569Y147250D02*X104412D01*
X104500Y147243D01*
X104853Y147271D01*
X104853Y147271D01*
X105197Y147354D01*
X105525Y147489D01*
X105827Y147674D01*
X106096Y147904D01*
X106153Y147971D01*
X109029Y150847D01*
X109096Y150904D01*
X109326Y151173D01*
X109326Y151173D01*
X109511Y151475D01*
X109646Y151803D01*
X109729Y152147D01*
X109757Y152500D01*
X109750Y152588D01*
Y158068D01*
X115932Y164250D01*
X116849D01*
Y159238D01*
X112784Y159231D01*
X112631Y159194D01*
X112486Y159134D01*
X112352Y159052D01*
X112232Y158949D01*
X112130Y158830D01*
X112047Y158695D01*
X111987Y158550D01*
X111950Y158397D01*
X111941Y158240D01*
X111950Y150603D01*
X111987Y150450D01*
X112047Y150305D01*
X112130Y150170D01*
X112232Y150051D01*
X112352Y149948D01*
X112486Y149866D01*
X112631Y149806D01*
X112784Y149769D01*
X112941Y149760D01*
X116849Y149767D01*
Y149750D01*
X113588D01*
X113500Y149757D01*
X113147Y149729D01*
X112803Y149646D01*
X112475Y149511D01*
X112173Y149326D01*
X112173Y149326D01*
X111904Y149096D01*
X111847Y149029D01*
X109568Y146750D01*
X98899D01*
X98652Y147153D01*
X98569Y147250D01*
G37*
G36*
X116849Y164250D02*X123500D01*
Y162998D01*
X119172Y162995D01*
X119095Y162977D01*
X119022Y162947D01*
X118955Y162906D01*
X118895Y162855D01*
X118844Y162795D01*
X118803Y162728D01*
X118773Y162655D01*
X118755Y162578D01*
X118750Y162500D01*
X118755Y160422D01*
X118773Y160345D01*
X118803Y160272D01*
X118844Y160205D01*
X118895Y160145D01*
X118955Y160094D01*
X119022Y160053D01*
X119095Y160023D01*
X119172Y160005D01*
X119250Y160000D01*
X123500Y160002D01*
Y153872D01*
X119378Y149750D01*
X116849D01*
Y149767D01*
X118216Y149769D01*
X118369Y149806D01*
X118515Y149866D01*
X118649Y149948D01*
X118768Y150051D01*
X118871Y150170D01*
X118953Y150305D01*
X119013Y150450D01*
X119050Y150603D01*
X119059Y150760D01*
X119057Y152250D01*
X119500D01*
X119853Y152271D01*
X120197Y152354D01*
X120525Y152489D01*
X120827Y152674D01*
X121096Y152904D01*
X121326Y153173D01*
X121511Y153475D01*
X121646Y153803D01*
X121729Y154147D01*
X121757Y154500D01*
X121729Y154853D01*
X121646Y155197D01*
X121511Y155525D01*
X121326Y155827D01*
X121096Y156096D01*
X120827Y156326D01*
X120525Y156511D01*
X120197Y156646D01*
X119853Y156729D01*
X119500Y156750D01*
X119052D01*
X119050Y158397D01*
X119013Y158550D01*
X118953Y158695D01*
X118871Y158830D01*
X118768Y158949D01*
X118649Y159052D01*
X118515Y159134D01*
X118369Y159194D01*
X118216Y159231D01*
X118059Y159240D01*
X116849Y159238D01*
Y164250D01*
G37*
G36*
X123500D02*X131162D01*
X131250Y164243D01*
X131603Y164271D01*
X131603Y164271D01*
X131947Y164354D01*
X132275Y164489D01*
X132577Y164674D01*
X132846Y164904D01*
X132903Y164971D01*
X133040Y165108D01*
X132989Y165025D01*
X132854Y164697D01*
X132771Y164353D01*
X132771Y164353D01*
X132743Y164000D01*
X132750Y163912D01*
Y159232D01*
X132284Y159231D01*
X132131Y159194D01*
X131986Y159134D01*
X131852Y159052D01*
X131732Y158949D01*
X131630Y158830D01*
X131547Y158695D01*
X131487Y158550D01*
X131450Y158397D01*
X131441Y158240D01*
X131443Y156750D01*
X130862D01*
X130860Y158397D01*
X130823Y158550D01*
X130763Y158695D01*
X130681Y158830D01*
X130578Y158949D01*
X130459Y159052D01*
X130325Y159134D01*
X130179Y159194D01*
X130026Y159231D01*
X129869Y159240D01*
X124594Y159231D01*
X124441Y159194D01*
X124296Y159134D01*
X124162Y159052D01*
X124042Y158949D01*
X123940Y158830D01*
X123857Y158695D01*
X123797Y158550D01*
X123760Y158397D01*
X123751Y158240D01*
X123756Y154128D01*
X123500Y153872D01*
Y160002D01*
X127828Y160005D01*
X127905Y160023D01*
X127978Y160053D01*
X128045Y160094D01*
X128105Y160145D01*
X128156Y160205D01*
X128197Y160272D01*
X128227Y160345D01*
X128245Y160422D01*
X128250Y160500D01*
X128245Y162578D01*
X128227Y162655D01*
X128197Y162728D01*
X128156Y162795D01*
X128105Y162855D01*
X128045Y162906D01*
X127978Y162947D01*
X127905Y162977D01*
X127828Y162995D01*
X127750Y163000D01*
X123500Y162998D01*
Y164250D01*
G37*
G36*
X107669Y299987D02*X107932Y300250D01*
X126068D01*
X127916Y298402D01*
X127744Y298256D01*
X127131Y297538D01*
X127000Y297324D01*
X126869Y297538D01*
X126256Y298256D01*
X125538Y298869D01*
X124732Y299363D01*
X123860Y299724D01*
X122942Y299944D01*
X122000Y300019D01*
X121058Y299944D01*
X120140Y299724D01*
X119268Y299363D01*
X118462Y298869D01*
X117987Y298463D01*
X117986Y298735D01*
X117931Y298965D01*
X117841Y299183D01*
X117717Y299384D01*
X117564Y299564D01*
X117384Y299717D01*
X117183Y299841D01*
X116965Y299931D01*
X116735Y299986D01*
X116500Y300000D01*
X107669Y299987D01*
G37*
G36*
X42750Y124938D02*Y122737D01*
X42500Y122757D01*
X42412Y122750D01*
X34312D01*
X34246Y122858D01*
X33837Y123337D01*
X33358Y123746D01*
X32822Y124075D01*
X32240Y124316D01*
X31628Y124463D01*
X31144Y124501D01*
X39735Y124514D01*
X39965Y124569D01*
X40183Y124659D01*
X40384Y124783D01*
X40564Y124936D01*
X40717Y125116D01*
X40841Y125317D01*
X40931Y125535D01*
X40986Y125765D01*
X41000Y126000D01*
X41000Y126026D01*
X41462Y125631D01*
X42268Y125137D01*
X42750Y124938D01*
G37*
G36*
X34312Y118250D02*X41568D01*
X42004Y117814D01*
X42014Y114265D01*
X42069Y114035D01*
X42159Y113817D01*
X42283Y113616D01*
X42436Y113436D01*
X42616Y113283D01*
X42640Y113268D01*
Y112806D01*
X42174Y112805D01*
X42021Y112768D01*
X41875Y112708D01*
X41741Y112626D01*
X41621Y112523D01*
X41519Y112404D01*
X41437Y112269D01*
X41377Y112124D01*
X41340Y111971D01*
X41331Y111814D01*
X41340Y101029D01*
X41377Y100876D01*
X41437Y100731D01*
X41519Y100596D01*
X41621Y100477D01*
X41741Y100374D01*
X41875Y100292D01*
X42021Y100232D01*
X42174Y100195D01*
X42331Y100186D01*
X47606Y100195D01*
X47759Y100232D01*
X47904Y100292D01*
X48038Y100374D01*
X48158Y100477D01*
X48260Y100596D01*
X48342Y100731D01*
X48403Y100876D01*
X48439Y101029D01*
X48449Y101186D01*
X48446Y104250D01*
X55476D01*
Y103924D01*
X55472Y103862D01*
X55491Y103615D01*
X55549Y103374D01*
X55644Y103145D01*
X55773Y102934D01*
X55934Y102745D01*
X56123Y102584D01*
X56334Y102455D01*
X56563Y102360D01*
X56804Y102302D01*
X57051Y102283D01*
X57113Y102287D01*
X64667D01*
X64728Y102283D01*
X64885Y102295D01*
X75250Y91930D01*
Y91490D01*
X72765Y91486D01*
X72535Y91431D01*
X72317Y91341D01*
X72116Y91217D01*
X71936Y91064D01*
X71783Y90884D01*
X71659Y90683D01*
X71569Y90465D01*
X71514Y90235D01*
X71500Y90000D01*
X71502Y88500D01*
X66303D01*
Y94548D01*
X66308Y94610D01*
X66289Y94857D01*
X66231Y95098D01*
X66136Y95327D01*
X66006Y95539D01*
X65845Y95727D01*
X65657Y95888D01*
X65446Y96018D01*
X65216Y96113D01*
X64975Y96170D01*
X64728Y96190D01*
X64667Y96185D01*
X57113D01*
X57051Y96190D01*
X56804Y96170D01*
X56563Y96113D01*
X56334Y96018D01*
X56123Y95888D01*
X55934Y95727D01*
X55773Y95539D01*
X55644Y95327D01*
X55549Y95098D01*
X55491Y94857D01*
X55491Y94857D01*
X55472Y94610D01*
X55476Y94549D01*
Y88500D01*
X49547D01*
Y94777D01*
X49552Y94839D01*
X49533Y95086D01*
X49475Y95327D01*
X49380Y95556D01*
X49250Y95767D01*
X49089Y95956D01*
X48901Y96117D01*
X48690Y96246D01*
X48461Y96341D01*
X48220Y96399D01*
X47972Y96418D01*
X47911Y96413D01*
X36814D01*
X36752Y96418D01*
X36505Y96399D01*
X36264Y96341D01*
X36035Y96246D01*
X35823Y96117D01*
X35635Y95956D01*
X35474Y95767D01*
X35344Y95556D01*
X35250Y95327D01*
X35192Y95086D01*
X35192Y95085D01*
X35172Y94839D01*
X35177Y94777D01*
Y88500D01*
X29075D01*
Y94777D01*
X29080Y94839D01*
X29067Y94995D01*
X34265Y100193D01*
X35796Y100195D01*
X35949Y100232D01*
X36094Y100292D01*
X36228Y100374D01*
X36348Y100477D01*
X36450Y100596D01*
X36532Y100731D01*
X36593Y100876D01*
X36629Y101029D01*
X36639Y101186D01*
X36629Y111971D01*
X36593Y112124D01*
X36532Y112269D01*
X36450Y112404D01*
X36348Y112523D01*
X36228Y112626D01*
X36094Y112708D01*
X35949Y112768D01*
X35796Y112805D01*
X35639Y112814D01*
X35330Y112813D01*
Y113832D01*
X35337Y113920D01*
X35309Y114273D01*
X35309Y114273D01*
X35226Y114617D01*
X35091Y114945D01*
X34906Y115247D01*
X34676Y115516D01*
X34609Y115573D01*
X33153Y117029D01*
X33097Y117094D01*
X33358Y117254D01*
X33837Y117663D01*
X34246Y118142D01*
X34312Y118250D01*
G37*
G36*
X28088Y117750D02*X27432D01*
X26653Y118529D01*
X26596Y118596D01*
X26529Y118653D01*
X26250Y118932D01*
Y123068D01*
X29014Y125832D01*
X29014Y125765D01*
X29069Y125535D01*
X29159Y125317D01*
X29283Y125116D01*
X29436Y124936D01*
X29616Y124783D01*
X29817Y124659D01*
X30035Y124569D01*
X30265Y124514D01*
X30500Y124500D01*
X30850Y124501D01*
X30372Y124463D01*
X29760Y124316D01*
X29178Y124075D01*
X28642Y123746D01*
X28163Y123337D01*
X27754Y122858D01*
X27425Y122322D01*
X27184Y121740D01*
X27037Y121128D01*
X26988Y120500D01*
X27037Y119872D01*
X27184Y119260D01*
X27425Y118678D01*
X27754Y118142D01*
X28088Y117750D01*
G37*
G36*
X181706Y109612D02*X183754Y107564D01*
X183764Y103515D01*
X183819Y103285D01*
X183909Y103067D01*
X184033Y102866D01*
X184186Y102686D01*
X184366Y102533D01*
X184567Y102409D01*
X184785Y102319D01*
X185015Y102264D01*
X185250Y102250D01*
X190985Y102264D01*
X191215Y102319D01*
X191433Y102409D01*
X191634Y102533D01*
X191814Y102686D01*
X191967Y102866D01*
X192091Y103067D01*
X192181Y103285D01*
X192236Y103515D01*
X192250Y103750D01*
X192236Y109485D01*
X192181Y109715D01*
X192091Y109933D01*
X191967Y110134D01*
X191814Y110314D01*
X191634Y110467D01*
X191433Y110591D01*
X191215Y110681D01*
X190985Y110736D01*
X190750Y110750D01*
X190250Y110749D01*
Y147912D01*
X190257Y148000D01*
X190250Y148088D01*
Y153169D01*
X190283Y153116D01*
X190436Y152936D01*
X190616Y152783D01*
X190817Y152659D01*
X191035Y152569D01*
X191265Y152514D01*
X191500Y152500D01*
X192750Y152503D01*
Y103432D01*
X191068Y101750D01*
X184932D01*
X181747Y104935D01*
X181736Y109485D01*
X181706Y109612D01*
G37*
G36*
X74125Y328250D02*X79068D01*
X79068Y328250D01*
X74126Y328247D01*
X74125Y328250D01*
G37*
G36*
X87486Y91000D02*X95100D01*
X94768Y90863D01*
X93962Y90369D01*
X93244Y89756D01*
X92631Y89038D01*
X92137Y88232D01*
X91776Y87360D01*
X91556Y86442D01*
X91481Y85500D01*
X91556Y84558D01*
X91776Y83640D01*
X92137Y82768D01*
X92631Y81962D01*
X93244Y81244D01*
X93962Y80631D01*
X94768Y80137D01*
X95250Y79938D01*
Y62932D01*
X90549Y58231D01*
X90536Y64285D01*
X90481Y64515D01*
X90391Y64733D01*
X90267Y64934D01*
X90114Y65114D01*
X89934Y65267D01*
X89733Y65391D01*
X89515Y65481D01*
X89285Y65536D01*
X89050Y65550D01*
X87486Y65548D01*
Y91000D01*
G37*
G36*
Y36050D02*X87527Y36048D01*
X92802Y36057D01*
X92955Y36094D01*
X93100Y36154D01*
X93235Y36236D01*
X93354Y36339D01*
X93456Y36458D01*
X93539Y36593D01*
X93599Y36738D01*
X93636Y36891D01*
X93645Y37048D01*
X93644Y37750D01*
X94585D01*
X94673Y37674D01*
X94673Y37674D01*
X94975Y37489D01*
X95303Y37354D01*
X95647Y37271D01*
X96000Y37243D01*
X96353Y37271D01*
X96697Y37354D01*
X97025Y37489D01*
X97327Y37674D01*
X97596Y37904D01*
X97653Y37971D01*
X97846Y38164D01*
X98056D01*
X98057Y37698D01*
X98094Y37545D01*
X98154Y37400D01*
X98236Y37265D01*
X98339Y37146D01*
X98458Y37044D01*
X98593Y36961D01*
X98738Y36901D01*
X98891Y36864D01*
X99048Y36855D01*
X105109Y36864D01*
X105262Y36901D01*
X105407Y36961D01*
X105542Y37044D01*
X105661Y37146D01*
X105764Y37265D01*
X105846Y37400D01*
X105906Y37545D01*
X105943Y37698D01*
X105952Y37855D01*
X105943Y43130D01*
X105906Y43283D01*
X105846Y43428D01*
X105764Y43563D01*
X105661Y43682D01*
X105542Y43785D01*
X105407Y43867D01*
X105262Y43927D01*
X105137Y43957D01*
X105262Y43987D01*
X105407Y44047D01*
X105542Y44130D01*
X105661Y44232D01*
X105764Y44351D01*
X105846Y44486D01*
X105906Y44631D01*
X105943Y44784D01*
X105952Y44941D01*
X105951Y45250D01*
X131568D01*
X140750Y36068D01*
Y27088D01*
X140743Y27000D01*
X140771Y26647D01*
Y26647D01*
X140854Y26303D01*
X140989Y25975D01*
X141059Y25861D01*
X141174Y25673D01*
X141174Y25673D01*
X141404Y25404D01*
X141471Y25347D01*
X149500Y17318D01*
Y8500D01*
X87486D01*
Y9473D01*
X87500Y9472D01*
X88912Y9583D01*
X90290Y9914D01*
X91599Y10456D01*
X92806Y11196D01*
X93884Y12116D01*
X94804Y13194D01*
X95544Y14401D01*
X96086Y15710D01*
X96417Y17088D01*
X96500Y18500D01*
X96417Y19912D01*
X96086Y21290D01*
X95544Y22599D01*
X94804Y23806D01*
X93884Y24884D01*
X92806Y25804D01*
X91599Y26544D01*
X90290Y27086D01*
X88912Y27417D01*
X87500Y27528D01*
X87486Y27527D01*
Y36050D01*
G37*
G36*
X78750Y53350D02*X74815Y53336D01*
X74585Y53281D01*
X74367Y53191D01*
X74166Y53067D01*
X73986Y52914D01*
X73833Y52734D01*
X73709Y52533D01*
X73619Y52315D01*
X73564Y52085D01*
X73550Y51850D01*
X73552Y51050D01*
X71388D01*
X71300Y51057D01*
X70947Y51029D01*
X70603Y50946D01*
X70275Y50811D01*
X69973Y50626D01*
X69973Y50626D01*
X69704Y50396D01*
X69647Y50329D01*
X69409Y50091D01*
X69174Y49827D01*
X68989Y49525D01*
X68854Y49197D01*
X68771Y48853D01*
X68743Y48500D01*
X68771Y48147D01*
X68854Y47803D01*
X68989Y47475D01*
X69174Y47173D01*
X69404Y46904D01*
X69673Y46674D01*
X69975Y46489D01*
X70303Y46354D01*
X70647Y46271D01*
X71000Y46243D01*
X71353Y46271D01*
X71697Y46354D01*
X72025Y46489D01*
X72124Y46550D01*
X73562D01*
X73564Y45515D01*
X73619Y45285D01*
X73709Y45067D01*
X73833Y44866D01*
X73986Y44686D01*
X74166Y44533D01*
X74367Y44409D01*
X74585Y44319D01*
X74815Y44264D01*
X75050Y44250D01*
X78985Y44264D01*
X79215Y44319D01*
X79433Y44409D01*
X79634Y44533D01*
X79814Y44686D01*
X79950Y44845D01*
X80086Y44686D01*
X80266Y44533D01*
X80467Y44409D01*
X80685Y44319D01*
X80750Y44303D01*
Y43944D01*
X80284Y43943D01*
X80131Y43906D01*
X79986Y43846D01*
X79851Y43764D01*
X79732Y43661D01*
X79629Y43542D01*
X79547Y43407D01*
X79487Y43262D01*
X79450Y43109D01*
X79441Y42952D01*
X79450Y36891D01*
X79487Y36738D01*
X79547Y36593D01*
X79629Y36458D01*
X79732Y36339D01*
X79851Y36236D01*
X79986Y36154D01*
X80131Y36094D01*
X80284Y36057D01*
X80441Y36048D01*
X85716Y36057D01*
X85869Y36094D01*
X86014Y36154D01*
X86149Y36236D01*
X86268Y36339D01*
X86370Y36458D01*
X86453Y36593D01*
X86513Y36738D01*
X86543Y36863D01*
X86573Y36738D01*
X86633Y36593D01*
X86715Y36458D01*
X86818Y36339D01*
X86937Y36236D01*
X87072Y36154D01*
X87217Y36094D01*
X87370Y36057D01*
X87486Y36050D01*
Y27527D01*
X86088Y27417D01*
X84710Y27086D01*
X83401Y26544D01*
X82194Y25804D01*
X81116Y24884D01*
X80196Y23806D01*
X79456Y22599D01*
X78914Y21290D01*
X78583Y19912D01*
X78472Y18500D01*
X78583Y17088D01*
X78914Y15710D01*
X79456Y14401D01*
X80196Y13194D01*
X81116Y12116D01*
X82194Y11196D01*
X83401Y10456D01*
X84710Y9914D01*
X86088Y9583D01*
X87486Y9473D01*
Y8500D01*
X44986D01*
Y54473D01*
X45000Y54472D01*
X46412Y54583D01*
X47790Y54914D01*
X49099Y55456D01*
X50306Y56196D01*
X51384Y57116D01*
X52304Y58194D01*
X53044Y59401D01*
X53586Y60710D01*
X53917Y62088D01*
X54000Y63500D01*
X53917Y64912D01*
X53586Y66290D01*
X53044Y67599D01*
X52304Y68806D01*
X51384Y69884D01*
X50306Y70804D01*
X49099Y71544D01*
X47790Y72086D01*
X46412Y72417D01*
X45000Y72528D01*
X44986Y72527D01*
Y85587D01*
X47911D01*
X47972Y85582D01*
X48219Y85601D01*
X48220Y85601D01*
X48461Y85659D01*
X48690Y85754D01*
X48901Y85883D01*
X49089Y86044D01*
X49250Y86233D01*
X49380Y86444D01*
X49475Y86673D01*
X49533Y86914D01*
X49552Y87161D01*
X49547Y87223D01*
Y91000D01*
X55476D01*
Y83451D01*
X55472Y83390D01*
X55491Y83143D01*
X55549Y82902D01*
X55644Y82673D01*
X55773Y82461D01*
X55934Y82273D01*
X56123Y82112D01*
X56334Y81982D01*
X56563Y81887D01*
X56804Y81830D01*
X57051Y81810D01*
X57113Y81815D01*
X64667D01*
X64728Y81810D01*
X64975Y81830D01*
X64975Y81830D01*
X65216Y81887D01*
X65446Y81982D01*
X65657Y82112D01*
X65845Y82273D01*
X66006Y82461D01*
X66136Y82673D01*
X66231Y82902D01*
X66289Y83143D01*
X66308Y83390D01*
X66303Y83452D01*
Y91000D01*
X71881D01*
X71783Y90884D01*
X71659Y90683D01*
X71569Y90465D01*
X71514Y90235D01*
X71500Y90000D01*
X71514Y80765D01*
X71569Y80535D01*
X71659Y80317D01*
X71783Y80116D01*
X71936Y79936D01*
X72116Y79783D01*
X72317Y79659D01*
X72535Y79569D01*
X72765Y79514D01*
X73000Y79500D01*
X82235Y79514D01*
X82465Y79569D01*
X82683Y79659D01*
X82884Y79783D01*
X83064Y79936D01*
X83217Y80116D01*
X83341Y80317D01*
X83431Y80535D01*
X83486Y80765D01*
X83500Y81000D01*
X83486Y90235D01*
X83431Y90465D01*
X83341Y90683D01*
X83217Y90884D01*
X83119Y91000D01*
X87486D01*
Y65548D01*
X76715Y65536D01*
X76485Y65481D01*
X76267Y65391D01*
X76066Y65267D01*
X75886Y65114D01*
X75733Y64934D01*
X75609Y64733D01*
X75519Y64515D01*
X75464Y64285D01*
X75450Y64050D01*
X75464Y57715D01*
X75519Y57485D01*
X75609Y57267D01*
X75733Y57066D01*
X75886Y56886D01*
X76066Y56733D01*
X76267Y56609D01*
X76485Y56519D01*
X76715Y56464D01*
X76950Y56450D01*
X82775Y56457D01*
X81471Y55153D01*
X81404Y55096D01*
X81174Y54827D01*
X80989Y54525D01*
X80854Y54197D01*
X80771Y53853D01*
X80771Y53853D01*
X80743Y53500D01*
X80750Y53412D01*
Y53297D01*
X80685Y53281D01*
X80467Y53191D01*
X80266Y53067D01*
X80086Y52914D01*
X79950Y52755D01*
X79814Y52914D01*
X79634Y53067D01*
X79433Y53191D01*
X79215Y53281D01*
X78985Y53336D01*
X78750Y53350D01*
G37*
G36*
X44986Y8500D02*X8500D01*
Y91000D01*
X14705D01*
Y87223D01*
X14700Y87161D01*
X14719Y86914D01*
X14777Y86673D01*
X14872Y86444D01*
X15002Y86233D01*
X15163Y86044D01*
X15351Y85883D01*
X15562Y85754D01*
X15791Y85659D01*
X16032Y85601D01*
X16280Y85582D01*
X16341Y85587D01*
X27438D01*
X27500Y85582D01*
X27747Y85601D01*
X27747Y85601D01*
X27988Y85659D01*
X28217Y85754D01*
X28429Y85883D01*
X28617Y86044D01*
X28778Y86233D01*
X28907Y86444D01*
X29002Y86673D01*
X29060Y86914D01*
X29080Y87161D01*
X29075Y87223D01*
Y91000D01*
X35177D01*
Y87223D01*
X35172Y87161D01*
X35192Y86914D01*
X35250Y86673D01*
X35344Y86444D01*
X35474Y86233D01*
X35635Y86044D01*
X35823Y85883D01*
X36035Y85754D01*
X36264Y85659D01*
X36505Y85601D01*
X36752Y85582D01*
X36814Y85587D01*
X44986D01*
Y72527D01*
X43588Y72417D01*
X42210Y72086D01*
X40901Y71544D01*
X39694Y70804D01*
X38616Y69884D01*
X37696Y68806D01*
X36956Y67599D01*
X36414Y66290D01*
X36083Y64912D01*
X35972Y63500D01*
X36083Y62088D01*
X36414Y60710D01*
X36956Y59401D01*
X37696Y58194D01*
X38616Y57116D01*
X39694Y56196D01*
X40901Y55456D01*
X42210Y54914D01*
X43588Y54583D01*
X44986Y54473D01*
Y8500D01*
G37*
G36*
X98432Y59750D02*X124568D01*
X146250Y38068D01*
Y28088D01*
X146243Y28000D01*
X146271Y27647D01*
Y27647D01*
X146354Y27303D01*
X146489Y26975D01*
X146559Y26861D01*
X146674Y26673D01*
X146674Y26673D01*
X146904Y26404D01*
X146971Y26347D01*
X149500Y23818D01*
Y23682D01*
X145250Y27932D01*
Y36912D01*
X145257Y37000D01*
X145229Y37353D01*
X145229Y37353D01*
X145146Y37697D01*
X145011Y38025D01*
X144826Y38327D01*
X144596Y38596D01*
X144529Y38653D01*
X134153Y49029D01*
X134096Y49096D01*
X133827Y49326D01*
X133827Y49326D01*
X133712Y49396D01*
X133525Y49511D01*
X133293Y49607D01*
X133197Y49646D01*
X132853Y49729D01*
X132500Y49757D01*
X132412Y49750D01*
X105944D01*
X105943Y50216D01*
X105906Y50369D01*
X105846Y50514D01*
X105764Y50649D01*
X105661Y50768D01*
X105542Y50871D01*
X105407Y50953D01*
X105262Y51013D01*
X105109Y51050D01*
X104952Y51059D01*
X98891Y51050D01*
X98738Y51013D01*
X98593Y50953D01*
X98458Y50871D01*
X98339Y50768D01*
X98236Y50649D01*
X98154Y50514D01*
X98094Y50369D01*
X98057Y50216D01*
X98048Y50059D01*
X98049Y49750D01*
X92441D01*
X92436Y52085D01*
X92381Y52315D01*
X92291Y52533D01*
X92167Y52734D01*
X92014Y52914D01*
X91834Y53067D01*
X91743Y53123D01*
X91827Y53174D01*
X92096Y53404D01*
X92153Y53471D01*
X98432Y59750D01*
G37*
G36*
X85250Y44303D02*X85315Y44319D01*
X85533Y44409D01*
X85734Y44533D01*
X85914Y44686D01*
X86050Y44845D01*
X86186Y44686D01*
X86366Y44533D01*
X86567Y44409D01*
X86785Y44319D01*
X87015Y44264D01*
X87250Y44250D01*
X91185Y44264D01*
X91415Y44319D01*
X91633Y44409D01*
X91834Y44533D01*
X92014Y44686D01*
X92167Y44866D01*
X92291Y45067D01*
X92366Y45250D01*
X98056D01*
X98057Y44784D01*
X98094Y44631D01*
X98154Y44486D01*
X98236Y44351D01*
X98339Y44232D01*
X98458Y44130D01*
X98593Y44047D01*
X98738Y43987D01*
X98863Y43957D01*
X98738Y43927D01*
X98593Y43867D01*
X98458Y43785D01*
X98339Y43682D01*
X98236Y43563D01*
X98154Y43428D01*
X98094Y43283D01*
X98057Y43130D01*
X98048Y42973D01*
X98049Y42664D01*
X97002D01*
X96914Y42671D01*
X96561Y42643D01*
X96217Y42561D01*
X95890Y42425D01*
X95602Y42249D01*
X95500Y42257D01*
X95412Y42250D01*
X93637D01*
X93636Y43109D01*
X93599Y43262D01*
X93539Y43407D01*
X93456Y43542D01*
X93354Y43661D01*
X93235Y43764D01*
X93100Y43846D01*
X92955Y43906D01*
X92802Y43943D01*
X92645Y43952D01*
X87370Y43943D01*
X87217Y43906D01*
X87072Y43846D01*
X86937Y43764D01*
X86818Y43661D01*
X86715Y43542D01*
X86633Y43407D01*
X86573Y43262D01*
X86543Y43137D01*
X86513Y43262D01*
X86453Y43407D01*
X86370Y43542D01*
X86268Y43661D01*
X86149Y43764D01*
X86014Y43846D01*
X85869Y43906D01*
X85716Y43943D01*
X85559Y43952D01*
X85250Y43951D01*
Y44303D01*
G37*
G36*
X99900Y91000D02*X149500D01*
Y41182D01*
X127153Y63529D01*
X127096Y63596D01*
X126827Y63826D01*
X126525Y64011D01*
X126197Y64146D01*
X125853Y64229D01*
X125853Y64229D01*
X125500Y64257D01*
X125412Y64250D01*
X99750D01*
Y79938D01*
X100232Y80137D01*
X101038Y80631D01*
X101756Y81244D01*
X102369Y81962D01*
X102863Y82768D01*
X103224Y83640D01*
X103444Y84558D01*
X103500Y85500D01*
X103444Y86442D01*
X103224Y87360D01*
X102863Y88232D01*
X102369Y89038D01*
X101756Y89756D01*
X101038Y90369D01*
X100232Y90863D01*
X99900Y91000D01*
G37*
G36*
X207232Y81000D02*X225500D01*
Y8500D01*
X207232D01*
Y72586D01*
X210750Y69068D01*
Y40088D01*
X210743Y40000D01*
X210771Y39647D01*
X210854Y39303D01*
X210989Y38975D01*
X211174Y38673D01*
X211174Y38673D01*
X211404Y38404D01*
X211471Y38347D01*
X219215Y30603D01*
Y27992D01*
X219235Y27639D01*
X219318Y27295D01*
X219454Y26967D01*
X219639Y26666D01*
X219869Y26396D01*
X220138Y26166D01*
X220440Y25981D01*
X220767Y25846D01*
X221112Y25763D01*
X221465Y25735D01*
X221818Y25763D01*
X222162Y25846D01*
X222489Y25981D01*
X222791Y26166D01*
X223060Y26396D01*
X223290Y26666D01*
X223476Y26967D01*
X223611Y27295D01*
X223694Y27639D01*
X223715Y27992D01*
Y31447D01*
X223722Y31535D01*
X223694Y31888D01*
X223694Y31888D01*
X223611Y32233D01*
X223476Y32560D01*
X223290Y32862D01*
X223060Y33131D01*
X222993Y33189D01*
X215250Y40932D01*
Y69912D01*
X215257Y70000D01*
X215229Y70353D01*
X215146Y70697D01*
X215107Y70793D01*
X215011Y71025D01*
X214896Y71212D01*
X214826Y71327D01*
X214826Y71327D01*
X214596Y71596D01*
X214529Y71653D01*
X209653Y76529D01*
X209596Y76596D01*
X209327Y76826D01*
X209025Y77011D01*
X208697Y77146D01*
X208353Y77229D01*
X208353Y77229D01*
X208000Y77257D01*
X207912Y77250D01*
X207232D01*
Y81000D01*
G37*
G36*
X200750Y61982D02*Y61588D01*
X200743Y61500D01*
X200771Y61147D01*
Y61147D01*
X200854Y60803D01*
X200989Y60475D01*
X201059Y60361D01*
X201174Y60173D01*
X201174Y60173D01*
X201404Y59904D01*
X201471Y59847D01*
X202250Y59068D01*
Y50432D01*
X197068Y45250D01*
X186588D01*
X186500Y45257D01*
X186147Y45229D01*
X185803Y45146D01*
X185475Y45011D01*
X185173Y44826D01*
X185173Y44826D01*
X184904Y44596D01*
X184847Y44529D01*
X181971Y41653D01*
X181904Y41596D01*
X181674Y41327D01*
X181489Y41025D01*
X181354Y40697D01*
X181271Y40353D01*
X181271Y40353D01*
X181250Y40088D01*
Y42912D01*
X181257Y43000D01*
X181229Y43353D01*
X181146Y43697D01*
X181107Y43793D01*
X181011Y44025D01*
X180896Y44212D01*
X180826Y44327D01*
X180826Y44327D01*
X180596Y44596D01*
X180529Y44653D01*
X175182Y50000D01*
X181235Y50014D01*
X181465Y50069D01*
X181683Y50159D01*
X181884Y50283D01*
X182064Y50436D01*
X182217Y50616D01*
X182341Y50817D01*
X182431Y51035D01*
X182486Y51265D01*
X182500Y51500D01*
X182486Y57735D01*
X182431Y57965D01*
X182341Y58183D01*
X182217Y58384D01*
X182064Y58564D01*
X181884Y58717D01*
X181683Y58841D01*
X181465Y58931D01*
X181235Y58986D01*
X181000Y59000D01*
X180250Y58998D01*
Y59068D01*
X182457Y61275D01*
X183000Y61233D01*
X183589Y61279D01*
X184164Y61417D01*
X184710Y61643D01*
X185214Y61952D01*
X185664Y62336D01*
X185750Y62437D01*
Y58399D01*
X185347Y58152D01*
X184808Y57692D01*
X184348Y57153D01*
X183978Y56549D01*
X183707Y55895D01*
X183542Y55206D01*
X183486Y54500D01*
X183542Y53794D01*
X183707Y53105D01*
X183978Y52451D01*
X184348Y51847D01*
X184808Y51308D01*
X185347Y50848D01*
X185951Y50478D01*
X186605Y50207D01*
X187294Y50042D01*
X188000Y49986D01*
X188706Y50042D01*
X189395Y50207D01*
X190049Y50478D01*
X190653Y50848D01*
X191192Y51308D01*
X191652Y51847D01*
X192022Y52451D01*
X192293Y53105D01*
X192458Y53794D01*
X192500Y54500D01*
X192458Y55206D01*
X192293Y55895D01*
X192022Y56549D01*
X191652Y57153D01*
X191192Y57692D01*
X190653Y58152D01*
X190250Y58399D01*
Y71982D01*
X190664Y72336D01*
X191048Y72786D01*
X191357Y73290D01*
X191583Y73836D01*
X191721Y74411D01*
X191756Y75000D01*
X191721Y75589D01*
X191583Y76164D01*
X191357Y76710D01*
X191048Y77214D01*
X190664Y77664D01*
X190250Y78018D01*
Y81000D01*
X207232D01*
Y77250D01*
X198088D01*
X198000Y77257D01*
X197647Y77229D01*
X197303Y77146D01*
X196975Y77011D01*
X196673Y76826D01*
X196673Y76826D01*
X196404Y76596D01*
X196347Y76529D01*
X191471Y71653D01*
X191404Y71596D01*
X191174Y71327D01*
X190989Y71025D01*
X190854Y70697D01*
X190771Y70353D01*
X190771Y70353D01*
X190743Y70000D01*
X190750Y69912D01*
Y59588D01*
X190743Y59500D01*
X190771Y59147D01*
Y59147D01*
X190854Y58803D01*
X190989Y58475D01*
X191059Y58361D01*
X191174Y58173D01*
X191174Y58173D01*
X191404Y57904D01*
X191471Y57847D01*
X196409Y52909D01*
X196673Y52674D01*
X196975Y52489D01*
X197303Y52354D01*
X197647Y52271D01*
X198000Y52243D01*
X198353Y52271D01*
X198697Y52354D01*
X199025Y52489D01*
X199327Y52674D01*
X199596Y52904D01*
X199826Y53173D01*
X200011Y53475D01*
X200146Y53803D01*
X200229Y54147D01*
X200257Y54500D01*
X200229Y54853D01*
X200146Y55197D01*
X200011Y55525D01*
X199826Y55827D01*
X199591Y56091D01*
X195250Y60432D01*
Y69068D01*
X198932Y72750D01*
X207068D01*
X207232Y72586D01*
Y8500D01*
X155500D01*
Y14250D01*
X166412D01*
X166500Y14243D01*
X166853Y14271D01*
X166853Y14271D01*
X167197Y14354D01*
X167525Y14489D01*
X167827Y14674D01*
X168096Y14904D01*
X168153Y14971D01*
X185029Y31847D01*
X185096Y31904D01*
X185326Y32173D01*
X185326Y32173D01*
X185511Y32475D01*
X185646Y32803D01*
X185729Y33147D01*
X185757Y33500D01*
X185750Y33588D01*
Y39068D01*
X187432Y40750D01*
X197912D01*
X198000Y40743D01*
X198353Y40771D01*
X198353Y40771D01*
X198697Y40854D01*
X199025Y40989D01*
X199327Y41174D01*
X199596Y41404D01*
X199653Y41471D01*
X206029Y47847D01*
X206096Y47904D01*
X206326Y48173D01*
X206326Y48173D01*
X206511Y48475D01*
X206646Y48803D01*
X206729Y49147D01*
X206757Y49500D01*
X206750Y49588D01*
Y59912D01*
X206757Y60000D01*
X206729Y60353D01*
X206729Y60353D01*
X206646Y60697D01*
X206511Y61025D01*
X206326Y61327D01*
X206096Y61596D01*
X206029Y61653D01*
X205492Y62189D01*
X205664Y62336D01*
X206048Y62786D01*
X206357Y63290D01*
X206583Y63836D01*
X206721Y64411D01*
X206756Y65000D01*
X206721Y65589D01*
X206583Y66164D01*
X206357Y66710D01*
X206048Y67214D01*
X205664Y67664D01*
X205214Y68048D01*
X204710Y68357D01*
X204164Y68583D01*
X203589Y68721D01*
X203000Y68767D01*
X202411Y68721D01*
X201836Y68583D01*
X201290Y68357D01*
X200786Y68048D01*
X200336Y67664D01*
X199952Y67214D01*
X199643Y66710D01*
X199417Y66164D01*
X199279Y65589D01*
X199233Y65000D01*
X199279Y64411D01*
X199417Y63836D01*
X199643Y63290D01*
X199952Y62786D01*
X200336Y62336D01*
X200750Y61982D01*
G37*
G36*
X181250Y34432D02*X181155Y34337D01*
X181229Y34647D01*
X181250Y34912D01*
Y34432D01*
G37*
G36*
X175932Y72750D02*X178000D01*
X178353Y72771D01*
X178697Y72854D01*
X179025Y72989D01*
X179327Y73174D01*
X179596Y73404D01*
X179826Y73673D01*
X180011Y73975D01*
X180146Y74303D01*
X180229Y74647D01*
X180257Y75000D01*
X180229Y75353D01*
X180146Y75697D01*
X180011Y76025D01*
X179826Y76327D01*
X179596Y76596D01*
X179327Y76826D01*
X179025Y77011D01*
X178697Y77146D01*
X178353Y77229D01*
X178000Y77250D01*
X175088D01*
X175000Y77257D01*
X174647Y77229D01*
X174303Y77146D01*
X173975Y77011D01*
X173673Y76826D01*
X173673Y76826D01*
X173404Y76596D01*
X173347Y76529D01*
X165068Y68250D01*
X160588D01*
X160500Y68257D01*
X160147Y68229D01*
X159803Y68146D01*
X159475Y68011D01*
X159173Y67826D01*
X158904Y67596D01*
X158674Y67327D01*
X158489Y67025D01*
X158354Y66697D01*
X158271Y66353D01*
X158271Y66353D01*
X158243Y66000D01*
X158250Y65912D01*
Y47588D01*
X158243Y47500D01*
X158271Y47147D01*
Y47147D01*
X158354Y46803D01*
X158489Y46475D01*
X158559Y46361D01*
X158674Y46173D01*
X158674Y46173D01*
X158904Y45904D01*
X158971Y45847D01*
X164818Y40000D01*
X157928Y33110D01*
X157861Y33053D01*
X157631Y32783D01*
X157446Y32481D01*
X157310Y32154D01*
X157228Y31810D01*
X157228Y31809D01*
X157200Y31457D01*
X157207Y31369D01*
Y27992D01*
X157228Y27639D01*
X157310Y27295D01*
X157446Y26967D01*
X157631Y26666D01*
X157861Y26396D01*
X158130Y26166D01*
X158432Y25981D01*
X158759Y25846D01*
X159104Y25763D01*
X159457Y25735D01*
X159810Y25763D01*
X160154Y25846D01*
X160481Y25981D01*
X160783Y26166D01*
X161053Y26396D01*
X161283Y26666D01*
X161468Y26967D01*
X161603Y27295D01*
X161686Y27639D01*
X161707Y27992D01*
Y30525D01*
X169529Y38347D01*
X169596Y38404D01*
X169826Y38673D01*
X169826Y38673D01*
X170011Y38975D01*
X170146Y39303D01*
X170229Y39647D01*
X170257Y40000D01*
Y40000D01*
X170255Y40028D01*
X170229Y40353D01*
X170146Y40697D01*
X170011Y41025D01*
X169826Y41327D01*
X169596Y41596D01*
X169529Y41653D01*
X162750Y48432D01*
Y63750D01*
X165912D01*
X166000Y63743D01*
X166353Y63771D01*
X166353Y63771D01*
X166697Y63854D01*
X167025Y63989D01*
X167327Y64174D01*
X167596Y64404D01*
X167653Y64471D01*
X169467Y66285D01*
X169417Y66164D01*
X169279Y65589D01*
X169233Y65000D01*
X169279Y64411D01*
X169417Y63836D01*
X169643Y63290D01*
X169952Y62786D01*
X170022Y62704D01*
X168971Y61653D01*
X168904Y61596D01*
X168674Y61327D01*
X168489Y61025D01*
X168354Y60697D01*
X168271Y60353D01*
X168271Y60353D01*
X168243Y60000D01*
X168250Y59912D01*
Y51588D01*
X168243Y51500D01*
X168271Y51147D01*
X168354Y50803D01*
X168489Y50475D01*
X168674Y50173D01*
X168674Y50173D01*
X168904Y49904D01*
X168971Y49847D01*
X176750Y42068D01*
Y35932D01*
X163568Y22750D01*
X156932D01*
X155500Y24182D01*
Y81000D01*
X158250D01*
Y79899D01*
X157847Y79652D01*
X157308Y79192D01*
X156848Y78653D01*
X156478Y78049D01*
X156207Y77395D01*
X156042Y76706D01*
X155986Y76000D01*
X156042Y75294D01*
X156207Y74605D01*
X156478Y73951D01*
X156848Y73347D01*
X157308Y72808D01*
X157847Y72348D01*
X158451Y71978D01*
X159105Y71707D01*
X159794Y71542D01*
X160500Y71486D01*
X161206Y71542D01*
X161895Y71707D01*
X162549Y71978D01*
X163153Y72348D01*
X163692Y72808D01*
X164152Y73347D01*
X164522Y73951D01*
X164793Y74605D01*
X164958Y75294D01*
X165000Y76000D01*
X164958Y76706D01*
X164793Y77395D01*
X164522Y78049D01*
X164152Y78653D01*
X163692Y79192D01*
X163153Y79652D01*
X162750Y79899D01*
Y81000D01*
X179818D01*
X180750Y80068D01*
Y68018D01*
X180336Y67664D01*
X179952Y67214D01*
X179643Y66710D01*
X179417Y66164D01*
X179279Y65589D01*
X179233Y65000D01*
X179275Y64457D01*
X176471Y61653D01*
X176404Y61596D01*
X176174Y61327D01*
X175989Y61025D01*
X175854Y60697D01*
X175771Y60353D01*
X175771Y60353D01*
X175743Y60000D01*
X175750Y59912D01*
Y58988D01*
X174765Y58986D01*
X174535Y58931D01*
X174317Y58841D01*
X174116Y58717D01*
X173936Y58564D01*
X173783Y58384D01*
X173659Y58183D01*
X173569Y57965D01*
X173514Y57735D01*
X173500Y57500D01*
X173513Y51669D01*
X172750Y52432D01*
Y59068D01*
X174529Y60847D01*
X174596Y60904D01*
X174826Y61173D01*
X174826Y61173D01*
X175011Y61475D01*
X175146Y61803D01*
X175177Y61929D01*
X175214Y61952D01*
X175664Y62336D01*
X176048Y62786D01*
X176357Y63290D01*
X176583Y63836D01*
X176721Y64411D01*
X176756Y65000D01*
X176721Y65589D01*
X176583Y66164D01*
X176357Y66710D01*
X176048Y67214D01*
X175664Y67664D01*
X175214Y68048D01*
X174710Y68357D01*
X174164Y68583D01*
X173589Y68721D01*
X173000Y68767D01*
X172411Y68721D01*
X171836Y68583D01*
X171715Y68533D01*
X175932Y72750D01*
G37*
G36*
X181250Y35088D02*X181250Y35088D01*
Y39912D01*
X181250Y39912D01*
Y35088D01*
G37*
G36*
X185250Y68018D02*Y72437D01*
X185336Y72336D01*
X185750Y71982D01*
Y67563D01*
X185664Y67664D01*
X185250Y68018D01*
G37*
G36*
Y77563D02*Y80912D01*
X185257Y81000D01*
X185750D01*
Y78018D01*
X185336Y77664D01*
X185250Y77563D01*
G37*
G54D12*X112000Y294000D02*Y257500D01*
X122000Y257000D02*Y294000D01*
X138000Y281500D02*X132000Y287500D01*
Y297500D02*X127000Y302500D01*
X107000D01*
X83000Y278500D01*
X112000Y257500D02*X89000D01*
X88000Y256500D01*
X83500Y329500D02*X72000Y318000D01*
X116500Y239500D02*X107000Y230000D01*
Y222000D01*
X96500Y221000D02*Y214000D01*
X102000Y208500D01*
X84690Y221000D02*X76000D01*
X73000Y224000D01*
X116500Y239500D02*Y253000D01*
X112000Y257500D01*
X128310Y238690D02*Y250690D01*
X122000Y257000D02*X128310Y250690D01*
X132000Y287500D02*Y297500D01*
Y198500D02*X130500D01*
X107000Y222000D02*X130500Y198500D01*
X128310Y238810D02*Y238690D01*
X152000Y225528D02*X141472D01*
X128310Y238690D02*X141472Y225528D01*
X155000Y201000D02*X161000Y207000D01*
Y225000D01*
X163000Y227000D01*
X168500Y233690D02*X162810D01*
X162000Y234500D01*
X122000Y275500D02*X126000Y271500D01*
X152500D01*
X159000Y278000D01*
X164500Y271000D02*Y249500D01*
X172500Y277000D02*Y263500D01*
X84000Y162000D02*X100000Y178000D01*
X77500Y182500D02*X82000Y178000D01*
X77500Y186000D02*Y182500D01*
X78500Y169000D02*X69500Y178000D01*
X107000Y173000D02*Y166500D01*
X108500Y171500D02*X107000Y173000D01*
X82000Y178000D02*X112000D01*
X119500Y185500D02*X112000Y178000D01*
X124000Y185500D02*X119500D01*
X97500Y186000D02*X109000D01*
X84000Y133000D02*Y162000D01*
X87000Y130000D02*X84000Y133000D01*
X94000Y130000D02*X87000D01*
X89000Y147500D02*Y135500D01*
X91000Y149500D02*X89000Y147500D01*
X78500Y130500D02*Y169000D01*
X110500Y144500D02*X95000D01*
X107000Y166500D02*X95000Y154500D01*
X104500Y149500D02*X91000D01*
X107500Y152500D02*X104500Y149500D01*
X107500Y159000D02*Y152500D01*
X123500Y171500D02*X108500D01*
X115000Y166500D02*X107500Y159000D01*
X131250Y166500D02*X115000D01*
X134000Y169250D02*X133875Y169125D01*
X131250Y166500D02*X133750Y169000D01*
X137500Y166500D02*X135000Y164000D01*
X144000Y166500D02*X137500D01*
X135000Y145972D02*Y164000D01*
X120310Y147500D02*X127310Y154500D01*
X135000Y145972D02*X141472Y139500D01*
X127310Y154500D02*X135000D01*
X146810D02*Y153190D01*
X152000Y148000D01*
X113500Y147500D02*X120310D01*
X119500Y154500D02*X115500D01*
X110500Y144500D02*X113500Y147500D01*
X101000Y123000D02*X94000Y130000D01*
X107000Y123000D02*X101000D01*
X89000Y135500D02*X106500D01*
X114500Y127500D01*
X104000Y107000D02*X80000D01*
X74000Y113000D01*
Y126000D01*
X78500Y130500D01*
X114500Y127500D02*Y117500D01*
X104000Y107000D01*
X116500Y109000D02*Y115500D01*
X114500Y117500D01*
X121618Y109000D02*Y108882D01*
X173000Y65000D02*Y62500D01*
X170500Y60000D01*
X175000Y75000D02*X166000Y66000D01*
X160500D01*
X208000Y75000D02*X198000D01*
X193000Y70000D02*X198000Y75000D01*
X178000Y60000D02*X183000Y65000D01*
Y81000D01*
X177500Y86500D01*
X188000Y54500D02*Y86500D01*
X178000Y75000D02*X175000D01*
X160500Y76000D02*Y86500D01*
X213000Y70000D02*X208000Y75000D01*
X203000Y65000D02*Y61500D01*
X204500Y60000D01*
Y49500D01*
X193000Y70000D02*Y59500D01*
X198000Y54500D01*
X164500Y20500D02*X156000D01*
X166500Y16500D02*X153500D01*
X156000Y20500D02*X148500Y28000D01*
Y39000D01*
X153500Y16500D02*X143000Y27000D01*
Y37000D01*
X159457Y27992D02*Y31457D01*
X168000Y40000D01*
X170500Y51500D02*X179000Y43000D01*
X204500Y49500D02*X198000Y43000D01*
X186500D01*
X178000Y54500D02*Y60000D01*
X179000Y43000D02*Y35000D01*
X186500Y43000D02*X183500Y40000D01*
Y33500D01*
X221465Y27992D02*Y31535D01*
X213000Y40000D01*
X179000Y35000D02*X164500Y20500D01*
X183500Y33500D02*X166500Y16500D01*
X170500Y60000D02*Y51500D01*
X160500Y66000D02*Y47500D01*
X168000Y40000D01*
X213000D02*Y70000D01*
X148500Y39000D02*X125500Y62000D01*
X132500Y47500D02*X143000Y37000D01*
X90086Y40000D02*X95500D01*
X97500Y62000D02*X125500D01*
X90400Y47500D02*X132500D01*
X95500Y40000D02*X96000Y39500D01*
X102000Y40414D02*X96914D01*
X96000Y39500D01*
X76900Y48800D02*X71300D01*
X71000Y48500D01*
X216500Y330000D02*Y321500D01*
X212500Y317500D01*
X204810Y334500D02*X212000D01*
X216500Y330000D01*
X214500Y287000D02*X194500Y307000D01*
X207190D01*
X209690Y304500D01*
X221500D02*Y280500D01*
X214000Y280000D02*X217852D01*
X218352Y280500D01*
X194500Y307000D02*Y312500D01*
X192500Y314500D02*X194500Y312500D01*
X193000Y334500D02*X202500Y325000D01*
X193000Y344000D02*Y345500D01*
X202500Y355000D01*
X204810Y344000D02*X210028D01*
X216500Y350472D01*
X154500Y295500D02*X162500D01*
X166190Y284310D02*Y291810D01*
X162500Y295500D02*X166190Y291810D01*
X159000Y285000D02*X156000Y288000D01*
X184500Y287000D02*X180500D01*
X178000Y284500D01*
X174500Y307000D02*X174000D01*
X162500Y295500D01*
X184500Y287000D02*Y307000D01*
X187000Y284500D02*X184500Y287000D01*
X152000Y281500D02*X138000D01*
X159000Y278000D02*Y285000D01*
X156000Y288000D02*X152500D01*
X146500Y299000D01*
Y303500D01*
X166190Y284500D02*Y283310D01*
X172500Y277000D01*
X195000Y261500D02*X194500Y261000D01*
X200000Y266500D02*X194500Y261000D01*
Y253500D01*
X204000Y244000D01*
X194500Y261000D02*X175000D01*
X200000Y273500D02*Y266500D01*
X213500Y250500D02*X207000Y257000D01*
Y280500D01*
X203000Y284500D01*
X187000D01*
X164500Y249500D02*X168500Y245500D01*
X172500Y263500D02*X175000Y261000D01*
X163500Y194000D02*X180500D01*
X186000Y218500D02*Y227000D01*
X163000D02*X190000D01*
X196500Y233500D01*
X210500D01*
X213500Y236500D01*
Y250500D01*
X190000Y227000D02*X195000Y222000D01*
Y187500D02*Y222000D01*
X146500Y303500D02*X157500Y314500D01*
X192500D01*
X212500Y317500D02*X138000D01*
X151000Y325000D02*X183500D01*
X193000Y334500D01*
X109000Y186000D02*X116000Y193000D01*
X128500D01*
X129000Y192500D01*
X134000Y169250D02*Y185500D01*
X144000Y171500D02*X152810D01*
X144000Y185500D02*X147000D01*
X149500Y183000D01*
X128500Y176500D02*X123500D01*
X139000D02*X144000D01*
X129000Y192500D02*X142000D01*
X144000Y190500D01*
Y185500D01*
X155000Y188500D02*Y201000D01*
Y176690D02*Y169310D01*
Y176810D02*X162528D01*
X169000Y183282D01*
X152810Y171500D02*X155000Y169310D01*
X149500Y183000D02*X160000D01*
X161500Y184500D01*
Y192000D01*
X163500Y194000D01*
X188000Y106500D02*Y186500D01*
X180500Y194000D02*X188000Y186500D01*
X177500Y106500D02*Y106000D01*
X195000Y102500D02*Y156500D01*
X194500Y157000D01*
Y165500D01*
X202500Y173500D01*
Y180000D01*
X195000Y187500D01*
X194500Y177000D02*X188000Y183500D01*
X177500Y106000D02*X184000Y99500D01*
X171500Y121000D02*X173500D01*
X188000Y106500D01*
X160500D02*Y130000D01*
X184000Y99500D02*X192000D01*
X195000Y102500D01*
X160500Y130000D02*X171500Y141000D01*
X152000Y148000D02*X188000D01*
X155000Y161500D02*Y157500D01*
X121618Y108882D02*X127000Y103500D01*
X50000Y241500D02*X45000Y246500D01*
X36500Y269000D02*X45000D01*
X16500Y246500D02*X45000D01*
X15000Y248000D02*X16500Y246500D01*
X15000Y260500D02*Y248000D01*
X20118Y265382D02*X16500Y269000D01*
X26810Y268690D02*X26500Y269000D01*
X36500Y279000D02*X16500D01*
X20118Y260500D02*Y265382D01*
X26810Y252500D02*Y268690D01*
X60000Y261000D02*X45250Y246250D01*
X21690Y195000D02*X24190Y192500D01*
X17000Y195000D02*X21690D01*
X16028Y189839D02*Y194028D01*
X17000Y195000D01*
X24190Y192000D02*Y200190D01*
X36000Y189500D02*Y201000D01*
X32528Y208528D02*X24190Y200190D01*
X65500Y226000D02*X49500Y242000D01*
X65500Y226000D02*Y198000D01*
X61000Y206866D02*X52528Y215339D01*
X36000Y201000D02*X42500Y207500D01*
Y215311D01*
X42528Y215339D01*
X32528D02*Y208528D01*
X22500Y343000D02*X72000D01*
X62000Y358500D02*X38000D01*
X22500Y343000D01*
X93800D02*X149000D01*
X151000Y345000D01*
X138000Y317500D02*X129000Y308500D01*
X106000D01*
X118000Y321200D02*Y327000D01*
X114500Y330500D01*
X102500Y305000D02*X106000Y308500D01*
X114500Y330500D02*X69000D01*
X102500Y305000D02*X62000D01*
X124992Y358500D02*X94000D01*
X83500Y359000D02*Y329500D01*
X10000Y265500D02*X15000Y260500D01*
X10000Y284500D02*Y265500D01*
X16500Y291000D02*X10000Y284500D01*
X16500Y303500D02*Y291000D01*
X22500Y321200D02*X22700D01*
X26500Y303500D02*Y279000D01*
X49500Y290500D02*X36500Y303500D01*
X56500Y290500D02*X49500D01*
X45000Y269000D02*X62000Y286000D01*
Y298000D01*
X56500Y303500D01*
X62000Y305000D02*X56500Y310500D01*
X22700Y321200D02*X33250Y331750D01*
X67750D01*
X71000Y328500D01*
X72000Y318000D02*Y327500D01*
X70750Y328750D01*
X56500Y303500D02*X50000D01*
X36500D02*Y304000D01*
X56500Y310500D02*X43500D01*
X36500Y303500D01*
X65500Y261000D02*Y262000D01*
X82000Y278500D01*
X83000D01*
X65500Y261000D02*X60000D01*
X45000Y160500D02*X57500D01*
X42000Y163500D02*X45000Y160500D01*
X57917Y106500D02*X60890Y109472D01*
X44890Y106500D02*X57917D01*
X44890D02*Y115890D01*
X46000Y117000D01*
X55000Y130500D02*Y126500D01*
X61000Y120500D01*
X45000Y130500D02*Y118000D01*
X46000Y117000D01*
X42500Y120500D02*X46000Y117000D01*
X32500Y172000D02*X31000Y170500D01*
X32500Y181000D02*Y172000D01*
X24190Y189310D02*X32500Y181000D01*
X31500Y192500D02*X31000Y192000D01*
X36000Y192500D02*X31500D01*
X24190D02*Y189310D01*
X42000Y183500D02*Y163500D01*
X36000Y189500D02*X42000Y183500D01*
X46028Y189839D02*Y187839D01*
X41844Y183656D01*
X17000Y183190D02*Y179500D01*
X16500Y179000D01*
X61000Y192000D02*Y206866D01*
X50000Y203500D02*X54500Y199000D01*
Y188000D01*
X56500Y186000D01*
X65000D01*
X66000Y187000D01*
X65500Y198000D02*X66000Y197500D01*
Y187000D01*
X69500Y197000D02*Y172500D01*
X57500Y160500D02*X69500Y172500D01*
X73000Y204000D02*Y200500D01*
X69500Y197000D01*
X33080Y102190D02*X21890Y91000D01*
X28890Y106500D02*X26390Y109000D01*
X33080Y106500D02*X28890D01*
X19304Y109000D02*Y104304D01*
X16000Y101000D01*
X31000Y120500D02*X42500D01*
X35000Y130500D02*X30500D01*
X24000Y124000D01*
Y118000D01*
X26500Y115500D01*
X16000Y117000D02*X25000D01*
X26500Y115500D02*X31500D01*
X33080Y102190D02*Y113920D01*
X31500Y115500D02*X33080Y113920D01*
X77500Y85500D02*Y92862D01*
X97500Y85500D02*Y62000D01*
X77500Y92862D02*X60890Y109472D01*
X83000Y53500D02*X84500Y55000D01*
X90500D01*
X97500Y62000D01*
X90400Y47500D02*X89100Y48800D01*
X83000Y53500D02*Y40000D01*
G54D11*G36*
X183500Y221000D02*Y216000D01*
X188500D01*
Y221000D01*
X183500D01*
G37*
G54D13*X122000Y294000D03*
G54D14*Y281500D03*
G54D13*X132000Y294000D03*
G54D11*G36*
X149500Y284000D02*Y279000D01*
X154500D01*
Y284000D01*
X149500D01*
G37*
G54D15*X144000Y291500D03*
G54D14*X154500Y295500D03*
G54D16*X122000Y227000D03*
G54D11*G36*
X134500Y232500D02*Y227500D01*
X139500D01*
Y232500D01*
X134500D01*
G37*
G54D14*X107000Y230000D03*
G54D11*G36*
X109000Y260500D02*Y254500D01*
X115000D01*
Y260500D01*
X109000D01*
G37*
G54D15*X132000Y257500D03*
G54D11*G36*
X141000Y274500D02*Y268500D01*
X147000D01*
Y274500D01*
X141000D01*
G37*
G36*
X160900Y274600D02*Y267400D01*
X168100D01*
Y274600D01*
X160900D01*
G37*
G36*
X171500Y264500D02*Y258500D01*
X177500D01*
Y264500D01*
X171500D01*
G37*
G54D15*X164500Y261500D03*
X180000Y273500D03*
G54D11*G36*
X182000Y298000D02*Y293000D01*
X187000D01*
Y298000D01*
X182000D01*
G37*
G54D14*X184500Y287000D03*
X186000Y188500D03*
G54D11*G36*
X170000Y311500D02*Y302500D01*
X179000D01*
Y311500D01*
X170000D01*
G37*
G54D13*X184500Y307000D03*
X194500D03*
G54D16*X184500Y240000D03*
G54D11*G36*
X212000Y289500D02*Y284500D01*
X217000D01*
Y289500D01*
X212000D01*
G37*
G54D17*X214500Y271000D03*
X194500Y261000D03*
G54D11*G36*
X197000Y276500D02*Y270500D01*
X203000D01*
Y276500D01*
X197000D01*
G37*
G36*
X191500Y160000D02*Y154000D01*
X197500D01*
Y160000D01*
X191500D01*
G37*
G54D15*X194500Y177000D03*
G54D18*X124992Y358500D03*
G54D11*G36*
X148000Y348000D02*Y342000D01*
X154000D01*
Y348000D01*
X148000D01*
G37*
G54D15*X151000Y325000D03*
G54D11*G36*
X199500Y328000D02*Y322000D01*
X205500D01*
Y328000D01*
X199500D01*
G37*
G54D15*X202500Y355000D03*
G54D18*X105307Y358500D03*
G54D11*G36*
X90500Y362000D02*Y356000D01*
X96500D01*
Y362000D01*
X90500D01*
G37*
G54D15*X83500Y359000D03*
G54D18*X62000Y358500D03*
X42315D03*
G54D11*G36*
X12000Y308000D02*Y299000D01*
X21000D01*
Y308000D01*
X12000D01*
G37*
G54D13*X26500Y303500D03*
X36500D03*
G54D11*G36*
X46000Y307500D02*Y299500D01*
X54000D01*
Y307500D01*
X46000D01*
G37*
G36*
X54000Y293000D02*Y288000D01*
X59000D01*
Y293000D01*
X54000D01*
G37*
G54D14*X26500Y290500D03*
G54D11*G36*
X33500Y282000D02*Y276000D01*
X39500D01*
Y282000D01*
X33500D01*
G37*
G54D15*X26500Y279000D03*
X16500D03*
Y269000D03*
X26500D03*
X36500D03*
G54D11*G36*
X79000Y281500D02*Y275500D01*
X85000D01*
Y281500D01*
X79000D01*
G37*
G54D15*X82000Y298500D03*
G54D11*G36*
X107500D02*Y289500D01*
X116500D01*
Y298500D01*
X107500D01*
G37*
G54D16*X26500Y236500D03*
G54D11*G36*
X28028Y219839D02*Y210839D01*
X37028D01*
Y219839D01*
X28028D01*
G37*
G54D13*X42528Y215339D03*
G54D11*G36*
X73000Y190500D02*Y181500D01*
X82000D01*
Y190500D01*
X73000D01*
G37*
G54D15*X52500Y181000D03*
G54D11*G36*
X58500Y194500D02*Y189500D01*
X63500D01*
Y194500D01*
X58500D01*
G37*
G54D19*X50000Y203500D03*
G54D11*G36*
X98400Y212100D02*Y204900D01*
X105600D01*
Y212100D01*
X98400D01*
G37*
G36*
X70000Y207000D02*Y201000D01*
X76000D01*
Y207000D01*
X70000D01*
G37*
G54D15*X73000Y224000D03*
G54D13*X52528Y215339D03*
G54D11*G36*
X29500Y184000D02*Y178000D01*
X35500D01*
Y184000D01*
X29500D01*
G37*
G54D14*X31000Y192000D03*
G54D11*G36*
X43528Y192339D02*Y187339D01*
X48528D01*
Y192339D01*
X43528D01*
G37*
G54D14*X16028Y189839D03*
G54D17*X152000Y208500D03*
X132000Y198500D03*
G54D11*G36*
X104250Y175750D02*Y170250D01*
X109750D01*
Y175750D01*
X104250D01*
G37*
G36*
X119500Y190000D02*Y181000D01*
X128500D01*
Y190000D01*
X119500D01*
G37*
G54D13*X134000Y185500D03*
X144000D03*
X87500Y186000D03*
X97500D03*
G54D11*G36*
X73000Y90000D02*Y81000D01*
X82000D01*
Y90000D01*
X73000D01*
G37*
G54D13*X87500Y85500D03*
X97500D03*
G54D16*X87500Y18500D03*
X134000Y118500D03*
X45000Y63500D03*
G54D11*G36*
X43500Y119500D02*Y114500D01*
X48500D01*
Y119500D01*
X43500D01*
G37*
G54D20*X107000Y123000D03*
G54D11*G36*
X92000Y157500D02*Y151500D01*
X98000D01*
Y157500D01*
X92000D01*
G37*
G54D15*X95000Y144500D03*
G54D16*X42528Y148339D03*
X87500Y119000D03*
G54D11*G36*
X58500Y123000D02*Y118000D01*
X63500D01*
Y123000D01*
X58500D01*
G37*
G54D14*X31000Y120500D03*
G54D11*G36*
X30500Y135000D02*Y126000D01*
X39500D01*
Y135000D01*
X30500D01*
G37*
G54D13*X45000Y130500D03*
X55000D03*
G54D14*X16000Y117000D03*
G54D11*G36*
X168500Y124000D02*Y118000D01*
X174500D01*
Y124000D01*
X168500D01*
G37*
G54D15*X171500Y141000D03*
G54D11*G36*
X174750Y109250D02*Y103750D01*
X180250D01*
Y109250D01*
X174750D01*
G37*
G54D20*X177500Y86500D03*
G54D11*G36*
X157750Y109250D02*Y103750D01*
X163250D01*
Y109250D01*
X157750D01*
G37*
G54D20*X160500Y86500D03*
G54D11*G36*
X185250Y109250D02*Y103750D01*
X190750D01*
Y109250D01*
X185250D01*
G37*
G54D20*X188000Y86500D03*
G54D11*G36*
X157500Y69000D02*Y63000D01*
X163500D01*
Y69000D01*
X157500D01*
G37*
G54D21*X173000Y65000D03*
X183000D03*
X193000D03*
X203000D03*
G54D15*X160500Y76000D03*
G54D22*X168000Y40000D03*
G54D23*X159457Y27992D03*
G54D21*X178000Y75000D03*
X188000D03*
G54D22*X213000Y40000D03*
G54D23*X221465Y27992D03*
G54D21*X198000Y75000D03*
X208000D03*
G54D11*G36*
X175000Y57500D02*Y51500D01*
X181000D01*
Y57500D01*
X175000D01*
G37*
G54D15*X188000Y54500D03*
X198000D03*
G54D24*X20500Y343000D02*X24500D01*
X20500Y321200D02*X24500D01*
X45500Y343000D02*X49500D01*
X45500Y321200D02*X49500D01*
X93800Y345000D02*Y341000D01*
X72000Y345000D02*Y341000D01*
Y320000D02*Y316000D01*
X116000Y343000D02*X120000D01*
X93800Y320000D02*Y316000D01*
X116000Y321200D02*X120000D01*
G54D25*X65500Y262772D02*Y259228D01*
G54D26*X61661Y266610D02*X69339D01*
X61661Y255390D02*X69339D01*
Y266610D02*Y255390D01*
X61661Y266610D02*Y255390D01*
G54D25*X65500Y242299D02*Y238756D01*
G54D26*X61661Y234917D02*X69339D01*
Y246138D02*Y234917D01*
X61661Y246138D02*Y234917D01*
Y246138D02*X69339D01*
G54D27*X116500Y248255D02*Y242745D01*
X128310Y248255D02*Y242745D01*
G54D26*X84161Y241638D02*X91839D01*
G54D25*X88000Y258272D02*Y254728D01*
G54D26*X84161Y262110D02*X91839D01*
Y250890D01*
X84161Y262110D02*Y250890D01*
X91839D01*
G54D27*X209690Y305681D02*Y303319D01*
X221500Y305681D02*Y303319D01*
G54D28*X221500Y280893D02*Y280107D01*
X218352Y280893D02*Y280107D01*
G54D27*X193000Y335681D02*Y333319D01*
X204810Y335681D02*Y333319D01*
X193000Y345181D02*Y342819D01*
X204810Y345181D02*Y342819D01*
G54D25*X216500Y331772D02*Y328228D01*
G54D26*X212661Y324390D02*X220339D01*
X212661Y335610D02*X220339D01*
X212661D02*Y324390D01*
X220339Y335610D02*Y324390D01*
G54D25*X216500Y352244D02*Y348701D01*
G54D26*X212661Y356083D02*Y344862D01*
X220339Y356083D02*Y344862D01*
X212661D02*X220339D01*
X212661Y356083D02*X220339D01*
G54D25*X152000Y227299D02*Y223756D01*
Y247772D02*Y244228D01*
G54D26*X148161Y240390D02*X155839D01*
X148161Y251610D02*X155839D01*
X148161D02*Y240390D01*
X155839Y251610D02*Y240390D01*
X148161Y219917D02*X155839D01*
G54D25*X204000Y225299D02*Y221756D01*
G54D26*X200161Y229138D02*X207839D01*
X200161Y217917D02*X207839D01*
Y229138D02*Y217917D01*
X200161Y229138D02*Y217917D01*
X148161Y231138D02*X155839D01*
G54D27*X165745Y233690D02*X171255D01*
X165745Y245500D02*X171255D01*
G54D26*X148161Y231138D02*Y219917D01*
X155839Y231138D02*Y219917D01*
G54D27*X166190Y287255D02*Y281745D01*
X178000Y287255D02*Y281745D01*
G54D25*X204000Y245772D02*Y242228D01*
G54D26*X200161Y249610D02*X207839D01*
X200161Y238390D02*X207839D01*
Y249610D02*Y238390D01*
X200161Y249610D02*Y238390D01*
G54D27*X135000Y155681D02*Y153319D01*
X115500Y155681D02*Y153319D01*
X127310Y155681D02*Y153319D01*
G54D25*X119228Y139500D02*X122772D01*
G54D26*X115390Y143339D02*X126610D01*
Y135661D01*
X115390Y143339D02*Y135661D01*
G54D29*X116500Y109492D02*Y108508D01*
X121618Y109492D02*Y108508D01*
G54D26*X115390Y135661D02*X126610D01*
G54D30*X120250Y176500D02*X126750D01*
X120250Y171500D02*X126750D01*
X120250Y166500D02*X126750D01*
X120250Y161500D02*X126750D01*
G54D25*X139701Y139500D02*X143244D01*
G54D26*X147083Y143339D02*Y135661D01*
X135862Y143339D02*Y135661D01*
X147083D01*
X135862Y143339D02*X147083D01*
G54D27*X146810Y155681D02*Y153319D01*
G54D30*X140750Y161500D02*X147250D01*
X140750Y166500D02*X147250D01*
X140750Y171500D02*X147250D01*
G54D27*X153819Y169310D02*X156181D01*
G54D30*X140750Y176500D02*X147250D01*
G54D27*X153819Y176690D02*X156181D01*
G54D25*X169000Y185054D02*Y181511D01*
G54D26*X165161Y188893D02*X172839D01*
X165161Y177672D02*X172839D01*
Y188893D02*Y177672D01*
X165161Y188893D02*Y177672D01*
G54D27*X153819Y188500D02*X156181D01*
G54D25*X169000Y164581D02*Y161038D01*
G54D26*X165161Y168420D02*X172839D01*
Y157200D01*
X165161Y168420D02*Y157200D01*
X172839D01*
G54D27*X153819Y157500D02*X156181D01*
X26810Y253681D02*Y251319D01*
X15000Y253681D02*Y251319D01*
G54D29*X20118Y260992D02*Y260008D01*
X15000Y260992D02*Y260008D01*
G54D25*X88000Y237799D02*Y234256D01*
G54D26*X84161Y230417D02*X91839D01*
Y241638D02*Y230417D01*
X84161Y241638D02*Y230417D01*
G54D27*X84690Y223755D02*Y218245D01*
X96500Y223755D02*Y218245D01*
X24190Y195255D02*Y189745D01*
X36000Y195255D02*Y189745D01*
X15819Y183190D02*X18181D01*
X15819Y195000D02*X18181D01*
G54D25*X29228Y170500D02*X32772D01*
G54D26*X25390Y174339D02*Y166661D01*
X36610Y174339D02*Y166661D01*
X25390Y174339D02*X36610D01*
X25390Y166661D02*X36610D01*
G54D25*X49701Y170500D02*X53244D01*
G54D26*X45862Y174339D02*Y166661D01*
X57083Y174339D02*Y166661D01*
X45862Y174339D02*X57083D01*
X45862Y166661D02*X57083D01*
G54D27*X19304Y109393D02*Y108607D01*
X26390Y109393D02*Y108607D01*
X33080Y109255D02*Y103745D01*
G54D25*X20118Y91000D02*X23661D01*
G54D26*X16280Y94839D02*Y87161D01*
X27500Y94839D02*Y87161D01*
X16280Y94839D02*X27500D01*
X16280Y87161D02*X27500D01*
G54D27*X44890Y109255D02*Y103745D01*
G54D25*X60890Y111244D02*Y107701D01*
G54D26*X57051Y115083D02*X64728D01*
X57051Y103862D02*X64728D01*
Y115083D02*Y103862D01*
X57051Y115083D02*Y103862D01*
G54D25*X40591Y91000D02*X44134D01*
G54D26*X36752Y94839D02*Y87161D01*
X47972Y94839D02*Y87161D01*
X36752Y94839D02*X47972D01*
X36752Y87161D02*X47972D01*
G54D25*X60890Y90772D02*Y87228D01*
G54D26*X57051Y94610D02*X64728D01*
X57051Y83390D02*X64728D01*
Y94610D02*Y83390D01*
X57051Y94610D02*Y83390D01*
G54D31*X76900Y50000D02*Y47600D01*
X83000Y50000D02*Y47600D01*
X89100Y50000D02*Y47600D01*
G54D32*X80000Y61000D02*X86000D01*
G54D27*X90086Y40393D02*Y39607D01*
X83000Y40393D02*Y39607D01*
X101607Y40414D02*X102393D01*
X101607Y47500D02*X102393D01*
G54D33*X128500Y176500D03*
X139000D03*
X155000Y161500D03*
X169000Y162810D03*
X51472Y170500D03*
X119500Y154500D03*
X121000Y139500D03*
X127000Y103500D03*
X60890Y89000D03*
X71000Y48500D03*
X96000Y39500D03*
X42362Y91000D03*
X16000Y101000D03*
X47500Y321200D03*
X16500Y179000D03*
X65500Y240528D03*
X152000Y246000D03*
X88000Y236028D03*
X162000Y234500D03*
X204000Y223528D03*
X216500Y350472D03*
X210000Y359000D03*
X214000Y280000D03*
X93800Y318000D03*
G54D34*G54D35*G54D15*G54D35*G54D15*G54D35*G54D36*G54D35*G54D37*G54D35*G54D36*G54D38*G54D36*G54D35*G54D15*G54D37*G54D35*G54D36*G54D39*G54D36*G54D14*G54D39*G54D38*G54D39*G54D15*G54D14*G54D35*G54D38*G54D36*G54D15*G54D37*G54D15*G54D36*G54D35*G54D14*G54D36*G54D15*G54D36*G54D35*G54D36*G54D15*G54D37*G54D35*G54D36*G54D38*G54D37*G54D35*G54D15*G54D35*G54D36*G54D38*G54D40*G54D38*G54D41*G54D42*G54D40*G54D41*G54D42*G54D40*G54D43*M02*
